<svg width="119" height="178" viewBox="0 0 119 178" fill="none" xmlns="http://www.w3.org/2000/svg">
<g opacity="0.15" clip-path="url(#clip0_89_17)">
<path d="M37.557 80.2735H119V0H111.88C70.8293 0 37.557 32.7945 37.557 73.2555V80.2735Z" fill="#0181F5"/>
<path d="M41.2638 57.3278L46.7129 62.6986L51.3264 67.2371L51.5397 67.4474L66.4203 82.123L71.8694 87.4939L76.4829 92.0324L86.9632 102.362L91.5679 106.91L97.017 112.28L101.63 116.819L101.844 117.029L102.057 117.239L106.875 121.988L112.12 127.157L116.724 131.705L119 133.948V134.824L116.707 132.563L111.462 127.394L106.644 122.645L106.431 122.435L101.613 117.686L96.1636 112.315L91.559 107.768L86.1099 102.397L81.4964 97.85L56.1354 72.8533L55.9221 72.643L51.1041 67.8942L46.2862 63.1455L41.2549 58.1864L37.5658 54.5504V53.6742L41.2638 57.3278ZM46.2951 67.2459L46.5084 67.4562L46.7217 67.6665L71.4604 92.0499L76.4917 97.0089L96.5992 116.828L96.8125 117.038L97.0258 117.248L106.671 126.754L106.884 126.965L107.097 127.175L111.915 131.924L117.151 137.093L119 138.907V139.774L116.289 137.102L111.675 132.563L111.462 132.353L111.249 132.143L76.4473 97.8413L71.416 92.8822L65.9669 87.5114L61.3534 82.9641L55.9043 77.5933L51.2908 73.0461L51.0775 72.8358L50.8641 72.6255L46.2595 68.0782L41.2282 63.1192L37.5392 59.4831V58.607L46.2951 67.2459ZM41.2638 67.2459L41.6816 67.6577L46.4995 72.4065L61.8068 87.4939L66.4203 92.0324L71.4516 96.9914L91.5768 116.828L91.7901 117.038L92.0034 117.248L96.8214 121.997L101.853 126.956L102.066 127.166L106.884 131.915L119 143.866V144.742L111.257 137.111L106.644 132.572L106.431 132.362L101.613 127.613L96.5814 122.654L91.5501 117.695L86.101 112.324L81.4875 107.768L76.0384 102.397L71.4338 97.85L66.4025 92.891L60.9534 87.5202L50.8908 77.6021L46.2862 73.0548L41.2549 68.0958L37.5658 64.4685V63.5923L41.2638 67.2459ZM41.4771 72.4152L46.7129 77.5845L56.7755 87.4939L61.389 92.0324L66.4203 96.9914L71.8694 102.362L81.9319 112.289L86.5455 116.828L91.7901 121.997L96.6081 126.746L96.8214 126.956L97.0347 127.166L107.088 137.084L111.702 141.623L117.151 146.994L119 148.825V149.701L116.707 147.441L111.462 142.271L106.217 137.102L101.604 132.563L96.5725 127.604L91.5412 122.645L86.5099 117.686L81.0608 112.315L76.4473 107.768L70.9982 102.397L61.1401 92.6807L55.8954 87.5202L51.2819 82.9729L45.8328 77.6021L41.2193 73.0548L37.5303 69.4188V68.5426L41.4771 72.4152ZM41.6816 77.5758L46.2862 82.123L51.7353 87.4939L56.3488 92.0324L66.8292 102.362L71.4338 106.91L76.8829 112.28L81.4964 116.819L86.741 121.988L91.559 126.737L91.7723 126.947L91.9857 127.157L96.8036 131.906L102.048 137.076L106.662 141.614L112.111 146.985L116.715 151.532L119 153.784V154.66L111.675 147.441L111.462 147.23L111.249 147.02L101.186 137.102L96.5725 132.563L91.5412 127.604L86.5099 122.645L81.4786 117.686L76.0295 112.315L71.4249 107.768L65.9758 102.397L61.3623 97.85L61.1489 97.6398L60.9356 97.4295L56.1177 92.6807L50.873 87.5202L46.2684 82.9729L37.5481 74.3778V73.5016L41.6816 77.5758ZM41.2638 82.123L46.7129 87.4939L51.3264 92.0324L51.5397 92.2426L51.753 92.4529L66.4291 106.918L71.8782 112.289L76.4917 116.828L81.523 121.787L86.5543 126.746L91.799 131.915L97.0347 137.084L101.648 141.623L111.906 151.751L112.12 151.961L116.724 156.509L119 158.743V159.619L116.707 157.359L111.462 152.189L106.644 147.441L106.431 147.23L41.2371 82.9729L37.5481 79.3369V78.4607L41.2638 82.123ZM81.5142 126.754L86.7588 131.924L106.671 151.55L106.884 151.76L107.097 151.97L111.915 156.719L117.151 161.888L119 163.702V164.569L116.289 161.897L111.675 157.359L111.462 157.148L111.249 156.938L96.5725 142.473L91.1234 137.102L86.5099 132.563L81.4786 127.604L76.4473 122.645L71.416 117.686L65.9669 112.315L61.3534 107.768L55.9043 102.397L51.2908 97.85L51.0775 97.6398L50.8641 97.4295L46.2595 92.8822L40.8104 87.5114L37.5392 84.2871V83.411L81.5142 126.754ZM41.2638 92.0411L41.4771 92.2514L41.6904 92.4617L46.5084 97.2104L61.8156 112.298L66.4291 116.836L71.4604 121.795L76.4917 126.754L81.523 131.714L86.9721 137.084L106.884 156.71L112.129 161.88L116.733 166.418L119 168.661V169.537L111.257 161.906L106.644 157.367L106.431 157.157L101.613 152.408L96.5814 147.449L91.5501 142.49L86.101 137.119L81.4875 132.581L76.4562 127.622L71.4249 122.663L66.3936 117.704L60.9445 112.333L56.331 107.768L50.8819 102.397L46.2773 97.85L41.246 92.891L37.557 89.2637V88.3876L41.2638 92.0411ZM41.4771 97.2017L46.7129 102.371L56.7755 112.289L61.389 116.828L66.4203 121.787L71.4516 126.746L76.4829 131.705L81.9319 137.076L86.5455 141.614L91.9945 146.985L96.5992 151.532L96.8125 151.742L97.0258 151.953L101.844 156.701L107.088 161.871L111.702 166.409L117.151 171.78L119 173.62V174.496L106.226 161.906L101.613 157.367L96.5814 152.408L91.5501 147.449L81.0697 137.119L76.4562 132.581L71.4249 127.622L66.3936 122.663L61.1489 117.493L55.9043 112.333L51.2908 107.794L45.8417 102.424L41.2282 97.8763L37.5392 94.2403V93.3641L41.4771 97.2017ZM41.6816 102.371L46.2862 106.918L51.7353 112.289L56.3488 116.828L56.7755 117.248L61.389 121.795L66.4203 126.754L71.4516 131.714L76.9007 137.084L81.5142 141.623L86.9632 146.994L91.5679 151.541L91.7812 151.751L91.9945 151.961L96.8125 156.71L102.057 161.88L106.671 166.418L112.12 171.789L116.724 176.336L118.413 178.001H117.524L101.186 161.897L96.5725 157.359L91.5412 152.4L86.5099 147.441L81.4786 142.481L56.1177 117.485L50.873 112.324L37.5481 99.1906V98.3144L41.6816 102.371ZM41.2638 106.918L46.7129 112.289L51.3264 116.828L51.5397 117.038L51.753 117.248L56.571 121.997L61.389 126.746L66.4203 131.705L71.8694 137.076L76.4829 141.614L86.7499 151.751L86.9632 151.961L91.7812 156.71L97.017 161.88L101.63 166.418L107.08 171.789L111.693 176.336L111.906 176.546L112.12 176.757L113.382 178.001H112.493L111.462 176.985L106.217 171.815L76.4473 142.473L70.9982 137.102L66.3847 132.563L56.3221 122.645L56.1088 122.435L55.8954 122.225L41.2371 107.768L37.5481 104.132V103.256L41.2638 106.918ZM41.6816 112.289L56.7755 127.166L61.389 131.714L66.8381 137.084L81.5142 151.55L86.7588 156.719L92.0034 161.888L96.6081 166.427L102.057 171.798L106.671 176.345L108.36 178.01H107.471L106.44 176.993L101.195 171.824L96.5903 167.277L91.1412 161.906L86.5277 157.367L81.4964 152.408L76.4651 147.449L71.4338 142.49L65.9847 137.119L61.3712 132.581L50.8908 122.251L46.2862 117.704L40.8371 112.333L37.5658 109.109V108.233L41.6816 112.289ZM41.2638 116.828L41.4771 117.038L41.6904 117.248L46.5084 121.997L51.3264 126.746L51.5397 126.956L51.753 127.166L61.8156 137.084L66.4291 141.623L71.8782 146.994L76.4917 151.541L81.523 156.5L91.5856 166.418L97.0347 171.789L101.648 176.336L101.862 176.546L103.337 178.001H102.448L96.1814 171.824L91.5768 167.277L86.1277 161.906L81.5142 157.367L76.4829 152.408L71.4516 147.449L60.9712 137.119L56.3577 132.581L56.1443 132.371L55.931 132.16L51.113 127.412L46.2951 122.663L41.2638 117.704L37.5747 114.076V113.2L41.2638 116.828ZM41.4771 121.997L46.2951 126.746L56.7755 137.084L61.389 141.623L66.8381 146.994L71.4427 151.541L81.9319 161.88L86.5455 166.418L91.9945 171.789L96.5992 176.336L98.2881 178.001H97.3992L96.5814 177.195L91.1323 171.824L81.0697 161.906L76.4562 157.367L71.4249 152.408L66.3936 147.449L55.9132 137.119L51.2997 132.581L50.8819 132.169L46.2773 127.622L41.246 122.663L37.557 119.027V118.151L41.4771 121.997ZM41.2638 126.754L41.4771 126.965L41.6904 127.175L46.5084 131.924L51.753 137.093L56.3666 141.632L66.4291 151.55L71.4604 156.509L76.9095 161.88L81.523 166.418L86.9721 171.789L91.5768 176.336L91.7901 176.546L93.2657 178.001H92.3768L91.559 177.195L86.1099 171.824L81.4964 167.277L41.2549 127.613L37.5658 123.977V123.101L41.2638 126.754ZM41.4771 131.915L46.7129 137.084L51.3264 141.623L66.4203 156.5L71.8694 161.871L76.4829 166.409L81.9319 171.78L86.5455 176.327L86.7588 176.538L86.9721 176.748L88.2344 177.992H87.3455L76.4651 167.268L71.016 161.897L66.4025 157.359L56.3399 147.441L56.1265 147.23L55.9132 147.02L51.0952 142.271L45.8595 137.102L41.246 132.563L37.557 128.927V128.051L41.4771 131.915ZM41.6816 137.084L56.571 151.751L56.7755 151.953L71.4516 166.418L76.9007 171.789L81.5142 176.336L83.2031 178.001H82.3142L81.4964 177.195L76.0473 171.824L71.4427 167.277L65.9936 161.906L61.3801 157.367L50.8997 147.037L46.2951 142.49L40.846 137.119L37.5747 133.904V133.028L41.6816 137.084ZM41.2638 141.623L46.7129 146.994L51.7441 151.953L56.5621 156.701L61.8068 161.871L66.4203 166.409L71.8694 171.78L76.4829 176.327L78.1718 177.992H77.2829L76.4651 177.186L71.016 171.815L60.9534 161.897L56.3399 157.359L56.1265 157.148L55.9132 156.938L51.0952 152.189L46.2773 147.441L41.246 142.481L37.557 138.845V137.969L41.2638 141.623ZM41.6816 146.994L46.2862 151.541L46.4995 151.751L46.7129 151.961L51.5308 156.71L56.7755 161.88L61.389 166.418L66.8381 171.789L71.4427 176.336L73.1316 178.001H72.2427L71.4249 177.195L65.9758 171.824L61.3623 167.277L55.9132 161.906L51.2997 157.367L50.8819 156.956L46.2773 152.408L41.246 147.449L37.557 143.813V142.937L41.6816 146.994ZM41.2638 151.541L41.4771 151.751L41.6904 151.961L46.5084 156.71L51.753 161.88L56.3666 166.418L61.8156 171.789L66.4291 176.336L68.1181 178.001H67.2292L41.2549 152.4L37.5658 148.764V147.887L41.2638 151.541ZM41.4771 156.71L46.7129 161.88L51.3264 166.418L56.7755 171.789L61.389 176.336L63.0779 178.001H62.189L61.1578 176.985L55.9132 171.815L51.2997 167.268L45.8506 161.897L41.2371 157.359L37.5481 153.723V152.846L41.4771 156.71ZM46.2951 166.418L51.7441 171.789L56.3577 176.336L56.571 176.546L56.7755 176.748L58.0377 177.992H57.1488L56.1177 176.976L50.873 171.806L46.2684 167.259L40.8193 161.888L37.5481 158.673V157.797L46.2951 166.418ZM41.2638 166.418L46.7129 171.789L51.3264 176.336L51.5397 176.546L53.0153 178.001H52.1264L51.0863 176.985L45.8506 171.815L41.2371 167.268L37.5481 163.632V162.756L41.2638 166.418ZM41.6816 171.789L46.2862 176.336L46.4995 176.546L46.7129 176.757L47.9751 178.001H47.0862L40.8193 171.824L37.5481 168.6V167.724L41.6816 171.789ZM42.9527 178.001H42.0638L41.246 177.195L37.557 173.559V172.683L42.9527 178.001ZM37.9214 178.001H37.557V177.642L37.9214 178.001ZM116.529 52.176L119 54.6117V55.4879L115.64 52.176H116.529ZM111.497 52.176L111.702 52.3775L112.12 52.7893L116.724 57.3366L119 59.5708V60.4469L116.707 58.1864L111.675 53.2274L110.609 52.176H111.497ZM106.466 52.176L106.671 52.3775L107.088 52.7893L111.702 57.3366L117.151 62.7074L119 64.5298V65.406L106.644 53.2274L106.226 52.8156L105.577 52.176H106.466ZM101.435 52.176L106.671 57.3366L112.12 62.7074L116.724 67.2459L119 69.4889V70.365L116.707 68.1045L111.675 63.1455L100.546 52.176H101.435ZM96.4036 52.176L96.6081 52.3775L97.0258 52.7893L107.088 62.6986L111.702 67.2371L111.915 67.4474L112.129 67.6577L116.733 72.2049L119 74.4479V75.3241L116.707 73.0636L111.462 67.8942L106.644 63.1455L106.502 63.0053L106.226 62.7337L101.613 58.1864L95.5147 52.176H96.4036ZM91.3723 52.176L91.5768 52.3775L92.0034 52.7893L96.6081 57.3366L102.057 62.7074L106.671 67.2459L111.915 72.4152L117.151 77.5845L119 79.4069V80.2831L116.289 77.6108L111.471 72.8621L111.257 72.6518L106.44 67.903L101.622 63.1542L96.5903 58.1952L91.559 53.2361L90.4923 52.1848H91.3723V52.176ZM86.341 52.176L86.5455 52.3775L86.9632 52.7893L91.5679 57.3366L97.017 62.7074L101.63 67.2459L101.844 67.4562L102.057 67.6665L106.875 72.4152L112.12 77.5845L116.724 82.1318L119 84.366V85.2422L101.613 68.1045L96.5814 63.1455L91.5501 58.1864L85.4521 52.176H86.341ZM81.3097 52.176L111.702 82.123L117.151 87.4939L119 89.325V90.2012L116.289 87.5289L101.613 73.0636L96.5814 68.1045L91.5501 63.1455L86.5188 58.1864L81.4875 53.2274L80.4208 52.176H81.3097ZM76.2784 52.176L76.4829 52.3775L81.5142 57.3366L91.5679 67.2459L91.7812 67.4562L91.9945 67.6665L96.8125 72.4152L102.057 77.5845L106.671 82.1318L112.12 87.5026L116.724 92.0411L119 94.2753V95.1515L116.707 92.891L111.257 87.5202L96.5814 73.0548L91.5501 68.0958L86.5188 63.1367L75.3895 52.1672H76.2784V52.176ZM71.2471 52.176L81.9319 62.6986L86.5455 67.2371L86.7588 67.4474L86.9721 67.6577L91.7901 72.4065L97.0258 77.5758L107.088 87.4939L111.702 92.0324L112.12 92.4442L116.724 96.9914L119 99.2431V100.119L116.707 97.8588L111.462 92.6895L106.217 87.5289L96.1547 77.6021L91.5501 73.0548L86.5188 68.0958L81.4875 63.1367L76.4562 58.1777L71.4249 53.2186L70.3582 52.1672H71.2471V52.176ZM66.2247 52.176L66.4291 52.3775L71.4604 57.3366L76.9095 62.7074L81.523 67.2459L86.7677 72.4152L92.0123 77.5845L96.6169 82.1318L102.066 87.5026L106.68 92.0411L106.893 92.2514L107.106 92.4617L111.924 97.2104L117.16 102.38L119 104.202V105.078L106.431 92.6895L101.186 87.5289L96.5814 82.9817L91.1323 77.6108L81.4875 68.0958L76.4562 63.1367L71.4249 58.1777L65.3269 52.1672H66.2247V52.176ZM61.1934 52.176L66.4291 57.3366L71.8782 62.7074L76.4917 67.2459L86.9632 77.5758L91.5679 82.123L97.017 87.4939L101.63 92.0324L101.844 92.2426L102.057 92.4529L106.875 97.2017L112.12 102.371L116.724 106.918L119 109.161V110.037L106.431 97.6485L106.217 97.4383L101.604 92.891L96.1547 87.5202L91.5501 82.9729L86.101 77.6021L81.4875 73.0548L76.4562 68.0958L71.4249 63.1367L66.3936 58.1777L61.3623 53.2186L60.2956 52.1672H61.1934V52.176ZM56.1532 52.176L56.3577 52.3775L56.7755 52.7805L71.4516 67.2459L76.4829 72.2049L96.5992 92.0411L96.8125 92.2514L97.0258 92.4617L111.702 106.918L117.151 112.289L119 114.12V114.996L76.4562 73.0636L71.4249 68.1045L66.3936 63.1455L55.2643 52.176H56.1532ZM51.1219 52.176L61.8068 62.6986L66.4203 67.2371L71.4516 72.1962L91.5768 92.0324L91.7901 92.2426L92.0034 92.4529L96.8214 97.2017L102.066 102.371L106.68 106.918L112.129 112.289L116.733 116.828L119 119.071V119.947L116.707 117.686L111.257 112.315L106.644 107.768L96.5814 97.85L91.5501 92.891L86.101 87.5202L81.4875 82.9729L76.0384 77.6021L71.4338 73.0548L66.4025 68.0958L61.3712 63.1367L60.9534 62.7249L55.9221 57.7659L51.3086 53.2186L50.2419 52.1672H51.1219V52.176ZM46.0906 52.176L46.2951 52.3775L46.7129 52.7893L56.7755 62.6986L61.389 67.2371L66.4203 72.1962L71.8694 77.567L81.9319 87.4939L86.5455 92.0324L91.7901 97.2017L97.0258 102.371L107.088 112.289L111.702 116.828L112.12 117.239L116.724 121.787L119 124.03V124.906L116.707 122.645L111.462 117.476L106.217 112.315L101.604 107.777L96.1547 102.406L91.5501 97.8588L86.5188 92.8998L81.0697 87.5289L76.4562 82.9817L71.0071 77.6108L61.1489 67.8942L56.331 63.1455L50.8819 57.7746L46.2773 53.2274L45.2106 52.176H46.0906ZM41.0682 52.176L41.2727 52.3775L41.6904 52.7893L46.2951 57.3366L51.7441 62.7074L56.3577 67.2459L56.571 67.4562L56.7755 67.6577L66.8381 77.5758L71.4427 82.123L76.8918 87.4939L81.5053 92.0324L86.7499 97.2017L91.9945 102.371L96.5992 106.918L102.048 112.289L106.662 116.828L106.875 117.038L107.088 117.248L111.906 121.997L116.724 126.746L119 128.989V129.865L111.675 122.645L111.462 122.435L111.249 122.225L106.431 117.476L101.186 112.315L96.5814 107.768L91.1323 102.397L86.5188 97.85L81.4875 92.891L76.0384 87.5202L71.4338 82.9729L65.9847 77.6021L61.3712 73.0548L61.1578 72.8445L60.9445 72.6343L56.1265 67.8855L51.3086 63.1367L50.8908 62.7249L46.2862 58.1777L40.1882 52.1672H41.0682V52.176Z" fill="#32B4B4"/>
<path d="M69.2021 178.001H75.8335V171.464C75.8335 133.798 44.8546 103.256 6.63091 103.256H-0.000442505V109.792C-0.000442505 147.466 30.9874 178.001 69.2021 178.001Z" fill="#32B4B4"/>
<path d="M98.466 79.6076C88.0384 79.6076 79.5853 71.2758 79.5853 60.998C79.5853 50.7202 88.0384 42.3884 98.466 42.3884C108.894 42.3884 117.347 50.7202 117.347 60.998C117.347 71.2758 108.894 79.6076 98.466 79.6076Z" fill="#010F34"/>
</g>
<defs>
<clipPath id="clip0_89_17">
<rect width="119" height="178" fill="white" transform="matrix(-1 0 0 1 119 0)"/>
</clipPath>
</defs>
</svg>
