<svg width="98" height="98" viewBox="0 0 98 98" fill="none" xmlns="http://www.w3.org/2000/svg">
<g opacity="0.25">
<path d="M11.4686 32.0129L2.77597 28.5173L1.52282 31.6336L10.2155 35.1291L6.71982 43.8218L9.83604 45.075L13.3317 36.3823L22.0243 39.878L23.2775 36.7618L14.5848 33.2661L18.0805 24.5735L14.9642 23.3203L11.4686 32.0129Z" fill="#0719B9"/>
<path d="M37.2255 21.0316L28.5328 17.536L27.2797 20.6522L35.9723 24.1478L32.4767 32.8405L35.5929 34.0936L39.0885 25.401L47.7812 28.8966L49.0343 25.7804L40.3417 22.2847L43.8373 13.5922L40.7211 12.339L37.2255 21.0316Z" fill="#0719B9"/>
<path d="M62.9816 10.0486L54.2889 6.55298L53.0358 9.6692L61.7284 13.1648L58.2328 21.8575L61.349 23.1106L64.8446 14.4179L73.5373 17.9136L74.7904 14.7974L66.0978 11.3017L69.5934 2.60913L66.4772 1.35598L62.9816 10.0486Z" fill="#0719B9"/>
<path d="M22.3177 57.8275L13.6251 54.3319L12.3719 57.4481L21.0646 60.9437L17.5689 69.6364L20.6852 70.8895L24.1808 62.1968L32.8734 65.6925L34.1266 62.5763L25.434 59.0806L28.9296 50.3881L25.8134 49.1349L22.3177 57.8275Z" fill="#0719B9"/>
<path d="M48.0746 46.8462L39.3819 43.3506L38.1288 46.4668L46.8214 49.9624L43.3258 58.6551L46.442 59.9082L49.9377 51.2155L58.6303 54.7112L59.8834 51.595L51.1908 48.0993L54.6864 39.4067L51.5702 38.1536L48.0746 46.8462Z" fill="#0719B9"/>
<path d="M73.8307 35.8631L65.138 32.3676L63.8849 35.4838L72.5775 38.9793L69.0819 47.672L72.1981 48.9252L75.6938 40.2325L84.3864 43.7282L85.6395 40.612L76.9469 37.1163L80.4425 28.4237L77.3263 27.1706L73.8307 35.8631Z" fill="#0719B9"/>
<path d="M33.3004 83.5847L24.6078 80.0891L23.3546 83.2053L32.0473 86.7009L28.5516 95.3936L31.6678 96.6467L35.1635 87.9541L43.8561 91.4497L45.1092 88.3335L36.4166 84.8378L39.9122 76.1453L36.796 74.8921L33.3004 83.5847Z" fill="#0719B9"/>
<path d="M59.0572 72.6035L50.3646 69.1079L49.1114 72.2241L57.8041 75.7197L54.3084 84.4124L57.4247 85.6655L60.9203 76.9728L69.6129 80.4685L70.8661 77.3523L62.1735 73.8566L65.6691 65.1641L62.5529 63.9109L59.0572 72.6035Z" fill="#0719B9"/>
<path d="M84.8134 61.6203L76.1207 58.1248L74.8676 61.241L83.5602 64.7365L80.0645 73.4292L83.1808 74.6824L86.6764 65.9897L95.369 69.4854L96.6222 66.3692L87.9296 62.8735L91.4252 54.1809L88.309 52.9278L84.8134 61.6203Z" fill="#0719B9"/>
</g>
</svg>
