<svg width="135" height="24" viewBox="0 0 135 24" fill="none" xmlns="http://www.w3.org/2000/svg">
<path fill-rule="evenodd" clip-rule="evenodd" d="M130.513 22.5642C127.495 21.5394 122.242 20.9959 116.389 21.1819C114.409 21.2182 112.551 21.0983 112.239 20.8529C111.528 20.2844 112.215 18.5251 113.275 18.2963C114.399 18.0307 118.707 17.9703 121.461 18.1683C122.756 18.2724 123.749 18.2953 123.675 18.1675C123.619 18.0718 121.983 17.2283 120.095 16.3176C108.325 10.6808 93.3007 6.41212 79.4726 4.73132C64.0475 2.86529 53.0354 4.07149 23.5765 10.8615C7.21594 14.602 0.247758 16.0283 0.0449318 15.677C-0.0472129 15.5174 0.00679938 15.3158 0.166399 15.2236C0.964706 14.7627 18.3099 9.26135 24.1246 7.60742C49.8405 0.381242 63.4207 -1.24325 80.4614 0.83962C95.0401 2.64066 109.621 6.95257 121.927 13.0031C124.705 14.4222 125.529 14.6699 124.964 14.0598C124.574 13.6041 123.271 11.7167 122.037 9.87452C119.675 6.29942 119.48 5.51823 120.789 4.76236C121.906 4.11717 122.626 4.55304 123.751 6.50065C124.341 7.52246 125.934 9.83851 127.35 11.7029C135.295 22.1453 135.258 22.0814 134.073 22.9785C133.471 23.4107 132.758 23.3543 130.513 22.5642Z" fill="#D5C5EF"/>
</svg>
