<svg width="75" height="27" viewBox="0 0 75 27" fill="none" xmlns="http://www.w3.org/2000/svg">
<path d="M11.0311 6.00836C11.861 5.74203 12.7488 5.59743 13.6725 5.59743C17.7039 5.59743 21.0667 8.34719 21.8381 12L27.5509 10.8815C26.2401 4.67328 20.5253 0 13.6725 0C12.1036 0 10.5934 0.245425 9.18359 0.697531L11.0311 6.00836Z" fill="#FECA2F"/>
<path d="M4.2325 24.0001L7.65306 19.6769C6.12622 18.1652 5.16254 15.9583 5.16254 13.4983C5.16254 11.0401 6.12532 8.83317 7.65172 7.32265L4.22936 3C1.63493 5.56829 0 9.31986 0 13.4983C0 17.6789 1.63733 21.4318 4.2325 24.0001Z" fill="#1BA7DE"/>
<path d="M21.8399 15C21.0658 18.6522 17.7052 21.3986 13.6773 21.3986C12.7532 21.3986 11.8637 21.2536 11.0337 20.9864L9.18359 26.3C10.5955 26.7543 12.1062 27 13.6773 27C20.5238 27 26.2349 22.33 27.5509 16.1241L21.8399 15Z" fill="#EC412A"/>
<path fill-rule="evenodd" clip-rule="evenodd" d="M55.0368 3V18.3638L57.8535 19.4689L56.521 22.4992L53.7355 21.4032C53.1092 21.1462 52.6854 20.7545 52.3633 20.3121C52.0541 19.8595 51.8248 19.2409 51.8248 18.4061V3H55.0368ZM33.6744 14.419C33.7443 10.0254 37.5669 6.51822 42.2052 6.58553C46.142 6.64397 49.4039 9.25397 50.2606 12.7254L35.0344 18.8851C34.15 17.6053 33.6473 16.0656 33.6744 14.419ZM37.1582 15.0348C37.1373 14.8505 37.1226 14.6615 37.1281 14.4708C37.1718 11.8822 39.4223 9.81669 42.155 9.85959C43.6425 9.8784 44.9634 10.5231 45.8562 11.521L37.1582 15.0348ZM45.5359 17.8873C44.6183 18.7322 43.3738 19.247 41.9998 19.2285C41.058 19.2136 40.1854 18.9467 39.4434 18.502L37.604 21.2762C38.8637 22.0298 40.3491 22.4758 41.9504 22.4992C44.2813 22.532 46.4058 21.6654 47.9506 20.2343L45.5359 17.8873ZM66.7598 9.85944C66.2112 9.85944 65.6839 9.94337 65.1912 10.0999L64.0952 6.99126C64.9317 6.72687 65.8276 6.58325 66.7598 6.58325C70.828 6.58325 74.2218 9.31854 75 12.9521L71.6072 13.6067C71.1501 11.4683 69.1535 9.85944 66.7598 9.85944ZM61.1888 20.5025L63.4813 18.0487C62.4574 17.1908 61.8126 15.9377 61.8126 14.541C61.8126 13.1457 62.4574 11.8932 63.4803 11.0358L61.1861 8.58204C59.4469 10.04 58.3511 12.1703 58.3511 14.541C58.3511 16.9146 59.4477 19.0441 61.1888 20.5025ZM66.7595 19.2241C69.1511 19.2241 71.1473 17.6167 71.6071 15.4813L74.9989 16.1388C74.2169 19.7684 70.8241 22.5 66.7595 22.5C65.8266 22.5 64.9296 22.3559 64.0908 22.0903L65.1894 18.9827C65.6829 19.1388 66.2106 19.2241 66.7595 19.2241Z" fill="black"/>
</svg>
