<svg width="200" height="60" viewBox="0 0 200 60" fill="none" xmlns="http://www.w3.org/2000/svg">
<g clip-path="url(#clip0_47_177)">
<path d="M45.3401 14.3688L27.2446 3.9224C25.6816 3.01936 23.1275 3.01936 21.5645 3.9224L3.46898 14.3688C1.90602 15.2718 0.628906 17.484 0.628906 19.2874V40.1829C0.628906 41.9864 1.90602 44.2012 3.46898 45.1016L21.5645 55.548C23.1275 56.451 25.6816 56.451 27.2446 55.548L45.3401 45.1016C46.9031 44.1985 48.1801 41.9864 48.1801 40.1829V19.2874C48.1801 17.484 46.9004 15.2691 45.3401 14.3688ZM33.3708 33.0147L34.6452 28.764L24.4018 43.0042L14.1905 28.764L15.4623 33.0147L6.07925 39.2371L14.1825 16.426L24.3859 29.7686L24.4152 29.8033L34.6506 16.4287L42.7218 39.2398L33.3655 33.0174L33.3708 33.0147Z" fill="#17012C"/>
<path d="M64.8086 21.8923H68.7975L73.2192 29.0044L77.6409 21.8923H81.6297V38.7134H77.9535V27.73L73.2192 34.9143H73.123L68.4368 27.8021V38.7108H64.8086V21.8896V21.8923Z" fill="#17012C"/>
<path d="M84.6562 32.3469V32.2988C84.6562 28.5985 87.6352 25.5928 91.6481 25.5928C95.661 25.5928 98.5946 28.5477 98.5946 32.2507V32.2988C98.5946 35.9991 95.6156 39.0021 91.6 39.0021C87.5845 39.0021 84.6562 36.0472 84.6562 32.3469ZM94.9904 32.3469V32.2988C94.9904 30.3992 93.6199 28.7427 91.6027 28.7427C89.5856 28.7427 88.2631 30.3538 88.2631 32.2507V32.2988C88.2631 34.1984 89.6336 35.8548 91.6508 35.8548C93.6679 35.8548 94.9904 34.2438 94.9904 32.3469Z" fill="#17012C"/>
<path d="M104.89 37.0332V38.7164H101.238V21.1738H104.89V27.6875C105.78 26.4852 107.007 25.5955 108.903 25.5955C111.906 25.5955 114.768 27.952 114.768 32.2534V32.3016C114.768 36.603 111.957 38.9568 108.903 38.9568C106.956 38.9568 105.756 38.0671 104.89 37.0332ZM111.116 32.2989V32.2508C111.116 30.1107 109.673 28.6948 107.968 28.6948C106.264 28.6948 104.845 30.1134 104.845 32.2508V32.2989C104.845 34.4363 106.264 35.8549 107.968 35.8549C109.673 35.8549 111.116 34.4603 111.116 32.2989Z" fill="#17012C"/>
<path d="M117.531 21.1709H121.376V24.4144H117.531V21.1709ZM117.627 25.833H121.28V38.7134H117.627V25.833Z" fill="#17012C"/>
<path d="M124.883 21.1709H128.535V38.7134H124.883V21.1709Z" fill="#17012C"/>
<path d="M131.348 32.3469V32.2988C131.348 28.6225 133.966 25.5928 137.717 25.5928C142.019 25.5928 143.99 28.9324 143.99 32.5873C143.99 32.8759 143.966 33.2125 143.942 33.5492H134.979C135.339 35.2083 136.493 36.0712 138.126 36.0712C139.352 36.0712 140.239 35.6865 141.249 34.7488L143.341 36.6002C142.139 38.0911 140.41 39.0021 138.078 39.0021C134.209 39.0021 131.348 36.2877 131.348 32.3469ZM140.431 31.2648C140.215 29.6297 139.253 28.5263 137.714 28.5263C136.175 28.5263 135.216 29.6084 134.928 31.2648H140.431Z" fill="#17012C"/>
<path d="M151.006 25.3044H145.887V21.8926H159.825V25.3044H154.706V38.7138H151.006V25.3044Z" fill="#17012C"/>
<path d="M159.125 32.3469V32.2988C159.125 28.6225 161.743 25.5928 165.494 25.5928C169.796 25.5928 171.768 28.9324 171.768 32.5873C171.768 32.8759 171.744 33.2125 171.72 33.5492H162.756C163.117 35.2083 164.271 36.0712 165.903 36.0712C167.129 36.0712 168.019 35.6865 169.026 34.7488L171.118 36.6002C169.916 38.0911 168.187 39.0021 165.855 39.0021C161.986 39.0021 159.125 36.2877 159.125 32.3469ZM168.209 31.2648C167.992 29.6297 167.031 28.5263 165.494 28.5263C163.958 28.5263 162.994 29.6084 162.708 31.2648H168.212H168.209Z" fill="#17012C"/>
<path d="M173.855 32.3469V32.2988C173.855 28.6225 176.666 25.5928 180.61 25.5928C183.035 25.5928 184.55 26.4103 185.753 27.7569L183.519 30.1588C182.702 29.2931 181.884 28.7401 180.588 28.7401C178.761 28.7401 177.465 30.3511 177.465 32.248V32.2961C177.465 34.2679 178.739 35.8521 180.732 35.8521C181.959 35.8521 182.8 35.3232 183.687 34.4816L185.825 36.6457C184.574 38.0163 183.134 38.9994 180.561 38.9994C176.693 38.9994 173.855 36.0205 173.855 32.3442V32.3469Z" fill="#17012C"/>
<path d="M188.203 21.1709H191.855V27.6605C192.697 26.5785 193.779 25.5926 195.628 25.5926C198.39 25.5926 200.001 27.42 200.001 30.375V38.7134H196.349V31.5292C196.349 29.7979 195.532 28.9109 194.14 28.9109C192.748 28.9109 191.858 29.8006 191.858 31.5292V38.7134H188.206V21.1709H188.203Z" fill="#17012C"/>
</g>
<defs>
<clipPath id="clip0_47_177">
<rect width="200" height="60" fill="white"/>
</clipPath>
</defs>
</svg>
