<svg width="200" height="60" viewBox="0 0 200 60" fill="none" xmlns="http://www.w3.org/2000/svg">
<g opacity="1" clip-path="url(#clip0_47_161)">
<path d="M61.2305 22.1221H66.0306V29.1407H72.1917V22.1221H76.9918V40.8708H72.1917V33.7486H66.0306V40.8708H61.2305V22.1221Z" fill="#17012C"/>
<path d="M80.2109 31.5481V31.4964C80.2109 26.1125 84.2206 21.7461 89.5657 21.7461C94.9108 21.7461 98.8727 26.0573 98.8727 31.4412V31.4964C98.8727 36.8803 94.863 41.2432 89.5179 41.2432C84.1728 41.2432 80.2109 36.932 80.2109 31.5481ZM93.9706 31.5481V31.4964C93.9706 28.7924 92.1634 26.4333 89.5147 26.4333C86.8661 26.4333 85.1353 28.7372 85.1353 31.4412V31.4964C85.1353 34.2004 86.9426 36.5595 89.5657 36.5595C92.1889 36.5595 93.9706 34.2556 93.9706 31.5516V31.5481Z" fill="#17012C"/>
<path d="M102.116 22.1226H106.917V36.3152H115.306V40.8678H102.113V22.1191L102.116 22.1226Z" fill="#17012C"/>
<path d="M118.102 22.1221H124.785C130.972 22.1221 134.561 25.978 134.561 31.3895V31.4447C134.561 36.8561 130.924 40.8708 124.687 40.8708H118.102V22.1221ZM124.859 36.2629C127.73 36.2629 129.636 34.5488 129.636 31.524V31.4723C129.636 28.4716 127.73 26.7299 124.859 26.7299H122.905V36.2629H124.859Z" fill="#17012C"/>
<path d="M137.875 22.1221H142.701V40.8708H137.875V22.1221Z" fill="#17012C"/>
<path d="M146.613 22.1221H151.091L158.218 32.031V22.1221H162.97V40.8708H158.763L151.362 30.5859V40.8708H146.609V22.1221H146.613Z" fill="#17012C"/>
<path d="M166.187 31.5481V31.4964C166.187 26.0332 170.145 21.7461 175.516 21.7461C178.56 21.7461 180.715 22.7635 182.544 24.4777L179.723 28.1474C178.487 27.023 177.247 26.3815 175.542 26.3815C173.043 26.3815 171.111 28.6579 171.111 31.524V31.5757C171.111 34.6039 173.065 36.7733 175.812 36.7733C176.976 36.7733 177.868 36.5043 178.585 35.9973V33.721H175.169V29.9167H183.137V38.353C181.304 39.9878 178.758 41.2467 175.612 41.2467C170.216 41.2467 166.184 37.2286 166.184 31.5516L166.187 31.5481Z" fill="#17012C"/>
<path d="M185.242 38.0854L187.916 34.6295C189.625 36.1022 191.531 36.8782 193.536 36.8782C194.823 36.8782 195.515 36.3954 195.515 35.5918V35.5366C195.515 34.7606 194.944 34.3329 192.595 33.7431C188.908 32.8326 186.061 31.7082 186.061 27.8522V27.8005C186.061 24.3205 188.611 21.8027 192.767 21.8027C195.713 21.8027 198.014 22.6581 199.894 24.2929L197.494 27.9626C195.91 26.7589 194.179 26.114 192.643 26.114C191.48 26.114 190.909 26.6486 190.909 27.3211V27.3763C190.909 28.2316 191.502 28.6076 193.905 29.1974C197.889 30.1355 200.366 31.5254 200.366 35.0365V35.0917C200.366 38.92 197.571 41.1964 193.36 41.1964C190.291 41.1964 187.371 40.1513 185.242 38.0888V38.0854Z" fill="#17012C"/>
<path d="M13.9987 30.0015C13.9987 21.348 7.71968 14.3086 0 14.3086V19.7856C5.0264 19.7856 9.11573 24.3693 9.11573 30.0049C9.11573 35.6406 5.0264 40.2243 0 40.2243V45.6978C7.71968 45.6978 13.9987 38.6584 13.9987 30.0049V30.0015Z" fill="#17012C"/>
<path d="M36.1328 30.003C36.1328 38.6565 42.4118 45.6959 50.1315 45.6959V40.2223C45.1051 40.2223 41.019 35.6386 41.019 30.003C41.019 24.3673 45.1083 19.7836 50.1315 19.7836V14.3066C42.415 14.3066 36.1328 21.3495 36.1328 29.9995V30.003Z" fill="#17012C"/>
<path d="M0 49.5266V55.0001C9.852 55.0001 18.2251 47.7986 21.167 37.8449H28.9632C31.9051 47.7986 40.2781 55.0001 50.1301 55.0001V49.5266C41.2694 49.5266 33.9481 42.063 32.8676 32.4541H17.2625C16.1788 42.0664 8.86074 49.5266 0 49.5266Z" fill="#17012C"/>
<path d="M28.9632 22.1553H21.167C18.2251 12.2015 9.852 5 0 5V10.4735C8.84799 10.4735 16.1565 17.913 17.2561 27.5012H32.874C33.9736 17.913 41.2853 10.4735 50.1301 10.4735V5C40.2813 5 31.9051 12.2015 28.9632 22.1553Z" fill="#17012C"/>
</g>
<defs>
<clipPath id="clip0_47_161">
<rect width="200" height="60" fill="white"/>
</clipPath>
</defs>
</svg>
