<svg width="200" height="60" viewBox="0 0 200 60" fill="none" xmlns="http://www.w3.org/2000/svg">
<g opacity="1" clip-path="url(#clip0_47_202)">
<path d="M12.6641 48.2483C12.6641 50.265 14.1628 51.9131 15.9937 51.9131C17.8246 51.9131 19.3234 50.265 19.3234 48.2483V18.7292C19.3234 16.7125 17.8246 15.0645 15.9937 15.0645C14.1628 15.0645 12.6641 16.7125 12.6641 18.7292V48.2483Z" fill="#17012C"/>
<path d="M38.4375 36.0351C38.4375 38.0518 39.9363 39.6998 41.7671 39.6998C43.598 39.6998 45.0968 38.0518 45.0968 36.0351V14.2507C45.0968 12.234 43.598 10.5859 41.7671 10.5859C39.9363 10.5859 38.4375 12.234 38.4375 14.2507V36.0351Z" fill="#17012C"/>
<path d="M25.7461 56.5981C25.7461 58.6148 27.245 60.2628 29.0758 60.2628C30.9067 60.2628 32.4054 58.6118 32.4054 56.5981V3.66477C32.4054 1.64808 30.9067 0 29.0758 0C27.245 0 25.7461 1.65113 25.7461 3.66477V56.5981Z" fill="#17012C"/>
<path d="M0 29.3146C0 31.3313 1.49886 32.9794 3.32971 32.9794C5.16057 32.9794 6.65935 31.3313 6.65935 29.3146V10.1775C6.65935 8.16078 5.16057 6.5127 3.32971 6.5127C1.49886 6.5127 0 8.16078 0 10.1775V29.3146Z" fill="#17012C"/>
<path d="M66.4575 18.2383H69.915L77.2202 35.4045H73.2996L71.7398 31.5813H64.5322L62.9755 35.4045H59.1523L66.4575 18.2383ZM70.4025 28.2699L68.1391 22.7438L65.8756 28.2699H70.4055H70.4025Z" fill="#17012C"/>
<path d="M79.1202 30.801V22.3535H82.8215V29.6343C82.8215 31.389 83.6502 32.2877 85.0606 32.2877C86.4711 32.2877 87.3727 31.386 87.3727 29.6343V22.3535H91.0741V35.4041H87.3727V33.5549C86.5198 34.6516 85.4261 35.6478 83.5496 35.6478C80.75 35.6478 79.1172 33.7986 79.1172 30.801H79.1202Z" fill="#17012C"/>
<path d="M93.7969 28.9005V28.8518C93.7969 24.4925 96.6452 22.1071 99.7373 22.1071C101.708 22.1071 102.927 23.0089 103.804 24.0538V17.626H107.505V35.4015H103.804V33.5279C102.902 34.7464 101.663 35.6452 99.7373 35.6452C96.694 35.6452 93.7969 33.2598 93.7969 28.9005ZM103.853 28.9005V28.8518C103.853 26.6858 102.415 25.2479 100.688 25.2479C98.9604 25.2479 97.4982 26.6615 97.4982 28.8518V28.9005C97.4982 31.0665 98.9574 32.5044 100.688 32.5044C102.418 32.5044 103.853 31.0695 103.853 28.9005Z" fill="#17012C"/>
<path d="M110.887 17.6289H114.783V20.9159H110.887V17.6289ZM110.984 22.3538H114.686V35.4044H110.984V22.3538Z" fill="#17012C"/>
<path d="M117.535 28.9496V28.9008C117.535 25.1507 120.554 22.1074 124.621 22.1074C128.688 22.1074 131.658 25.102 131.658 28.8521V28.9008C131.658 32.6508 128.639 35.6942 124.572 35.6942C120.505 35.6942 117.535 32.6996 117.535 28.9496ZM128.005 28.9496V28.9008C128.005 26.9755 126.619 25.297 124.572 25.297C122.525 25.297 121.188 26.9298 121.188 28.8521V28.9008C121.188 30.823 122.577 32.5046 124.621 32.5046C126.665 32.5046 128.005 30.8718 128.005 28.9496Z" fill="#17012C"/>
<path d="M133.41 18.3574H137.428L140.959 29.8969L144.782 18.3086H147.996L151.819 29.8969L155.35 18.3574H159.271L153.452 35.5235H150.189L146.342 24.3709L142.494 35.5235H139.232L133.413 18.3574H133.41Z" fill="#17012C"/>
<path d="M159.167 31.6518V31.6031C159.167 28.7548 161.333 27.4387 164.425 27.4387C165.741 27.4387 166.689 27.658 167.615 27.9748V27.7555C167.615 26.2202 166.664 25.3703 164.815 25.3703C163.401 25.3703 162.405 25.6383 161.211 26.077L160.285 23.253C161.723 22.6194 163.133 22.2051 165.351 22.2051C167.371 22.2051 168.833 22.7412 169.756 23.6643C170.731 24.6391 171.17 26.0739 171.17 27.8286V35.4019H167.59V33.9883C166.689 34.9875 165.449 35.6456 163.645 35.6456C161.187 35.6456 159.164 34.2351 159.164 31.6518H159.167ZM167.663 30.7988V30.1408C167.03 29.8484 166.201 29.6534 165.302 29.6534C163.721 29.6534 162.746 30.2871 162.746 31.4538V31.5025C162.746 32.5017 163.575 33.0836 164.766 33.0836C166.497 33.0836 167.663 32.1331 167.663 30.7958V30.7988Z" fill="#17012C"/>
<path d="M172.703 22.3506H176.624L179.545 31.0936L182.491 22.3506H186.339L181.199 35.4987H177.839L172.703 22.3506Z" fill="#17012C"/>
<path d="M187.117 28.9496V28.9008C187.117 25.1751 189.771 22.1074 193.569 22.1074C197.929 22.1074 199.924 25.4919 199.924 29.1932C199.924 29.4857 199.9 29.8269 199.875 30.1681H190.794C191.16 31.8497 192.326 32.724 193.984 32.724C195.224 32.724 196.125 32.3341 197.149 31.3867L199.266 33.2601C198.047 34.7711 196.296 35.6942 193.935 35.6942C190.014 35.6942 187.117 32.9433 187.117 28.9496ZM196.32 27.8529C196.101 26.1957 195.126 25.0776 193.569 25.0776C192.013 25.0776 191.038 26.1743 190.745 27.8529H196.32Z" fill="#17012C"/>
</g>
<defs>
<clipPath id="clip0_47_202">
<rect width="200" height="60" fill="white"/>
</clipPath>
</defs>
</svg>
