<svg width="75" height="29" viewBox="0 0 75 29" fill="none" xmlns="http://www.w3.org/2000/svg">
<path fill-rule="evenodd" clip-rule="evenodd" d="M30.6764 16.6851H27.4776V15.4687C27.4776 13.8866 28.4103 13.4339 29.215 13.4339C30.1028 13.4339 30.7945 13.8157 30.7945 13.8157L31.8835 11.4039C31.8835 11.4039 30.7795 10.7047 28.7728 10.7047C26.5166 10.7047 23.9495 11.9372 23.9495 15.8054V16.6851H18.5943V15.4687C18.5943 13.8866 19.527 13.4339 20.33 13.4339C20.7873 13.4339 21.4024 13.537 21.9112 13.8157L23.0002 11.4039C22.3501 11.0334 21.306 10.7047 19.8895 10.7047C17.6333 10.7047 15.0662 11.9372 15.0662 15.8054V16.6851H13.0179V19.3241H15.0662V28.6475H18.5943V19.3241H23.9495V28.6475H27.4776V19.3241H30.6764V16.6851ZM4.91848 26.5012C3.99075 26.5012 3.52854 26.0597 3.52854 25.3299C3.52854 23.9798 5.08807 23.5174 7.93445 23.2258C7.93445 25.0319 6.67419 26.5012 4.91848 26.5012ZM6.14548 16.3335C4.11212 16.3335 1.77117 17.2631 0.500933 18.2443L1.66143 20.611C2.68061 19.7072 4.32826 18.9355 5.81463 18.9355C7.22618 18.9355 8.00594 19.393 8.00594 20.313C8.00594 20.9348 7.48887 21.2474 6.51126 21.3698C2.8635 21.8306 0.000488281 22.8053 0.000488281 25.5313C0.000488281 27.6918 1.58828 29 4.06889 29C5.8379 29 7.41405 28.0462 8.16389 26.788V28.6472H11.4625V20.8575C11.4625 17.6401 9.1548 16.3335 6.14548 16.3335ZM39.2714 16.6851V28.6475H42.8028V22.8846C42.8028 20.1441 44.5136 19.3402 45.7074 19.3402C46.1729 19.3402 46.8014 19.4707 47.217 19.7719L47.8605 16.6094C47.3151 16.3838 46.7448 16.3339 46.2777 16.3339C44.4621 16.3339 43.3215 17.1136 42.5684 18.6957V16.6851H39.2714ZM60.2409 18.435C60.9674 17.4039 62.3623 16.3341 64.2294 16.3341C66.4856 16.3341 68.3527 17.6907 68.3527 20.3796V28.6477H64.8247V21.4606C64.8247 19.8769 63.8404 19.2196 62.9077 19.2196C61.7405 19.2196 60.5734 20.2539 60.5734 22.4901V28.6477H57.0453V21.4848C57.0453 19.8527 56.1176 19.2196 55.1084 19.2196C53.9928 19.2196 52.799 20.2781 52.799 22.4901V28.6477H49.266V16.6853H52.6693V18.4946C53.2662 17.3394 54.5581 16.3341 56.4252 16.3341C58.136 16.3341 59.5658 17.1026 60.2409 18.435ZM36.3081 28.6479H32.7834V16.6855H36.3081V28.6479Z" fill="#060809"/>
<path fill-rule="evenodd" clip-rule="evenodd" d="M53.3467 0C43.8167 0 35.3224 6.41056 32.9116 14.6529H36.3665C38.3799 8.51465 45.2149 3.12714 53.3467 3.12714C63.2309 3.12714 71.7734 10.419 71.7734 21.7708C71.7734 24.3195 71.4326 26.617 70.7875 28.6469H74.1393L74.1725 28.5358C74.7212 26.4413 75.0005 24.1665 75.0005 21.7708C75.0005 9.11076 65.4804 0 53.3467 0Z" fill="#0FA0EA"/>
</svg>
