<svg width="200" height="60" viewBox="0 0 200 60" fill="none" xmlns="http://www.w3.org/2000/svg">
<g opacity="1" clip-path="url(#clip0_47_191)">
<path d="M56.1123 10.8341C56.0521 10.8341 55.9891 10.8341 55.9289 10.8341C54.9108 9.07195 53.6355 7.81461 52.1986 7.45716C50.8576 7.12479 49.8449 9.26321 51.5664 9.26321C52.2123 9.26321 52.7378 9.94675 53.1565 10.9094C50.8576 11.0222 48.5066 11.2605 46.1365 11.6148C46.1365 11.9566 46.1256 12.3046 46.1064 12.659C46.0928 12.9161 46.0736 13.1763 46.0517 13.4366C48.6818 12.9851 51.2654 12.7248 53.7449 12.6778C54.0323 13.7783 54.2212 14.9322 54.3169 15.7694C55.1161 22.7051 53.1127 29.8353 51.0601 35.5419C49.0759 41.051 46.6374 46.234 43.8568 50.5704C43.8568 44.7007 46.3856 38.6116 47.7923 33.4819C48.5039 30.8857 49.1881 28.7535 48.2932 26.0319C48.0195 25.1916 45.5891 20.0807 45.5891 23.5799C43.2245 28.1766 40.849 32.7576 38.4515 37.3009C36.5221 40.9538 34.6419 45.1773 32.4168 48.2909C32.4168 46.0396 34.494 42.3867 35.2056 40.634C36.418 37.649 37.6414 34.6796 38.821 31.6539C40.9475 26.1918 44.073 19.3031 44.4479 12.4771C44.8639 4.88605 40.2031 1.86654 36.6425 2.00451C32.7178 2.15815 28.8069 3.88582 25.2436 6.73286C21.7377 9.536 16.6746 15.7788 14.6356 22.9466C10.3579 25.5929 6.70976 28.5403 4.04135 31.6445C-5.83314 43.1424 1.46869 52.4611 20.3528 52.4611C22.9227 52.4611 25.572 52.2886 28.2623 51.9594C28.3937 52.8624 28.6619 53.709 29.1107 54.4647C29.6389 55.3552 30.8102 56.5968 31.5547 55.675C31.9816 55.1451 32.4305 53.2293 32.7972 52.4078C33.9549 49.8147 35.1536 47.275 36.3825 44.7885C39.0372 39.4205 41.7494 34.1591 44.6504 29.1956C42.7949 34.4539 40.4001 41.1482 39.9239 47.4819C38.8182 47.8425 37.7099 48.1749 36.5987 48.479C36.2402 49.2284 35.8871 49.9746 35.5395 50.724C36.9818 50.4105 38.4214 50.0593 39.8528 49.6705C39.8993 51.9092 40.3235 54.3048 41.4292 55.5245C42.7346 56.9668 43.7856 54.2577 44.6833 52.8154C47.65 48.0494 50.499 43.064 53.1264 37.7148C55.3542 33.1777 58.6767 26.9851 58.4797 20.573C58.3948 17.8576 57.8092 15.0545 56.8595 12.7342C70.3575 13.5589 74.512 21.7112 65.9758 31.6445C62.812 35.3287 58.3237 38.7683 53.1675 41.6781C52.4477 43.0765 51.6978 44.4781 50.9123 45.8953C59.8618 42.1703 67.6891 37.1567 72.4265 31.6413C82.301 20.1466 74.9991 10.8247 56.115 10.8247L56.1123 10.8341ZM28.1638 50.2035C26.0318 50.4826 23.9408 50.63 21.9238 50.63C6.60298 50.63 1.48236 42.1327 10.4865 31.6476C11.4554 30.5219 12.5447 29.4183 13.7407 28.3459C13.623 31.4312 14.2169 34.5699 15.8425 37.5831C18.448 42.4149 23.0268 43.6503 26.3493 40.4082C27.0143 39.7591 27.7368 38.8436 27.7368 37.3668C27.7368 35.799 27.1429 36.5578 26.653 37.072C25.0985 38.7088 23.6289 40.2828 21.7569 40.2828C16.9318 40.2828 16.7512 32.3562 18.3905 26.3705C20.2105 19.7295 23.4455 14.2079 26.9568 10.254C30.1836 6.61997 34.5242 3.30262 38.457 4.34674C40.173 4.80139 42.086 7.03073 41.8616 10.4578C41.8178 11.1226 41.7303 11.7779 41.6071 12.4238C35.4492 13.7062 29.2886 15.7035 23.648 18.2119C22.8434 19.6386 22.1209 21.1311 21.4914 22.6675C27.3564 19.1024 34.2505 16.2209 41.109 14.4838C40.693 15.9262 40.1757 17.3027 39.7159 18.5913C37.3759 25.1665 34.5843 31.2118 32.0391 37.5392C30.8623 40.4709 28.2869 45.7386 28.161 50.2004L28.1638 50.2035Z" fill="#17012C"/>
<path d="M84.2344 26.1634H88.6708L91.3118 36.2033L94.232 26.1133H97.8474L100.768 36.2033L103.409 26.1634H107.757L102.694 43.6408H99.0379L95.9863 33.651L92.9566 43.6408H89.3002L84.237 26.1634H84.2344Z" fill="#17012C"/>
<path d="M110.07 26.1631H122.255V30.2549H114.225V32.8825H121.497V36.6764H114.225V39.4294H122.361V43.5213H110.07V26.1662V26.1631Z" fill="#17012C"/>
<path d="M124.007 40.9417L126.344 37.7435C127.838 39.1075 129.502 39.8255 131.257 39.8255C132.381 39.8255 132.989 39.3803 132.989 38.6371V38.587C132.989 37.8689 132.491 37.4707 130.435 36.9252C127.211 36.0817 124.721 35.0407 124.721 31.4694V31.4192C124.721 28.1959 126.949 25.8662 130.586 25.8662C133.161 25.8662 135.173 26.6595 136.818 28.1708L134.719 31.5666C133.334 30.4503 131.818 29.8546 130.477 29.8546C129.458 29.8546 128.96 30.35 128.96 30.9708V31.021C128.96 31.8143 129.48 32.1623 131.58 32.7079C135.063 33.5764 137.228 34.8651 137.228 38.1135V38.1637C137.228 41.7099 134.782 43.817 131.103 43.817C128.421 43.817 125.868 42.8513 124.004 40.9417H124.007Z" fill="#17012C"/>
<path d="M143.179 30.3821H138.633V26.168H151.92V30.3821H147.374V43.523H143.176V30.3821H143.179Z" fill="#17012C"/>
<path d="M154.406 26.1631H166.591V30.2549H158.561V32.8825H165.833V36.6764H158.561V39.4294H166.697V43.5213H154.406V26.1662V26.1631Z" fill="#17012C"/>
<path d="M169.488 26.1631H176.651C178.966 26.1631 180.567 26.856 181.585 28.0475C182.472 29.0383 182.926 30.3772 182.926 32.0892V32.1394C182.926 34.792 181.692 36.5542 179.809 37.4697L183.424 43.5181H178.577L175.526 38.263H173.687V43.5181H169.488V26.1631ZM176.456 34.4941C177.885 34.4941 178.706 33.7008 178.706 32.4372V32.3871C178.706 31.0231 177.841 30.3302 176.434 30.3302H173.687V34.4941H176.456Z" fill="#17012C"/>
<path d="M185.695 26.1631H189.612L195.843 35.3376V26.1631H199.998V43.5181H196.32L189.85 33.9987V43.5181H185.695V26.1631Z" fill="#17012C"/>
</g>
<defs>
<clipPath id="clip0_47_191">
<rect width="200" height="60" fill="white"/>
</clipPath>
</defs>
</svg>
