<svg width="78" height="15" viewBox="0 0 78 15" fill="none" xmlns="http://www.w3.org/2000/svg">
<path fill-rule="evenodd" clip-rule="evenodd" d="M31.9399 3.02265H35.1067L35.6158 0.465049H32.4485L31.9399 3.02265ZM31.6119 4.66766H34.7795L32.7673 14.7661C32.6205 14.8171 32.1671 14.9967 31.541 14.9967C30.696 14.9967 29.9209 14.6684 29.9209 13.5044C29.9209 13.2855 29.9462 13.0362 30.0027 12.7528C30.632 9.60166 31.6119 4.66766 31.6119 4.66766ZM63.0624 4.43698C60.9543 4.43698 60.1163 5.66775 59.7229 6.41697H59.6855L59.8071 4.66978H56.6771C56.6565 5.05396 56.5211 6.26505 56.3204 7.30958C56.3204 7.30958 55.5975 10.975 55.4608 11.6769C55.3566 12.213 55.166 13.0056 55.166 13.4656C55.166 14.4449 55.6645 14.997 56.7765 14.997C57.4002 14.997 57.8498 14.827 58.0135 14.7661L59.0602 9.50693C59.3505 8.0548 60.4041 7.10445 61.6569 7.10445C62.6676 7.10445 63.1509 7.8393 63.1509 8.44005C63.1509 8.96285 63.0192 9.54232 62.9174 10.0547L62.4672 12.3069C62.4136 12.5772 62.299 13.0966 62.299 13.5039C62.299 14.4995 62.8622 14.997 63.9319 14.997C64.5159 14.997 64.8861 14.8515 65.1484 14.7661L66.0877 10.0515C66.2913 8.986 66.3665 8.42489 66.3665 7.74671C66.3665 5.7944 65.2211 4.43698 63.0624 4.43698ZM48.9927 6.87882C47.2223 6.87882 46.2417 8.68294 46.2417 10.2912C46.2417 11.6476 46.8563 12.5559 48.2533 12.5559C49.8326 12.5559 51.0686 11.2163 51.0686 8.92984C51.0686 7.88371 50.5099 6.87882 48.9927 6.87882ZM48.0594 14.9973C44.6681 14.9973 43.0454 12.9699 43.0454 10.3857C43.0454 6.84 45.4878 4.43698 49.262 4.43698C52.5368 4.43698 54.2757 6.41351 54.2757 8.95195C54.2757 12.7557 51.667 14.9973 48.0594 14.9973ZM36.1986 12.5658C36.1263 12.9292 36.0808 13.1838 36.0808 13.4967C36.0808 14.6543 36.8569 14.997 37.6795 14.997C38.3373 14.997 38.7443 14.8177 38.8933 14.7661L40.4161 7.1114L42.8787 7.11113L43.3649 4.66768L40.9025 4.66794L41.0222 4.06613C41.2451 2.93752 41.7779 2.44133 42.6996 2.44133C43.315 2.44133 43.8129 2.55041 43.9859 2.59537L44.4495 0.271909C44.2519 0.222156 43.342 0 41.9951 0C39.8489 0 38.4429 1.29942 38.0271 3.39221L37.7725 4.66768H36.1693L35.6828 7.11113H37.2871C37.2871 7.11113 36.6544 10.2761 36.1986 12.5658ZM28.907 4.43722C27.3173 4.43722 26.4431 5.53763 26.1011 6.41534H26.0646L26.1869 4.66762H23.0556C23.0278 5.27343 22.9007 6.29775 22.5817 7.90818C22.2583 9.54016 21.9433 11.1682 21.6181 12.7525C21.5624 13.0234 21.5376 13.2884 21.5376 13.5126C21.5376 14.3425 21.9489 14.9962 23.1643 14.9962C23.7664 14.9962 24.1846 14.8403 24.3854 14.766L25.3169 10.0845C25.6525 8.29343 26.2621 7.10922 28.0306 7.10922C28.835 7.10922 29.5992 7.28029 29.7594 7.32712L30.2954 4.63357C30.1798 4.59366 29.7154 4.43722 28.907 4.43722ZM74.8471 8.76062C75.0166 7.83475 74.4763 6.87882 73.2552 6.87882C71.7642 6.87882 71.1093 7.89435 70.8169 8.76062H74.8471ZM76.2609 12.5185C76.2609 13.923 74.8968 15 72.4811 15C69.1423 15 67.5098 12.9266 67.5098 10.3885C67.5098 7.86891 69.1874 4.43972 73.2823 4.43972C75.9821 4.43972 78.0009 5.77692 78.0009 8.83815C78.0009 9.59109 77.8328 10.4095 77.7605 10.7373H70.5838C70.5718 11.4718 71.1929 12.7449 73.6875 12.7449C74.7992 12.7449 76.0581 12.3533 76.2609 12.2535C76.2609 12.3299 76.2609 12.4679 76.2609 12.5185ZM17.6188 8.76062C17.7881 7.83475 17.2478 6.87882 16.0267 6.87882C14.5357 6.87882 13.881 7.89435 13.5884 8.76062H17.6188ZM19.0322 12.5185C19.0322 13.923 17.668 15 15.2526 15C11.9136 15 10.2812 12.9266 10.2812 10.3885C10.2812 7.86891 11.9586 4.43972 16.0538 4.43972C18.7536 4.43972 20.7724 5.77692 20.7724 8.83815C20.7724 9.59109 20.6042 10.4095 20.5317 10.7373H13.3553C13.3433 11.4718 13.9641 12.7449 16.4587 12.7449C17.5704 12.7449 18.8293 12.3533 19.0322 12.2535C19.0322 12.3299 19.0322 12.4679 19.0322 12.5185ZM0.000488281 1.23159H3.18676V11.2723C3.18676 12.7821 3.94054 13.5529 5.15065 13.5529C5.27406 13.5529 5.34683 13.5372 5.37082 13.5313C4.8404 14.3316 4.15271 14.988 2.5737 14.988C0.903006 14.988 0.000488281 13.8317 0.000488281 12.0965V1.23159Z" fill="#1A1919"/>
<path fill-rule="evenodd" clip-rule="evenodd" d="M4.23287 9.98819C4.12929 10.1494 4.07422 10.337 4.07422 10.5287V11.289C4.07422 12.3069 4.6257 12.6717 5.22782 12.6717C5.84327 12.6717 6.17272 12.2556 6.47498 11.7825C6.98142 10.9905 13.17 1.23157 13.17 1.23157H9.85823L4.23287 9.98819Z" fill="#00A3DA"/>
</svg>
