<svg width="200" height="60" viewBox="0 0 200 60" fill="none" xmlns="http://www.w3.org/2000/svg">
<g opacity="1">
<path d="M35.9804 37.3451C41.863 34.6506 45.5276 29.9706 45.5276 23.2668V23.1432C50.261 21.1636 56.7353 20.3664 57.708 20.2546C55.5458 20.0517 26.1698 17.719 7.96432 39.4571C15.6251 24.0757 31.8604 16.513 42.0086 13.1478C41.7267 12.8331 41.4262 12.5419 41.1133 12.2418C37.7213 9.02085 32.2538 7 23.6699 7H0V53H14.2899C14.8258 49.3584 18.1187 46.5551 22.1024 46.5551C26.0862 46.5551 29.3791 49.3584 29.915 53H47.2655L35.9773 37.3451H35.9804Z" fill="#17012C"/>
<path d="M66.582 21.0137H74.9273C77.6255 21.0137 79.4903 21.6843 80.6767 22.8345C81.7114 23.7905 82.2411 25.0848 82.2411 26.7379V26.785C82.2411 29.3471 80.8038 31.0473 78.6106 31.9327L82.8204 37.7746H77.1732L73.617 32.6975H71.4734V37.7746H66.582V21.0166V21.0137ZM74.7012 29.0588C76.3647 29.0588 77.3219 28.294 77.3219 27.0733V27.0262C77.3219 25.7084 76.3151 25.0377 74.6764 25.0377H71.4734V29.0588H74.7012Z" fill="#17012C"/>
<path d="M84.7101 21.0137H98.904V24.9642H89.5488V27.5027H98.0211V31.165H89.5488V33.8241H99.0279V37.7746H84.707V21.0166L84.7101 21.0137Z" fill="#17012C"/>
<path d="M101.523 21.0137H106.415V33.7035H114.961V37.7746H101.523V21.0166V21.0137Z" fill="#17012C"/>
<path d="M117.156 21.0137H122.072V37.7717H117.156V21.0137Z" fill="#17012C"/>
<path d="M131.406 20.8955H136.12L143.633 37.7741H138.388L137.102 34.7826H130.294L129.033 37.7741H123.891L131.403 20.8955H131.406ZM135.693 31.1674L133.726 26.4021L131.734 31.1674H135.693Z" fill="#17012C"/>
<path d="M145.347 21.0137H149.91L157.171 29.8707V21.0137H162.013V37.7717H157.725L150.186 28.5793V37.7717H145.344V21.0137H145.347Z" fill="#17012C"/>
<path d="M164.535 29.4406V29.3936C164.535 24.5106 168.494 20.6777 173.838 20.6777C177.443 20.6777 179.764 22.1132 181.325 24.1723L177.645 26.8785C176.635 25.6813 175.476 24.9165 173.788 24.9165C171.316 24.9165 169.578 26.905 169.578 29.3465V29.3936C169.578 31.9086 171.319 33.8706 173.788 33.8706C175.628 33.8706 176.712 33.0558 177.772 31.835L181.452 34.3265C179.788 36.5062 177.543 38.1094 173.636 38.1094C168.593 38.1094 164.535 34.4471 164.535 29.4436V29.4406Z" fill="#17012C"/>
<path d="M183.534 21.0137H197.728V24.9642H188.373V27.5027H196.845V31.165H188.373V33.8241H197.852V37.7746H183.531V21.0166L183.534 21.0137Z" fill="#17012C"/>
<path d="M66.582 44.4746H68.134V52.8551H66.582V44.4746Z" fill="#17012C"/>
<path d="M70.8672 44.4746H72.3045L77.0317 50.2695V44.4746H78.5558V52.8551H77.2578L72.3913 46.8926V52.8551H70.8672V44.4746Z" fill="#17012C"/>
<path d="M80.6133 51.6338L81.5457 50.5808C82.3914 51.275 83.234 51.6691 84.3306 51.6691C85.2878 51.6691 85.8949 51.2514 85.8949 50.6161V50.5925C85.8949 49.9924 85.5418 49.6718 83.9031 49.3129C82.0258 48.8835 80.9664 48.3569 80.9664 46.8126V46.7891C80.9664 45.3536 82.2272 44.3594 83.9805 44.3594C85.2661 44.3594 86.2883 44.73 87.1836 45.4125L86.3503 46.5273C85.5573 45.9655 84.7611 45.6654 83.9557 45.6654C83.0481 45.6654 82.5184 46.1096 82.5184 46.6597V46.6832C82.5184 47.3303 82.9211 47.6186 84.6094 48.001C86.4742 48.4305 87.4469 49.0659 87.4469 50.4543V50.4778C87.4469 52.0457 86.1489 52.9811 84.2965 52.9811C82.949 52.9811 81.6758 52.5369 80.6164 51.6397L80.6133 51.6338Z" fill="#17012C"/>
<path d="M89.507 49.2988V44.4746H91.059V49.2399C91.059 50.796 91.9047 51.6343 93.2893 51.6343C94.674 51.6343 95.5073 50.846 95.5073 49.3017V44.4776H97.0562V49.2311C97.0562 51.7344 95.5693 52.9904 93.2615 52.9904C90.9536 52.9904 89.5039 51.7344 89.5039 49.3046L89.507 49.2988Z" fill="#17012C"/>
<path d="M99.5656 44.4746H103.5C104.609 44.4746 105.479 44.7864 106.046 45.313C106.514 45.7689 106.777 46.3896 106.777 47.1191V47.1426C106.777 48.5193 105.907 49.3458 104.671 49.6812L107.053 52.8522H105.225L103.057 49.9312H101.114V52.8522H99.5625V44.4717L99.5656 44.4746ZM103.385 48.6281C104.494 48.6281 105.2 48.078 105.2 47.2279V47.2044C105.2 46.3072 104.519 45.816 103.373 45.816H101.118V48.6281H103.385Z" fill="#17012C"/>
<path d="M112.185 44.416H113.623L117.504 52.8553H115.865L114.97 50.8315H110.798L109.89 52.8553H108.301L112.182 44.416H112.185ZM114.403 49.5284L112.879 46.1751L111.368 49.5284H114.406H114.403Z" fill="#17012C"/>
<path d="M119.402 44.4746H120.84L125.567 50.2695V44.4746H127.091V52.8551H125.793L120.926 46.8926V52.8551H119.402V44.4746Z" fill="#17012C"/>
<path d="M129.351 48.6894V48.6659C129.351 46.2833 131.228 44.333 133.901 44.333C135.528 44.333 136.51 44.8713 137.355 45.6391L136.361 46.7274C135.655 46.1038 134.899 45.6861 133.889 45.6861C132.201 45.6861 130.977 47.0039 130.977 48.6424V48.6659C130.977 50.3044 132.201 51.6457 133.889 51.6457C134.973 51.6457 135.667 51.228 136.423 50.5573L137.417 51.5133C136.497 52.4223 135.487 52.9988 133.836 52.9988C131.265 52.9988 129.348 51.0956 129.348 48.6894H129.351Z" fill="#17012C"/>
<path d="M139.418 44.4746H145.96V45.7924H140.967V47.9721H145.39V49.2899H140.967V51.5402H146.022V52.858H139.418V44.4776V44.4746Z" fill="#17012C"/>
<path d="M152.008 48.6894V48.6659C152.008 46.3186 153.897 44.333 156.558 44.333C158.095 44.333 159.043 44.7389 159.95 45.4714L158.968 46.5862C158.287 46.0362 157.621 45.6891 156.496 45.6891C154.87 45.6891 153.634 47.0422 153.634 48.6453V48.6689C153.634 50.3926 154.833 51.6604 156.636 51.6604C157.469 51.6604 158.225 51.4104 158.767 51.025V49.4572H156.512V48.1747H160.269V51.6928C159.399 52.3987 158.151 52.9988 156.589 52.9988C153.829 52.9988 152.014 51.1309 152.014 48.6894H152.008Z" fill="#17012C"/>
<path d="M162.663 44.4746H166.597C167.706 44.4746 168.577 44.7864 169.144 45.313C169.611 45.7689 169.875 46.3896 169.875 47.1191V47.1426C169.875 48.5193 169.004 49.3458 167.768 49.6812L170.15 52.8522H168.323L166.154 49.9312H164.212V52.8522H162.66V44.4717L162.663 44.4746ZM166.483 48.6281C167.592 48.6281 168.298 48.078 168.298 47.2279V47.2044C168.298 46.3072 167.617 45.816 166.47 45.816H164.215V48.6281H166.483Z" fill="#17012C"/>
<path d="M171.762 48.6894V48.6659C171.762 46.3068 173.679 44.333 176.387 44.333C179.094 44.333 180.987 46.2833 180.987 48.6424V48.6659C180.987 51.025 179.072 52.9988 176.362 52.9988C173.651 52.9988 171.762 51.0486 171.762 48.6894ZM179.364 48.6894V48.6659C179.364 47.0363 178.115 45.6861 176.362 45.6861C174.609 45.6861 173.388 47.0157 173.388 48.6424V48.6659C173.388 50.2926 174.636 51.6457 176.39 51.6457C178.143 51.6457 179.364 50.3161 179.364 48.6894Z" fill="#17012C"/>
<path d="M183.102 49.2988V44.4746H184.654V49.2399C184.654 50.796 185.499 51.6343 186.884 51.6343C188.269 51.6343 189.102 50.846 189.102 49.3017V44.4776H190.654V49.2311C190.654 51.7344 189.167 52.9904 186.859 52.9904C184.551 52.9904 183.102 51.7344 183.102 49.3046V49.2988Z" fill="#17012C"/>
<path d="M193.163 44.4746H196.642C198.696 44.4746 199.997 45.5895 199.997 47.275V47.2985C199.997 49.1782 198.408 50.1606 196.465 50.1606H194.712V52.8551H193.16V44.4746H193.163ZM196.518 48.831C197.689 48.831 198.42 48.2074 198.42 47.3338V47.3103C198.42 46.3278 197.677 45.813 196.518 45.813H194.715V48.831H196.518Z" fill="#17012C"/>
</g>
</svg>
