<svg width="229" height="39" viewBox="0 0 229 39" fill="none" xmlns="http://www.w3.org/2000/svg">
<path fill-rule="evenodd" clip-rule="evenodd" d="M20.3272 38.9999C25.5352 38.9999 30.4316 36.9698 34.1134 33.288C37.7976 29.6063 39.8253 24.7086 39.8253 19.5006C39.8253 14.2926 37.7964 9.39616 34.1158 5.71197C32.3093 3.89553 30.1604 2.45541 27.7936 1.47496C25.4268 0.494518 22.889 -0.00678282 20.3272 6.93063e-05C9.57281 6.93063e-05 0.82666 8.74743 0.82666 19.5006C0.82666 24.7086 2.85558 29.6063 6.53856 33.288C8.34507 35.1045 10.4939 36.5447 12.8607 37.5251C15.2276 38.5056 17.7653 39.0068 20.3272 38.9999Z" fill="white"/>
<path fill-rule="evenodd" clip-rule="evenodd" d="M20.3267 38.5206C25.4069 38.5206 30.1828 36.5428 33.7757 32.9511C35.5472 31.1886 36.9516 29.0924 37.9078 26.7837C38.864 24.475 39.3529 21.9996 39.3464 19.5008C39.3464 14.4206 37.3674 9.64221 33.7757 6.05051C32.0138 4.27863 29.9179 2.87381 27.6093 1.91738C25.3008 0.960958 22.8255 0.471925 20.3267 0.478583C9.83638 0.478583 1.30322 9.01174 1.30322 19.5008C1.30322 24.581 3.28224 29.3569 6.87515 32.9511C8.63772 34.7226 10.7341 36.1271 13.0431 37.0831C15.352 38.0391 17.8276 38.5277 20.3267 38.5206ZM2.99744 19.4984C2.99744 14.8673 4.8012 10.5161 8.07401 7.24328C9.67952 5.62957 11.5891 4.35023 13.6922 3.47926C15.7954 2.6083 18.0503 2.16301 20.3267 2.16915C22.6034 2.16289 24.8587 2.60812 26.9623 3.47908C29.0658 4.35004 30.9758 5.62944 32.5817 7.24328C34.1957 8.84912 35.4752 10.7591 36.3461 12.8626C37.2171 14.9662 37.6623 17.2216 37.6559 19.4984C37.6559 29.0527 29.8822 36.8251 20.3267 36.8251C18.0502 36.8316 15.795 36.3863 13.6918 35.5151C11.5886 34.6439 9.67914 33.3641 8.07401 31.7498C6.45973 30.1448 5.17984 28.2356 4.30845 26.1326C3.43705 24.0296 2.99145 21.7747 2.99744 19.4984Z" fill="black"/>
<path fill-rule="evenodd" clip-rule="evenodd" d="M20.3208 34.6323C28.6799 34.6323 35.4568 27.8579 35.4568 19.4963C35.4568 11.1397 28.6799 4.36279 20.3208 4.36279C11.9629 4.36279 5.18604 11.1397 5.18604 19.4963C5.18604 27.8567 11.9629 34.6323 20.3208 34.6323Z" fill="#1C74BB"/>
<path fill-rule="evenodd" clip-rule="evenodd" d="M18.4283 13.3157L20.3343 9.56576L22.2415 13.3157H23.9309L20.3343 6.12012L16.7402 13.3157H18.4283ZM18.4307 25.6547L20.3367 29.4034L22.2439 25.6547H23.9333L20.3367 32.8527L16.7426 25.6547H18.4307ZM14.155 21.3973L10.4051 19.4889L14.155 17.5829V15.8947L6.95947 19.4889L14.155 23.0866V21.3973ZM26.5805 17.5938L30.4375 19.4998L26.5805 21.4058V23.0964L33.8844 19.4998L26.5805 15.9057V17.5938Z" fill="white"/>
<path fill-rule="evenodd" clip-rule="evenodd" d="M222.897 28.2681C222.653 28.2084 222.291 28.066 222.08 27.8494C221.88 27.64 221.745 27.3102 221.692 26.9487L220.143 14.1167C220.143 14.1167 219.911 12.3032 220.333 11.6874C220.578 11.3259 220.974 11.2127 221.168 11.1774V10.7794H218.796L212.382 24.4609L205.882 10.7794H203.463V11.1774C203.752 11.2553 204.021 11.3563 204.231 11.5571C204.559 11.8687 204.713 12.2046 204.657 12.8509L203.014 26.6091C202.914 27.3004 202.759 27.5792 202.522 27.7885C202.218 28.0502 201.885 28.178 201.504 28.2668V28.6782H204.537L205.565 16.983H205.66C206.482 18.7515 207.899 21.7249 208.113 22.2214C208.396 22.8799 210.258 26.4911 210.826 27.5743C211.205 28.2802 211.44 28.7561 211.651 28.7561C211.863 28.7561 211.981 28.5395 212.524 27.4343L217.666 16.7225H217.761L218.954 28.6794H222.9V28.2681H222.897ZM66.5816 28.6794H62.0917L60.0372 23.0673C59.9885 22.9481 59.9179 22.9006 59.8011 22.9006L54.2936 22.9201C54.1768 22.9201 54.1293 22.9675 54.0819 23.1075L51.9689 28.6794H48.729V28.2656C48.8738 28.2461 49.015 28.2413 49.2183 28.178C50.1202 27.8907 50.5133 26.911 50.8407 26.0955L57.0139 10.6662L57.9803 10.4374C58.5462 11.7324 62.643 22.0097 64.14 25.6014C64.8216 27.2347 65.2306 27.6364 65.6602 27.9613C65.8817 28.1281 66.2724 28.2401 66.5816 28.2656V28.6794ZM59.2351 21.3524C59.3507 21.3524 59.3751 21.2831 59.3507 21.2125L57.2293 15.3849C57.205 15.2912 57.1806 15.1732 57.11 15.1732C57.0382 15.1732 56.992 15.2924 56.9688 15.3849L54.7975 21.1881C54.7744 21.2831 54.7975 21.3524 54.8937 21.3524H59.2351ZM136.49 25.6647C136.49 26.3012 136.416 27.4806 136.178 27.6668C135.194 28.4299 133.103 28.9983 130.611 29.0056C125.51 29.0227 120.989 26.2696 120.989 19.7592C120.989 15.985 122.72 13.3438 124.615 12.0464C126.614 10.6771 128.47 10.5579 130.218 10.5128C133.698 10.4216 135.969 11.3393 136.386 11.433V15.1537H135.748C135.695 14.6729 135.424 13.9792 135.096 13.5325C134.259 12.3884 132.17 11.4695 129.907 11.6922C128.765 11.8054 127.356 11.915 125.799 13.3706C124.622 14.4697 123.966 15.828 123.866 18.9328C123.699 24.0021 127.265 27.8031 131.66 27.8031C133.972 27.8019 135.869 26.3122 136.49 25.6647ZM178.64 25.6647C178.64 26.3012 178.565 27.4806 178.331 27.6668C177.346 28.4299 175.252 28.9983 172.766 29.0056C167.66 29.0227 163.141 26.2696 163.141 19.7592C163.141 15.985 164.872 13.3438 166.767 12.0464C168.766 10.6771 170.62 10.5579 172.37 10.5128C175.848 10.4216 178.124 11.3393 178.539 11.433V15.1537H177.902C177.845 14.6729 177.576 13.9792 177.249 13.5325C176.41 12.3884 174.325 11.4695 172.056 11.6922C170.917 11.8054 169.508 11.915 167.951 13.3706C166.774 14.4697 166.12 15.828 166.016 18.9328C165.849 24.0021 169.415 27.8031 173.81 27.8031C176.124 27.8019 178.021 26.3122 178.64 25.6647ZM82.2884 20.3471H78.0553V20.7159C78.2829 20.7633 78.7989 20.9581 79.0971 21.2465C79.3308 21.4754 79.601 21.8174 79.601 22.5634V26.6359C79.601 27.0375 79.517 27.3418 79.1981 27.5086C78.6882 27.7703 77.9433 27.7702 77.3895 27.7702C72.9057 27.7702 69.2653 23.9692 69.4369 18.8987C69.5404 15.7927 70.1757 14.1995 71.3916 13.1187C72.8826 11.7981 74.4307 11.6581 75.6004 11.6581C78.0017 11.6581 80.1341 12.6756 80.8984 13.4984C81.4133 14.0522 81.5642 14.6668 81.6202 14.8786H82.2129V11.3977C81.7894 11.3052 79.4683 10.3875 75.9192 10.4788C74.1337 10.5238 72.2424 10.6431 70.2025 12.0123C68.2661 13.3098 66.5037 15.9509 66.5037 19.7252C66.5037 26.2367 71.1153 28.9703 76.3233 28.9703C77.9798 28.9703 80.6209 28.7111 82.0036 27.9102C82.2592 27.7459 82.2872 27.6984 82.2872 27.0619L82.2884 20.3471Z" fill="black"/>
<path fill-rule="evenodd" clip-rule="evenodd" d="M154.122 26.2148C154.122 25.1973 154.857 23.7307 156.608 23.7307C157.994 23.7307 159.097 24.6679 159.097 26.0931C159.097 27.5184 158.115 28.7038 156.568 28.7038C154.857 28.7038 154.122 27.3589 154.122 26.2148Z" fill="#1C74BB"/>
<path fill-rule="evenodd" clip-rule="evenodd" d="M181.157 19.7227C181.157 15.688 183.769 10.4763 190.704 10.4763C196.464 10.4763 200.044 13.8952 200.044 19.2992C200.044 24.7007 196.345 28.9679 190.477 28.9679C183.841 28.9679 181.157 23.8974 181.157 19.7227ZM196.809 20.1706C196.809 14.8871 193.826 11.6082 190.037 11.6082C187.377 11.6082 184.348 13.1174 184.348 18.9924C184.348 23.8986 187.007 27.7922 191.449 27.7922C193.062 27.7909 196.809 26.9876 196.809 20.1706ZM142.493 10.7794C142.393 11.4634 143.907 14.0887 143.907 14.0887L147.01 19.5584C147.245 18.9924 151.524 11.5145 151.854 10.7843H154.695V11.1762C154.528 11.1956 154.124 11.3502 153.901 11.4829C153.512 11.7153 153.221 11.9734 152.784 12.5539C152.004 13.496 148.686 19.1568 148.26 20.1706C147.906 21.0214 147.906 21.7516 147.906 22.5306V25.0123C147.906 25.0123 147.898 28.1305 148.324 28.6782H143.52V28.2814C143.827 28.1987 144.01 28.1488 144.281 27.9199C144.725 27.5512 144.935 26.9219 144.935 24.8674V22.5306C144.935 21.2563 144.7 20.7378 144.391 20.0538C144.226 19.6752 141.006 14.3869 140.178 13.1576C139.595 12.2959 139.175 11.8492 138.747 11.5462C138.467 11.3502 138.176 11.2029 137.891 11.1749V10.7794H142.493ZM85.7759 10.7769V11.1749C86.3041 11.3113 86.5147 11.422 86.7617 11.6849C87.0185 11.96 87.1622 12.2776 87.1622 13.2051V25.1048C87.1622 25.1048 87.1634 28.0903 86.752 28.6758H97.8411V26.586C97.2861 27.0448 94.6681 27.0594 94.6681 27.0594H89.992V20.2132H96.0763V18.3023C95.5225 18.76 92.9008 18.7758 92.9008 18.7758H89.992V12.0902H95.0077C96.2369 12.0902 96.6106 12.285 96.9076 12.7134C97.1425 13.0505 97.2678 13.3621 97.3981 13.7735H97.8788V10.7782L85.7759 10.7769ZM115.391 10.7794V10.783C115.813 11.3283 115.811 14.3954 115.811 14.3954V24.0848H115.711C115.325 23.7088 112.266 20.3118 110.727 18.7089C107.42 15.2888 103.677 11.0837 103.406 10.7794H100.944V11.1749C101.326 11.2468 101.687 11.4537 101.884 11.6776C102.119 11.9454 102.366 12.3884 102.366 13.4619V24.9745C102.366 27.0193 102.099 27.5013 101.651 27.9029C101.432 28.1001 101.192 28.2048 100.828 28.2973V28.677H104.427C104.001 28.1305 104.003 25.0902 104.003 25.0902V15.5334L116.184 28.6673C116.434 28.9265 116.615 28.9241 116.865 28.9241C117.069 28.9241 117.426 28.7099 117.426 28.1914V14.2457C117.426 12.3884 117.675 12.0221 117.904 11.7409C118.198 11.3806 118.61 11.2285 118.842 11.1749V10.7794H115.391ZM227.774 14.3175C227.607 14.4904 227.407 14.6272 227.185 14.7195C226.963 14.8118 226.725 14.8577 226.485 14.8543C225.978 14.8543 225.548 14.6741 225.192 14.3175C225.02 14.1505 224.884 13.95 224.792 13.7283C224.7 13.5066 224.654 13.2685 224.658 13.0286C224.658 12.5247 224.836 12.0939 225.192 11.7372C225.359 11.564 225.56 11.4269 225.782 11.3346C226.004 11.2423 226.243 11.1966 226.484 11.2005C226.987 11.2005 227.418 11.3782 227.775 11.7348C228.132 12.0914 228.308 12.5211 228.309 13.0262C228.313 13.2665 228.267 13.5051 228.175 13.7271C228.083 13.9492 227.946 14.1501 227.774 14.3175ZM227.936 11.5729C227.747 11.3788 227.522 11.2253 227.272 11.1219C227.022 11.0185 226.754 10.9674 226.484 10.9717C225.918 10.9717 225.433 11.1725 225.032 11.5754C224.838 11.7638 224.684 11.99 224.581 12.2399C224.477 12.4898 224.426 12.7582 224.43 13.0286C224.43 13.5958 224.632 14.079 225.034 14.4794C225.221 14.6744 225.447 14.8285 225.697 14.932C225.947 15.0354 226.216 15.0861 226.486 15.0807C227.054 15.0807 227.536 14.881 227.938 14.4794C228.337 14.0778 228.537 13.5921 228.537 13.0262C228.537 12.4602 228.337 11.9758 227.936 11.5729Z" fill="black"/>
<path fill-rule="evenodd" clip-rule="evenodd" d="M225.928 12.0849H226.669C226.817 12.0849 227.069 12.1129 227.069 12.4549C227.069 12.7823 226.838 12.8347 226.619 12.8347H225.928V12.0849ZM225.928 13.0903H226.649C227.008 13.0903 227.043 13.302 227.043 13.4834C227.043 13.5674 227.055 13.9033 227.098 14.0372H227.462V13.9897C227.372 13.9362 227.355 13.8899 227.352 13.767L227.333 13.3666C227.318 13.0598 227.195 13.0026 227.069 12.9515C227.167 12.904 227.249 12.828 227.303 12.7334C227.358 12.6387 227.383 12.5299 227.375 12.4209C227.375 11.9535 227.011 11.8281 226.647 11.8281H225.627V14.036H225.927V13.0903H225.928Z" fill="black"/>
</svg>
