<svg width="171" height="25" viewBox="0 0 171 25" fill="none" xmlns="http://www.w3.org/2000/svg">
<g clip-path="url(#clip0_82_111)">
<path d="M28.0266 0.403684H22.875C22.875 0.403684 22.0885 0.403684 21.6953 1.55396L15.4032 17.3802L13.1617 11.4702L13.083 11.3908L11.4707 7.18636V7.1467C10.6842 5.24279 9.93699 3.81486 9.15048 2.94223C8.36397 1.95061 7.38084 1.23664 6.27973 0.760668C5.02132 0.20536 3.76291 -0.111958 2.46517 0.0467012C1.95395 0.0467012 1.40339 0.126031 0.774186 0.245025C0.420258 0.403684 0.577559 0.839997 0.577559 0.839997L1.48204 4.37016C1.67867 4.92547 1.99327 5.08413 2.0326 5.08413C2.38652 5.16346 2.8191 5.28245 3.09438 5.44111C3.60561 5.63944 3.99886 6.07575 4.35279 6.59139C4.70672 7.1467 5.17862 8.13832 5.84715 9.56625L5.9258 9.72491H5.84715L7.26286 13.1361L11.7853 23.5679C11.8639 23.7662 12.1392 24.1232 12.6111 24.1232H17.8807C18.5099 24.1232 18.7459 23.5679 18.7852 23.4886L28.3412 1.11765C28.6558 0.403684 28.0266 0.403684 28.0266 0.403684ZM39.5489 0.245025C35.8917 0.245025 32.9423 1.31597 30.7008 3.49754C28.5379 5.6791 27.3974 8.57463 27.3974 12.1841C27.3974 15.754 28.5379 18.6495 30.7008 20.8311C32.9423 23.0126 35.8917 24.0836 39.5489 24.0836C43.2849 24.0836 46.2343 23.0126 48.3971 20.8311C50.6387 18.6495 51.7005 15.8333 51.7005 12.1841C51.7005 8.57463 50.6387 5.63944 48.3971 3.49754C46.1949 1.31597 43.2849 0.245025 39.5489 0.245025ZM43.7961 17.3009C42.7736 18.5305 41.3579 19.2048 39.5489 19.2048C37.6613 19.2048 36.3243 18.5702 35.3018 17.3009C34.24 16.0713 33.7288 14.4054 33.7288 12.2238C33.7288 10.0422 34.3187 8.29698 35.3018 7.06737C36.3243 5.83776 37.74 5.24279 39.5489 5.24279C41.3579 5.24279 42.7736 5.83776 43.7961 7.06737C44.8579 8.29698 45.3691 9.9629 45.3691 12.2238C45.4084 14.4054 44.8185 16.0713 43.7961 17.3009ZM83.554 3.49754C81.3124 1.31597 78.4417 0.245025 74.7058 0.245025C71.0485 0.245025 68.0991 1.31597 65.8576 3.49754C63.6947 5.6791 62.5543 8.57463 62.5543 12.1841C62.5543 15.754 63.6947 18.6495 65.8576 20.8311C68.0991 23.0126 71.0485 24.0836 74.7058 24.0836C78.4417 24.0836 81.3911 23.0126 83.554 20.8311C85.7955 18.6495 86.8573 15.8333 86.8573 12.1841C86.8573 8.6143 85.7955 5.6791 83.554 3.49754ZM78.9529 17.3009C77.9305 18.5305 76.5148 19.2048 74.7058 19.2048C72.8182 19.2048 71.4811 18.5702 70.4586 17.3009C69.3969 16.0713 68.8856 14.4054 68.8856 12.2238C68.8856 10.0422 69.4755 8.29698 70.4586 7.06737C71.4811 5.83776 72.8968 5.24279 74.7058 5.24279C76.5148 5.24279 77.9305 5.83776 78.9529 7.06737C80.0147 8.29698 80.5259 9.9629 80.5259 12.2238C80.5259 14.4054 79.9361 16.0713 78.9529 17.3009ZM61.5711 19.8791V19.7998C61.2959 19.6411 61.0206 19.3635 60.7846 19.1651C60.4307 18.7288 60.2341 18.2528 60.0768 17.6182C59.9195 17.0629 59.8801 15.9919 59.8801 14.564V0.879662C59.8801 0.602008 59.6442 0.36402 59.3689 0.36402H54.6892C54.4139 0.36402 54.178 0.602008 54.178 0.879662L54.3746 9.88357V11.3908L54.2959 14.5244C54.2959 16.6662 54.4926 18.2925 54.8465 19.4031C55.2004 20.5534 55.8296 21.5847 56.6948 22.5366C57.6779 23.5283 58.7397 24.3216 59.9195 24.6785C60.352 24.8372 60.7453 24.9562 61.3352 25.0355C61.5318 25.1148 61.9644 25.1149 61.9644 24.5199V20.5534C62.0037 20.5137 61.9251 20.1568 61.5711 19.8791Z" fill="black"/>
<path d="M113.4 0.322722C116.703 0.322722 119.063 2.50428 119.063 5.59814C119.063 8.73165 116.664 10.9529 113.4 10.9529H109.153V0.322722H113.4ZM113.4 8.573C115.091 8.573 116.428 7.30372 116.428 5.59814C116.428 3.97188 115.13 2.70261 113.4 2.70261H111.788V8.573H113.4ZM123.153 10.9529H120.557V0.322722H123.153V10.9529ZM135.737 10.9529H133.771L133.653 9.68361C132.905 10.6356 131.804 11.1909 130.31 11.1909C127.007 11.1909 124.726 8.81098 124.726 5.79646C124.726 2.50428 127.125 0.164062 130.349 0.164062C132.905 0.164062 135.147 1.63166 135.58 4.17021H132.827C132.355 2.9406 131.293 2.58361 130.349 2.58361C128.54 2.58361 127.321 3.85289 127.321 5.71713C127.321 7.38305 128.501 8.73165 130.389 8.73165C131.608 8.73165 132.551 8.13668 133.063 7.1054L130.035 7.06573V5.00317H135.658V10.9529H135.737ZM140.456 10.9529H137.86V0.322722H140.456V10.9529ZM147.574 2.70261V10.9529H144.978V2.70261H141.636V0.322722H150.956V2.66294H147.574V2.70261ZM153.237 9.1283L152.529 10.9529H149.737L154.22 0.283057H156.697L161.141 10.9529H158.388L157.68 9.1283H153.237ZM155.478 3.33724L154.102 6.86741H156.815L155.478 3.33724ZM170.107 10.9529H162.281V0.322722H164.916V8.61266H170.107V10.9529ZM111.67 22.3367L111.041 24.0423H108.445L112.614 14.1261H114.934L119.063 24.0026H116.507L115.838 22.297H111.67V22.3367ZM113.754 16.9819L112.496 20.2344H115.012L113.754 16.9819ZM129.248 24.0423H127.439L127.321 22.8523C126.613 23.7249 125.591 24.2406 124.254 24.2406C121.186 24.2406 119.063 22.059 119.063 19.2428C119.063 16.1886 121.304 14.0071 124.293 14.0071C126.653 14.0071 128.737 15.3557 129.17 17.6959H126.613C126.181 16.5456 125.198 16.2283 124.332 16.2283C122.681 16.2283 121.54 17.4182 121.54 19.1635C121.54 20.7104 122.642 21.9797 124.372 21.9797C125.512 21.9797 126.377 21.4244 126.849 20.4724L124.057 20.4328V18.4892H129.287V24.0423H129.248ZM133.574 18.1322H137.9V20.1948H133.574V21.9004H138.529V24.0423H131.175V14.2054H138.529V16.3473H133.574V18.1322ZM148.871 24.0423H146.984L142.343 18.6478V24.0423H139.905V14.2054H141.754L146.473 19.7585V14.2054H148.911V24.0423H148.871ZM157.916 19.9568H160.394C160.079 22.4953 158.152 24.2406 155.517 24.2406C152.568 24.2406 150.366 22.0987 150.366 19.1238C150.366 16.149 152.607 14.0071 155.517 14.0071C158.192 14.0071 160.119 15.7523 160.394 18.2909H157.916C157.641 17.0613 156.776 16.3076 155.478 16.3076C153.905 16.3076 152.765 17.4976 152.765 19.1238C152.765 20.7501 153.866 21.94 155.478 21.94C156.815 21.94 157.641 21.1864 157.916 19.9568ZM166.45 21.0674V24.0423H164.012V21.0674L160.158 14.2054H162.832L165.231 18.4892L167.63 14.2054H170.304L166.45 21.0674Z" fill="black"/>
<path d="M97.906 0.00585938H98.3386V23.8047H97.906V0.00585938Z" fill="black"/>
<path d="M85.795 0.917872V2.58379H85.2445V0.917872H84.5759V0.441895H86.4635V0.917872H85.795ZM89.059 2.58379H88.5085V1.51284L88.0366 2.26647H87.722L87.25 1.51284V2.58379H86.6995V0.441895H87.0928L87.8399 1.59217L88.5871 0.441895H88.9804V2.58379H89.059Z" fill="black"/>
</g>
<defs>
<clipPath id="clip0_82_111">
<rect width="169.767" height="25" fill="white" transform="translate(0.536865)"/>
</clipPath>
</defs>
</svg>
