<svg width="82" height="14" viewBox="0 0 82 14" fill="none" xmlns="http://www.w3.org/2000/svg">
<path fill-rule="evenodd" clip-rule="evenodd" d="M76.2614 0.310303C79.2817 0.310303 80.9428 1.66422 80.9428 4.22161C81.0938 6.17726 79.7347 7.83204 77.9226 8.13291L81.9999 13.699H78.8286L75.3553 8.28335H75.0533V13.699H72.4861V0.310303H76.2614ZM75.0532 6.47813H75.8082C77.4694 6.47813 78.2244 5.72596 78.2244 4.37204C78.2244 3.16856 77.4694 2.41638 75.8082 2.41638H75.0532V6.47813ZM63.5769 13.699H70.8255V11.4425H66.1441V7.83204H70.6745V5.57552H66.1441V2.56683H70.8255V0.310303H63.5769V13.699ZM56.0257 9.3364L52.5524 0.310303H49.8342L55.4217 13.9999H56.7808L62.3683 0.310303H59.6501L56.0257 9.3364ZM25.3702 7.07995C25.3702 10.8408 28.3905 13.9999 32.1658 13.9999C33.3739 13.9999 34.431 13.6991 35.4881 13.2478V10.2391C34.733 11.1417 33.6759 11.7434 32.4678 11.7434C30.0516 11.7434 28.0885 9.93821 28.0885 7.53125V7.23038C27.9375 4.82342 29.9006 2.71734 32.3168 2.5669C33.5249 2.5669 34.733 3.16864 35.4881 4.07125V1.06255C34.582 0.460813 33.3739 0.310378 32.3168 0.310378C28.3905 0.00950801 25.3702 3.16864 25.3702 7.07995ZM20.6887 5.42516C19.1786 4.82342 18.7255 4.52255 18.7255 3.77038C18.8765 2.86777 19.6316 2.11559 20.5377 2.26603C21.2927 2.26603 22.0478 2.71733 22.6519 3.31907L24.011 1.51385C22.9539 0.611242 21.5948 0.00950249 20.2356 0.00950249C18.1215 -0.140932 16.3093 1.51385 16.1583 3.61994V3.77038C16.1583 5.57559 16.9134 6.62864 19.3296 7.38081C19.9336 7.53125 20.5377 7.83212 21.1417 8.13299C21.5948 8.43386 21.8968 8.88516 21.8968 9.4869C21.8968 10.5399 20.9907 11.4426 20.0846 11.4426H19.9336C18.7255 11.4426 17.6684 10.6904 17.2154 9.63734L15.5542 11.2921C16.4603 12.9469 18.2725 13.8495 20.0846 13.8495C22.5008 13.9999 24.464 12.1947 24.615 9.78777V9.33647C24.464 7.53125 23.7089 6.62864 20.6887 5.42516ZM11.9301 13.699H14.4974V0.310303H11.9301V13.699ZM0 0.310425H3.77532H4.53039C8.1547 0.46086 11.0239 3.46956 10.8729 7.07999C10.8729 9.03565 9.96685 10.8409 8.45672 12.1948C7.09761 13.2478 5.43647 13.8496 3.77532 13.6991H0V0.310425ZM3.32235 11.4426C4.53045 11.593 5.88957 11.1417 6.79564 10.3895C7.70172 9.48691 8.15476 8.28343 8.15476 6.92952C8.15476 5.72604 7.70172 4.52256 6.79564 3.61995C5.88957 2.86778 4.53045 2.41647 3.32235 2.56691H2.56728V11.4426H3.32235Z" fill="black"/>
<path fill-rule="evenodd" clip-rule="evenodd" d="M43.1898 0C39.4144 0 36.2432 3.0087 36.2432 6.92C36.2432 10.6809 39.2634 13.84 43.1898 13.9904C47.1161 14.1409 50.1364 10.9817 50.2874 7.07044C50.1364 3.15913 47.1161 0 43.1898 0V0Z" fill="#FD6020"/>
</svg>
