<svg width="174" height="31" viewBox="0 0 174 31" fill="none" xmlns="http://www.w3.org/2000/svg">
<g clip-path="url(#clip0_82_81)">
<path d="M39.3718 1.35173H44.1628L54.2866 25.1154H48.8567L46.6958 19.8222H36.6971L34.5474 25.107H29.248L39.3718 1.35173ZM44.8405 15.2226L41.702 7.57144L38.5635 15.2226H44.8405ZM54.8615 7.0388H59.9914V9.63543C61.2412 7.94873 62.9605 6.70312 65.6268 6.70312C69.8457 6.70312 73.8619 10.0072 73.8619 16.041V16.1076C73.8619 22.1414 69.9124 25.4455 65.6268 25.4455C62.8938 25.4455 61.2051 24.1971 59.9914 22.749V30.5028H54.8615V7.0388ZM68.732 16.1076V16.041C68.732 13.0421 66.7072 11.0475 64.3103 11.0475C61.9134 11.0475 59.922 13.0366 59.922 16.041V16.1076C59.922 19.1065 61.9134 21.1011 64.3103 21.1011C66.7072 21.1011 68.732 19.1398 68.732 16.1076ZM74.5673 7.0388H79.6972V9.63543C80.9471 7.94873 82.6663 6.70312 85.3326 6.70312C89.5516 6.70312 93.5677 10.0072 93.5677 16.041V16.1076C93.5677 22.1414 89.6182 25.4455 85.3326 25.4455C82.5997 25.4455 80.911 24.1971 79.6972 22.749V30.5028H74.5673V7.0388ZM88.4295 16.1076V16.041C88.4295 13.0421 86.4047 11.0475 84.0078 11.0475C81.6109 11.0475 79.6195 13.0366 79.6195 16.041V16.1076C79.6195 19.1065 81.6109 21.1011 84.0078 21.1011C86.4047 21.1011 88.4295 19.1398 88.4295 16.1076ZM94.3093 13.375V13.3084C94.3093 6.60048 99.3725 1.10205 106.627 1.10205C111.071 1.10205 113.749 2.58624 115.943 4.74178L112.632 8.5646C110.81 6.90009 108.955 5.90138 106.591 5.90138C102.608 5.90138 99.7392 9.20543 99.7392 13.2502V13.3168C99.7392 17.3615 102.539 20.7322 106.591 20.7322C109.291 20.7322 110.943 19.653 112.801 17.958L116.109 21.287C113.679 23.8836 110.979 25.501 106.424 25.501C99.4725 25.5121 94.3093 20.1523 94.3093 13.375Z" fill="black"/>
<path d="M115.4 16.1741V16.1075C115.4 10.917 119.586 6.70307 125.221 6.70307C130.857 6.70307 134.976 10.8505 134.976 16.041V16.1075C134.976 21.298 130.79 25.512 125.155 25.512C119.519 25.512 115.4 21.3646 115.4 16.1741ZM129.912 16.1741V16.1075C129.912 13.4443 127.988 11.114 125.155 11.114C122.219 11.114 120.464 13.3722 120.464 16.0354V16.102C120.464 18.7652 122.388 21.0955 125.221 21.0955C128.149 21.0955 129.912 18.829 129.912 16.1741ZM135.648 16.1075V16.041C135.648 10.0071 139.597 6.70307 143.883 6.70307C146.616 6.70307 148.305 7.95145 149.518 9.39957V0.5H154.648V25.107H149.518V22.5103C148.268 24.197 146.549 25.4427 143.883 25.4427C139.664 25.4427 135.648 22.1414 135.648 16.1075ZM149.585 16.1075V16.041C149.585 13.0421 147.594 11.0474 145.197 11.0474C142.8 11.0474 140.775 12.9894 140.775 16.041V16.1075C140.775 19.1064 142.8 21.1011 145.197 21.1011C147.594 21.1011 149.585 19.1064 149.585 16.1075ZM155.593 16.1741V16.1075C155.593 10.9503 159.27 6.70307 164.536 6.70307C170.577 6.70307 173.343 11.3887 173.343 16.5126C173.343 16.9176 173.31 17.3892 173.276 17.8608H160.686C161.192 20.1856 162.814 21.4007 165.108 21.4007C166.83 21.4007 168.077 20.8625 169.496 19.5475L172.432 22.1442C170.743 24.2331 168.316 25.5148 165.041 25.5148C159.606 25.512 155.593 21.7031 155.593 16.1741ZM168.347 14.6677C168.044 12.3763 166.68 10.8255 164.533 10.8255C162.386 10.8255 161.022 12.343 160.62 14.6677H168.347Z" fill="black"/>
<path d="M0.742188 1.51807H24.3614V25.1097H0.742188V1.51807Z" fill="black"/>
<path d="M5.08471 4.45875H6.27622L8.79257 10.365H7.43996L6.90392 9.05002H4.4209L3.88486 10.365H2.56836L5.08471 4.45875ZM6.44287 7.90983L5.66241 6.00674L4.88195 7.90706H6.44287V7.90983ZM8.45928 7.45487V7.43822C8.45202 7.03009 8.52756 6.62471 8.68136 6.24652C8.83516 5.86833 9.06403 5.52516 9.35417 5.23769C9.64432 4.95022 9.98973 4.7244 10.3696 4.57384C10.7495 4.42328 11.1559 4.3511 11.5644 4.36165C11.9984 4.34022 12.432 4.41099 12.8365 4.56927C13.2411 4.72756 13.6074 4.96977 13.9114 5.27991L13.0781 6.23977C12.6785 5.82533 12.132 5.58424 11.5561 5.56842C10.5535 5.56842 9.82855 6.40068 9.82855 7.42158V7.43822C9.82855 8.45912 10.534 9.30802 11.5561 9.30802C12.2366 9.30802 12.6671 9.0306 13.1226 8.6117L13.9558 9.44395C13.6556 9.79363 13.2799 10.0709 12.8571 10.2549C12.4343 10.4389 11.9753 10.5249 11.5144 10.5065C11.1114 10.5132 10.7111 10.4389 10.3373 10.2879C9.9636 10.137 9.62411 9.91244 9.33905 9.62772C9.05399 9.343 8.8292 9.0039 8.67806 8.63061C8.52692 8.25732 8.45252 7.85747 8.45928 7.45487ZM2.95442 20.6849H11.8116V22.158H2.95442V20.6849Z" fill="white"/>
</g>
<defs>
<clipPath id="clip0_82_81">
<rect width="172.615" height="30" fill="white" transform="translate(0.732422 0.5)"/>
</clipPath>
</defs>
</svg>
