<svg width="70" height="31" viewBox="0 0 70 31" fill="none" xmlns="http://www.w3.org/2000/svg">
<path fill-rule="evenodd" clip-rule="evenodd" d="M37.897 4.20093L33.0164 5.31842V1.09679L37.897 0V4.20093ZM48.047 6.53943C46.1414 6.53943 44.9164 7.49137 44.2359 8.15358L43.9831 6.87054H39.7053V31.0001L44.5664 29.9033L44.5859 24.0468C45.2859 24.5849 46.3164 25.3505 48.0275 25.3505C51.5081 25.3505 54.6776 22.3706 54.6776 15.8105C54.6581 9.80913 51.4498 6.53943 48.047 6.53943ZM46.8805 20.7976C45.7333 20.7976 45.0528 20.3631 44.5861 19.825L44.5667 12.1474C45.0722 11.5473 45.7722 11.1334 46.8805 11.1334C48.65 11.1334 49.875 13.2442 49.875 15.9552C49.875 18.7282 48.6694 20.7976 46.8805 20.7976ZM69.9999 16.0174C69.9999 10.7197 67.5888 6.53943 62.9804 6.53943C58.3527 6.53943 55.5527 10.7197 55.5527 15.976C55.5527 22.205 58.8582 25.3505 63.6027 25.3505C65.9166 25.3505 67.6666 24.7918 68.9888 24.0054V19.8665C67.6666 20.5701 66.1499 21.0047 64.2249 21.0047C62.3388 21.0047 60.6666 20.3011 60.4527 17.8592H69.961C69.961 17.7451 69.968 17.486 69.9761 17.1875C69.987 16.7819 69.9999 16.3035 69.9999 16.0174ZM60.394 14.0514C60.394 11.713 61.7357 10.7404 62.9607 10.7404C64.1468 10.7404 65.4107 11.713 65.4107 14.0514H60.394ZM33.0159 6.89111H37.8965V24.9986H33.0159V6.89111ZM27.4748 6.89115L27.7859 8.42253C28.9331 6.18755 31.2082 6.64282 31.8304 6.89115V11.6508C31.2276 11.4232 29.2831 11.1335 28.1359 12.7269V24.9986H23.2748V6.89115H27.4748ZM18.0638 2.40051L13.3193 3.47661L13.2999 20.0527C13.2999 23.1155 15.4582 25.3711 18.336 25.3711C19.9305 25.3711 21.0972 25.0607 21.7388 24.6882V20.4873C21.1166 20.7563 18.0444 21.7083 18.0444 18.6455V11.299H21.7388V6.89117H18.0444L18.0638 2.40051ZM6.57225 11.0302C5.54169 11.0302 4.91947 11.3406 4.91947 12.1477C4.91947 13.0289 5.99033 13.4165 7.31885 13.8974C9.48465 14.6814 12.3352 15.7132 12.3473 19.5355C12.3473 23.2398 9.56671 25.3713 5.52225 25.3713C3.85002 25.3713 2.02223 25.0195 0.21389 24.1917V19.2665C1.84723 20.2184 3.90835 20.922 5.52225 20.922C6.61114 20.922 7.38892 20.6116 7.38892 19.6597C7.38892 18.6836 6.22809 18.2374 4.82665 17.6988C2.69235 16.8785 0 15.8437 0 12.396C0 8.7331 2.62501 6.53951 6.57225 6.53951C8.18615 6.53951 9.7806 6.80853 11.3945 7.49144V12.3546C9.91671 11.5061 8.05004 11.0302 6.57225 11.0302Z" fill="#6461FC"/>
</svg>
