<svg width="70" height="25" viewBox="0 0 70 25" fill="none" xmlns="http://www.w3.org/2000/svg">
<path fill-rule="evenodd" clip-rule="evenodd" d="M41.7507 9.6753H44.9593C45.9766 9.63892 46.5954 9.56133 46.8181 9.43977C47.1222 9.27378 47.3264 8.94156 47.428 8.44312C47.493 8.11136 47.5255 7.61821 47.5255 6.96299C47.5255 6.16041 47.461 5.56551 47.3313 5.17688C47.1461 4.63263 46.7028 4.3011 46.0005 4.18069C45.8618 4.1625 45.5293 4.15283 45.0027 4.15283H41.7507V9.6753ZM36.604 18.9772V0H46.1928C47.5081 0 48.5117 0.106595 49.2012 0.319556C50.7784 0.80994 51.8365 1.81396 52.3785 3.33139C52.6583 4.12775 52.7982 5.32677 52.7982 6.92778C52.7982 8.85271 52.6429 10.2361 52.336 11.0783C51.721 12.7438 50.4549 13.7031 48.5433 13.9518C48.3184 13.9891 47.3619 14.0225 45.6736 14.0492L44.8192 14.0775H41.7507V18.9772H36.604ZM10.7603 6.05356H15.5483C15.5792 5.63432 15.5947 5.32075 15.5947 5.11101C15.5947 2.55387 14.553 0.997767 12.4694 0.442228C11.6157 0.214993 10.1835 0.10034 8.17392 0.10034C6.89744 0.10034 5.73697 0.146616 4.69088 0.237095C3.43367 0.337474 2.4008 0.673376 1.59366 1.24549C1.04266 1.61823 0.643388 2.16318 0.395611 2.88103C0.148065 3.59865 0.0241767 4.55271 0.0241767 5.74253C0.0241767 7.30485 0.253394 8.47279 0.711596 9.24475C1.2329 10.1532 2.2776 10.7516 3.84524 11.0426C4.44055 11.1437 5.50358 11.248 7.03386 11.3564C8.93952 11.4837 10.0072 11.5841 10.2366 11.6561C10.8503 11.8385 11.1577 12.3468 11.1577 13.1823C11.1577 13.5553 11.1213 13.8601 11.0479 14.0956C10.9099 14.4783 10.6211 14.7548 10.181 14.9265C9.93364 15.0182 9.36037 15.0637 8.46206 15.0637H6.70187C6.23322 15.0536 5.83465 14.9682 5.50451 14.8054C5.02821 14.5694 4.78948 14.0395 4.78948 13.2155L4.7893 13.0793V13.0793C4.78917 13.0068 4.78902 12.9206 4.78902 12.8209H0.000976562C0.000976562 14.365 0.114889 15.468 0.345034 16.1304C0.758228 17.3202 1.61199 18.1103 2.90702 18.5004C3.96217 18.8188 5.83094 18.9772 8.51241 18.9772C10.1188 18.9772 11.3131 18.9042 12.0938 18.7582C13.9572 18.4131 15.1548 17.5914 15.688 16.2904C15.9821 15.5813 16.129 14.4624 16.129 12.9346C16.129 12.2718 16.097 11.6753 16.0325 11.148C15.9223 10.2667 15.5768 9.55302 14.9975 9.00692C14.2614 8.30703 13.0749 7.87512 11.4384 7.71143C10.9229 7.65687 9.63042 7.56086 7.56097 7.42457L6.59538 7.35688C6.17151 7.32971 5.83163 7.23877 5.57434 7.08406C5.2152 6.86604 5.0361 6.41111 5.0361 5.72019C5.0361 4.95699 5.2384 4.46131 5.64255 4.23338C6.04693 4.00615 6.87564 3.89265 8.12566 3.89265C9.4128 3.89265 10.1993 4.08995 10.4842 4.4841C10.6679 4.75048 10.7603 5.27378 10.7603 6.05356ZM0.019043 22.7406L0.736855 22.6688C0.780007 22.9089 0.867703 23.085 0.999712 23.1978C1.13195 23.3104 1.31013 23.3666 1.53447 23.3666C1.77204 23.3666 1.95092 23.3166 2.07156 23.2167C2.19197 23.1166 2.25205 22.9996 2.25205 22.8656C2.25205 22.7797 2.22677 22.7068 2.17642 22.6462C2.12585 22.5859 2.03769 22.5336 1.91171 22.4887C1.8254 22.4595 1.62913 22.407 1.32266 22.3315C0.928024 22.2348 0.651478 22.1155 0.492325 21.9739C0.268676 21.775 0.156852 21.5324 0.156852 21.246C0.156852 21.062 0.209516 20.8896 0.315076 20.7293C0.420405 20.5689 0.572598 20.4466 0.770959 20.3628C0.969552 20.279 1.20921 20.2369 1.48993 20.2369C1.94836 20.2369 2.29335 20.337 2.52512 20.5369C2.75689 20.7369 2.87846 21.0038 2.89006 21.3376L2.15067 21.3664C2.11912 21.1799 2.05137 21.0459 1.94744 20.9639C1.84373 20.8822 1.68806 20.8412 1.48042 20.8412C1.26605 20.8412 1.09854 20.885 0.977208 20.9724C0.899023 21.0284 0.860047 21.1034 0.860047 21.1974C0.860047 21.2833 0.896703 21.3565 0.969784 21.4177C1.06258 21.4951 1.28832 21.5759 1.647 21.6594C2.00544 21.7432 2.27061 21.83 2.44253 21.9203C2.61421 22.0103 2.74877 22.1335 2.84598 22.2896C2.94295 22.4461 2.99167 22.6391 2.99167 22.8688C2.99167 23.0774 2.93344 23.2724 2.81698 23.4543C2.70051 23.6362 2.53602 23.7713 2.32328 23.8597C2.11053 23.9481 1.84536 23.9926 1.52775 23.9926C1.0656 23.9926 0.710638 23.886 0.462861 23.6728C0.215316 23.4596 0.0672992 23.149 0.019043 22.7406ZM3.75844 21.3019H4.46206V23.9278H3.75844V21.3019ZM3.75844 20.3018H4.46206V20.9422H3.75844V20.3018ZM7.04026 23.9278H7.74346V22.2925C7.74346 22.0895 7.73047 21.9334 7.70471 21.8245C7.67896 21.7154 7.63326 21.618 7.5676 21.5321C7.50195 21.4462 7.4052 21.3755 7.27737 21.3203C7.14953 21.265 7.00825 21.2372 6.85373 21.2372C6.50341 21.2372 6.21248 21.3873 5.98164 21.6877V21.3019H5.32925V23.9278H6.03245V22.736C6.03245 22.4417 6.05008 22.2403 6.08581 22.1314C6.1213 22.0223 6.18696 21.9348 6.28301 21.8687C6.37906 21.8026 6.4874 21.7695 6.60827 21.7695C6.70247 21.7695 6.7832 21.7927 6.85025 21.8388C6.9173 21.885 6.96556 21.9502 6.99549 22.0335C7.02518 22.1169 7.04026 22.3006 7.04026 22.5847V23.9278ZM9.16595 22.5582C9.16595 22.8377 9.2198 23.0423 9.32798 23.172C9.43593 23.302 9.56918 23.3667 9.72773 23.3667C9.89743 23.3667 10.0409 23.3002 10.1581 23.1671C10.2751 23.034 10.3339 22.8367 10.3339 22.5754C10.3339 22.3028 10.2777 22.1002 10.1656 21.9679C10.0532 21.8357 9.91159 21.7694 9.74004 21.7694C9.57336 21.7694 9.43593 21.8346 9.32798 21.9642C9.2198 22.0943 9.16595 22.292 9.16595 22.5582ZM8.53494 24.1005L9.33233 24.1869C9.34578 24.2847 9.37664 24.3519 9.4249 24.3888C9.49171 24.4413 9.59681 24.4675 9.74019 24.4675C9.9237 24.4675 10.0613 24.4403 10.1531 24.386C10.2146 24.3496 10.2615 24.2911 10.2933 24.2103C10.3149 24.1523 10.3258 24.0462 10.3258 23.891L10.3278 23.5077C10.1204 23.7879 9.85735 23.9278 9.53811 23.9278C9.18199 23.9278 8.90034 23.7787 8.69247 23.4796C8.52937 23.2434 8.44794 22.9492 8.44794 22.5974C8.44794 22.1562 8.55466 21.8194 8.76833 21.5864C8.98201 21.3537 9.24788 21.2372 9.56549 21.2372C9.89307 21.2372 10.1634 21.3802 10.3763 21.6656V21.3019H11.029V23.6624C11.029 23.973 11.0032 24.205 10.9515 24.3584C10.9 24.5122 10.8276 24.6326 10.7343 24.7201C10.641 24.8075 10.5167 24.8762 10.361 24.9257C10.2053 24.9752 10.0086 25 9.77081 25C9.32142 25 9.00265 24.9231 8.8145 24.7696C8.62635 24.616 8.53239 24.4212 8.53239 24.1852C8.53239 24.162 8.53332 24.1339 8.53494 24.1005ZM12.5748 20.3018H11.8711V23.9278H12.5748V20.3018ZM15.0236 22.3954C15.0187 22.191 14.966 22.0358 14.8655 21.9292C14.7652 21.8228 14.6431 21.7694 14.4992 21.7694C14.3453 21.7694 14.2181 21.8258 14.1178 21.9379C14.0173 22.0501 13.968 22.2027 13.9697 22.3954H15.0236ZM14.9861 23.1006L15.6821 23.2158C15.5921 23.4688 15.4499 23.6617 15.2557 23.7941C15.0615 23.9267 14.8184 23.9928 14.5268 23.9928C14.0649 23.9928 13.7231 23.8429 13.5016 23.5434C13.3264 23.3035 13.2389 23.0007 13.2389 22.6347C13.2389 22.1981 13.3538 21.8558 13.5839 21.6083C13.8138 21.3608 14.1045 21.2372 14.456 21.2372C14.8511 21.2372 15.1627 21.367 15.391 21.6265C15.6193 21.8864 15.7283 22.284 15.7183 22.82H13.9568C13.9616 23.0267 14.0187 23.1874 14.1277 23.3025C14.2368 23.4172 14.3727 23.4748 14.5356 23.4748C14.6463 23.4748 14.7395 23.4453 14.8149 23.3861C14.8903 23.3272 14.9476 23.2319 14.9861 23.1006ZM18.0192 20.3018V23.9278H20.796V23.3164H18.7588V22.3308H20.5858V21.7193H18.7588V20.9135H20.7236V20.3018H18.0192ZM23.3101 23.9277V23.5345C23.2134 23.6747 23.0865 23.7861 22.9289 23.8688C22.7714 23.9512 22.6053 23.9927 22.4304 23.9927C22.252 23.9927 22.0923 23.9538 21.9506 23.8762C21.8091 23.7986 21.7065 23.6894 21.6432 23.5492C21.5798 23.4088 21.5483 23.2147 21.5483 22.967V21.3018H22.2515V22.5095C22.2515 22.8793 22.2642 23.1058 22.2902 23.1889C22.316 23.2727 22.3629 23.3386 22.4311 23.3874C22.4993 23.436 22.5856 23.4601 22.6904 23.4601C22.8101 23.4601 22.9176 23.4279 23.0122 23.3625C23.1071 23.2974 23.1718 23.2166 23.2069 23.1199C23.2417 23.0234 23.2593 22.787 23.2593 22.4108V21.3018H23.9625V23.9277H23.3101ZM24.8046 23.9278H25.5078V23.1158C25.5078 22.6687 25.5275 22.3747 25.5667 22.2345C25.6059 22.0943 25.6598 21.9974 25.7282 21.9435C25.7966 21.8901 25.8799 21.8632 25.9785 21.8632C26.0801 21.8632 26.1906 21.9012 26.3089 21.9769L26.5228 21.3689C26.3748 21.2812 26.2207 21.2372 26.0611 21.2372C25.9479 21.2372 25.847 21.2662 25.7579 21.324C25.6688 21.382 25.5686 21.499 25.457 21.6753V21.3019H24.8046V23.9278ZM27.5243 22.6148C27.5243 22.8766 27.5867 23.0766 27.7118 23.2157C27.837 23.3547 27.9911 23.4243 28.1747 23.4243C28.3581 23.4243 28.512 23.3547 28.6362 23.2157C28.7604 23.0766 28.8227 22.8747 28.8227 22.61C28.8227 22.3519 28.7604 22.153 28.6362 22.0141C28.512 21.8751 28.3581 21.8055 28.1747 21.8055C27.9911 21.8055 27.837 21.8751 27.7118 22.0141C27.5867 22.153 27.5243 22.3535 27.5243 22.6148ZM26.8063 22.5776C26.8063 22.346 26.8636 22.1217 26.9784 21.9048C27.0931 21.6882 27.2555 21.5227 27.4659 21.4085C27.6761 21.2943 27.9111 21.2372 28.1705 21.2372C28.5711 21.2372 28.8994 21.3666 29.1555 21.6256C29.4114 21.8846 29.5395 22.212 29.5395 22.6075C29.5395 23.0062 29.41 23.3371 29.1516 23.5993C28.8931 23.8615 28.5676 23.9928 28.1753 23.9928C27.9327 23.9928 27.7011 23.938 27.481 23.8291C27.2606 23.7197 27.0931 23.5597 26.9784 23.3486C26.8636 23.1375 26.8063 22.8808 26.8063 22.5776ZM32.5689 21.9495V20.9135H32.9245C33.1901 20.9135 33.3665 20.9217 33.4545 20.9383C33.5738 20.96 33.6725 21.0138 33.7505 21.1002C33.8285 21.1865 33.8675 21.2961 33.8675 21.4289C33.8675 21.5369 33.8396 21.6315 33.7842 21.7128C33.7287 21.7943 33.6518 21.8542 33.5541 21.8924C33.4561 21.9306 33.2621 21.9495 32.9719 21.9495H32.5689ZM31.8296 20.3018V23.9278H32.569V22.561H33.0497C33.3831 22.561 33.6378 22.5437 33.8139 22.5089C33.9434 22.4809 34.0707 22.4238 34.196 22.337C34.3213 22.2504 34.4248 22.1311 34.506 21.9797C34.5874 21.8275 34.628 21.6405 34.628 21.4179C34.628 21.1292 34.5575 20.8937 34.4162 20.7116C34.2749 20.5292 34.0997 20.4107 33.8905 20.3563C33.7543 20.3202 33.4617 20.3018 33.0133 20.3018H31.8296ZM36.8373 22.6689C36.7475 22.6989 36.6056 22.7343 36.4116 22.7758C36.2175 22.817 36.0905 22.8577 36.0311 22.8973C35.9396 22.962 35.8944 23.044 35.8944 23.1432C35.8944 23.2411 35.9306 23.3253 36.0035 23.3967C36.0766 23.4678 36.1694 23.5035 36.2825 23.5035C36.4085 23.5035 36.5286 23.4621 36.6432 23.3794C36.7277 23.3163 36.7835 23.2394 36.8099 23.1483C36.828 23.0886 36.8373 22.9751 36.8373 22.8078V22.6689ZM35.8947 22.1005L35.2639 21.9854C35.3354 21.731 35.4583 21.5429 35.6328 21.4207C35.8075 21.2984 36.0669 21.2372 36.4109 21.2372C36.7234 21.2372 36.9564 21.274 37.1092 21.3472C37.2621 21.4211 37.37 21.5144 37.4322 21.6274C37.4946 21.7405 37.5259 21.9484 37.5259 22.2506L37.5187 23.0633C37.5187 23.2945 37.5299 23.4653 37.5521 23.5749C37.5746 23.6847 37.6166 23.8024 37.6781 23.9278H36.9821C36.9636 23.8825 36.9413 23.815 36.9146 23.7257C36.903 23.685 36.8946 23.6582 36.89 23.6451C36.7703 23.7609 36.6425 23.848 36.5063 23.906C36.3701 23.9638 36.2251 23.9928 36.0706 23.9928C35.7982 23.9928 35.5834 23.9191 35.4265 23.7722C35.2697 23.6251 35.1913 23.4391 35.1913 23.2144C35.1913 23.0659 35.227 22.9333 35.2982 22.8168C35.3699 22.7003 35.4702 22.6109 35.5989 22.549C35.7279 22.4873 35.9137 22.4328 36.1564 22.3865C36.4838 22.3255 36.7107 22.2686 36.8371 22.2156V22.1454C36.8371 22.0101 36.8037 21.9136 36.7369 21.8558C36.6698 21.7982 36.5439 21.7695 36.3583 21.7695C36.233 21.7695 36.1353 21.7941 36.065 21.8429C35.9947 21.8919 35.9379 21.9778 35.8947 22.1005ZM38.7774 21.3018H38.0309L39.0398 23.9351C38.9981 24.0834 38.938 24.2056 38.8593 24.3018C38.7807 24.3976 38.6598 24.4457 38.4958 24.4457C38.4074 24.4457 38.3076 24.4352 38.1974 24.4133L38.2629 24.9578C38.3925 24.9859 38.5252 24.9999 38.66 24.9999C38.7932 24.9999 38.9127 24.9859 39.0185 24.9575C39.1243 24.9297 39.2129 24.8901 39.2855 24.8397C39.3579 24.7895 39.4222 24.7236 39.4779 24.6428C39.5335 24.5618 39.5922 24.4446 39.6539 24.2908L40.7569 21.3018H40.0319L39.412 23.1661L38.7774 21.3018ZM41.3052 21.3019H41.9504V21.6606C42.1822 21.3783 42.458 21.2372 42.7782 21.2372C42.948 21.2372 43.0956 21.2717 43.2206 21.341C43.3457 21.4105 43.4482 21.5155 43.528 21.6557C43.6445 21.5155 43.7705 21.4105 43.905 21.341C44.04 21.2717 44.1837 21.2372 44.3368 21.2372C44.5317 21.2372 44.6964 21.2763 44.8312 21.3551C44.966 21.4331 45.0669 21.5484 45.1335 21.7006C45.1815 21.8127 45.2056 21.9944 45.2056 22.2456V23.9278H44.5024V22.4238C44.5024 22.1627 44.4783 21.9944 44.4303 21.9184C44.3653 21.819 44.2658 21.7695 44.1315 21.7695C44.0333 21.7695 43.941 21.7992 43.8547 21.8588C43.7684 21.9184 43.7062 22.0054 43.6681 22.1203C43.6299 22.235 43.6106 22.4164 43.6106 22.6641V23.9278H42.9074V22.4859C42.9074 22.2295 42.8951 22.0646 42.8701 21.99C42.8452 21.9157 42.8067 21.8604 42.7543 21.824C42.7019 21.7879 42.6311 21.7695 42.5413 21.7695C42.4334 21.7695 42.3362 21.7985 42.2499 21.8563C42.1636 21.914 42.1019 21.9976 42.0643 22.1065C42.027 22.2156 42.0084 22.3964 42.0084 22.6492V23.9278H41.3052V21.3019ZM47.4703 21.9292C47.571 22.0358 47.6235 22.191 47.6286 22.3954H46.5747C46.573 22.2027 46.6222 22.0501 46.7228 21.9379C46.8228 21.8258 46.9503 21.7694 47.1039 21.7694C47.2479 21.7694 47.3702 21.8228 47.4703 21.9292ZM48.2878 23.2158L47.5918 23.1006C47.5533 23.2319 47.4963 23.3272 47.4204 23.3861C47.345 23.4453 47.252 23.4748 47.1413 23.4748C46.9782 23.4748 46.8423 23.4172 46.7334 23.3025C46.6244 23.1874 46.5673 23.0267 46.5622 22.82H48.324C48.334 22.284 48.2247 21.8864 47.9964 21.6265C47.7682 21.367 47.4568 21.2372 47.0617 21.2372C46.71 21.2372 46.4195 21.3608 46.1894 21.6083C45.9597 21.8558 45.8444 22.1981 45.8444 22.6347C45.8444 23.0007 45.9319 23.3035 46.107 23.5434C46.3288 23.8429 46.6706 23.9928 47.1322 23.9928C47.4241 23.9928 47.667 23.9267 47.8614 23.7941C48.0556 23.6617 48.1976 23.4688 48.2878 23.2158ZM51.4534 23.9278H50.7502V22.5847C50.7502 22.3006 50.7352 22.1169 50.7057 22.0335C50.6758 21.9502 50.6273 21.885 50.5602 21.8388C50.4932 21.7927 50.4125 21.7695 50.3183 21.7695C50.1976 21.7695 50.089 21.8026 49.9932 21.8687C49.8972 21.9348 49.8315 22.0223 49.7958 22.1314C49.7603 22.2403 49.7424 22.4417 49.7424 22.736V23.9278H49.0392V21.3019H49.6916V21.6877C49.9227 21.3873 50.2134 21.2372 50.5637 21.2372C50.7182 21.2372 50.8598 21.265 50.9874 21.3203C51.1152 21.3755 51.2122 21.4462 51.2778 21.5321C51.3435 21.618 51.3889 21.7154 51.4147 21.8245C51.4407 21.9334 51.4534 22.0895 51.4534 22.2925V23.9278ZM53.5289 21.8558V21.3019H53.05V20.3667L52.3463 20.7767V21.3019H52.0271V21.8558H52.3463V23.0037C52.3463 23.2498 52.3535 23.4135 52.3686 23.4946C52.3867 23.6085 52.4192 23.699 52.4664 23.7658C52.5137 23.8328 52.5878 23.8876 52.6885 23.9295C52.7895 23.9716 52.9026 23.9928 53.0286 23.9928C53.2336 23.9928 53.4172 23.958 53.5795 23.8887L53.518 23.3505C53.3968 23.3949 53.3049 23.4172 53.2408 23.4172C53.1951 23.4172 53.1565 23.4055 53.1245 23.3825C53.0927 23.3592 53.0723 23.33 53.0634 23.2943C53.0544 23.2588 53.05 23.1333 53.05 22.9183V21.8558H53.5289ZM53.9239 23.187L54.6271 23.079C54.6571 23.2132 54.7176 23.315 54.8088 23.3847C54.9002 23.4545 55.0278 23.489 55.1921 23.489C55.3732 23.489 55.5094 23.4559 55.6006 23.3896C55.6621 23.3428 55.6929 23.2809 55.6929 23.2026C55.6929 23.1497 55.676 23.1055 55.6426 23.0709C55.6073 23.0376 55.5289 23.0069 55.4069 22.9786C54.8387 22.8541 54.4784 22.7406 54.3267 22.6381C54.116 22.4961 54.0109 22.2983 54.0109 22.0457C54.0109 21.8174 54.1016 21.6256 54.2838 21.4704C54.4661 21.315 54.7485 21.2372 55.131 21.2372C55.4953 21.2372 55.7658 21.2954 55.943 21.4117C56.1201 21.5282 56.2421 21.7002 56.3091 21.9279L55.6493 22.0501C55.6208 21.9481 55.5665 21.8696 55.4867 21.8153C55.4067 21.7607 55.2927 21.7336 55.145 21.7336C54.9584 21.7336 54.8246 21.7591 54.7441 21.8109C54.69 21.8473 54.6633 21.8945 54.6633 21.9525C54.6633 22.0025 54.6865 22.0448 54.7334 22.0798C54.7967 22.1261 55.016 22.1917 55.3906 22.2764C55.7653 22.3612 56.027 22.4648 56.1757 22.5875C56.3224 22.7118 56.3961 22.8851 56.3961 23.1073C56.3961 23.3493 56.2945 23.5574 56.092 23.7315C55.889 23.9057 55.5892 23.9928 55.1921 23.9928C54.8318 23.9928 54.5464 23.9202 54.3362 23.7759C54.126 23.6311 53.9887 23.4352 53.9239 23.187ZM60.1652 21.1509L60.6764 22.4963H59.6712L60.1652 21.1509ZM61.2355 23.9278H62.0318L60.5562 20.3018H59.7785L58.3631 23.9278H59.1456L59.4468 23.1078H60.9195L61.2355 23.9278ZM63.2385 23.9278H62.5353V21.3019H63.1877V21.6753C63.2993 21.499 63.3993 21.382 63.4886 21.324C63.5775 21.2662 63.6784 21.2372 63.7919 21.2372C63.9515 21.2372 64.1053 21.2812 64.2535 21.3689L64.0396 21.9769C63.9211 21.9012 63.8109 21.8632 63.7093 21.8632C63.6104 21.8632 63.5271 21.8901 63.4587 21.9435C63.3903 21.9974 63.3364 22.0943 63.2975 22.2345C63.258 22.3747 63.2385 22.6687 63.2385 23.1158V23.9278ZM66.1268 21.9292C66.2271 22.0358 66.2798 22.191 66.2849 22.3954H65.231C65.2291 22.2027 65.2785 22.0501 65.3791 21.9379C65.4794 21.8258 65.6063 21.7694 65.7605 21.7694C65.9042 21.7694 66.0263 21.8228 66.1268 21.9292ZM66.9444 23.2158L66.2484 23.1006C66.2096 23.2319 66.1525 23.3272 66.0771 23.3861C66.0015 23.4453 65.9085 23.4748 65.7976 23.4748C65.6349 23.4748 65.499 23.4172 65.3897 23.3025C65.2809 23.1874 65.2238 23.0267 65.2187 22.82H66.9805C66.9905 22.284 66.8812 21.8864 66.6532 21.6265C66.4247 21.367 66.1131 21.2372 65.7182 21.2372C65.3668 21.2372 65.0758 21.3608 64.8461 21.6083C64.616 21.8558 64.5009 22.1981 64.5009 22.6347C64.5009 23.0007 64.5884 23.3035 64.7636 23.5434C64.9851 23.8429 65.3271 23.9928 65.789 23.9928C66.0806 23.9928 66.3238 23.9267 66.5179 23.7941C66.7121 23.6617 66.8543 23.4688 66.9444 23.2158ZM69.1609 22.6689C69.0713 22.6989 68.9292 22.7343 68.7352 22.7758C68.5411 22.817 68.4143 22.8577 68.3547 22.8973C68.2632 22.962 68.2179 23.044 68.2179 23.1432C68.2179 23.2411 68.2542 23.3253 68.3273 23.3967C68.4002 23.4678 68.493 23.5035 68.6061 23.5035C68.7321 23.5035 68.8522 23.4621 68.9668 23.3794C69.0513 23.3163 69.1071 23.2394 69.1335 23.1483C69.1516 23.0886 69.1609 22.9751 69.1609 22.8078V22.6689ZM68.2174 22.1005L67.5866 21.9854C67.6581 21.731 67.781 21.5429 67.9555 21.4207C68.1302 21.2984 68.3896 21.2372 68.7336 21.2372C69.0461 21.2372 69.279 21.274 69.4319 21.3472C69.5848 21.4211 69.6927 21.5144 69.7549 21.6274C69.8173 21.7405 69.8486 21.9484 69.8486 22.2506L69.8414 23.0633C69.8414 23.2945 69.8525 23.4653 69.8748 23.5749C69.8973 23.6847 69.9393 23.8024 70.0006 23.9278H69.3048C69.2862 23.8825 69.2642 23.815 69.2373 23.7257C69.2259 23.685 69.2173 23.6582 69.2127 23.6451C69.093 23.7609 68.9654 23.848 68.8292 23.906C68.693 23.9638 68.5478 23.9928 68.3933 23.9928C68.1209 23.9928 67.9061 23.9191 67.7492 23.7722C67.5926 23.6251 67.5142 23.4391 67.5142 23.2144C67.5142 23.0659 67.5497 22.9333 67.6212 22.8168C67.6926 22.7003 67.7929 22.6109 67.9216 22.549C68.0506 22.4873 68.2364 22.4328 68.4791 22.3865C68.8065 22.3255 69.0333 22.2686 69.1598 22.2156V22.1454C69.1598 22.0101 69.1264 21.9136 69.0596 21.8558C68.9928 21.7982 68.8665 21.7695 68.6809 21.7695C68.5557 21.7695 68.458 21.7941 68.3877 21.8429C68.3176 21.8919 68.2606 21.9778 68.2174 22.1005ZM60.3506 3.77405L62.7621 12.0003H58.0104L60.3506 3.77405ZM56.9029 15.6974H63.7843L64.7661 18.9772H69.9792L64.1629 0H56.3992L50.6535 18.9772H55.9784L56.9029 15.6974Z" fill="#10298E"/>
<path fill-rule="evenodd" clip-rule="evenodd" d="M29.5 2.66978C31.6229 2.66978 33.5174 3.64019 34.7628 5.16015L35.8722 2.79963C34.1371 1.17215 31.7755 0.168823 29.1708 0.168823C25.1155 0.168823 21.6463 2.59933 20.2225 6.03985H18.0591L16.7817 8.75746H19.5648C19.5439 9.00956 19.5305 9.26189 19.5305 9.51928C19.5305 9.83078 19.5467 10.1386 19.5778 10.4427H18.1791L16.9019 13.1612H20.2889C21.7533 16.5147 25.179 18.869 29.1708 18.869C31.1825 18.869 33.0492 18.2709 34.5948 17.2492V13.9175C33.3501 15.3238 31.5296 16.2125 29.5 16.2125C27.1276 16.2125 25.0407 14.9985 23.8255 13.1612H30.918L32.1952 10.4427H22.782C22.7335 10.1156 22.7075 9.78128 22.7075 9.44077C22.7075 9.21055 22.7196 8.98262 22.7418 8.75746H32.9868L34.264 6.03985H23.6279C24.8041 4.02536 26.993 2.66978 29.5 2.66978Z" fill="#FFBE00"/>
</svg>
