<svg width="75" height="26" viewBox="0 0 75 26" fill="none" xmlns="http://www.w3.org/2000/svg">
<path fill-rule="evenodd" clip-rule="evenodd" d="M0 19.9867C0.049937 19.7231 0.0956704 19.4678 0.140503 19.2176L0.140504 19.2175C0.209796 18.8307 0.276935 18.4559 0.354116 18.0811C0.680992 16.3857 1.01014 14.6926 1.33928 12.9994C1.66843 11.3063 1.99758 9.6131 2.32446 7.9177C2.36986 7.70298 2.43342 7.55983 2.65133 7.52405C4.34928 7.27354 6.0563 7.09461 7.75424 7.5151C9.23427 7.87297 10.2694 8.90183 10.4419 10.1096C10.796 12.5163 9.37047 14.4398 7.25485 15.1287C6.13802 15.4866 5.00303 15.576 3.84988 15.4687C3.57748 15.4418 3.49577 15.5134 3.45037 15.7729C3.20521 17.088 2.95097 18.3942 2.68765 19.7004C2.66949 19.8078 2.56961 19.9778 2.50606 19.9778C1.88909 19.9912 1.28224 19.9895 0.6515 19.9879H0.651458H0.651417H0.651375H0.651333H0.651168C0.437302 19.9873 0.220688 19.9867 0 19.9867ZM3.90479 13.3394C4.0823 13.3394 4.25422 13.344 4.42174 13.3485C4.7769 13.358 5.11229 13.3669 5.43929 13.3305C6.3836 13.232 7.13723 12.8116 7.56399 11.9258C8.04522 10.9238 7.70019 9.85915 6.7922 9.54602C6.14752 9.32235 5.48469 9.36709 4.82186 9.45655C4.74014 9.4655 4.63118 9.59075 4.61302 9.67127C4.48614 10.3264 4.35925 10.9843 4.22761 11.6669L4.2273 11.6685L4.22721 11.6689L4.22701 11.67C4.12333 12.2076 4.0167 12.7605 3.90479 13.3394ZM15.6888 18.7092L15.6888 18.7092L15.6888 18.7092L15.6888 18.7092L15.6888 18.7093L15.6887 18.7093L15.6887 18.7093C15.4046 19.0219 15.1348 19.3189 14.8183 19.5574C13.8649 20.2821 12.7753 20.4431 11.6767 19.9421C10.5871 19.45 10.1422 18.4928 10.0968 17.3655C9.99688 14.9946 10.8413 13.0353 12.8661 11.6754C14.1373 10.8165 15.5992 10.5571 17.1155 10.6376C17.6171 10.6667 18.1149 10.7524 18.6138 10.8384C18.8825 10.8847 19.1516 10.931 19.4218 10.9686C19.7305 11.0134 19.7759 11.1833 19.7215 11.4428C19.6487 11.8163 19.5752 12.1894 19.5016 12.5623L19.5016 12.5626L19.5015 12.5631L19.5014 12.5637L19.5013 12.5639L19.5013 12.5642L19.5012 12.5643L19.5012 12.5643C19.2262 13.9592 18.9519 15.3509 18.7227 16.7482C18.5912 17.548 18.5388 18.3673 18.4869 19.1785V19.1785L18.4868 19.1798C18.4778 19.3209 18.4688 19.4617 18.4594 19.6021C18.4412 19.8884 18.3686 20.0047 18.0689 19.9958C17.506 19.9779 16.943 19.9779 16.3801 19.9958C16.0895 20.0047 15.9896 19.8974 16.0169 19.62C16.0428 19.3136 16.0594 18.9981 16.0768 18.6702L16.0768 18.6699L16.0768 18.6698C16.0837 18.5383 16.0908 18.4048 16.0986 18.2691C15.9549 18.4163 15.8203 18.5644 15.6888 18.7092L15.6888 18.7092L15.6888 18.7092L15.6888 18.7092L15.6888 18.7092ZM16.734 12.7401C15.8532 12.4985 15.1178 12.6685 14.5003 13.1785C13.3381 14.1447 12.8115 15.3972 12.9114 16.8913C12.9386 17.3476 13.1202 17.786 13.6105 17.9828C14.1008 18.1796 14.5457 18.0365 14.9271 17.7144C15.1541 17.5176 15.372 17.2939 15.5354 17.0434C16.1759 16.0802 16.3508 14.9938 16.5285 13.8902C16.5902 13.5074 16.6522 13.1225 16.734 12.7401ZM29.6008 17.7502C30.1002 19.3248 31.4712 20.2015 33.8774 20.2015C35.53 20.1568 37.1734 19.2353 38.1995 17.3386C38.7443 16.3187 38.944 15.2272 38.8714 14.082C38.8078 12.9816 38.3629 12.0511 37.4549 11.3891C36.5015 10.6912 35.4119 10.5481 34.2497 10.6733C30.3635 11.1028 28.7745 15.1556 29.6008 17.7502ZM32.1861 16.4363L32.1861 16.4359C32.1871 16.3903 32.1881 16.3451 32.1881 16.3008C32.2154 15.272 32.4696 14.3147 33.0961 13.4647C33.3776 13.089 33.7317 12.8027 34.2038 12.6953C35.1663 12.4806 35.9563 13.0264 36.0471 14.0552C36.156 15.3167 35.8473 16.4798 35.0392 17.4907C34.7305 17.8665 34.34 18.1259 33.8407 18.1707C32.9417 18.2512 32.2608 17.6518 32.1881 16.7124C32.182 16.6226 32.1841 16.5288 32.1861 16.4363ZM41.0318 10.8612H43.3381C43.3018 11.3443 43.2655 11.8095 43.2201 12.2837C43.3042 12.2066 43.3855 12.1303 43.4652 12.0556L43.4652 12.0556C43.6351 11.8963 43.7978 11.7438 43.9646 11.6037C44.8635 10.8343 45.8896 10.4944 47.079 10.6822C48.0597 10.8433 48.7407 11.5501 48.8496 12.5431C48.968 13.5765 48.7713 14.5788 48.575 15.579L48.5318 15.7997C48.4521 16.2063 48.3733 16.6129 48.2946 17.0193L48.2944 17.0202L48.2942 17.0212L48.294 17.0223C48.1217 17.9113 47.9497 18.799 47.7691 19.6826C47.7419 19.7989 47.6057 19.9689 47.5149 19.9778C46.734 19.9957 45.9531 19.9868 45.1723 19.9778C45.1461 19.9778 45.1199 19.9639 45.0801 19.9427L45.0641 19.9342C45.0558 19.9298 45.0469 19.9252 45.0374 19.9204C45.034 19.9187 45.0305 19.9169 45.027 19.9152C45.1723 19.1726 45.3175 18.4211 45.4537 17.6696C45.6626 16.5155 45.8623 15.3703 46.0439 14.2162C46.0803 14.0193 46.0621 13.8136 46.0349 13.6167C45.9622 12.9278 45.4447 12.6147 44.7727 12.8205C44.119 13.0263 43.7286 13.5273 43.4108 14.082C42.9386 14.8961 42.7752 15.7997 42.6117 16.7033C42.5708 16.9273 42.5303 17.1508 42.4898 17.374C42.3509 18.1407 42.2126 18.9045 42.0579 19.6736C42.0306 19.7899 41.8944 19.9689 41.8036 19.9778C41.1669 19.9992 40.5245 19.9979 39.8395 19.9964H39.8393C39.6647 19.9961 39.4874 19.9957 39.3066 19.9957C39.9059 16.9181 40.4689 13.903 41.0318 10.8612ZM54.1254 18.1169C53.1629 18.0006 52.5182 17.3386 52.5818 16.4081C52.7826 16.4081 52.9823 16.4111 53.1811 16.4141C53.5755 16.4201 53.966 16.426 54.3524 16.4081C55.2876 16.3544 56.2047 16.2024 57.0582 15.7819C58.1478 15.2451 58.6563 14.3593 58.5745 13.2052C58.4928 12.0332 57.8481 11.1833 56.695 10.8433C54.9698 10.3333 53.3808 10.6912 52.0279 11.8274C50.3845 13.2052 49.767 15.0303 50.0031 17.1149C50.1666 18.5911 50.9837 19.6468 52.4729 20.0226C54.0709 20.4252 55.6417 20.2105 57.1581 19.6021C57.267 19.5574 57.3942 19.3874 57.3851 19.28C57.3633 18.8434 57.3182 18.4067 57.2732 17.9701L57.2732 17.97L57.2732 17.9699C57.2619 17.8609 57.2507 17.7518 57.2398 17.6428C57.21 17.6428 57.1878 17.6413 57.1708 17.6401C57.1463 17.6384 57.1325 17.6375 57.1218 17.6428C57.0219 17.6786 56.922 17.7143 56.8312 17.7501C55.9595 18.0812 55.0606 18.2243 54.1254 18.1169ZM55.5329 14.1535C54.979 14.4398 53.5444 14.6098 52.8452 14.4667C52.9905 13.2768 54.2708 12.3463 55.3513 12.6058C55.7145 12.6952 55.9778 12.8831 56.0413 13.2678C56.1049 13.6436 55.9142 13.9567 55.5329 14.1535ZM61.6524 16.444C61.5707 17.3207 62.2063 17.9917 63.1779 18.117C64.0859 18.2243 64.9575 18.0901 65.811 17.786C65.8897 17.7569 65.9657 17.7278 66.0492 17.6959C66.1198 17.6689 66.1958 17.6398 66.2832 17.607C66.3009 17.7965 66.3206 17.9823 66.34 18.1654C66.3802 18.5443 66.4192 18.9122 66.4376 19.28C66.4466 19.3874 66.3195 19.5574 66.2196 19.6021C64.6761 20.2284 63.0871 20.4431 61.4618 20.0047C59.9999 19.6111 59.2372 18.5643 59.0556 17.1329C58.8286 15.2988 59.3098 13.6437 60.6083 12.2838C62.0066 10.8255 63.7227 10.3066 65.7021 10.8434C66.9097 11.1744 67.5544 12.0333 67.627 13.2411C67.6997 14.422 67.1549 15.3077 66.0199 15.8266C64.8758 16.3455 63.6591 16.4261 62.4242 16.4529C62.1791 16.444 61.9248 16.444 61.6524 16.444ZM61.9155 14.5384C62.0807 14.5282 62.243 14.5202 62.4029 14.5123C62.8056 14.4924 63.1937 14.4733 63.5772 14.422C63.9404 14.3773 64.3036 14.27 64.6304 14.1179C64.9846 13.9658 65.1571 13.6437 65.1026 13.25C65.0481 12.8743 64.7939 12.6953 64.4398 12.6059C63.3683 12.3196 62.0336 13.2858 61.9155 14.5384ZM68.1268 18.1169C68.0087 18.7253 67.8998 19.3247 67.7817 19.9868C67.9636 19.9868 68.1428 19.9871 68.32 19.9875C69.0186 19.9889 69.685 19.9903 70.3513 19.9689C70.4149 19.9689 70.5148 19.7989 70.533 19.6915C70.6256 19.2447 70.7114 18.7957 70.7973 18.3468C70.9555 17.5193 71.1137 16.6923 71.3138 15.8803C71.7587 14.073 72.5124 13.4468 74.3011 13.2142C74.3738 13.2052 74.4918 13.1247 74.5099 13.0621C74.6239 12.5478 74.726 12.0297 74.8319 11.4921C74.8863 11.2161 74.9417 10.9349 75.0003 10.6465C73.2751 10.4675 72.3126 11.4517 71.4773 12.6595L71.4905 12.4876C71.5315 11.9525 71.5733 11.408 71.6225 10.8344C71.4338 10.8344 71.2485 10.8338 71.0659 10.8332C70.5281 10.8315 70.013 10.8299 69.4978 10.8433C69.4252 10.8522 69.289 11.0133 69.2799 11.1117C69.0862 13.4112 68.6277 15.6601 68.1695 17.9076L68.1268 18.1169Z" fill="black"/>
<path fill-rule="evenodd" clip-rule="evenodd" d="M44.0864 0.0679387C43.9945 0.0440343 43.9025 0.02013 43.8106 0C43.5291 0 43.2476 0 42.948 0.00894666C42.8456 0.0291148 42.7433 0.0511014 42.6401 0.0732669C42.5145 0.100265 42.3876 0.127528 42.2579 0.152093C40.8687 0.411546 39.5612 0.885719 38.2991 1.51199C35.566 2.87188 33.1145 4.63437 30.9171 6.71894C29.4553 8.09673 28.0388 9.53714 26.6677 11.0133C24.2615 13.6079 22.2004 16.4618 20.5569 19.5932C19.7125 21.2125 18.9498 22.8677 18.6048 24.6659C18.5412 24.997 18.6502 25.3817 18.7591 25.7127C18.8045 25.8469 19.0588 25.9453 19.2313 25.999C19.2767 26.0169 19.4129 25.7932 19.4764 25.668C19.499 25.6194 19.5221 25.5697 19.5457 25.5189C19.94 24.6703 20.4733 23.5228 20.9359 22.763C21.9165 21.1526 22.6907 19.9063 23.7894 18.3764C25.5509 15.9161 27.6091 13.5021 29.7701 11.3728C31.8131 9.35984 33.859 7.55993 36.4286 6.20003C37.609 5.58271 38.8166 4.97434 40.0515 4.47333C42.1853 3.6055 44.4099 3.01502 46.698 2.684C46.9431 2.64821 47.27 2.46033 47.3517 2.2635C47.4244 2.08457 47.2519 1.7446 47.0793 1.57461C46.3802 0.867826 45.563 0.331026 44.5461 0.169986C44.3928 0.14762 44.2396 0.107779 44.0864 0.0679387ZM23.2991 12.2748C23.7349 11.1117 23.9528 9.90394 23.9801 8.6514C23.968 8.5172 23.9579 8.38301 23.9478 8.24881C23.9276 7.98041 23.9074 7.71201 23.8711 7.44361C23.626 5.36798 22.718 3.60549 21.2743 2.0935C21.1017 1.92352 20.8657 1.78932 20.6296 1.7088C20.3935 1.61933 20.2391 1.75353 20.2573 2.02193C20.2577 2.0276 20.2582 2.03327 20.2586 2.03895C20.2764 2.26631 20.2947 2.50177 20.339 2.72871C20.4028 3.08623 20.4662 3.44417 20.5296 3.80236C20.7549 5.07553 20.9808 6.35176 21.2289 7.62254C21.474 8.90191 21.7464 10.1723 22.037 11.4338C22.1368 11.8364 22.3003 12.239 22.5 12.6148C22.6544 12.9011 22.8723 12.8742 23.0721 12.6148C23.1629 12.5074 23.2537 12.4001 23.2991 12.2748Z" fill="#FC461E"/>
</svg>
