<svg width="76" height="30" viewBox="0 0 76 30" fill="none" xmlns="http://www.w3.org/2000/svg">
<path d="M73.8238 8.2527C75.0258 8.2527 76.0001 7.33089 76.0001 6.19379C76.0001 5.05669 75.0258 4.13489 73.8238 4.13489C72.6218 4.13489 71.6475 5.05669 71.6475 6.19379C71.6475 7.33089 72.6218 8.2527 73.8238 8.2527Z" fill="#7887E6"/>
<path d="M73.8238 14.6984C75.0257 14.6984 76.0001 13.7766 76.0001 12.6395C76.0001 11.5024 75.0257 10.5806 73.8238 10.5806C72.6218 10.5806 71.6475 11.5024 71.6475 12.6395C71.6475 13.7766 72.6218 14.6984 73.8238 14.6984Z" fill="#FF5073"/>
<path fill-rule="evenodd" clip-rule="evenodd" d="M5.54132 9.47494H3.42967V14.4621H0.000488281V0.81104H5.54132C8.84567 0.81104 10.4144 2.6309 10.4144 5.0441C10.4144 7.83294 8.32227 9.47494 5.54132 9.47494ZM5.02695 3.1844H3.42967V7.10016H5.16532C6.36553 7.10016 7.15514 6.34888 7.08445 4.99715C7.03031 3.9741 6.10984 3.1844 5.02695 3.1844ZM19.8747 14.4607H16.5282H16.5267V14.0125C15.8589 14.4095 14.9851 14.6969 14.1805 14.6969C12.141 14.6969 10.5903 13.2427 10.5903 11.5111C10.5903 9.73818 11.9169 7.81871 16.5282 8.1289V7.45588C16.5282 6.68468 15.8379 6.42714 15.0648 6.42714C13.9774 6.42714 12.702 6.88246 12.0959 7.14L11.1754 5.34006C12.1786 4.74672 13.8105 4.13346 15.88 4.13346C18.3481 4.13346 19.8747 5.1622 19.8747 7.43738V14.4607ZM13.9338 11.4542C13.9338 12.1855 14.4993 12.6408 15.3355 12.6408C15.8589 12.6408 16.3402 12.463 16.6516 12.2453V10.128C14.6256 9.81074 13.9338 10.6232 13.9338 11.4542ZM53.1618 4.37108V3.9556C53.1618 1.56232 54.5831 0 57.2813 0C57.889 0 58.4109 0.0796811 58.8711 0.19778V2.45162C58.6004 2.37336 58.2033 2.3136 57.889 2.3136C56.8632 2.3136 56.4872 2.94678 56.4872 3.8375V4.37108H58.7869V6.52816H56.4872V14.4607H53.1618V6.52816H51.3841V4.37108H53.1618ZM41.7267 5.34148C42.7299 4.74814 44.3618 4.13488 46.4313 4.13488C48.8994 4.13488 50.426 5.16362 50.4245 7.43738V14.4607H47.078V14.0139C46.4102 14.4109 45.5364 14.6983 44.7318 14.6983C42.6923 14.6983 41.1416 13.2441 41.1416 11.5125C41.1416 9.7396 42.4682 7.82014 47.0795 8.13032V7.4573C47.0795 6.6861 46.3892 6.42856 45.6161 6.42856C44.5287 6.42856 43.2533 6.88388 42.6472 7.14142L41.7267 5.34148ZM45.762 12.6408C46.2854 12.6408 46.7652 12.463 47.0795 12.2453H47.078V10.128C45.0521 9.81074 44.3603 10.6232 44.3603 11.4542C44.3603 12.1855 44.9258 12.6408 45.762 12.6408ZM31.7715 4.3725L26.3676 17.2922H23.1836L24.5913 13.9869L20.0807 4.3725H23.5054L26.1465 10.4012L28.4477 4.3725H31.7715ZM69.473 9.26151V10.0498V10.0526H62.5394C62.5921 10.5706 62.7319 10.9932 62.9425 11.329C62.9433 11.3297 62.9436 11.3304 62.944 11.3311C62.9444 11.3318 62.9448 11.3325 62.9455 11.3332C62.9801 11.3859 63.0162 11.4371 63.0538 11.4855C63.0764 11.5154 63.0989 11.5424 63.123 11.5708C63.1277 11.5761 63.1323 11.5816 63.137 11.5871C63.1475 11.5993 63.1582 11.6117 63.1696 11.6235C63.2102 11.669 63.2538 11.7131 63.299 11.7544L63.3035 11.7587C63.4148 11.8597 63.5396 11.9508 63.678 12.0304C63.681 12.0319 63.6825 12.0319 63.684 12.0333C63.7457 12.0689 63.8118 12.1016 63.8795 12.1329C63.8931 12.1386 63.9051 12.1443 63.9171 12.15C63.9577 12.1685 64.0013 12.1855 64.045 12.2012C64.084 12.2154 64.123 12.2282 64.1621 12.241L64.1623 12.241C64.177 12.2454 64.1921 12.2498 64.2074 12.2542C64.2218 12.2583 64.2364 12.2625 64.251 12.2666C64.3067 12.2809 64.3623 12.2951 64.4195 12.3079C64.4292 12.31 64.439 12.3118 64.4488 12.3136C64.4586 12.3154 64.4683 12.3171 64.4781 12.3193C64.5338 12.3307 64.5894 12.3392 64.6466 12.3477L64.6532 12.3489C64.6672 12.3513 64.6804 12.3536 64.6947 12.3548C64.7654 12.3634 64.8376 12.3705 64.9098 12.3748C64.9188 12.3755 64.9274 12.3758 64.9361 12.3762C64.9447 12.3765 64.9534 12.3769 64.9624 12.3776C65.0391 12.3819 65.1158 12.3847 65.1955 12.3847C66.104 12.3847 67.1177 12.1428 68.1179 11.6064L69.0504 13.5671C67.5749 14.5347 65.6603 14.6998 64.6932 14.6998C61.2219 14.6998 59.0471 12.6608 59.0471 9.47637C59.0471 6.37023 61.3482 4.13488 64.3172 4.13488C67.2861 4.13488 69.473 6.30335 69.473 9.26151ZM66.0949 8.38787C65.9686 7.04325 65.2376 6.3503 64.3172 6.3503C63.3967 6.3503 62.6658 7.04182 62.5394 8.38787H66.0949ZM35.3391 12.4032C36.3227 12.4032 36.9078 12.1258 36.9078 11.5723C36.9078 10.9809 36.1092 10.7229 35.1493 10.4129C33.7026 9.94564 31.8895 9.36002 31.8904 7.33636C31.8904 5.20062 33.8967 4.13204 36.3859 4.13204C37.7455 4.13204 39.0841 4.5276 39.9625 4.94308L39.021 7.02048C38.3517 6.74444 37.4312 6.44706 36.5529 6.44706C35.7166 6.44706 35.2143 6.74302 35.2143 7.21826C35.2143 7.741 35.9601 7.97686 36.8718 8.2652C38.3053 8.71853 40.149 9.30157 40.149 11.3332C40.149 13.5102 38.0584 14.6969 35.6324 14.6969C34.2727 14.6969 32.8093 14.4009 31.555 13.7678L32.6213 11.7302C33.3733 12.0873 34.3359 12.4032 35.3391 12.4032ZM47.3234 21.2194V19.8904H46.7203V19.5176H48.3882L48.4499 19.8904H47.8799V21.2194H47.3234ZM50.369 21.2194L50.3014 19.9872L50.2548 20.1526L50.2548 20.1528C50.1547 20.5085 50.0549 20.8634 49.9494 21.2194H49.4606L49.1087 19.9872L49.041 21.2194H48.5432C48.5973 20.6545 48.6454 20.0839 48.6921 19.519H49.3914L49.7103 20.7256L49.7134 20.7132C49.8146 20.3134 49.9144 19.919 50.0216 19.519H50.721L50.8639 21.2194H50.369ZM0.0151367 20.0185V27.6109H1.92224V24.8378H3.09689C4.64453 24.8378 5.80714 23.9243 5.80714 22.3733C5.80714 21.0301 4.93481 20.0185 3.09689 20.0185H0.0151367ZM3.95869 22.4388C3.95869 23.1317 3.52854 23.5173 2.88933 23.5173H1.92375V21.3389H2.88933C3.57517 21.3389 3.95869 21.7899 3.95869 22.4388ZM9.44844 27.0503L9.55372 27.6109V27.6124H11.2518V23.7066C11.2518 22.4402 10.4035 21.8682 9.03031 21.8682C7.87823 21.8682 6.9713 22.2097 6.41331 22.5398L6.92468 23.5415C7.26158 23.3978 7.97148 23.1445 8.5761 23.1445C9.00625 23.1445 9.38978 23.2868 9.38978 23.7165V24.0907C6.91265 24.0466 6.08694 24.8491 6.08694 26.06C6.08694 27.1827 7.01793 27.7433 7.93689 27.7433C8.68138 27.7433 9.12206 27.3918 9.44844 27.0503ZM9.23969 25.1861C9.28778 25.1912 9.33725 25.1965 9.39128 25.2006V26.3773C9.21682 26.4983 8.9491 26.5979 8.65882 26.5979C8.19408 26.5979 7.87974 26.3446 7.87974 25.9376C7.87974 25.4766 8.22867 25.1679 8.97316 25.1679C9.07006 25.1679 9.15261 25.1767 9.23969 25.1861ZM13.0554 29.9986L14.033 27.611H13.475C13.2591 26.9685 13.0447 26.3261 12.8302 25.6838L12.83 25.683L12.8297 25.6824L12.8296 25.682C12.4198 24.4545 12.01 23.2271 11.5905 21.9992H13.475L14.591 26.1583L15.8469 21.9992H17.6968C17.1608 23.4653 16.6319 24.9318 16.1043 26.3947L16.1041 26.3954L16.1038 26.3961L16.1037 26.3967C15.6694 27.6009 15.236 28.8028 14.8001 30H13.0554V29.9986ZM21.0583 20.0185V27.6109H26.0246V26.3019H22.9654V20.0185H21.0583ZM30.0144 27.6109L29.9091 27.0503C29.5827 27.3918 29.142 27.7433 28.3976 27.7433C27.4786 27.7433 26.5476 27.1827 26.5476 26.06C26.5476 24.8491 27.3733 24.0466 29.8504 24.0907V23.7165C29.8504 23.2868 29.4669 23.1445 29.0368 23.1445C28.4321 23.1445 27.7222 23.3978 27.3853 23.5415L26.874 22.5398C27.432 22.2097 28.3389 21.8682 29.491 21.8682C30.8642 21.8682 31.7124 22.4402 31.7124 23.7066V27.6124H30.0144V27.6109ZM29.852 25.2006C29.7979 25.1965 29.7484 25.1912 29.7004 25.1861L29.7003 25.1861C29.6133 25.1767 29.5307 25.1679 29.4338 25.1679C28.6893 25.1679 28.3404 25.4766 28.3404 25.9376C28.3404 26.3446 28.6547 26.5979 29.1195 26.5979C29.4098 26.5979 29.6775 26.4983 29.852 26.3773V25.2006ZM33.2481 26.0814C33.2481 27.5456 34.3535 27.611 34.9115 27.611V27.6139H36.2381V26.4357H35.7267C35.3191 26.4357 35.098 26.2593 35.098 25.6873V23.2001H36.2381V22.0006H35.098V20.3273L33.2481 20.932V21.9992H32.3411V23.1987H33.2481V26.0814ZM42.1464 27.1927C41.7749 27.4574 40.8078 27.7434 39.8542 27.7434C37.923 27.7434 36.7138 26.6093 36.7138 24.8378C36.7138 23.1105 37.9937 21.8669 39.6452 21.8669C40.913 21.8669 42.1689 22.5157 42.1689 24.4963V25.1566H38.657C38.7503 26.0814 39.3428 26.4556 40.134 26.4556C40.7281 26.4556 41.4019 26.2251 41.623 26.0928L42.1464 27.1927ZM40.4603 24.2331C40.4603 23.4733 40.1114 23.0991 39.6226 23.0991C39.1112 23.0991 38.7277 23.4847 38.657 24.2331H40.4603ZM42.9251 21.9992V27.611H44.7856V23.9798C45.1119 23.6711 45.6353 23.4847 46.1241 23.4847C46.24 23.4847 46.4836 23.4847 46.5889 23.506V21.8669C45.7872 21.8669 45.0773 22.3293 44.6938 23.0222V21.9992H42.9251Z" fill="#2D2341"/>
</svg>
