<svg width="167" height="39" viewBox="0 0 167 39" fill="none" xmlns="http://www.w3.org/2000/svg">
<path fill-rule="evenodd" clip-rule="evenodd" d="M53.0998 37.4678V32.4284L51.4377 37.4678H50.7034L49.1105 32.4284V37.4678H48.3582V32.1314H49.6361L51.0876 36.6804L52.5922 32.1314H53.8521V37.4678H53.0998ZM59.8526 37.4678V32.1314H61.7073C62.3894 32.1314 62.8969 32.2348 63.229 32.4635C63.561 32.6911 63.7365 33.0412 63.7365 33.4956C63.7365 33.8457 63.6312 34.1445 63.4215 34.3533C63.229 34.5629 62.914 34.7204 62.4937 34.8077C62.8609 34.8267 63.1407 34.932 63.3153 35.0875C63.5079 35.264 63.6122 35.5268 63.6654 35.8579C63.6654 35.9964 63.6834 36.1728 63.7005 36.4005C63.7526 36.9954 63.875 37.3454 64.0505 37.4678H63.1426C63.0554 37.3454 62.9852 37.0475 62.9671 36.5912C62.9535 36.4106 62.9361 36.2303 62.9149 36.0505C62.8798 35.6833 62.7575 35.4376 62.5649 35.2981C62.3732 35.1577 62.0232 35.0866 61.5156 35.0866H60.5707V37.4678H59.8526ZM65.4518 37.4678V32.1314H66.0817V37.4678H65.4518ZM79.5351 35.7706H80.3396V35.9632C80.3396 36.3303 80.462 36.5912 80.7067 36.7838C80.9344 36.9764 81.3016 37.0637 81.756 37.0637C82.1763 37.0637 82.5083 36.9764 82.754 36.8028C82.8708 36.7197 82.9653 36.6092 83.0293 36.481C83.0933 36.3528 83.1249 36.2108 83.1212 36.0675C83.1212 35.8067 83.0339 35.6131 82.8935 35.4917C82.754 35.3513 82.421 35.2118 81.8964 35.0714C81.7921 35.0363 81.6165 35.0012 81.3889 34.949C80.776 34.7915 80.4089 34.6692 80.2694 34.5819C80.0713 34.4711 79.9077 34.3076 79.7969 34.1094C79.7021 33.9132 79.6544 33.6975 79.6575 33.4795C79.6575 33.0241 79.833 32.657 80.2001 32.3933C80.5673 32.1324 81.0748 31.991 81.7218 31.991C82.3347 31.991 82.8242 32.1134 83.1743 32.3582C83.5063 32.6048 83.6809 32.9359 83.6809 33.3733V33.4956H82.9115V33.4435C82.9169 33.3103 82.8913 33.1777 82.8366 33.0562C82.782 32.9347 82.6998 32.8276 82.5965 32.7433C82.3869 32.5858 82.089 32.4986 81.7048 32.4986C81.3205 32.4986 81.0046 32.5858 80.777 32.7433C80.5493 32.9008 80.4449 33.1124 80.4449 33.3733C80.4449 33.618 80.5142 33.8286 80.6726 33.9681C80.8301 34.0905 81.1621 34.2309 81.6867 34.3703C81.7389 34.3893 81.8452 34.4054 81.9666 34.4405C82.754 34.6502 83.2265 34.8077 83.3659 34.913C83.5414 35.0354 83.6989 35.1758 83.7862 35.3503C83.8735 35.5268 83.9086 35.7355 83.9086 35.9803C83.9086 36.4878 83.716 36.8901 83.3318 37.1699C82.9466 37.4498 82.3869 37.5902 81.6697 37.5902C80.9695 37.5902 80.4269 37.4498 80.0597 37.1699C79.7097 36.8901 79.5171 36.4878 79.5171 35.9452C79.5171 35.9281 79.5351 35.9101 79.5351 35.8579V35.7706ZM84.7833 37.4678V32.1314H85.5897V34.3371H88.1777V32.1314H88.9822V37.4678H88.1777V34.8608H85.5897V37.4678H84.7833ZM90.6623 37.4678V32.1314H91.3093V37.4678H90.6623ZM92.9544 37.4678V32.1314H94.7199C95.4722 32.1314 96.0149 32.2538 96.3649 32.4815C96.715 32.7262 96.8896 33.0934 96.8896 33.6171C96.8896 34.1436 96.715 34.5458 96.3469 34.8248C95.9798 35.0856 95.4561 35.227 94.755 35.227H93.7228V37.4669L92.9544 37.4678ZM97.9227 37.4678V32.1314H99.6901C100.442 32.1314 100.985 32.2538 101.335 32.4815C101.683 32.7262 101.86 33.0934 101.86 33.6171C101.86 34.1436 101.667 34.5458 101.317 34.8248C100.95 35.0856 100.426 35.227 99.7252 35.227H98.693V37.4669L97.9227 37.4678ZM103.329 37.4678V32.1314H103.959V37.4678H103.329ZM42.8302 37.4678L44.5966 32.1314H45.5245L47.326 37.4678H46.5737L46.0842 35.9281H44.0198L43.5645 37.4678H42.8302ZM72.3971 37.4678L74.1646 32.1314H75.0914L76.893 37.4678H76.1587L75.6512 35.9281H73.6039L73.1314 37.4678H72.3971ZM118.427 37.4678L120.213 32.1314H121.139L122.924 37.4678H122.19L121.699 35.9281H119.634L119.162 37.4678H118.427ZM114.228 37.4678L114.176 36.7326C114.053 37.0124 113.844 37.2221 113.581 37.3796C113.301 37.52 112.968 37.5911 112.566 37.5911C111.813 37.5911 111.273 37.3635 110.904 36.9071C110.554 36.4527 110.379 35.7364 110.379 34.7555C110.379 33.7935 110.572 33.0934 110.939 32.656C111.308 32.2187 111.903 31.991 112.723 31.991C113.372 31.991 113.861 32.1485 114.211 32.4284C114.561 32.7262 114.753 33.1285 114.753 33.6531H113.983C113.966 33.286 113.845 33.0061 113.633 32.8135C113.407 32.6039 113.092 32.4986 112.688 32.4986C112.147 32.4986 111.761 32.6911 111.534 33.0583C111.308 33.4084 111.184 34.0383 111.184 34.932C111.184 35.6492 111.308 36.1738 111.553 36.5239C111.797 36.8559 112.182 37.0314 112.688 37.0314C113.144 37.0314 113.495 36.9071 113.722 36.6273C113.967 36.3664 114.089 35.9803 114.089 35.4566V35.3162C114.089 35.2811 114.089 35.246 114.07 35.2289H112.497V34.6862H114.823V37.4697H114.228V37.4678ZM127.299 37.4678L127.245 36.7326C127.123 37.0124 126.913 37.2221 126.633 37.3796C126.37 37.52 126.038 37.5911 125.636 37.5911C124.884 37.5911 124.341 37.3635 123.974 36.9071C123.624 36.4527 123.447 35.7364 123.447 34.7555C123.447 33.7935 123.64 33.0934 124.009 32.656C124.376 32.2187 124.971 31.991 125.793 31.991C126.44 31.991 126.929 32.1485 127.279 32.4284C127.629 32.7262 127.822 33.1285 127.822 33.6531H127.051C127.034 33.286 126.913 33.0061 126.684 32.8135C126.475 32.6039 126.16 32.4986 125.757 32.4986C125.215 32.4986 124.829 32.6911 124.603 33.0583C124.375 33.4084 124.253 34.0383 124.253 34.932C124.253 35.6492 124.375 36.1738 124.62 36.5239C124.865 36.8559 125.25 37.0314 125.757 37.0314C126.212 37.0314 126.562 36.9071 126.79 36.6273C127.034 36.3664 127.157 35.9803 127.157 35.4566V35.3162C127.157 35.2811 127.14 35.246 127.14 35.2289H125.565V34.6862H127.892V37.4697H127.299V37.4678ZM55.2343 37.4678V32.1314H58.5054V32.6731H55.9696V34.4054H58.3479V34.932H55.9696V36.9071H58.5405V37.4678H55.2343ZM129.257 37.4678V32.1314H132.739V32.6731H130.027V34.4054H132.564V34.932H130.027V36.9071H132.774V37.4678H129.257ZM105.271 37.4678V32.1314H106.339L108.84 36.7155L108.769 32.1314H109.54V37.4678H108.508L105.988 32.7433L106.04 37.4678H105.271ZM133.613 37.4678V32.1314H134.681L137.165 36.7155L137.095 32.1314H137.866V37.4678H136.85L134.314 32.7433L134.384 37.4678H133.613ZM70.8925 35.5078H71.6799C71.6799 36.1899 71.4873 36.6975 71.1202 37.0646C70.7531 37.4147 70.2284 37.5911 69.5454 37.5911C68.8282 37.5911 68.2855 37.3635 67.9184 36.9071C67.5683 36.4698 67.3928 35.7526 67.3928 34.8077C67.3928 33.8296 67.5683 33.1124 67.9184 32.656C68.2684 32.2187 68.8282 31.991 69.6156 31.991C70.2626 31.991 70.753 32.1314 71.1031 32.4284C71.4532 32.7082 71.6277 33.1124 71.6277 33.636V33.7062H70.8745C70.8745 33.3372 70.7521 33.0412 70.5244 32.8315C70.2967 32.62 69.9998 32.5166 69.5966 32.5166C69.1241 32.5166 68.7741 32.7073 68.5654 33.0573C68.3548 33.4074 68.2495 33.9861 68.2495 34.8067C68.2495 35.6131 68.3548 36.189 68.5654 36.5229C68.7921 36.855 69.1422 37.0305 69.6497 37.0305C70.052 37.0305 70.3499 36.9062 70.5766 36.6614C70.7872 36.4005 70.8916 36.0495 70.8916 35.5941L70.8925 35.5078ZM142.379 35.5078H143.167C143.148 36.1899 142.974 36.6975 142.605 37.0646C142.238 37.4147 141.714 37.5911 141.032 37.5911C140.297 37.5911 139.753 37.3635 139.405 36.9071C139.055 36.4698 138.879 35.7526 138.879 34.8077C138.879 33.8296 139.055 33.1124 139.405 32.656C139.753 32.2187 140.315 31.991 141.084 31.991C141.731 31.991 142.239 32.1314 142.589 32.4284C142.939 32.7082 143.114 33.1124 143.114 33.636V33.7062H142.361C142.361 33.3372 142.239 33.0412 142.011 32.8315C141.786 32.62 141.471 32.5166 141.084 32.5166C140.595 32.5166 140.262 32.7073 140.052 33.0573C139.825 33.4074 139.72 33.9861 139.72 34.8067C139.72 35.6131 139.843 36.189 140.052 36.5229C140.262 36.855 140.63 37.0305 141.137 37.0305C141.541 37.0305 141.837 36.9062 142.065 36.6614C142.275 36.4005 142.38 36.0495 142.38 35.5941L142.379 35.5078ZM145.633 37.4678V35.4025L143.534 32.1314H144.479L146.054 34.7555L147.698 32.1314H148.555L146.437 35.4025V37.4678H145.633ZM148.52 38.5V38.1661C148.608 38.149 148.695 38.0788 148.748 37.9564C148.8 37.8511 148.835 37.6936 148.835 37.501V37.4678H148.52V36.7326H149.167V37.4678C149.167 37.7287 149.115 37.9573 148.993 38.1499C148.885 38.3222 148.716 38.4474 148.52 38.5ZM153.278 37.4678V32.1314H153.927V37.4678H153.278ZM155.484 37.4678V32.1314H156.464L158.756 36.7155L158.702 32.1314H159.402V37.4678H158.457L156.13 32.7433L156.2 37.4678H155.484ZM164.09 35.5078H164.825C164.825 36.1899 164.649 36.6975 164.301 37.0646C163.967 37.4147 163.478 37.5911 162.829 37.5911C162.147 37.5911 161.64 37.3635 161.308 36.9071C160.993 36.4698 160.818 35.7526 160.818 34.8077C160.818 33.8296 160.976 33.1124 161.308 32.656C161.64 32.2187 162.165 31.991 162.883 31.991C163.494 31.991 163.967 32.1314 164.3 32.4284C164.615 32.7082 164.789 33.1124 164.789 33.636V33.7062H164.072C164.072 33.3372 163.967 33.0412 163.757 32.8315C163.548 32.62 163.25 32.5166 162.883 32.5166C162.427 32.5166 162.112 32.7073 161.903 33.0573C161.71 33.4074 161.607 33.9861 161.607 34.8067C161.607 35.6131 161.71 36.189 161.92 36.5229C162.112 36.855 162.462 37.0305 162.919 37.0305C163.304 37.0305 163.601 36.9062 163.793 36.6614C164.003 36.4005 164.089 36.0495 164.089 35.5941L164.09 35.5078ZM166.067 37.4678V36.7326H166.732V37.4678H166.067ZM41.9023 26.6546H165.35V27.2494H41.9023V26.6546ZM113.057 9.99935H119.111V24.2231H114.649V24.2592L113.057 24.2231L106.531 16.5776V24.2231H100.478V9.99935H106.531L113.057 17.1202V9.99935ZM61.8296 9.99935L67.4108 9.98132L71.365 14.9847L74.8818 9.98132L80.7077 9.99935H86.7604V19.0451C86.7604 20.1304 87.6531 21.0402 88.7564 21.0402H91.8691C92.9714 21.0402 93.8812 20.1304 93.8812 19.0451V9.99935H99.9349V20.269C99.9349 22.4386 98.1674 24.2231 95.9997 24.2231H84.6448C82.4922 24.2231 80.7077 22.4386 80.7077 20.269V11.4518L74.4264 19.5688V24.2231H68.3557V19.6912L61.8296 11.3645V24.2241H55.776V19.0983H49.0925V24.2241H43.0218V9.99935H49.0925V14.9155H55.776V9.99935H61.8296ZM143.604 9.98227H152.176L158.177 21.932V9.99935H164.231V24.2231H159.332V24.2582H144.006L145.318 20.7765H151.162L148.678 14.7229C148.311 13.8131 147.401 13.8131 147.051 14.7229L143.341 24.2582H136.78L136.799 24.2392L126.161 24.2222H120.089V9.99935H133.946C135.277 10.0026 136.552 10.5326 137.493 11.4735C138.433 12.4143 138.963 13.6894 138.966 15.0198V19.2368C138.966 19.3753 138.966 19.4986 138.985 19.6219L143.604 9.98227Z" fill="black"/>
<path fill-rule="evenodd" clip-rule="evenodd" d="M3.3062 24.4517L17.547 3.00171L15.903 0.5L0 24.4517H3.3062Z" fill="#C6C7C9"/>
<path fill-rule="evenodd" clip-rule="evenodd" d="M19.1942 0.5L35.0801 24.4517H3.30835L19.1942 0.5Z" fill="black"/>
<path fill-rule="evenodd" clip-rule="evenodd" d="M126.544 13.5865H131.109C132.141 13.5865 132.999 14.4432 132.999 15.4934V18.9922C132.999 20.0064 132.141 20.864 131.109 20.864H128.309H126.543V13.5865H126.544ZM60.5668 34.5811H61.4595C61.9842 34.5811 62.3693 34.492 62.6141 34.3364C62.8418 34.177 62.9642 33.9161 62.9642 33.5822C62.9642 33.2501 62.8588 33.0224 62.6492 32.865C62.4395 32.7264 62.0895 32.6553 61.5999 32.6553H60.5678L60.5668 34.5811ZM93.7208 34.6855H94.7359C95.1903 34.6855 95.5404 34.5982 95.7681 34.4246C95.9777 34.2481 96.0831 33.9873 96.0831 33.6182C96.0831 33.2682 95.9777 33.0234 95.7681 32.8659C95.5404 32.7274 95.1732 32.6401 94.6837 32.6401H93.7199L93.7208 34.6855ZM98.6901 34.6855H99.7033C100.159 34.6855 100.51 34.5982 100.718 34.4246C100.946 34.2481 101.05 33.9873 101.05 33.6182C101.05 33.2682 100.947 33.0234 100.718 32.8659C100.509 32.7274 100.141 32.6401 99.6511 32.6401H98.6891L98.6901 34.6855ZM44.1914 35.3856H45.9237L45.049 32.586L44.1914 35.3856ZM73.7584 35.3856H75.4917L74.616 32.586L73.7584 35.3856ZM119.806 35.3856H121.538L120.664 32.586L119.806 35.3856Z" fill="white"/>
</svg>
