<svg width="141" height="76" viewBox="0 0 141 76" fill="none" xmlns="http://www.w3.org/2000/svg">
<path d="M68.5062 1.312C69.7886 0.813195 71.2114 0.813196 72.4938 1.312L96.5387 10.6646C97.0007 10.8443 97.4817 10.9705 97.9724 11.0409L124.688 14.8715C127.242 15.2377 129.198 17.3298 129.392 19.9025L130.217 30.8542C130.317 32.1832 130.824 33.4492 131.667 34.4809L138.8 43.2017C141.081 45.9906 140.109 50.1829 136.834 51.6838L119.67 59.549C118.971 59.8692 118.335 60.3109 117.79 60.8535L104.912 73.6853C103.747 74.8457 102.125 75.4242 100.489 75.2625L71.1395 72.3608C70.7142 72.3187 70.2858 72.3187 69.8605 72.3608L40.5113 75.2625C38.8753 75.4242 37.2528 74.8457 36.0882 73.6853L23.2098 60.8535C22.6652 60.3109 22.0286 59.8692 21.3297 59.549L4.1662 51.6838C0.890853 50.1829 -0.0809097 45.9906 2.20006 43.2017L9.33269 34.4809C10.1764 33.4492 10.6827 32.1832 10.7828 30.8542L11.6082 19.9025C11.8021 17.3298 13.7582 15.2377 16.312 14.8715L43.0276 11.0409C43.5183 10.9705 43.9993 10.8443 44.4613 10.6646L68.5062 1.312Z" stroke="#F85C0E"/>
</svg>
