<svg width="99" height="99" viewBox="0 0 99 99" fill="none" xmlns="http://www.w3.org/2000/svg">
<path d="M90.4921 50.6277L97.6885 51.3236L97.239 55.9719L96.3138 55.8774L96.6594 52.3041L94.4745 52.0928L94.1661 55.2829L93.2553 55.1948L93.5643 51.9997L91.3297 51.7837L90.97 55.4511L90.0344 55.3606L90.4921 50.6277Z" fill="white"/>
<path d="M89.7258 57.7011L92.5553 61.0962L96.6271 59.8579L96.2482 61.1224L93.2251 61.9963L95.2736 64.3745L94.9406 65.4857L92.3157 62.3137L87.9432 63.6497L88.3249 62.3757L91.6191 61.4159L89.3885 58.8266L89.7258 57.7011Z" fill="white"/>
<path d="M86.9247 66.1553L93.3063 69.5536L92.1289 71.7647C91.886 72.2207 91.5911 72.5867 91.244 72.8626C90.8953 73.1414 90.5147 73.3032 90.1019 73.3477C89.6877 73.3952 89.2599 73.3015 88.8185 73.0665C88.3949 72.8409 88.0839 72.5525 87.8856 72.2015C87.6887 71.855 87.6017 71.4687 87.6246 71.0428C87.6488 70.6215 87.78 70.1872 88.0182 69.7399L88.7514 68.363L86.4124 67.1174L86.9247 66.1553ZM89.5261 68.7699L88.8046 70.1247C88.5884 70.5308 88.5283 70.9236 88.6245 71.3034C88.7235 71.6847 88.9672 71.9787 89.3556 72.1856C89.7499 72.3955 90.1219 72.4237 90.4718 72.2701C90.8247 72.1181 91.1108 71.8362 91.3301 71.4243L92.0328 70.1047L89.5261 68.7699Z" fill="white"/>
<path d="M82.3816 73.7736L88.0335 78.2823L87.3575 79.131L82.4376 75.2118L80.3566 77.8243L79.6214 77.2386L82.3816 73.7736Z" fill="white"/>
<path d="M75.8113 80.6059C76.3159 80.1857 76.8454 79.9333 77.3998 79.849C77.9538 79.7693 78.5067 79.8575 79.0585 80.1137C79.6098 80.3746 80.1351 80.8047 80.6343 81.4041C81.1378 82.0085 81.4667 82.6065 81.6211 83.1981C81.775 83.7943 81.7627 84.3577 81.5842 84.8881C81.4052 85.4233 81.0661 85.8989 80.5666 86.3149C80.0697 86.7288 79.5445 86.9732 78.991 87.0482C78.437 87.1279 77.8832 87.036 77.3297 86.7725C76.7758 86.5138 76.2471 86.0822 75.7437 85.4777C75.2444 84.8784 74.9174 84.2853 74.7627 83.6984C74.6079 83.1116 74.6197 82.5529 74.7982 82.0224C74.9742 81.4941 75.3119 81.0219 75.8113 80.6059ZM76.3969 81.309C76.0742 81.5778 75.8608 81.8814 75.7566 82.2198C75.6498 82.5604 75.6674 82.9383 75.8094 83.3536C75.9515 83.7689 76.2273 84.2224 76.6369 84.7142C77.0572 85.2187 77.4621 85.5799 77.8517 85.7976C78.2388 86.0175 78.6105 86.107 78.9668 86.0661C79.3228 86.0299 79.6609 85.8785 79.981 85.6118C80.3012 85.3452 80.5138 85.0379 80.6188 84.6901C80.7213 84.3444 80.702 83.9593 80.5608 83.5346C80.4197 83.1099 80.14 82.6465 79.7219 82.1445C79.3101 81.6502 78.9103 81.2978 78.5224 81.0873C78.1366 80.8794 77.7666 80.7971 77.4124 80.8406C77.0556 80.8862 76.7171 81.0423 76.3969 81.309Z" fill="white"/>
<path d="M70.6942 84.5479L73.9977 90.9791L71.4448 92.2904C70.9674 92.5356 70.5335 92.6648 70.1431 92.678C69.7541 92.6942 69.4133 92.6069 69.1205 92.4163C68.8277 92.2257 68.5869 91.9465 68.3981 91.5789C68.2199 91.232 68.1307 90.9124 68.1305 90.6202C68.1273 90.3295 68.1818 90.0636 68.294 89.8223C68.4032 89.5826 68.5388 89.3687 68.7007 89.1806L65.9887 86.9649L66.9894 86.4509L69.5101 88.5569L71.1246 87.7276L69.7425 85.0368L70.6942 84.5479ZM71.5198 88.497L70.1767 89.1869C69.729 89.4169 69.4315 89.6915 69.2844 90.0106C69.1389 90.3327 69.159 90.6746 69.3448 91.0364C69.5276 91.3922 69.7788 91.6041 70.0986 91.6722C70.4154 91.7418 70.765 91.6784 71.1475 91.4819L72.6553 90.7074L71.5198 88.497Z" fill="white"/>
<path d="M63.1558 88.1126L65.1525 95.0614L60.6641 96.3511L60.4121 95.4559L63.8625 94.4645L63.2563 92.3548L60.1759 93.2399L59.9232 92.3605L63.0084 91.474L62.3884 89.3163L58.8454 90.3292L58.5858 89.4257L63.1558 88.1126Z" fill="white"/>
<path d="M49.7545 90.5245L49.3084 97.7407L47.8013 97.6476L46.1249 91.783L43.7091 97.3946L42.212 97.3021L42.658 90.0858L43.7509 90.1534L43.3956 95.9024L45.7471 90.2768L46.6803 90.3345L48.314 96.1614L48.6665 90.4572L49.7545 90.5245Z" fill="white"/>
<path d="M37.1007 88.4738C37.7261 88.6742 38.2231 88.9857 38.5917 89.4083C38.9562 89.8331 39.1783 90.347 39.2581 90.9501C39.3337 91.5554 39.2525 92.2294 39.0145 92.9722C38.7745 93.7214 38.4463 94.3198 38.0299 94.7674C37.6093 95.2172 37.1272 95.509 36.5838 95.6429C36.0362 95.779 35.4528 95.7479 34.8338 95.5496C34.218 95.3523 33.73 95.0402 33.3697 94.6132C33.0053 94.1885 32.7857 93.6719 32.7112 93.0634C32.6324 92.4571 32.713 91.7794 32.953 91.0303C33.191 90.2875 33.5161 89.6933 33.9283 89.2479C34.3406 88.8024 34.8184 88.5127 35.3618 88.3788C35.9021 88.2438 36.4817 88.2755 37.1007 88.4738ZM36.8216 89.3452C36.4216 89.2171 36.0508 89.1998 35.7093 89.2934C35.3647 89.386 35.0552 89.6036 34.7809 89.9463C34.5066 90.2889 34.2718 90.765 34.0766 91.3745C33.8762 91.9998 33.7887 92.5353 33.8139 92.9809C33.836 93.4255 33.9599 93.7872 34.1856 94.0661C34.4071 94.347 34.7162 94.5511 35.113 94.6782C35.5098 94.8053 35.8832 94.8199 36.233 94.722C36.5798 94.6231 36.8945 94.4001 37.1771 94.0532C37.4598 93.7062 37.7008 93.2216 37.9001 92.5994C38.0964 91.9868 38.1793 91.4603 38.1489 91.02C38.1174 90.5829 37.9883 90.2265 37.7616 89.9509C37.5317 89.6742 37.2184 89.4723 36.8216 89.3452Z" fill="white"/>
<path d="M31.0656 86.2774L27.4112 92.5159L24.9348 91.0652C24.4718 90.794 24.1299 90.4971 23.9093 90.1747C23.687 89.8552 23.5777 89.5208 23.5814 89.1714C23.5852 88.8221 23.6915 88.4691 23.9005 88.1124C24.0976 87.7759 24.3194 87.5292 24.5658 87.3722C24.8094 87.2136 25.0631 87.1169 25.3269 87.0821C25.5877 87.0456 25.841 87.0453 26.0866 87.081L26.5011 83.6036L27.4718 84.1722L27.0473 87.4293L28.6134 88.3467L30.1424 85.7366L31.0656 86.2774ZM28.1762 89.0931L26.8733 88.3299C26.439 88.0755 26.0477 87.9718 25.6994 88.0189C25.3495 88.0689 25.0718 88.2693 24.8662 88.6202C24.6641 88.9654 24.62 89.2911 24.7342 89.5975C24.8454 89.9022 25.0866 90.1632 25.4576 90.3806L26.9201 91.2373L28.1762 89.0931Z" fill="white"/>
<path d="M24.0291 81.8377L19.2421 87.256L15.7423 84.164L16.3618 83.4704L19.0522 85.8473L20.5055 84.2023L18.1036 82.0803L18.7095 81.3946L21.1151 83.5199L22.6015 81.8375L19.8432 79.3939L20.4656 78.6895L24.0291 81.8377Z" fill="white"/>
<path d="M13.618 73.8679L12.9245 74.3055L11.538 72.1179L12.2272 71.683L13.618 73.8679Z" fill="white"/>
<path d="M10.5153 63.2506L3.5665 65.2472L2.27683 60.7588L3.17204 60.5068L4.16346 63.9572L6.2731 63.351L5.388 60.2707L6.26742 60.018L7.1539 63.1031L9.31159 62.4832L8.29874 58.9401L9.20219 58.6805L10.5153 63.2506Z" fill="white"/>
<path d="M8.63423 56.4017L4.7557 54.2828L1.42304 56.9298L1.31117 55.6145L3.80216 53.6915L1.02345 52.2317L0.925146 51.0759L4.53147 53.0624L8.10795 50.2141L8.22066 51.5393L5.50908 53.6417L8.53465 55.231L8.63423 56.4017Z" fill="white"/>
<path d="M8.12886 47.4227L0.943986 46.6162L1.22343 44.1268C1.28106 43.6134 1.42035 43.1644 1.64127 42.78C1.86258 42.3923 2.15683 42.1016 2.52405 41.9081C2.89165 41.7112 3.32388 41.6406 3.82076 41.6964C4.29776 41.7499 4.69312 41.9033 5.00683 42.1566C5.3176 42.4061 5.54085 42.7331 5.67659 43.1374C5.8094 43.5381 5.84754 43.9901 5.79102 44.4936L5.61699 46.0439L8.25045 46.3395L8.12886 47.4227ZM4.7469 45.9513L4.91813 44.4258C4.96945 43.9687 4.88043 43.5814 4.65109 43.2638C4.41844 42.9459 4.08349 42.7624 3.64624 42.7133C3.20236 42.6634 2.84609 42.7744 2.57743 43.0461C2.30547 43.3175 2.14345 43.685 2.09139 44.1488L1.92462 45.6345L4.7469 45.9513Z" fill="white"/>
<path d="M9.55205 38.6129L2.6437 36.4804L2.963 35.4435L8.97446 37.2946L9.95739 34.1025L10.8558 34.3791L9.55205 38.6129Z" fill="white"/>
<path d="M13.1987 29.7958C12.8794 30.3696 12.4763 30.7957 11.9895 31.0741C11.5014 31.348 10.9539 31.4649 10.3468 31.4246C9.73851 31.3798 9.09356 31.1678 8.41198 30.7885C7.72457 30.406 7.20232 29.9667 6.84523 29.4704C6.48684 28.9696 6.29538 28.4397 6.27083 27.8805C6.24499 27.3168 6.39011 26.751 6.70616 26.183C7.0206 25.6179 7.42251 25.2007 7.9119 24.9313C8.4 24.6575 8.94967 24.5437 9.5609 24.5901C10.1708 24.632 10.8195 24.8441 11.5069 25.2267C12.1885 25.6059 12.7072 26.0414 13.063 26.5331C13.4188 27.0249 13.609 27.5503 13.6335 28.1094C13.6597 28.6657 13.5147 29.2278 13.1987 29.7958ZM12.3991 29.3509C12.6033 28.9839 12.6931 28.6237 12.6684 28.2705C12.6454 27.9143 12.4928 27.5681 12.2107 27.2319C11.9286 26.8956 11.5079 26.5719 10.9487 26.2607C10.3749 25.9414 9.86703 25.7504 9.42513 25.6876C8.98486 25.6219 8.60587 25.6723 8.28814 25.8388C7.96912 26.0008 7.70831 26.2638 7.50571 26.6279C7.30311 26.992 7.21544 27.3552 7.24272 27.7175C7.27161 28.0769 7.42839 28.4293 7.71306 28.7746C7.99774 29.1199 8.42552 29.4514 8.99642 29.7691C9.55858 30.0819 10.0585 30.2666 10.4962 30.3233C10.931 30.3783 11.3058 30.3217 11.6206 30.1536C11.937 29.9825 12.1965 29.715 12.3991 29.3509Z" fill="white"/>
<path d="M16.4779 24.3392L11.0596 19.5522L12.9598 17.4014C13.3151 16.9992 13.6722 16.7209 14.0311 16.5664C14.3874 16.4098 14.7366 16.3669 15.0787 16.4379C15.4208 16.5088 15.7467 16.6811 16.0565 16.9548C16.3488 17.213 16.5482 17.4781 16.6547 17.7502C16.7635 18.0198 16.8096 18.2873 16.793 18.5528C16.7785 18.8159 16.7301 19.0645 16.6478 19.2986L19.9804 20.3748L19.2355 21.2179L16.121 20.1743L14.9193 21.5345L17.1863 23.5373L16.4779 24.3392ZM14.2711 20.9618L15.2708 19.8301C15.6041 19.4529 15.7811 19.0889 15.8019 18.7381C15.8203 18.3851 15.677 18.074 15.3723 17.8048C15.0725 17.5399 14.7613 17.434 14.4387 17.487C14.1183 17.5375 13.8157 17.7239 13.531 18.0462L12.4088 19.3164L14.2711 20.9618Z" fill="white"/>
<path d="M22.0758 18.3502L17.6748 12.614L21.38 9.7713L21.9421 10.5122L19.0938 12.6975L20.43 14.439L22.9728 12.488L23.5297 13.214L20.983 15.168L22.3495 16.9491L25.2762 14.71L25.8484 15.4558L22.0758 18.3502Z" fill="white"/>
<path d="M33.6721 11.1209L31.4403 4.24402L32.8765 3.7779L36.5871 8.6189L36.7763 2.51227L38.203 2.04923L40.4349 8.92614L39.3934 9.26416L37.6153 3.78546L37.491 9.88154L36.6017 10.1702L32.9447 5.34856L34.7089 10.7845L33.6721 11.1209Z" fill="white"/>
<path d="M45.9785 8.40043C45.3232 8.44346 44.7466 8.33602 44.2487 8.07811C43.7538 7.81664 43.3586 7.42002 43.0631 6.88825C42.7707 6.35292 42.599 5.6961 42.5479 4.91778C42.4963 4.1328 42.5821 3.45572 42.8053 2.88654C43.0316 2.31381 43.3729 1.86548 43.8294 1.54153C44.2889 1.21404 44.8429 1.029 45.4915 0.9864C46.1368 0.944018 46.7053 1.05533 47.1971 1.32034C47.692 1.5818 48.0857 1.98185 48.3783 2.5205C48.674 3.05561 48.8476 3.71565 48.8992 4.50062C48.9503 5.27894 48.8658 5.95093 48.6458 6.51656C48.4257 7.0822 48.0875 7.527 47.631 7.85094C47.1779 8.17466 46.6271 8.35783 45.9785 8.40043ZM45.9185 7.48739C46.3376 7.45987 46.6889 7.33992 46.9722 7.12756C47.2589 6.91498 47.467 6.599 47.5964 6.17961C47.7259 5.76023 47.7696 5.23122 47.7277 4.5926C47.6847 3.93734 47.5697 3.40707 47.3827 3.00179C47.1991 2.59629 46.9511 2.30524 46.6389 2.12866C46.3297 1.94853 45.9673 1.87212 45.5515 1.89943C45.1357 1.92674 44.7831 2.05012 44.4935 2.26957C44.2072 2.4888 43.9963 2.81166 43.8606 3.23813C43.7249 3.66461 43.6785 4.20381 43.7213 4.85574C43.7635 5.49769 43.8795 6.01787 44.0694 6.41628C44.259 6.81137 44.5098 7.09554 44.8218 7.2688C45.1372 7.44184 45.5028 7.5147 45.9185 7.48739Z" fill="white"/>
<path d="M52.627 8.18893L53.7362 1.04452L56.5722 1.48481C57.1025 1.56714 57.5294 1.71776 57.853 1.93666C58.1771 2.15226 58.4015 2.42323 58.5263 2.74957C58.651 3.0759 58.6817 3.44329 58.6183 3.85173C58.5585 4.23711 58.4427 4.54804 58.2711 4.78451C58.1027 5.02148 57.9023 5.20456 57.6697 5.33375C57.4404 5.46344 57.205 5.55676 56.9634 5.61371L57.8544 9.00048L56.7427 8.8279L55.9419 5.64234L54.1484 5.36389L53.6843 8.35308L52.627 8.18893ZM54.2811 4.50913L55.7732 4.74079C56.2706 4.818 56.6726 4.77078 56.9792 4.59912C57.2864 4.42417 57.4711 4.13577 57.5335 3.73392C57.5949 3.33865 57.5163 3.01948 57.2976 2.77639C57.0823 2.53382 56.7622 2.37955 56.3373 2.31358L54.6623 2.05355L54.2811 4.50913Z" fill="white"/>
<path d="M60.8667 9.72219L63.3557 2.93414L67.7403 4.54187L67.4154 5.4133L64.0448 4.17738L63.2892 6.23821L66.2983 7.34158L65.9833 8.20065L62.9695 7.09555L62.1966 9.20332L65.6546 10.4766L65.331 11.3592L60.8667 9.72219Z" fill="white"/>
<path d="M73.5568 13.3896L74.0439 12.7301L76.1302 14.2649L75.646 14.9204L73.5568 13.3896Z" fill="white"/>
<path d="M80.2943 22.127L86.0305 17.726L88.8732 21.4311L88.1323 21.9932L85.947 19.145L84.2055 20.4811L86.1564 23.0239L85.4305 23.5809L83.4765 21.0341L81.6953 22.4007L83.9345 25.3274L83.1887 25.8996L80.2943 22.127Z" fill="white"/>
<path d="M84.5691 27.8206L88.9542 28.3724L91.0863 24.689L91.672 25.872L90.058 28.5735L93.1782 28.9146L93.6929 29.9542L89.6096 29.4259L87.3243 33.386L86.7343 32.194L88.4878 29.2449L85.0905 28.8736L84.5691 27.8206Z" fill="white"/>
<path d="M88.3226 35.9769L95.3081 34.1124L95.9541 36.5326C96.0873 37.0318 96.1211 37.5006 96.0552 37.9391C95.9903 38.3808 95.822 38.7586 95.5505 39.0726C95.2798 39.3898 94.9029 39.6129 94.4198 39.7419C93.9561 39.8656 93.532 39.8667 93.1476 39.7451C92.7673 39.6258 92.4404 39.4025 92.1667 39.0754C91.8972 38.7506 91.6971 38.3434 91.5664 37.8539L91.1641 36.3466L88.6037 37.0301L88.3226 35.9769ZM92.0082 36.1162L92.4041 37.5992C92.5227 38.0437 92.7466 38.372 93.0759 38.5843C93.4083 38.7957 93.7871 38.8447 94.2122 38.7312C94.6437 38.616 94.9352 38.383 95.0865 38.0321C95.241 37.6804 95.258 37.279 95.1377 36.8282L94.7521 35.3837L92.0082 36.1162Z" fill="white"/>
<path d="M90.1875 44.592L97.3964 44.0397L97.48 45.1215L91.2087 45.6063L91.4661 48.9364L90.5289 49.0088L90.1875 44.592Z" fill="white"/>
</svg>
