<svg width="1185" height="1297" viewBox="0 0 1185 1297" fill="none" xmlns="http://www.w3.org/2000/svg">
<circle cx="611" cy="798" r="239" fill="url(#paint0_linear_246_264)" fill-opacity="0.15"/>
<g filter="url(#filter0_f_246_264)">
<circle cx="829" cy="503" r="193" transform="rotate(90 829 503)" fill="url(#paint1_linear_246_264)" fill-opacity="0.5"/>
</g>
<g filter="url(#filter1_f_246_264)">
<path d="M346.829 625.172C354.172 540.73 377.105 507.578 440.44 489.865C572.545 452.916 706.637 599.747 803.173 673.155C877.729 729.855 960.377 804.785 929.268 908.488C894.285 1025.19 731.059 1077.39 638.946 1001.21C572.894 946.571 547.698 944.526 464.645 987.071C372.37 1034.34 322.504 1030.15 281.693 971.691C249.445 925.525 256.358 870.097 281.48 823.012C338.476 716.18 339.078 714.372 346.829 625.172Z" fill="#F26B01" fill-opacity="0.25"/>
</g>
<defs>
<filter id="filter0_f_246_264" x="326" y="0" width="1006" height="1006" filterUnits="userSpaceOnUse" color-interpolation-filters="sRGB">
<feFlood flood-opacity="0" result="BackgroundImageFix"/>
<feBlend mode="normal" in="SourceGraphic" in2="BackgroundImageFix" result="shape"/>
<feGaussianBlur stdDeviation="155" result="effect1_foregroundBlur_246_264"/>
</filter>
<filter id="filter1_f_246_264" x="0" y="224" width="1196" height="1073" filterUnits="userSpaceOnUse" color-interpolation-filters="sRGB">
<feFlood flood-opacity="0" result="BackgroundImageFix"/>
<feBlend mode="normal" in="SourceGraphic" in2="BackgroundImageFix" result="shape"/>
<feGaussianBlur stdDeviation="130" result="effect1_foregroundBlur_246_264"/>
</filter>
<linearGradient id="paint0_linear_246_264" x1="611" y1="559" x2="611" y2="1037" gradientUnits="userSpaceOnUse">
<stop stop-color="#66A6FF"/>
<stop offset="1" stop-color="white" stop-opacity="0"/>
</linearGradient>
<linearGradient id="paint1_linear_246_264" x1="829" y1="310" x2="829" y2="696" gradientUnits="userSpaceOnUse">
<stop stop-color="#FC461E"/>
<stop offset="1" stop-color="#6461FC"/>
</linearGradient>
</defs>
</svg>
