<svg width="38" height="38" viewBox="0 0 38 38" fill="none" xmlns="http://www.w3.org/2000/svg">
<path fill-rule="evenodd" clip-rule="evenodd" d="M9.5 -8.01086e-05C14.7467 -8.01086e-05 19 4.25321 19 9.49992V-8.01086e-05H28.5C33.7467 -8.01086e-05 38 4.25321 38 9.49992C38 14.7466 33.7467 18.9999 28.5 18.9999C33.7467 18.9999 38 23.2533 38 28.4999C38 31.1051 36.9513 33.4654 35.2531 35.1817L35.2175 35.2175L35.186 35.2488C33.4694 36.9495 31.1074 37.9999 28.5 37.9999C25.9104 37.9999 23.5628 36.9638 21.8491 35.2834C21.8268 35.2615 21.8046 35.2395 21.7825 35.2175C21.7617 35.1967 21.7409 35.1758 21.7203 35.1548C20.0378 33.4408 19 31.0915 19 28.4999C19 33.7466 14.7467 37.9999 9.5 37.9999C4.25329 37.9999 0 33.7466 0 28.4999V18.9999H9.5C4.25329 18.9999 0 14.7466 0 9.49992C0 4.25321 4.25329 -8.01086e-05 9.5 -8.01086e-05ZM17.1 9.49992C17.1 13.6973 13.6974 17.0999 9.5 17.0999V1.89992C13.6974 1.89992 17.1 5.30255 17.1 9.49992ZM36.1 28.4999C36.1 24.3025 32.6974 20.8999 28.5 20.8999C24.3026 20.8999 20.9 24.3025 20.9 28.4999H36.1ZM1.9 20.8999V28.4999C1.9 32.6973 5.30263 36.0999 9.5 36.0999C13.6974 36.0999 17.1 32.6973 17.1 28.4999V20.8999H1.9ZM20.9 17.0999V1.89992H28.5C32.6974 1.89992 36.1 5.30255 36.1 9.49992C36.1 13.6973 32.6974 17.0999 28.5 17.0999H20.9Z" fill="#3F66EF"/>
</svg>
