<svg width="123" height="123" viewBox="0 0 123 123" fill="none" xmlns="http://www.w3.org/2000/svg">
<path d="M56.5 2.88675C59.594 1.10042 63.406 1.10042 66.5 2.88675L109.761 27.8632C112.855 29.6496 114.761 32.9508 114.761 36.5235V86.4765C114.761 90.0492 112.855 93.3504 109.761 95.1367L66.5 120.113C63.406 121.9 59.594 121.9 56.5 120.113L13.2394 95.1367C10.1454 93.3504 8.23944 90.0492 8.23944 86.4765V36.5235C8.23944 32.9508 10.1454 29.6496 13.2394 27.8632L56.5 2.88675Z" fill="white"/>
<path d="M57 14.8868C60.094 13.1004 63.906 13.1004 67 14.8868L100.301 34.1132C103.395 35.8996 105.301 39.2008 105.301 42.7735V81.2265C105.301 84.7992 103.395 88.1004 100.301 89.8867L67 109.113C63.906 110.9 60.094 110.9 57 109.113L23.6987 89.8867C20.6047 88.1004 18.6987 84.7992 18.6987 81.2265V42.7735C18.6987 39.2008 20.6047 35.8996 23.6987 34.1132L57 14.8868Z" fill="#17012C"/>
<path fill-rule="evenodd" clip-rule="evenodd" d="M52.5 43C57.7467 43 62 47.2533 62 52.5V43H71.5C76.7467 43 81 47.2533 81 52.5C81 57.7467 76.7467 62 71.5 62C76.7467 62 81 66.2533 81 71.5C81 74.1052 79.9513 76.4655 78.2531 78.1817L78.2175 78.2175L78.186 78.2489C76.4694 79.9496 74.1074 81 71.5 81C68.9104 81 66.5628 79.9638 64.8491 78.2835C64.8268 78.2616 64.8046 78.2396 64.7825 78.2175C64.7617 78.1967 64.7409 78.1758 64.7203 78.1548C63.0378 76.4409 62 74.0916 62 71.5C62 76.7467 57.7467 81 52.5 81C47.2533 81 43 76.7467 43 71.5V62H52.5C47.2533 62 43 57.7467 43 52.5C43 47.2533 47.2533 43 52.5 43ZM60.1 52.5C60.1 56.6974 56.6974 60.1 52.5 60.1V44.9C56.6974 44.9 60.1 48.3026 60.1 52.5ZM79.1 71.5C79.1 67.3026 75.6974 63.9 71.5 63.9C67.3026 63.9 63.9 67.3026 63.9 71.5H79.1ZM44.9 63.9V71.5C44.9 75.6974 48.3026 79.1 52.5 79.1C56.6974 79.1 60.1 75.6974 60.1 71.5V63.9H44.9ZM63.9 60.1V44.9H71.5C75.6974 44.9 79.1 48.3026 79.1 52.5C79.1 56.6974 75.6974 60.1 71.5 60.1H63.9Z" fill="white"/>
</svg>
