<svg width="212" height="38" viewBox="0 0 212 38" fill="none" xmlns="http://www.w3.org/2000/svg">
<path d="M63.304 29.3368V0H72.8729C75.9707 0 78.6615 0.630052 80.9455 1.89016C83.2557 3.12401 85.0408 4.84352 86.3009 7.0487C87.561 9.22763 88.1911 11.761 88.1911 14.6487C88.1911 17.5102 87.561 20.0567 86.3009 22.2881C85.0408 24.4933 83.2557 26.2259 80.9455 27.486C78.6615 28.7199 75.9707 29.3368 72.8729 29.3368H63.304ZM68.6595 24.6114H72.9911C74.9862 24.6114 76.7057 24.2045 78.1496 23.3907C79.6197 22.5506 80.7617 21.3955 81.5755 19.9254C82.3893 18.429 82.7962 16.6701 82.7962 14.6487C82.7962 12.601 82.3893 10.8421 81.5755 9.37202C80.7617 7.9019 79.6197 6.75993 78.1496 5.94611C76.7057 5.1323 74.9862 4.72539 72.9911 4.72539H68.6595V24.6114Z" fill="white"/>
<path d="M92.02 29.3368V7.91503H97.1785V29.3368H92.02ZM92.02 5.51295V0H97.1785V5.51295H92.02Z" fill="white"/>
<path d="M112.337 38C110.736 38 109.253 37.7375 107.888 37.2124C106.522 36.6874 105.341 35.9523 104.344 35.0073C103.372 34.0884 102.663 32.999 102.217 31.7389L107.021 29.9275C107.336 30.925 107.953 31.7257 108.872 32.3295C109.817 32.9596 110.972 33.2746 112.337 33.2746C113.387 33.2746 114.306 33.0777 115.094 32.6839C115.908 32.2902 116.538 31.7126 116.984 30.9513C117.43 30.2162 117.653 29.3237 117.653 28.2736V23.3907L118.638 24.572C117.903 25.8584 116.918 26.8297 115.684 27.486C114.451 28.1423 113.046 28.4705 111.471 28.4705C109.476 28.4705 107.691 28.0111 106.116 27.0922C104.54 26.1734 103.307 24.9133 102.414 23.3119C101.521 21.7105 101.075 19.9123 101.075 17.9171C101.075 15.8957 101.521 14.0974 102.414 12.5223C103.307 10.9472 104.527 9.7133 106.076 8.82073C107.625 7.9019 109.384 7.44249 111.353 7.44249C112.954 7.44249 114.359 7.78377 115.566 8.46632C116.8 9.12263 117.824 10.0808 118.638 11.3409L117.929 12.6404V7.91503H122.812V28.2736C122.812 30.1375 122.353 31.8045 121.434 33.2746C120.541 34.7447 119.307 35.8998 117.732 36.7399C116.183 37.58 114.385 38 112.337 38ZM112.101 23.7057C113.204 23.7057 114.162 23.4694 114.976 22.9969C115.816 22.4981 116.472 21.8155 116.945 20.9492C117.417 20.0829 117.653 19.0853 117.653 17.9565C117.653 16.8539 117.404 15.8694 116.905 15.0031C116.433 14.1105 115.776 13.4149 114.936 12.9161C114.122 12.4173 113.177 12.1679 112.101 12.1679C111.025 12.1679 110.053 12.4173 109.187 12.9161C108.321 13.4149 107.638 14.1105 107.139 15.0031C106.667 15.8694 106.431 16.8539 106.431 17.9565C106.431 19.0591 106.667 20.0435 107.139 20.9098C107.638 21.7762 108.308 22.4587 109.148 22.9575C110.014 23.4563 110.998 23.7057 112.101 23.7057Z" fill="white"/>
<path d="M127.63 29.3368V7.91503H132.788V29.3368H127.63ZM127.63 5.51295V0H132.788V5.51295H127.63Z" fill="white"/>
<path d="M147.317 29.5731C144.902 29.5731 143.025 28.9168 141.686 27.6041C140.373 26.2653 139.717 24.3883 139.717 21.9731V12.5223H136.015V7.91503H136.409C137.459 7.91503 138.273 7.63938 138.851 7.08808C139.428 6.53679 139.717 5.7361 139.717 4.68601V3.03212H144.875V7.91503H149.798V12.5223H144.875V21.6974C144.875 22.4062 144.994 23.01 145.23 23.5088C145.492 24.0076 145.886 24.3883 146.411 24.6508C146.962 24.9133 147.658 25.0446 148.498 25.0446C148.682 25.0446 148.892 25.0314 149.128 25.0052C149.391 24.9789 149.64 24.9527 149.876 24.9264V29.3368C149.509 29.3893 149.089 29.4418 148.616 29.4943C148.144 29.5468 147.711 29.5731 147.317 29.5731Z" fill="white"/>
<path d="M164.1 29.8093C162 29.8093 160.083 29.3237 158.351 28.3523C156.644 27.381 155.279 26.0553 154.255 24.3751C153.258 22.695 152.759 20.7786 152.759 18.6259C152.759 16.4732 153.258 14.5568 154.255 12.8767C155.279 11.1965 156.644 9.87081 158.351 8.89948C160.057 7.92815 161.974 7.44249 164.1 7.44249C166.2 7.44249 168.103 7.92815 169.81 8.89948C171.516 9.87081 172.868 11.1965 173.866 12.8767C174.89 14.5306 175.402 16.447 175.402 18.6259C175.402 20.7786 174.89 22.695 173.866 24.3751C172.842 26.0553 171.477 27.381 169.77 28.3523C168.064 29.3237 166.174 29.8093 164.1 29.8093ZM164.1 25.0839C165.255 25.0839 166.266 24.8083 167.132 24.257C168.025 23.7057 168.72 22.9444 169.219 21.9731C169.744 20.9755 170.007 19.8598 170.007 18.6259C170.007 17.3658 169.744 16.2632 169.219 15.3181C168.72 14.3468 168.025 13.5855 167.132 13.0342C166.266 12.4566 165.255 12.1679 164.1 12.1679C162.919 12.1679 161.882 12.4566 160.989 13.0342C160.097 13.5855 159.388 14.3468 158.863 15.3181C158.364 16.2632 158.114 17.3658 158.114 18.6259C158.114 19.8598 158.364 20.9755 158.863 21.9731C159.388 22.9444 160.097 23.7057 160.989 24.257C161.882 24.8083 162.919 25.0839 164.1 25.0839Z" fill="white"/>
<path d="M179.314 29.3368V7.91503H184.157V12.8767L183.606 12.0497C184 10.5009 184.787 9.34577 185.968 8.58446C187.15 7.82314 188.541 7.44249 190.143 7.44249C191.901 7.44249 193.45 7.9019 194.789 8.82073C196.128 9.73955 196.994 10.9472 197.388 12.4435L195.931 12.5617C196.587 10.8553 197.572 9.58204 198.885 8.74197C200.197 7.87565 201.707 7.44249 203.413 7.44249C204.936 7.44249 206.288 7.78377 207.469 8.46632C208.677 9.14888 209.622 10.1071 210.304 11.3409C210.987 12.5485 211.328 13.953 211.328 15.5544V29.3368H206.169V16.7751C206.169 15.8301 205.999 15.0162 205.658 14.3337C205.316 13.6511 204.844 13.1261 204.24 12.7585C203.636 12.3648 202.901 12.1679 202.035 12.1679C201.221 12.1679 200.499 12.3648 199.869 12.7585C199.239 13.1261 198.753 13.6511 198.412 14.3337C198.071 15.0162 197.9 15.8301 197.9 16.7751V29.3368H192.742V16.7751C192.742 15.8301 192.571 15.0162 192.23 14.3337C191.888 13.6511 191.403 13.1261 190.773 12.7585C190.169 12.3648 189.447 12.1679 188.607 12.1679C187.793 12.1679 187.071 12.3648 186.441 12.7585C185.811 13.1261 185.325 13.6511 184.984 14.3337C184.643 15.0162 184.472 15.8301 184.472 16.7751V29.3368H179.314Z" fill="white"/>
<path fill-rule="evenodd" clip-rule="evenodd" d="M9.50002 0C14.7467 0 19 4.25329 19 9.5V0H28.5C33.7467 0 38 4.25329 38 9.5C38 14.7467 33.7467 19 28.5 19C33.7467 19 38 23.2533 38 28.5C38 31.1052 36.9513 33.4655 35.2531 35.1817L35.2176 35.2175L35.186 35.2489C33.4694 36.9496 31.1074 38 28.5 38C25.9104 38 23.5628 36.9638 21.8491 35.2835C21.8268 35.2616 21.8046 35.2396 21.7825 35.2175C21.7617 35.1967 21.741 35.1758 21.7203 35.1548C20.0378 33.4409 19 31.0916 19 28.5C19 33.7467 14.7467 38 9.50002 38C4.25331 38 1.52588e-05 33.7467 1.52588e-05 28.5V19H9.50002C4.25331 19 1.52588e-05 14.7467 1.52588e-05 9.5C1.52588e-05 4.25329 4.25331 0 9.50002 0ZM17.1 9.5C17.1 13.6974 13.6974 17.1 9.50002 17.1V1.9C13.6974 1.9 17.1 5.30263 17.1 9.5ZM36.1 28.5C36.1 24.3026 32.6974 20.9 28.5 20.9C24.3026 20.9 20.9 24.3026 20.9 28.5H36.1ZM1.90002 20.9V28.5C1.90002 32.6974 5.30265 36.1 9.50002 36.1C13.6974 36.1 17.1 32.6974 17.1 28.5V20.9H1.90002ZM20.9 17.1V1.9H28.5C32.6974 1.9 36.1 5.30263 36.1 9.5C36.1 13.6974 32.6974 17.1 28.5 17.1H20.9Z" fill="#EA7010"/>
</svg>
