<svg width="24" height="48" viewBox="0 0 24 48" fill="none" xmlns="http://www.w3.org/2000/svg">
<mask id="path-1-inside-1_247_353" fill="white">
<path d="M23.5976 47.1951C17.3391 47.1951 11.337 44.709 6.91156 40.2836C2.48616 35.8582 -1.74099e-07 29.856 0 23.5976C1.74099e-07 17.3391 2.48616 11.337 6.91156 6.91156C11.337 2.48616 17.3391 -7.46314e-08 23.5976 0V1.31821C17.6887 1.31821 12.0219 3.66549 7.84368 7.84368C3.66549 12.0219 1.31821 17.6887 1.31821 23.5976C1.31821 29.5064 3.66549 35.1732 7.84368 39.3514C12.0219 43.5296 17.6887 45.8769 23.5976 45.8769V47.1951Z"/>
</mask>
<path d="M23.5976 47.1951C17.3391 47.1951 11.337 44.709 6.91156 40.2836C2.48616 35.8582 -1.74099e-07 29.856 0 23.5976C1.74099e-07 17.3391 2.48616 11.337 6.91156 6.91156C11.337 2.48616 17.3391 -7.46314e-08 23.5976 0V1.31821C17.6887 1.31821 12.0219 3.66549 7.84368 7.84368C3.66549 12.0219 1.31821 17.6887 1.31821 23.5976C1.31821 29.5064 3.66549 35.1732 7.84368 39.3514C12.0219 43.5296 17.6887 45.8769 23.5976 45.8769V47.1951Z" fill="white" stroke="white" stroke-width="2" mask="url(#path-1-inside-1_247_353)"/>
</svg>
