<svg width="83" height="96" viewBox="0 0 83 96" fill="none" xmlns="http://www.w3.org/2000/svg">
<path d="M29.9704 1.64006C19.3977 4.70328 10.4726 11.8488 5.15838 21.5047C-0.155859 31.1606 -1.42395 42.5361 1.63307 53.1287C3.75858 60.5162 7.89482 67.1651 13.5786 72.3307L10.8044 96L34.176 82.4964C40.4542 83.6367 46.9108 83.3022 53.038 81.5192C58.2733 80.0012 63.1589 77.4649 67.4157 74.055C71.6726 70.6452 75.2173 66.4287 77.8476 61.6463C80.4778 56.8638 82.142 51.6092 82.7451 46.1823C83.3482 40.7555 82.8785 35.2628 81.3626 30.0178C79.8489 24.7732 77.3186 19.8787 73.9164 15.614C70.5142 11.3493 66.3067 7.79784 61.5342 5.16259C56.7618 2.52734 51.5179 0.859898 46.1021 0.255493C40.6863 -0.348912 35.2047 0.121562 29.9704 1.64006Z" fill="#FF4782"/>
<path d="M64.872 30.9841C62.5604 26.1256 56.7373 22.7043 51.1036 24.4722C45.0658 26.3673 42.7542 33.4643 42.5016 34.2782V35.2067C42.5016 34.9015 42.5016 34.5835 42.5016 34.2782C42.2489 33.4643 39.9753 26.3673 33.8995 24.4722C28.2659 22.7043 22.4428 26.1256 20.1312 30.9841C15.9123 39.8872 24.7796 50.8506 25.7901 52.097C27.8591 54.6373 30.413 56.734 33.3007 58.2632C36.1885 59.7924 39.3515 60.723 42.6026 61H42.7795H43.0068C49.3665 60.2873 55.1947 57.0906 59.2383 52.097C60.1857 50.7743 69.0909 39.849 64.872 30.9841Z" fill="white"/>
</svg>
