<svg width="120" height="90" viewBox="0 0 120 90" fill="none" xmlns="http://www.w3.org/2000/svg">
<path fill-rule="evenodd" clip-rule="evenodd" d="M94.7249 4.57434C92.8663 7.55684 89.8689 25.3076 89.5006 35.8673C89.3228 42.623 91.5233 45.7381 95.9826 44.7029C99.295 43.9339 101.366 37.8136 103.796 21.672C106.256 5.6585 106.118 4.48189 102.663 2.32908C99.366 0.273395 96.9752 0.963447 94.7249 4.57434Z" fill="#D5C6EF"/>
<path fill-rule="evenodd" clip-rule="evenodd" d="M46.9787 15.2562C45.5117 17.6104 48.2846 24.3536 56.0875 37.7159C66.1111 54.8612 66.1405 54.9881 70.5997 53.9529C74.1672 53.1247 74.2362 52.84 73.2277 46.7621C72.081 39.5076 61.9663 20.2362 57.1184 16.1246C54.1149 13.5996 48.3481 13.0572 46.9787 15.2562Z" fill="#D5C6EF"/>
<path fill-rule="evenodd" clip-rule="evenodd" d="M15.1911 73.261C11.3614 76.4323 11.887 81.0112 16.2726 82.5441C18.1662 83.1795 25.1374 83.7097 31.7055 83.661C42.2749 83.4896 44.0885 83.2036 46.2513 80.9554C49.1594 77.863 48.982 77.0993 44.8202 73.6333C39.217 69.1595 20.3434 68.8413 15.1911 73.261Z" fill="#D5C6EF"/>
</svg>
