<svg width="212" height="38" viewBox="0 0 212 38" fill="none" xmlns="http://www.w3.org/2000/svg">
<path d="M63.304 29.3365V-0.000238419H72.8729C75.9707 -0.000238419 78.6615 0.629814 80.9455 1.88992C83.2557 3.12377 85.0408 4.84329 86.3009 7.04847C87.561 9.2274 88.1911 11.7607 88.1911 14.6485C88.1911 17.51 87.561 20.0564 86.3009 22.2878C85.0408 24.493 83.2557 26.2257 80.9455 27.4858C78.6615 28.7196 75.9707 29.3365 72.8729 29.3365H63.304ZM68.6595 24.6112H72.9911C74.9862 24.6112 76.7057 24.2043 78.1496 23.3904C79.6197 22.5504 80.7617 21.3953 81.5755 19.9251C82.3893 18.4288 82.7962 16.6699 82.7962 14.6485C82.7962 12.6008 82.3893 10.8419 81.5755 9.37178C80.7617 7.90166 79.6197 6.75969 78.1496 5.94588C76.7057 5.13206 74.9862 4.72515 72.9911 4.72515H68.6595V24.6112Z" fill="#17012C"/>
<path d="M92.02 29.3365V7.91479H97.1785V29.3365H92.02ZM92.02 5.51272V-0.000238419H97.1785V5.51272H92.02Z" fill="#17012C"/>
<path d="M112.337 37.9998C110.736 37.9998 109.253 37.7372 107.888 37.2122C106.522 36.6872 105.341 35.9521 104.344 35.007C103.372 34.0882 102.663 32.9987 102.217 31.7386L107.021 29.9272C107.336 30.9248 107.953 31.7255 108.872 32.3293C109.817 32.9593 110.972 33.2744 112.337 33.2744C113.387 33.2744 114.306 33.0775 115.094 32.6837C115.908 32.2899 116.538 31.7124 116.984 30.9511C117.43 30.216 117.653 29.3234 117.653 28.2733V23.3904L118.638 24.5718C117.903 25.8581 116.918 26.8295 115.684 27.4858C114.451 28.1421 113.046 28.4702 111.471 28.4702C109.476 28.4702 107.691 28.0108 106.116 27.092C104.54 26.1732 103.307 24.9131 102.414 23.3117C101.521 21.7103 101.075 19.912 101.075 17.9169C101.075 15.8954 101.521 14.0972 102.414 12.522C103.307 10.9469 104.527 9.71306 106.076 8.82049C107.625 7.90166 109.384 7.44225 111.353 7.44225C112.954 7.44225 114.359 7.78353 115.566 8.46608C116.8 9.12239 117.824 10.0806 118.638 11.3407L117.929 12.6402V7.91479H122.812V28.2733C122.812 30.1372 122.353 31.8043 121.434 33.2744C120.541 34.7445 119.307 35.8996 117.732 36.7397C116.183 37.5797 114.385 37.9998 112.337 37.9998ZM112.101 23.7055C113.204 23.7055 114.162 23.4692 114.976 22.9967C115.816 22.4979 116.472 21.8153 116.945 20.949C117.417 20.0827 117.653 19.0851 117.653 17.9562C117.653 16.8536 117.404 15.8692 116.905 15.0029C116.433 14.1103 115.776 13.4146 114.936 12.9158C114.122 12.417 113.177 12.1676 112.101 12.1676C111.025 12.1676 110.053 12.417 109.187 12.9158C108.321 13.4146 107.638 14.1103 107.139 15.0029C106.667 15.8692 106.431 16.8536 106.431 17.9562C106.431 19.0588 106.667 20.0433 107.139 20.9096C107.638 21.7759 108.308 22.4585 109.148 22.9573C110.014 23.4561 110.998 23.7055 112.101 23.7055Z" fill="#17012C"/>
<path d="M127.63 29.3365V7.91479H132.788V29.3365H127.63ZM127.63 5.51272V-0.000238419H132.788V5.51272H127.63Z" fill="#17012C"/>
<path d="M147.317 29.5728C144.902 29.5728 143.025 28.9165 141.686 27.6039C140.373 26.265 139.717 24.388 139.717 21.9728V12.522H136.015V7.91479H136.409C137.459 7.91479 138.273 7.63914 138.851 7.08785C139.428 6.53655 139.717 5.73586 139.717 4.68577V3.03189H144.875V7.91479H149.798V12.522H144.875V21.6972C144.875 22.406 144.994 23.0098 145.23 23.5086C145.492 24.0074 145.886 24.388 146.411 24.6505C146.962 24.9131 147.658 25.0443 148.498 25.0443C148.682 25.0443 148.892 25.0312 149.128 25.0049C149.391 24.9787 149.64 24.9524 149.876 24.9262V29.3365C149.509 29.3891 149.089 29.4416 148.616 29.4941C148.144 29.5466 147.711 29.5728 147.317 29.5728Z" fill="#17012C"/>
<path d="M164.1 29.8091C162 29.8091 160.083 29.3234 158.351 28.3521C156.644 27.3808 155.279 26.055 154.255 24.3749C153.258 22.6948 152.759 20.7783 152.759 18.6257C152.759 16.473 153.258 14.5566 154.255 12.8764C155.279 11.1963 156.644 9.87057 158.351 8.89924C160.057 7.92791 161.974 7.44225 164.1 7.44225C166.2 7.44225 168.103 7.92791 169.81 8.89924C171.516 9.87057 172.868 11.1963 173.866 12.8764C174.89 14.5303 175.402 16.4467 175.402 18.6257C175.402 20.7783 174.89 22.6948 173.866 24.3749C172.842 26.055 171.477 27.3808 169.77 28.3521C168.064 29.3234 166.174 29.8091 164.1 29.8091ZM164.1 25.0837C165.255 25.0837 166.266 24.8081 167.132 24.2568C168.025 23.7055 168.72 22.9441 169.219 21.9728C169.744 20.9752 170.007 19.8595 170.007 18.6257C170.007 17.3656 169.744 16.263 169.219 15.3179C168.72 14.3466 168.025 13.5853 167.132 13.034C166.266 12.4564 165.255 12.1676 164.1 12.1676C162.919 12.1676 161.882 12.4564 160.989 13.034C160.097 13.5853 159.388 14.3466 158.863 15.3179C158.364 16.263 158.114 17.3656 158.114 18.6257C158.114 19.8595 158.364 20.9752 158.863 21.9728C159.388 22.9441 160.097 23.7055 160.989 24.2568C161.882 24.8081 162.919 25.0837 164.1 25.0837Z" fill="#17012C"/>
<path d="M179.314 29.3365V7.91479H184.157V12.8764L183.606 12.0495C184 10.5006 184.787 9.34553 185.968 8.58422C187.15 7.82291 188.541 7.44225 190.143 7.44225C191.901 7.44225 193.45 7.90166 194.789 8.82049C196.128 9.73931 196.994 10.9469 197.388 12.4433L195.931 12.5614C196.587 10.855 197.572 9.5818 198.885 8.74173C200.197 7.87541 201.707 7.44225 203.413 7.44225C204.936 7.44225 206.288 7.78353 207.469 8.46608C208.677 9.14864 209.622 10.1068 210.304 11.3407C210.987 12.5483 211.328 13.9528 211.328 15.5542V29.3365H206.169V16.7749C206.169 15.8298 205.999 15.016 205.658 14.3334C205.316 13.6509 204.844 13.1258 204.24 12.7583C203.636 12.3645 202.901 12.1676 202.035 12.1676C201.221 12.1676 200.499 12.3645 199.869 12.7583C199.239 13.1258 198.753 13.6509 198.412 14.3334C198.071 15.016 197.9 15.8298 197.9 16.7749V29.3365H192.742V16.7749C192.742 15.8298 192.571 15.016 192.23 14.3334C191.888 13.6509 191.403 13.1258 190.773 12.7583C190.169 12.3645 189.447 12.1676 188.607 12.1676C187.793 12.1676 187.071 12.3645 186.441 12.7583C185.811 13.1258 185.325 13.6509 184.984 14.3334C184.643 15.016 184.472 15.8298 184.472 16.7749V29.3365H179.314Z" fill="#17012C"/>
<path fill-rule="evenodd" clip-rule="evenodd" d="M9.5 -8.01086e-05C14.7467 -8.01086e-05 19 4.25321 19 9.49992V-8.01086e-05H28.5C33.7467 -8.01086e-05 38 4.25321 38 9.49992C38 14.7466 33.7467 18.9999 28.5 18.9999C33.7467 18.9999 38 23.2533 38 28.4999C38 31.1051 36.9513 33.4654 35.2531 35.1817L35.2175 35.2175L35.186 35.2488C33.4694 36.9495 31.1074 37.9999 28.5 37.9999C25.9104 37.9999 23.5628 36.9638 21.8491 35.2834C21.8268 35.2615 21.8046 35.2395 21.7825 35.2175C21.7617 35.1967 21.7409 35.1758 21.7203 35.1548C20.0378 33.4408 19 31.0915 19 28.4999C19 33.7466 14.7467 37.9999 9.5 37.9999C4.25329 37.9999 0 33.7466 0 28.4999V18.9999H9.5C4.25329 18.9999 0 14.7466 0 9.49992C0 4.25321 4.25329 -8.01086e-05 9.5 -8.01086e-05ZM17.1 9.49992C17.1 13.6973 13.6974 17.0999 9.5 17.0999V1.89992C13.6974 1.89992 17.1 5.30255 17.1 9.49992ZM36.1 28.4999C36.1 24.3025 32.6974 20.8999 28.5 20.8999C24.3026 20.8999 20.9 24.3025 20.9 28.4999H36.1ZM1.9 20.8999V28.4999C1.9 32.6973 5.30263 36.0999 9.5 36.0999C13.6974 36.0999 17.1 32.6973 17.1 28.4999V20.8999H1.9ZM20.9 17.0999V1.89992H28.5C32.6974 1.89992 36.1 5.30255 36.1 9.49992C36.1 13.6973 32.6974 17.0999 28.5 17.0999H20.9Z" fill="#3F66EF"/>
</svg>
