<svg width="186" height="40" viewBox="0 0 186 40" fill="none" xmlns="http://www.w3.org/2000/svg">
<path d="M63.304 32V8.16H71.08C73.5973 8.16 75.784 8.672 77.64 9.696C79.5173 10.6987 80.968 12.096 81.992 13.888C83.016 15.6587 83.528 17.7173 83.528 20.064C83.528 22.3893 83.016 24.4587 81.992 26.272C80.968 28.064 79.5173 29.472 77.64 30.496C75.784 31.4987 73.5973 32 71.08 32H63.304ZM67.656 28.16H71.176C72.7973 28.16 74.1947 27.8293 75.368 27.168C76.5627 26.4853 77.4907 25.5467 78.152 24.352C78.8133 23.136 79.144 21.7067 79.144 20.064C79.144 18.4 78.8133 16.9707 78.152 15.776C77.4907 14.5813 76.5627 13.6533 75.368 12.992C74.1947 12.3307 72.7973 12 71.176 12H67.656V28.16ZM86.6395 32V14.592H90.8315V32H86.6395ZM86.6395 12.64V8.16H90.8315V12.64H86.6395ZM103.15 39.04C101.849 39.04 100.643 38.8267 99.534 38.4C98.4247 37.9733 97.4647 37.376 96.654 36.608C95.8647 35.8613 95.2887 34.976 94.926 33.952L98.83 32.48C99.086 33.2907 99.5873 33.9413 100.334 34.432C101.102 34.944 102.041 35.2 103.15 35.2C104.003 35.2 104.75 35.04 105.39 34.72C106.051 34.4 106.563 33.9307 106.926 33.312C107.289 32.7147 107.47 31.9893 107.47 31.136V27.168L108.27 28.128C107.673 29.1733 106.873 29.9627 105.87 30.496C104.867 31.0293 103.726 31.296 102.446 31.296C100.825 31.296 99.374 30.9227 98.094 30.176C96.814 29.4293 95.8113 28.4053 95.086 27.104C94.3607 25.8027 93.998 24.3413 93.998 22.72C93.998 21.0773 94.3607 19.616 95.086 18.336C95.8113 17.056 96.8033 16.0533 98.062 15.328C99.3207 14.5813 100.75 14.208 102.35 14.208C103.651 14.208 104.793 14.4853 105.774 15.04C106.777 15.5733 107.609 16.352 108.27 17.376L107.694 18.432V14.592H111.662V31.136C111.662 32.6507 111.289 34.0053 110.542 35.2C109.817 36.3947 108.814 37.3333 107.534 38.016C106.275 38.6987 104.814 39.04 103.15 39.04ZM102.958 27.424C103.854 27.424 104.633 27.232 105.294 26.848C105.977 26.4427 106.51 25.888 106.894 25.184C107.278 24.48 107.47 23.6693 107.47 22.752C107.47 21.856 107.267 21.056 106.862 20.352C106.478 19.6267 105.945 19.0613 105.262 18.656C104.601 18.2507 103.833 18.048 102.958 18.048C102.083 18.048 101.294 18.2507 100.59 18.656C99.886 19.0613 99.3313 19.6267 98.926 20.352C98.542 21.056 98.35 21.856 98.35 22.752C98.35 23.648 98.542 24.448 98.926 25.152C99.3313 25.856 99.8753 26.4107 100.558 26.816C101.262 27.2213 102.062 27.424 102.958 27.424ZM115.577 32V14.592H119.769V32H115.577ZM115.577 12.64V8.16H119.769V12.64H115.577ZM131.576 32.192C129.613 32.192 128.088 31.6587 127 30.592C125.933 29.504 125.4 27.9787 125.4 26.016V18.336H122.392V14.592H122.712C123.565 14.592 124.226 14.368 124.696 13.92C125.165 13.472 125.4 12.8213 125.4 11.968V10.624H129.592V14.592H133.592V18.336H129.592V25.792C129.592 26.368 129.688 26.8587 129.88 27.264C130.093 27.6693 130.413 27.9787 130.84 28.192C131.288 28.4053 131.853 28.512 132.536 28.512C132.685 28.512 132.856 28.5013 133.048 28.48C133.261 28.4587 133.464 28.4373 133.656 28.416V32C133.357 32.0427 133.016 32.0853 132.632 32.128C132.248 32.1707 131.896 32.192 131.576 32.192ZM145.214 32.384C143.507 32.384 141.95 31.9893 140.542 31.2C139.155 30.4107 138.046 29.3333 137.214 27.968C136.403 26.6027 135.998 25.0453 135.998 23.296C135.998 21.5467 136.403 19.9893 137.214 18.624C138.046 17.2587 139.155 16.1813 140.542 15.392C141.929 14.6027 143.486 14.208 145.214 14.208C146.921 14.208 148.467 14.6027 149.854 15.392C151.241 16.1813 152.339 17.2587 153.15 18.624C153.982 19.968 154.398 21.5253 154.398 23.296C154.398 25.0453 153.982 26.6027 153.15 27.968C152.318 29.3333 151.209 30.4107 149.822 31.2C148.435 31.9893 146.899 32.384 145.214 32.384ZM145.214 28.544C146.153 28.544 146.974 28.32 147.678 27.872C148.403 27.424 148.969 26.8053 149.374 26.016C149.801 25.2053 150.014 24.2987 150.014 23.296C150.014 22.272 149.801 21.376 149.374 20.608C148.969 19.8187 148.403 19.2 147.678 18.752C146.974 18.2827 146.153 18.048 145.214 18.048C144.254 18.048 143.411 18.2827 142.686 18.752C141.961 19.2 141.385 19.8187 140.958 20.608C140.553 21.376 140.35 22.272 140.35 23.296C140.35 24.2987 140.553 25.2053 140.958 26.016C141.385 26.8053 141.961 27.424 142.686 27.872C143.411 28.32 144.254 28.544 145.214 28.544ZM157.577 32V14.592H161.513V18.624L161.065 17.952C161.385 16.6933 162.025 15.7547 162.985 15.136C163.945 14.5173 165.076 14.208 166.377 14.208C167.806 14.208 169.065 14.5813 170.153 15.328C171.241 16.0747 171.945 17.056 172.265 18.272L171.081 18.368C171.614 16.9813 172.414 15.9467 173.481 15.264C174.548 14.56 175.774 14.208 177.161 14.208C178.398 14.208 179.497 14.4853 180.457 15.04C181.438 15.5947 182.206 16.3733 182.761 17.376C183.316 18.3573 183.593 19.4987 183.593 20.8V32H179.401V21.792C179.401 21.024 179.262 20.3627 178.985 19.808C178.708 19.2533 178.324 18.8267 177.833 18.528C177.342 18.208 176.745 18.048 176.041 18.048C175.38 18.048 174.793 18.208 174.281 18.528C173.769 18.8267 173.374 19.2533 173.097 19.808C172.82 20.3627 172.681 21.024 172.681 21.792V32H168.489V21.792C168.489 21.024 168.35 20.3627 168.073 19.808C167.796 19.2533 167.401 18.8267 166.889 18.528C166.398 18.208 165.812 18.048 165.129 18.048C164.468 18.048 163.881 18.208 163.369 18.528C162.857 18.8267 162.462 19.2533 162.185 19.808C161.908 20.3627 161.769 21.024 161.769 21.792V32H157.577Z" fill="white"/>
<path fill-rule="evenodd" clip-rule="evenodd" d="M9.5 0C14.7467 0 19 4.25329 19 9.5V0H28.5C33.7467 0 38 4.25329 38 9.5C38 14.7467 33.7467 19 28.5 19C33.7467 19 38 23.2533 38 28.5C38 31.1052 36.9513 33.4655 35.2531 35.1817L35.2175 35.2175L35.186 35.2489C33.4694 36.9496 31.1074 38 28.5 38C25.9104 38 23.5628 36.9638 21.8491 35.2835C21.8268 35.2616 21.8046 35.2396 21.7825 35.2175C21.7617 35.1967 21.7409 35.1758 21.7203 35.1548C20.0378 33.4409 19 31.0916 19 28.5C19 33.7467 14.7467 38 9.5 38C4.25329 38 0 33.7467 0 28.5V19H9.5C4.25329 19 0 14.7467 0 9.5C0 4.25329 4.25329 0 9.5 0ZM17.1 9.5C17.1 13.6974 13.6974 17.1 9.5 17.1V1.9C13.6974 1.9 17.1 5.30263 17.1 9.5ZM36.1 28.5C36.1 24.3026 32.6974 20.9 28.5 20.9C24.3026 20.9 20.9 24.3026 20.9 28.5H36.1ZM1.9 20.9V28.5C1.9 32.6974 5.30263 36.1 9.5 36.1C13.6974 36.1 17.1 32.6974 17.1 28.5V20.9H1.9ZM20.9 17.1V1.9H28.5C32.6974 1.9 36.1 5.30263 36.1 9.5C36.1 13.6974 32.6974 17.1 28.5 17.1H20.9Z" fill="white"/>
</svg>
