<svg width="116" height="89" viewBox="0 0 116 89" fill="none" xmlns="http://www.w3.org/2000/svg">
<path d="M53.6836 88.3283C24.0824 88.3283 0 68.5163 0 44.1645C0 19.8128 24.0824 0 53.6836 0C83.2849 0 107.367 19.812 107.367 44.1645C107.367 68.5171 83.2849 88.3283 53.6836 88.3283ZM53.6836 3.05246C25.7658 3.05246 3.05246 21.4947 3.05246 44.1645C3.05246 66.8344 25.7658 85.2759 53.6836 85.2759C81.6015 85.2759 104.315 66.8336 104.315 44.1645C104.315 21.4954 81.6015 3.05246 53.6836 3.05246Z" fill="#D5C5EF" fill-opacity="0.5"/>
<path d="M24.4855 53.4544C19.3627 53.4544 15.1953 49.287 15.1953 44.1642C15.1953 39.0414 19.3627 34.874 24.4855 34.874C29.6083 34.874 33.7756 39.0414 33.7756 44.1642C33.7756 49.287 29.6083 53.4544 24.4855 53.4544ZM24.4855 37.9273C21.0461 37.9273 18.2478 40.7256 18.2478 44.165C18.2478 47.6043 21.0461 50.4027 24.4855 50.4027C27.9248 50.4027 30.7232 47.6043 30.7232 44.165C30.7232 40.7256 27.9248 37.9273 24.4855 37.9273Z" fill="#D5C5EF" fill-opacity="0.5"/>
<path d="M53.6847 53.4544C48.5619 53.4544 44.3945 49.287 44.3945 44.1642C44.3945 39.0414 48.5619 34.874 53.6847 34.874C58.8075 34.874 62.9749 39.0414 62.9749 44.1642C62.9749 49.287 58.8075 53.4544 53.6847 53.4544ZM53.6847 37.9273C50.2453 37.9273 47.447 40.7256 47.447 44.165C47.447 47.6043 50.2453 50.4027 53.6847 50.4027C57.1241 50.4027 59.9224 47.6043 59.9224 44.165C59.9224 40.7256 57.1248 37.9273 53.6847 37.9273Z" fill="#D5C5EF" fill-opacity="0.5"/>
<path d="M82.8817 53.4544C77.7589 53.4544 73.5916 49.287 73.5916 44.1642C73.5916 39.0414 77.7589 34.874 82.8817 34.874C88.0045 34.874 92.1719 39.0414 92.1719 44.1642C92.1719 49.287 88.0045 53.4544 82.8817 53.4544ZM82.8817 37.9273C79.4424 37.9273 76.644 40.7256 76.644 44.165C76.644 47.6043 79.4424 50.4027 82.8817 50.4027C86.3211 50.4027 89.1194 47.6043 89.1194 44.165C89.1194 40.7256 86.3211 37.9273 82.8817 37.9273Z" fill="#D5C5EF" fill-opacity="0.5"/>
<path d="M95.1497 82.9421C90.3993 82.9421 85.5329 82.1767 83.0398 79.9782C82.408 79.4204 82.3477 78.4558 82.9048 77.8239C83.4626 77.1928 84.4272 77.1318 85.059 77.6888C87.253 79.6249 93.5487 80.4009 100.367 79.5753C104.277 79.1021 107.728 78.1536 109.982 77.0013C104.495 75.5575 97.8168 71.6022 96.608 66.9259C96.3974 66.1101 96.8881 65.2768 97.7039 65.0661C98.5212 64.8548 99.353 65.3462 99.5636 66.162C100.652 70.3751 109.12 74.3563 113.662 74.5288C114.219 74.5501 114.721 74.8737 114.97 75.372C115.219 75.8711 115.176 76.4663 114.858 76.9242C112.064 80.9473 103.341 82.2897 100.734 82.6056C99.0057 82.8147 97.0873 82.9413 95.1497 82.9421Z" fill="#D5C5EF" fill-opacity="0.5"/>
</svg>
