<svg width="35" height="37" viewBox="0 0 35 37" fill="none" xmlns="http://www.w3.org/2000/svg">
<path d="M29.5991 0H14.9321C12.1707 0 9.93213 2.23858 9.93213 5V19.667C9.93213 22.4284 12.1707 24.667 14.9321 24.667H29.5991C32.3606 24.667 34.5991 22.4284 34.5991 19.667V5C34.5991 2.23858 32.3606 0 29.5991 0Z" fill="url(#paint0_linear_4019_32)"/>
<path d="M20.167 12.833H5.5C3.01472 12.833 1 14.8477 1 17.333V32C1 34.4853 3.01472 36.5 5.5 36.5H20.167C22.6523 36.5 24.667 34.4853 24.667 32V17.333C24.667 14.8477 22.6523 12.833 20.167 12.833Z" stroke="url(#paint1_linear_4019_32)"/>
<defs>
<linearGradient id="paint0_linear_4019_32" x1="9.93213" y1="22.49" x2="56.3631" y2="-10.52" gradientUnits="userSpaceOnUse">
<stop stop-color="#1C40F2"/>
<stop offset="0.983" stop-color="#03F8FB"/>
</linearGradient>
<linearGradient id="paint1_linear_4019_32" x1="0.376" y1="24.668" x2="24.949" y2="24.668" gradientUnits="userSpaceOnUse">
<stop stop-color="#1C40F2"/>
<stop offset="0.983" stop-color="#03F8FB"/>
</linearGradient>
</defs>
</svg>
