<svg width="330" height="357" viewBox="0 0 330 357" fill="none" xmlns="http://www.w3.org/2000/svg">
<g opacity="0.5">
<path d="M598.506 269.822C559.561 274.752 520.038 279.693 475.4 275.7C430.762 271.708 379.638 257.656 336.816 230.859C296.839 205.842 268.709 172.884 246.651 141.158C224.592 109.432 206.75 77.2717 179.266 46.1715C151.782 15.0712 111.801 -15.9675 67.5278 -30.124C-14.7542 -56.4349 -66.9893 -14.4863 -144.878 -22.3609C-194.299 -27.3565 -252.604 -54.2807 -290.353 -89.5379C-348.414 -143.765 -354.266 -208.165 -417.938 -259.983C-464.784 -298.108 -532.057 -318.935 -586.721 -322.017C-641.385 -325.1 -686.322 -313.454 -730.058 -301.92" stroke="#ECF1F5" stroke-miterlimit="10"/>
<path d="M594.709 274.734C557.663 277.747 520.582 281.052 478.808 275.69C450.359 272.037 419.163 263.814 389.285 250.476C375.267 244.247 361.547 236.808 348.503 228.216C310.66 203.287 283.423 171.069 261.558 140.037C239.967 109.303 222.435 77.9358 194.934 48.3719C172.741 24.5114 143.093 2.29678 110.961 -12.2335C100.487 -16.9689 89.7067 -20.7732 78.7507 -23.6761C62.6001 -28.002 47.5642 -29.8089 33.0949 -30.2586C11.7409 -30.9225 -8.4089 -28.3341 -28.5245 -25.6497C-52.4148 -22.4635 -75.5516 -18.4924 -99.745 -18.5877C-111.189 -18.6327 -122.765 -19.6518 -134.936 -21.8817C-140.401 -22.8842 -145.954 -24.2271 -151.617 -25.7654C-170.089 -30.7766 -189.622 -38.5672 -209.314 -48.1441C-235.352 -60.8065 -260.802 -76.4217 -281.028 -93.4974C-287.816 -99.2227 -293.954 -105.019 -299.616 -110.787C-319.58 -131.121 -333.444 -151.441 -347.422 -171.917C-360.654 -191.301 -374.505 -210.744 -394.342 -230.579C-401.542 -237.834 -409.399 -245.073 -418.144 -252.174C-429.576 -261.453 -441.875 -269.943 -454.398 -277.601C-470.405 -287.391 -486.587 -295.948 -503.433 -302.805C-529.875 -313.57 -557.608 -320.83 -583.592 -323.929C-591.722 -324.899 -599.711 -325.426 -607.571 -325.704C-651.916 -327.272 -692.149 -319.329 -729.259 -309.058" stroke="#ECF1F5" stroke-miterlimit="10"/>
<path d="M590.911 279.646C555.762 280.74 521.004 283.02 482.216 275.678C455.763 270.672 426.69 262.019 398.66 248.226C385.512 241.815 372.603 234.201 360.19 225.57C324.48 200.739 298.137 169.249 276.469 138.913C255.345 109.169 238.047 78.6483 210.608 50.5673C186.998 26.406 155.692 5.51196 123.048 -7.39324C112.211 -11.6777 101.146 -14.8349 89.9805 -17.233C73.5797 -20.7546 58.3056 -21.8838 43.4272 -21.9395C21.9946 -22.0183 1.31759 -19.4329 -19.5539 -17.6239C-44.0942 -15.4969 -67.5519 -13.2096 -90.9926 -15.2064C-102.301 -16.17 -113.388 -18.2457 -124.989 -21.4136C-130.231 -22.8449 -135.52 -24.6627 -140.963 -26.5997C-158.629 -32.8916 -177.651 -41.8514 -197.78 -52.2229C-223.959 -65.7116 -250.405 -81.2101 -271.696 -97.4657C-278.847 -102.918 -285.346 -108.385 -291.371 -113.704C-312.79 -132.608 -327.953 -150.322 -343.008 -168.551C-357.211 -185.746 -372.403 -203.165 -393.621 -222.787C-401.288 -229.876 -409.442 -237.16 -418.34 -244.372C-430.152 -253.939 -442.563 -262.907 -454.722 -271.145C-470.578 -281.889 -485.666 -291.634 -501.852 -299.568C-526.983 -311.887 -553.931 -321.87 -580.449 -325.849C-588.562 -327.067 -596.538 -328.248 -604.479 -328.955C-648.993 -332.92 -691.41 -326.939 -728.446 -316.202" stroke="#ECF1F5" stroke-miterlimit="10"/>
<path d="M587.113 284.559C553.861 283.738 521.63 283.762 485.624 275.67C461.006 270.137 434.254 260.157 408.035 245.981C395.776 239.352 383.655 231.603 371.877 222.931C338.3 198.212 312.853 167.437 291.378 137.796C270.724 109.045 253.585 79.4154 226.277 52.7722C201.217 28.3205 168.261 8.76495 135.13 -2.54377C123.921 -6.36832 112.583 -8.90314 101.204 -10.7786C84.5621 -13.523 69.0447 -13.9571 53.7512 -13.6076C32.2428 -13.1171 11.0403 -10.5099 -10.5898 -9.58495C-35.7734 -8.50767 -59.9351 -6.33431 -82.247 -11.81C-93.2724 -14.5166 -104.026 -16.836 -115.047 -20.9279C-120.068 -22.7924 -125.088 -25.074 -130.317 -27.4189C-147.171 -34.9784 -165.688 -45.1125 -186.254 -56.2849C-212.58 -70.5886 -240.015 -85.9793 -262.372 -101.417C-269.889 -106.596 -276.753 -111.734 -283.134 -116.602C-306.029 -134.073 -322.442 -149.17 -338.603 -165.167C-353.754 -180.164 -370.261 -195.613 -392.911 -214.979C-401.028 -221.918 -409.496 -229.231 -418.548 -236.554C-430.743 -246.41 -443.26 -255.868 -455.059 -264.673C-470.76 -276.387 -484.751 -287.287 -500.283 -296.315C-524.094 -310.157 -550.521 -321.242 -577.32 -327.754C-585.33 -329.7 -593.378 -331.054 -601.404 -332.193C-646.082 -338.538 -690.691 -334.536 -727.65 -323.336" stroke="#ECF1F5" stroke-miterlimit="10"/>
<path d="M583.316 289.471C551.961 286.73 522.132 285.104 489.034 275.659C466.312 269.177 441.796 258.345 417.411 243.733C406.029 236.914 394.712 229.006 383.566 220.29C352.12 195.697 327.493 165.677 306.29 136.676C286.03 108.97 269.067 80.2254 241.952 54.9716C215.404 30.2452 180.813 12.039 147.218 2.30046C135.631 -1.05731 124.029 -2.9783 112.437 -4.33117C95.5562 -6.2999 79.7946 -6.04522 64.0869 -5.28423C42.5051 -4.23833 20.7776 -1.58873 -1.61589 -1.55482C-27.4426 -1.51706 -51.6579 -2.78772 -73.4913 -8.42435C-84.5851 -11.2882 -94.6567 -15.4479 -105.097 -20.4535C-109.899 -22.7558 -114.647 -25.4943 -119.66 -28.2488C-135.7 -37.0632 -153.72 -48.3772 -174.717 -60.3593C-201.191 -75.4682 -229.612 -90.7609 -253.038 -105.381C-260.919 -110.287 -268.156 -115.092 -274.887 -119.515C-299.279 -135.543 -316.897 -148.031 -334.187 -161.797C-350.258 -174.591 -368.103 -188.08 -392.191 -207.184C-400.755 -213.977 -409.54 -221.317 -418.744 -228.748C-431.32 -238.892 -443.94 -248.855 -455.384 -258.211C-470.927 -270.916 -483.822 -282.929 -498.703 -293.072C-521.194 -308.403 -546.959 -321.395 -574.18 -329.668C-582.125 -332.083 -590.205 -333.864 -598.316 -335.439C-643.153 -344.146 -689.957 -342.141 -726.839 -330.477" stroke="#ECF1F5" stroke-miterlimit="10"/>
<path d="M579.517 294.382C550.06 289.724 522.613 286.426 492.439 275.649C471.603 268.207 449.336 256.537 426.782 241.485C416.28 234.475 405.761 226.414 395.25 217.646C365.929 193.193 342.193 163.87 321.196 135.555C301.394 108.85 284.49 81.0806 257.62 57.1704C229.55 32.1939 193.341 15.342 159.298 7.14576C147.326 4.262 135.467 2.94366 123.66 2.11902C106.54 0.921936 90.5331 1.86115 74.4119 3.04191C52.7591 4.62933 30.5043 7.34542 7.34718 6.47803C-19.1185 5.48724 -43.7427 2.32494 -64.7467 -5.03401C-75.7515 -8.89005 -85.2996 -14.0696 -95.1576 -19.9743C-99.7425 -22.7208 -104.217 -25.9059 -109.014 -29.0741C-124.24 -39.131 -141.762 -51.6309 -163.19 -64.4291C-189.818 -80.3338 -219.223 -95.5383 -243.714 -109.341C-251.959 -113.974 -259.573 -118.442 -266.648 -122.423C-292.552 -136.998 -311.325 -146.889 -329.781 -158.421C-346.742 -169.021 -365.948 -180.548 -391.481 -199.381C-400.492 -206.028 -409.591 -213.394 -418.952 -220.936C-431.908 -231.368 -444.625 -241.851 -455.721 -251.744C-471.097 -265.454 -482.907 -278.547 -497.134 -289.825C-518.31 -306.612 -543.409 -321.507 -571.049 -331.579C-578.932 -334.452 -587.041 -336.666 -595.239 -338.68C-640.233 -349.732 -689.233 -349.74 -726.039 -337.612" stroke="#ECF1F5" stroke-miterlimit="10"/>
<path d="M575.719 299.294C548.16 292.719 523.079 287.724 495.847 275.638C476.881 267.22 456.879 254.735 436.157 239.237C426.532 232.041 416.814 223.826 406.936 215.005C379.737 190.711 356.894 162.065 336.104 134.435C316.76 108.727 299.866 81.9765 273.288 59.3709C243.662 34.1711 206.117 17.1573 171.379 11.9908C158.924 10.1382 146.905 8.86533 134.883 8.56695C117.523 8.13719 101.274 9.75534 84.7373 11.3658C63.0118 13.4821 40.2326 16.2836 16.3108 14.5086C-10.7952 12.4972 -35.8218 7.37085 -56.0013 -1.64792C-66.9158 -6.52659 -75.9395 -12.7074 -85.2177 -19.4994C-89.584 -22.696 -93.7894 -26.3181 -98.3694 -29.904C-112.787 -41.1921 -129.811 -54.884 -151.664 -68.5034C-178.448 -85.1961 -208.833 -100.322 -234.393 -113.305C-243.001 -117.662 -250.996 -121.791 -258.414 -125.336C-285.845 -138.44 -305.73 -145.769 -325.378 -155.052C-343.203 -163.474 -363.79 -173.027 -390.77 -191.588C-400.224 -198.092 -409.644 -205.479 -419.157 -213.132C-432.497 -223.852 -445.3 -234.864 -456.056 -245.285C-471.256 -260.013 -481.996 -274.153 -495.563 -286.585C-515.437 -304.797 -539.863 -321.593 -567.918 -333.497C-575.741 -336.817 -583.878 -339.476 -592.16 -341.93C-637.314 -355.311 -688.509 -357.349 -725.237 -344.757" stroke="#ECF1F5" stroke-miterlimit="10"/>
<path d="M571.921 304.207C546.259 295.714 523.531 288.99 499.255 275.628C482.146 266.212 464.422 252.935 445.531 236.99C436.785 229.607 427.865 221.246 418.625 212.362C393.539 188.242 371.602 160.257 351.015 133.314C332.133 108.607 315.209 82.9154 288.963 61.5705C257.742 36.1795 218.37 22.041 183.467 16.8352C170.715 14.9321 158.353 14.7825 146.114 15.0143C128.517 15.3482 112.02 17.6423 95.0706 19.691C73.272 22.326 49.9672 25.2311 25.2823 22.5406C-2.46352 19.5168 -27.877 12.3617 -47.2484 1.74152C-58.0637 -4.18684 -66.566 -11.3531 -75.2699 -19.0231C-79.4148 -22.6754 -83.3545 -26.7249 -87.715 -30.7321C-101.329 -43.238 -117.853 -58.1277 -140.129 -72.5761C-167.075 -90.0518 -198.435 -105.102 -225.059 -117.267C-234.032 -121.351 -242.41 -125.135 -250.167 -128.246C-279.134 -139.863 -300.097 -144.674 -320.963 -151.679C-339.631 -157.946 -361.618 -165.509 -390.05 -183.79C-399.946 -190.153 -409.689 -197.561 -419.356 -205.327C-433.076 -216.335 -445.962 -227.884 -456.383 -238.824C-471.397 -254.584 -481.091 -269.739 -493.985 -283.343C-512.575 -302.955 -536.323 -321.646 -564.78 -335.413C-572.544 -339.17 -580.708 -342.28 -589.075 -345.178C-634.394 -360.877 -687.78 -364.956 -724.432 -351.901" stroke="#ECF1F5" stroke-miterlimit="10"/>
<path d="M568.124 309.119C544.359 298.707 523.977 290.209 502.663 275.618C487.407 265.173 471.963 251.142 454.904 234.74C447.037 227.174 438.91 218.67 430.309 209.718C407.326 185.796 386.309 158.444 365.922 132.191C347.505 108.477 330.511 83.8879 304.63 63.7666C271.78 38.2274 230.871 25.4288 195.546 21.6758C182.4 20.2797 169.791 20.6938 157.335 21.4598C139.502 22.5555 122.758 25.5174 105.394 28.0125C83.5226 31.1559 59.6933 34.1811 34.2463 30.5691C5.85969 26.5389 -19.9127 17.3006 -38.5049 5.12716C-49.2055 -1.88086 -57.1921 -10.0111 -65.3299 -18.5483C-69.2486 -22.6595 -72.9298 -27.1316 -77.0684 -31.5617C-89.8857 -45.2786 -105.905 -61.3693 -128.601 -76.6502C-155.712 -94.901 -188.042 -109.883 -215.734 -121.231C-225.071 -125.042 -233.835 -128.474 -241.927 -131.156C-272.439 -141.269 -294.462 -143.611 -316.554 -148.306C-336.053 -152.449 -359.447 -157.995 -389.337 -175.992C-399.673 -182.216 -409.739 -189.644 -419.558 -197.518C-433.66 -208.812 -446.619 -220.91 -456.715 -232.361C-471.531 -249.163 -480.202 -265.31 -492.411 -280.101C-509.737 -301.091 -532.8 -321.669 -561.644 -337.33C-569.354 -341.517 -577.54 -345.083 -585.99 -348.427C-631.476 -366.428 -687.05 -372.564 -723.625 -359.043" stroke="#ECF1F5" stroke-miterlimit="10"/>
<path d="M564.326 314.03C542.46 301.703 524.432 291.375 506.071 275.607C492.669 264.099 479.5 249.353 464.279 232.492C457.288 224.748 449.953 216.103 441.995 207.074C421.102 183.367 401.021 156.631 380.829 131.07C362.881 108.351 345.787 84.901 320.3 65.9674C285.785 40.3247 243.377 28.8482 207.63 26.5215C194.088 25.6404 181.235 26.6081 168.562 27.9083C150.491 29.7634 133.498 33.3891 115.724 36.337C93.7763 39.9782 69.4808 42.7821 43.2137 38.6003C14.1173 33.9666 -11.9118 22.2052 -29.7557 8.51385C-40.3235 0.404822 -47.8055 -8.67293 -55.3862 -18.0727C-59.076 -22.6465 -62.5039 -27.534 -66.418 -32.3906C-78.4501 -47.3122 -93.9586 -64.6069 -117.072 -80.7219C-144.353 -99.745 -177.649 -114.662 -206.409 -125.192C-216.11 -128.73 -225.259 -131.807 -233.69 -134.067C-265.748 -142.657 -288.828 -142.583 -312.149 -144.933C-332.479 -146.982 -357.276 -150.49 -388.627 -168.194C-399.405 -174.281 -409.793 -181.725 -419.767 -189.711C-434.249 -201.293 -447.273 -213.942 -457.053 -225.897C-471.657 -243.749 -479.339 -260.868 -490.843 -276.856C-506.929 -299.21 -529.305 -321.664 -558.516 -339.242C-566.178 -343.854 -574.382 -347.877 -582.917 -351.669C-628.577 -371.962 -686.33 -380.162 -722.828 -366.181" stroke="#ECF1F5" stroke-miterlimit="10"/>
<path d="M560.529 318.942C540.559 304.696 524.914 292.482 509.48 275.597C497.952 262.985 487.035 247.573 473.656 230.245C467.539 222.321 460.99 213.543 453.686 204.433C434.862 180.96 415.741 154.816 395.743 129.953C378.265 108.224 361.044 85.9517 335.974 68.1691C299.757 42.4778 255.887 32.291 219.717 31.3677C205.783 31.0125 192.679 32.5207 179.79 34.3594C161.48 36.9696 144.24 41.2549 126.055 44.666C104.029 48.7963 79.151 52.1088 52.1827 46.636C22.5087 40.6146 -3.87073 27.0925 -21.0052 11.9071C-31.4149 2.68106 -38.4066 -7.33245 -45.4411 -17.5907C-48.8955 -22.63 -52.0788 -27.9302 -55.7683 -33.2133C-67.0222 -49.3347 -82.0158 -67.8328 -105.542 -84.7892C-132.994 -104.579 -167.255 -119.439 -197.081 -129.149C-207.146 -132.414 -216.682 -135.132 -225.447 -136.972C-259.051 -144.024 -283.197 -141.58 -307.737 -141.556C-328.906 -141.535 -355.097 -142.983 -387.908 -160.393C-399.125 -166.343 -409.838 -173.803 -419.964 -181.899C-434.829 -193.769 -447.908 -206.976 -457.378 -219.43C-471.759 -238.344 -478.481 -256.416 -489.264 -273.609C-504.132 -297.319 -525.816 -321.637 -555.377 -341.154C-562.995 -346.184 -571.213 -350.671 -579.828 -354.913C-625.669 -377.486 -685.597 -387.765 -722.018 -373.318" stroke="#ECF1F5" stroke-miterlimit="10"/>
<path d="M556.731 323.856C538.659 307.691 525.447 293.545 512.888 275.589C503.27 261.835 494.563 245.799 483.03 227.999C477.785 219.902 472.018 210.992 465.371 201.794C448.598 178.574 430.46 153 410.65 128.834C393.649 108.093 376.277 87.0349 351.645 70.37C313.689 44.691 268.398 35.7565 231.799 36.2131C217.473 36.3917 204.119 38.4325 191.015 40.8077C172.465 44.171 154.975 49.1113 136.382 52.9902C114.276 57.6011 88.8738 61.0768 61.1482 54.667C30.8263 47.6563 4.20401 31.9611 -12.2579 15.2935C-22.485 4.93849 -29.0027 -5.99934 -35.499 -17.1174C-38.7139 -22.6215 -41.6629 -28.3342 -45.1196 -34.0445C-55.6055 -51.3655 -70.0766 -71.0635 -94.0118 -88.8648C-121.642 -109.415 -156.861 -124.222 -187.755 -133.112C-198.185 -136.102 -208.106 -138.459 -217.209 -139.884C-252.357 -145.382 -277.586 -140.607 -303.332 -138.185C-325.354 -136.113 -352.925 -135.489 -387.198 -152.597C-398.854 -158.414 -409.889 -165.888 -420.17 -174.093C-435.416 -186.251 -448.544 -200.019 -457.714 -212.97C-471.857 -232.947 -477.652 -251.968 -487.694 -270.368C-501.371 -295.427 -522.357 -321.598 -552.245 -343.069C-559.825 -348.515 -568.053 -353.466 -576.75 -358.16C-622.779 -383.01 -684.873 -395.371 -721.219 -380.461" stroke="#ECF1F5" stroke-miterlimit="10"/>
<path d="M552.932 328.767C536.756 310.686 526.044 294.578 516.294 275.576C508.64 260.662 502.078 244.025 492.401 225.748C488.023 217.478 483.031 208.444 477.056 199.148C462.304 176.197 445.181 151.174 425.556 127.711C409.032 107.953 391.493 88.1458 367.311 72.5681C327.577 46.9723 280.915 39.2392 243.88 41.0561C229.165 41.7776 215.556 44.3376 202.238 47.2537C183.448 51.3677 165.706 56.9587 146.707 61.3121C124.515 66.3985 98.5923 70.046 70.112 62.6956C39.1391 54.7012 12.3106 36.8231 -3.51262 18.6796C-13.5334 7.18953 -19.5926 -4.66716 -25.5573 -16.6421C-28.5287 -22.6103 -31.2476 -28.7343 -34.4711 -34.8737C-44.1994 -53.394 -58.1424 -74.2889 -82.4824 -92.9385C-110.293 -114.249 -146.469 -129.003 -178.428 -137.075C-189.223 -139.792 -199.527 -141.783 -208.967 -142.796C-245.654 -146.725 -271.99 -139.649 -298.921 -134.813C-321.814 -130.703 -350.744 -127.998 -386.482 -144.8C-398.576 -150.486 -409.937 -157.97 -420.373 -166.287C-436 -178.733 -449.169 -193.061 -458.046 -206.507C-471.941 -227.555 -476.833 -247.514 -486.12 -267.124C-498.626 -293.535 -518.916 -321.543 -549.111 -344.984C-556.657 -350.843 -564.893 -356.26 -573.669 -361.407C-619.894 -388.524 -684.146 -402.977 -720.415 -387.604" stroke="#ECF1F5" stroke-miterlimit="10"/>
<path d="M549.134 333.679C534.857 313.68 526.718 295.615 519.702 275.566C514.076 259.488 509.587 242.255 501.776 223.501C498.26 215.059 494.035 205.903 488.742 196.506C475.981 173.839 459.911 149.349 440.466 126.59C424.425 107.816 406.705 89.2908 382.984 74.7675C341.436 49.3321 293.446 42.7388 255.964 45.9C240.866 47.1732 226.995 50.2452 213.465 53.7024C194.432 58.5648 176.437 64.8022 157.037 69.6387C134.758 75.1923 108.313 79.0259 79.0813 70.7293C47.4568 61.7552 20.4568 41.6941 5.23818 22.0708C-4.55344 9.44353 -10.1716 -3.32486 -15.612 -16.1621C-18.338 -22.594 -20.8325 -29.1323 -23.8192 -35.6981C-32.7958 -55.4188 -46.2054 -77.5056 -70.9495 -97.0074C-98.9444 -119.072 -136.071 -133.779 -169.097 -141.034C-180.255 -143.478 -190.942 -145.1 -200.724 -145.703C-238.946 -148.055 -266.412 -138.696 -294.508 -131.438C-318.285 -125.297 -348.562 -120.509 -385.765 -136.999C-398.297 -142.553 -409.984 -150.048 -420.571 -158.475C-436.581 -171.209 -449.783 -186.102 -458.373 -200.041C-472.006 -222.163 -476.029 -243.06 -484.542 -263.877C-495.897 -291.643 -515.492 -321.473 -545.971 -346.894C-553.49 -353.165 -561.73 -359.046 -570.582 -364.647C-617.009 -394.026 -683.414 -410.576 -719.606 -394.737" stroke="#ECF1F5" stroke-miterlimit="10"/>
<path d="M545.336 338.592C532.956 316.677 527.457 296.69 523.109 275.557C519.566 258.34 517.083 240.486 511.15 221.255C508.492 212.639 505.018 203.369 500.43 193.865C489.623 171.487 474.647 147.517 455.376 125.472C439.819 107.674 421.912 90.4654 398.655 76.9706C355.255 51.7852 305.984 46.2581 268.05 50.748C252.569 52.5813 238.429 56.1314 224.693 60.1533C205.407 65.7317 187.166 72.639 167.368 77.9656C144.999 83.9818 118.032 88.0073 88.0504 78.7629C55.7699 68.8104 28.6298 46.5739 13.9891 25.4599C4.44482 11.6967 -0.744948 -1.9816 -5.66654 -15.6841C-8.1435 -22.5771 -10.4192 -29.5327 -13.1695 -36.5229C-21.3999 -57.4471 -34.2772 -80.7198 -59.4207 -101.077C-87.604 -123.894 -125.678 -138.556 -159.773 -144.993C-171.296 -147.164 -182.363 -148.414 -192.485 -148.609C-232.233 -149.372 -260.856 -137.744 -290.102 -128.061C-314.781 -119.891 -346.357 -113.092 -385.054 -129.197C-398.014 -134.645 -410.037 -142.127 -420.779 -150.663C-437.17 -163.686 -450.4 -179.141 -458.71 -193.572C-472.067 -216.768 -475.247 -238.609 -482.973 -260.628C-493.194 -289.755 -512.096 -321.393 -542.842 -348.804C-550.336 -355.484 -558.577 -361.833 -567.506 -367.889C-614.145 -399.527 -682.693 -418.177 -718.809 -401.874" stroke="#ECF1F5" stroke-miterlimit="10"/>
<path d="M541.539 343.504C531.056 319.67 528.243 297.816 526.517 275.547C525.099 257.23 524.568 238.709 520.525 219.007C518.72 210.217 515.986 200.834 512.117 191.223C503.223 169.132 489.419 145.65 470.284 124.351C455.242 107.505 437.114 91.6677 414.324 79.169C369.036 54.3295 318.533 49.7831 280.131 55.5909C264.274 57.9897 249.867 62.0447 235.916 66.6012C216.39 72.9405 197.887 80.4683 177.693 86.2893C155.23 92.7631 127.732 97.0223 97.0142 86.7933C64.0644 75.9031 36.8222 51.4611 22.7342 28.8478C13.4552 13.9517 8.68161 -0.636493 4.27351 -15.2094C2.04955 -22.5627 -0.0132108 -29.9366 -2.52275 -37.3526C-10.0104 -59.4848 -22.3759 -83.9082 -47.8911 -105.151C-76.2916 -128.685 -115.285 -143.34 -150.445 -148.957C-162.331 -150.854 -173.778 -151.732 -184.244 -151.52C-225.512 -150.687 -255.309 -136.801 -285.691 -124.689C-311.282 -114.488 -344.19 -105.581 -384.337 -121.4C-397.74 -126.709 -410.083 -134.209 -420.977 -142.856C-437.749 -156.164 -451.001 -172.186 -459.037 -187.111C-472.108 -211.382 -474.467 -234.168 -481.395 -257.385C-490.494 -287.885 -508.707 -321.315 -539.704 -350.718C-547.177 -357.807 -555.426 -364.612 -564.42 -371.135C-611.317 -404.972 -681.962 -425.782 -718 -409.016" stroke="#ECF1F5" stroke-miterlimit="10"/>
<path d="M537.742 348.416C522.068 301.405 534.649 261.357 529.899 216.758C525.15 172.158 494.261 114.557 429.997 81.3684C382.783 56.9846 331.097 53.3213 292.215 60.4348C253.333 67.5482 223.36 83.7619 188.022 94.614C165.463 101.541 137.456 105.974 105.982 94.8247C72.3834 82.9247 45.0364 56.3626 31.4834 32.2347C17.9305 8.10692 14.8822 -14.8392 8.12754 -38.1813C1.37284 -61.5234 -10.4287 -87.1496 -36.3621 -109.222C-74.5896 -141.761 -133.224 -156.866 -176.006 -154.43C-218.789 -151.995 -249.779 -135.853 -281.286 -121.318C-307.802 -109.084 -342.028 -98.071 -383.627 -113.604C-418.97 -126.801 -446.6 -155.3 -459.375 -180.65C-472.149 -206 -473.707 -229.734 -479.827 -254.144C-489.728 -293.636 -514.262 -338.237 -561.343 -374.385C-608.424 -410.533 -681.238 -433.39 -717.201 -416.159" stroke="#ECF1F5" stroke-miterlimit="10"/>
</g>
</svg>
