<svg width="465" height="485" viewBox="0 0 465 485" fill="none" xmlns="http://www.w3.org/2000/svg">
<path d="M677.49 32.0279H675.405V484.087H677.49V32.0279Z" fill="url(#paint0_linear_11_5)" fill-opacity="0.17"/>
<path d="M523.843 32.0279H522.262V483.98H523.843V32.0279Z" fill="url(#paint1_linear_11_5)" fill-opacity="0.17"/>
<path d="M370.202 1.52588e-05H368.621V483.98H370.202V1.52588e-05Z" fill="url(#paint2_linear_11_5)" fill-opacity="0.17"/>
<path d="M216.562 1.52588e-05H214.981V483.98H216.562V1.52588e-05Z" fill="url(#paint3_linear_11_5)" fill-opacity="0.17"/>
<path d="M59.4106 1.52588e-05H58.3684V484.087H59.4106V1.52588e-05Z" fill="url(#paint4_linear_11_5)" fill-opacity="0.17"/>
<path d="M745 446.497H0V448.114H745V446.497Z" fill="url(#paint5_linear_11_5)" fill-opacity="0.17"/>
<path d="M745 336.676H0V338.293H745V336.676Z" fill="url(#paint6_linear_11_5)" fill-opacity="0.17"/>
<path d="M745 226.855H0V228.472H745V226.855Z" fill="url(#paint7_linear_11_5)" fill-opacity="0.17"/>
<path d="M745 113.433H0V115.05H745V113.433Z" fill="url(#paint8_linear_11_5)" fill-opacity="0.17"/>
<path d="M745 0H0V1.61707H745V0Z" fill="url(#paint9_linear_11_5)" fill-opacity="0.17"/>
<defs>
<linearGradient id="paint0_linear_11_5" x1="186.965" y1="327.047" x2="498.059" y2="62.0208" gradientUnits="userSpaceOnUse">
<stop stop-color="#054235"/>
<stop offset="0.430949" stop-color="#0DA888"/>
<stop offset="1" stop-color="#064739"/>
</linearGradient>
<linearGradient id="paint1_linear_11_5" x1="186.965" y1="327.047" x2="498.059" y2="62.0208" gradientUnits="userSpaceOnUse">
<stop stop-color="#054235"/>
<stop offset="0.430949" stop-color="#0DA888"/>
<stop offset="1" stop-color="#064739"/>
</linearGradient>
<linearGradient id="paint2_linear_11_5" x1="186.965" y1="327.047" x2="498.059" y2="62.0208" gradientUnits="userSpaceOnUse">
<stop stop-color="#054235"/>
<stop offset="0.430949" stop-color="#0DA888"/>
<stop offset="1" stop-color="#064739"/>
</linearGradient>
<linearGradient id="paint3_linear_11_5" x1="186.965" y1="327.047" x2="498.059" y2="62.0208" gradientUnits="userSpaceOnUse">
<stop stop-color="#054235"/>
<stop offset="0.430949" stop-color="#0DA888"/>
<stop offset="1" stop-color="#064739"/>
</linearGradient>
<linearGradient id="paint4_linear_11_5" x1="186.965" y1="327.047" x2="498.059" y2="62.0208" gradientUnits="userSpaceOnUse">
<stop stop-color="#054235"/>
<stop offset="0.430949" stop-color="#0DA888"/>
<stop offset="1" stop-color="#064739"/>
</linearGradient>
<linearGradient id="paint5_linear_11_5" x1="186.965" y1="327.047" x2="498.059" y2="62.0208" gradientUnits="userSpaceOnUse">
<stop stop-color="#054235"/>
<stop offset="0.430949" stop-color="#0DA888"/>
<stop offset="1" stop-color="#064739"/>
</linearGradient>
<linearGradient id="paint6_linear_11_5" x1="186.965" y1="327.047" x2="498.059" y2="62.0208" gradientUnits="userSpaceOnUse">
<stop stop-color="#054235"/>
<stop offset="0.430949" stop-color="#0DA888"/>
<stop offset="1" stop-color="#064739"/>
</linearGradient>
<linearGradient id="paint7_linear_11_5" x1="186.965" y1="327.047" x2="498.059" y2="62.0208" gradientUnits="userSpaceOnUse">
<stop stop-color="#054235"/>
<stop offset="0.430949" stop-color="#0DA888"/>
<stop offset="1" stop-color="#064739"/>
</linearGradient>
<linearGradient id="paint8_linear_11_5" x1="186.965" y1="327.047" x2="498.059" y2="62.0208" gradientUnits="userSpaceOnUse">
<stop stop-color="#054235"/>
<stop offset="0.430949" stop-color="#0DA888"/>
<stop offset="1" stop-color="#064739"/>
</linearGradient>
<linearGradient id="paint9_linear_11_5" x1="186.965" y1="327.047" x2="498.059" y2="62.0208" gradientUnits="userSpaceOnUse">
<stop stop-color="#054235"/>
<stop offset="0.430949" stop-color="#0DA888"/>
<stop offset="1" stop-color="#064739"/>
</linearGradient>
</defs>
</svg>
