<svg width="63" height="132" viewBox="0 0 63 132" fill="none" xmlns="http://www.w3.org/2000/svg">
<path d="M39.8101 2C18.928 2 2 8.4068 2 16.31C2 24.2132 18.928 30.62 39.8101 30.62C51.5129 30.62 61 27.908 61 24.5624C61 21.2169 51.5129 18.5048 39.8101 18.5048C18.928 18.5048 2 24.9116 2 32.8148C2 40.718 18.928 47.125 39.8101 47.125C51.5129 47.125 61 44.4129 61 41.0672C61 37.7217 51.5129 35.0096 39.8101 35.0096C18.928 35.0096 2 41.4557 2 49.4074C2 57.359 18.928 63.8054 39.8101 63.8054C51.5129 63.8054 61 61.0932 61 57.7475C61 54.4019 51.5129 51.6902 39.8101 51.6902C18.928 51.6902 2 58.0968 2 66C2 73.9032 18.928 80.3098 39.8101 80.3098C51.5129 80.3098 61 77.5981 61 74.2525C61 70.9068 51.5129 68.1946 39.8101 68.1946C18.928 68.1946 2 74.6017 2 82.5049C2 90.4082 18.928 96.8147 39.8101 96.8147C51.5129 96.8147 61 94.1026 61 90.7574C61 87.4118 51.5129 84.6996 39.8101 84.6996C18.928 84.6996 2 91.1067 2 99.0094C2 106.913 18.928 113.32 39.8101 113.32C51.5129 113.32 61 110.607 61 107.262C61 103.917 51.5129 101.205 39.8101 101.205C18.928 101.205 2 107.65 2 115.602C2 123.554 18.928 130 39.8101 130" stroke="#F26B01" stroke-opacity="0.2" stroke-width="3" stroke-linecap="round"/>
</svg>
