<svg width="106" height="21" viewBox="0 0 106 21" fill="none" xmlns="http://www.w3.org/2000/svg">
<g clip-path="url(#clip0_136_198)">
<path d="M0 20.3618H19.8008V0.383125H0V20.3618ZM21.4508 20.3618H41.2516V0.383125H21.4508V20.3618ZM42.9016 20.3618H62.7024V0.383125H42.9016V20.3618ZM64.3524 20.3618H84.1532V0.383125H64.3524V20.3618ZM85.8033 20.3618H105.604V0.383125H85.8033V20.3618Z" fill="#00B67A"/>
<path d="M9.90096 6.8983L12.9123 7.66831L14.1705 3.75582L9.90096 6.8983ZM16.8312 11.9554H11.5304L9.90096 16.9917L8.27153 11.9554H2.9707L7.26087 8.83374L5.63143 3.79744L9.92159 6.91911L12.5617 8.83374L16.8312 11.9554ZM31.3518 6.8983L34.3631 7.66831L35.6213 3.75582L31.3518 6.8983ZM38.282 11.9554H32.9812L31.3518 16.9917L29.7223 11.9554H24.4215L28.7117 8.83374L27.0822 3.79744L31.3724 6.91911L34.0125 8.83374L38.282 11.9554ZM52.8026 6.8983L55.814 7.66831L57.0721 3.75582L52.8026 6.8983ZM59.7328 11.9554H54.432L52.8026 16.9917L51.1732 11.9554H45.8723L50.1625 8.83374L48.5331 3.79744L52.8232 6.91911L55.4633 8.83374L59.7328 11.9554ZM74.2534 6.8983L77.2648 7.66831L78.5229 3.75582L74.2534 6.8983ZM81.1837 11.9554H75.8828L74.2534 16.9917L72.624 11.9554H67.3231L71.6133 8.83374L69.9839 3.79744L74.274 6.91911L76.9141 8.83374L81.1837 11.9554ZM95.7042 6.8983L98.7156 7.66831L99.9737 3.75582L95.7042 6.8983ZM102.634 11.9554H97.3336L95.7042 16.9917L94.0748 11.9554H88.7739L93.0641 8.83374L91.4347 3.79744L95.7248 6.91911L98.3649 8.83374L102.634 11.9554Z" fill="white"/>
</g>
<defs>
<clipPath id="clip0_136_198">
<rect width="105.604" height="19.9893" fill="white" transform="matrix(1 0 0 -1 0 20.3687)"/>
</clipPath>
</defs>
</svg>
