<svg width="264" height="573" viewBox="0 0 264 573" fill="none" xmlns="http://www.w3.org/2000/svg">
<path d="M173.918 200.274C140.914 202.111 129.835 199.938 104.434 186.643C66.7168 166.908 17.0156 175.394 11.254 226.631C6.8254 266.038 25.4167 310.76 53.3546 327.903C100.4 356.773 177.065 350.117 219.162 314.273C255.455 283.375 260.487 235.149 230.09 209.551C219.78 200.868 205.53 198.514 173.918 200.274Z" fill="#F2994A" fill-opacity="0.1"/>
<path opacity="0.2" d="M231 573V323.143C231 278.961 195.183 243.143 151 243.143H145.218C101.036 243.143 65.2184 207.326 65.2184 163.143V78.2184C65.2184 35.5719 30.6465 1 -12 1V1" stroke="#F26B01"/>
<path opacity="0.2" d="M216 573V331.217C216 287.034 180.183 251.217 136 251.217H130.901C86.7178 251.217 50.9006 215.399 50.9006 171.217V91.9006C50.9006 49.4296 16.471 15 -26 15V15" stroke="#F26B01"/>
</svg>
