<svg width="73" height="22" viewBox="0 0 73 22" fill="none" xmlns="http://www.w3.org/2000/svg">
<g clip-path="url(#clip0_86_205)">
<path d="M20.0144 13.7781C18.8347 13.7781 17.7293 13.296 16.725 12.511L16.9696 11.403L16.9802 11.3619C17.198 10.1822 17.8888 8.20185 20.0144 8.20185C21.6085 8.20185 22.9051 9.45362 22.9051 10.9925C22.8997 12.5264 21.6032 13.7781 20.0144 13.7781ZM20.0144 5.37532C17.2989 5.37532 15.1948 7.07847 14.3393 9.87941C13.0321 7.98643 12.0436 5.71392 11.4645 3.80042H8.54192V11.1413C8.54192 12.588 7.31972 13.7677 5.82121 13.7677C4.3227 13.7677 3.10064 12.588 3.10064 11.1413V3.80042H0.177768V11.1413C0.167135 14.1475 2.70184 16.6149 5.81568 16.6149C8.92966 16.6149 11.4644 14.1475 11.4644 11.1413V9.9102C12.0329 11.0541 12.729 12.2083 13.5739 13.2344L11.7831 21.36H14.7748L16.0713 15.4658C17.2085 16.1686 18.5157 16.6099 20.0142 16.6099C23.2184 16.6099 25.8275 14.0757 25.8275 10.9823C25.8275 7.89404 23.2185 5.37532 20.0144 5.37532Z" fill="#6FDA44"/>
<path d="M34.7486 5.69344L36.635 13.0343L38.7127 5.69344H41.1889L37.9954 16.3021H35.5191L33.5584 8.91496L31.6028 16.2969H29.1267L25.9329 5.68837H28.4092L30.4868 13.0293L32.3732 5.68837H34.7484V5.69357L34.7486 5.69344ZM47.1138 5.37536C43.899 5.37536 41.2952 7.89409 41.2952 10.9926C41.2952 14.0963 43.9042 16.6099 47.1138 16.6099C50.3287 16.6099 52.9377 14.0963 52.9377 10.9926C52.9377 7.88902 50.3287 5.37536 47.1138 5.37536ZM47.1138 14.3014C45.2221 14.3014 43.6917 12.824 43.6917 10.9978C43.6917 9.17145 45.2274 7.69413 47.1138 7.69413C49.0055 7.69413 50.5358 9.17145 50.5358 10.9978C50.5358 12.8189 49.0055 14.3014 47.1138 14.3014ZM60.0103 8.06859C58.3472 8.06859 57.0028 9.37154 57.0028 10.972V16.2969H54.5105V5.69344H57.0028V7.32473C57.0028 7.32473 58.0655 5.68823 60.2495 5.68823H61.0146V8.06859H60.0103ZM68.3743 10.5822C70.1436 9.61776 71.3447 7.78637 71.3447 5.68823H68.8524C68.8524 7.45803 67.3646 8.89443 65.5314 8.89443H65.1965V0.57373H62.7045V16.2968H65.1965V11.3004H65.4943C65.7387 11.3004 66.0575 11.4544 66.201 11.644L69.7398 16.2969H72.7262L68.3743 10.5822Z" fill="black"/>
</g>
<defs>
<clipPath id="clip0_86_205">
<rect width="72.5932" height="20.9403" fill="white" transform="translate(0.147461 0.553223)"/>
</clipPath>
</defs>
</svg>
