<svg width="57" height="19" viewBox="0 0 57 19" fill="none" xmlns="http://www.w3.org/2000/svg">
<path d="M0.333333 3.5C0.333333 4.97276 1.52724 6.16667 3 6.16667C4.47276 6.16667 5.66667 4.97276 5.66667 3.5C5.66667 2.02724 4.47276 0.833333 3 0.833333C1.52724 0.833333 0.333333 2.02724 0.333333 3.5ZM3 4L56 4V3L3 3V4Z" fill="#3F66EF"/>
<path d="M23.3333 16.2757C23.3333 17.7484 24.5272 18.9424 26 18.9424C27.4728 18.9424 28.6667 17.7484 28.6667 16.2757C28.6667 14.8029 27.4728 13.609 26 13.609C24.5272 13.609 23.3333 14.8029 23.3333 16.2757ZM26.4287 16.5329C27.1147 15.3896 28.884 13.7247 31.3767 13.0719C33.8347 12.4281 37.0492 12.7554 40.6877 15.6661L41.3123 14.8853C37.4508 11.796 33.9153 11.3733 31.1233 12.1045C28.366 12.8267 26.3853 14.6618 25.5713 16.0184L26.4287 16.5329ZM40.6877 15.6661C44.6068 18.8014 48.5501 18.5386 51.48 17.4968C52.938 16.9784 54.1487 16.2675 54.9937 15.688C55.417 15.3978 55.7505 15.1392 55.9796 14.9518C56.0942 14.8581 56.1829 14.7821 56.2437 14.7287C56.2741 14.702 56.2976 14.6809 56.3139 14.6662C56.3221 14.6588 56.3285 14.6529 56.333 14.6488C56.3353 14.6467 56.3371 14.645 56.3385 14.6437C56.3391 14.6431 56.3397 14.6426 56.3402 14.6422C56.3404 14.6419 56.3406 14.6417 56.3407 14.6416C56.341 14.6414 56.3412 14.6412 56 14.2757C55.6588 13.9102 55.659 13.91 55.6591 13.9099C55.6591 13.9099 55.6592 13.9099 55.6592 13.9099C55.6592 13.9099 55.659 13.91 55.6588 13.9102C55.6583 13.9106 55.6574 13.9115 55.6561 13.9127C55.6534 13.9152 55.6488 13.9193 55.6426 13.925C55.6301 13.9364 55.6105 13.9539 55.5842 13.977C55.5315 14.0232 55.4517 14.0917 55.3466 14.1777C55.1362 14.3497 54.8252 14.591 54.4282 14.8633C53.6325 15.4089 52.4995 16.073 51.145 16.5546C48.45 17.5128 44.8932 17.7499 41.3123 14.8853L40.6877 15.6661Z" fill="#3F66EF"/>
</svg>
