<svg width="197" height="44" viewBox="0 0 197 44" fill="none" xmlns="http://www.w3.org/2000/svg">
<path d="M2 2C11.7534 2 11.7534 42 21.5069 42C31.2603 42 31.2603 2 41.0137 2C50.7672 2 50.7672 42 60.4977 42C70.2515 42 70.2515 2 79.9817 2C89.7354 2 89.7354 42 99.4657 42C109.219 42 109.219 2 118.972 2C128.726 2 128.726 42 138.48 42C148.232 42 148.232 2 157.986 2C167.74 2 167.74 42 177.493 42C187.246 42 187.246 2 197 2" stroke="#F26B01" stroke-width="3" stroke-miterlimit="10" stroke-linecap="round"/>
</svg>
