<svg width="41" height="40" viewBox="0 0 41 40" fill="none" xmlns="http://www.w3.org/2000/svg">
<path d="M40.6326 23.0575V34.1277C40.6326 34.2481 40.5681 34.359 40.4645 34.4192L30.8769 39.9547C30.8246 39.9846 30.7665 39.9998 30.7084 39.9998C30.6503 39.9998 30.5921 39.9846 30.5399 39.9547L20.9527 34.4196C20.8486 34.3594 20.7842 34.2481 20.7842 34.1277V23.0575C20.7842 22.9973 20.8002 22.9395 20.8293 22.889C20.8583 22.8384 20.9 22.7959 20.9523 22.7659L30.5399 17.2305C30.6443 17.1702 30.7725 17.1702 30.8769 17.2305L40.4645 22.7659C40.5163 22.7963 40.5585 22.8388 40.5875 22.889C40.6166 22.9395 40.6326 22.9973 40.6326 23.0575Z" fill="#C30A5B"/>
<path d="M30.709 17.1854C30.7671 17.1854 30.8252 17.2006 30.8775 17.2305L40.4651 22.766C40.5687 22.8262 40.6332 22.937 40.6332 23.0575V34.1277C40.6332 34.2481 40.5687 34.359 40.4651 34.4192L30.8775 39.9547C30.8252 39.9846 30.7671 39.9998 30.709 39.9998" fill="#FF318E"/>
<path d="M40.5883 22.889L30.8777 28.4952C30.7733 28.5555 30.6452 28.5555 30.5407 28.4952L20.8301 22.889C20.8591 22.8384 20.9009 22.7959 20.9531 22.7659L30.5407 17.2305C30.6452 17.1702 30.7733 17.1702 30.8777 17.2305L40.4653 22.7659C40.5171 22.7963 40.5593 22.8388 40.5883 22.889Z" fill="#FF73AF"/>
<path d="M20.784 23.0575V34.1277C20.784 34.2481 20.7195 34.359 20.6158 34.4192L11.0283 39.9547C10.976 39.9846 10.9179 39.9998 10.8598 39.9998C10.8016 39.9998 10.7435 39.9846 10.6912 39.9547L1.10406 34.4196C1 34.3594 0.935547 34.2481 0.935547 34.1277V23.0575C0.935547 22.9973 0.951562 22.9395 0.980625 22.889C1.00969 22.8384 1.05141 22.7959 1.10367 22.7659L10.6912 17.2305C10.7957 17.1702 10.9238 17.1702 11.0283 17.2305L20.6158 22.7659C20.6676 22.7963 20.7098 22.8388 20.7389 22.889C20.768 22.9395 20.784 22.9973 20.784 23.0575Z" fill="#0064BF"/>
<path d="M20.7836 23.0575V34.1277C20.7836 34.2481 20.7191 34.359 20.6155 34.4192L11.0279 39.9547C10.9756 39.9846 10.9175 39.9998 10.8594 39.9998V17.1854C10.9175 17.1854 10.9756 17.2006 11.0279 17.2305L20.6155 22.766C20.7191 22.8262 20.7836 22.9371 20.7836 23.0575Z" fill="#0085E0"/>
<path d="M20.7387 22.889L11.0281 28.4952C10.9237 28.5555 10.7955 28.5555 10.6911 28.4952L0.980469 22.889C1.00953 22.8384 1.05125 22.7959 1.10352 22.7659L10.6911 17.2305C10.7955 17.1702 10.9237 17.1702 11.0281 17.2305L20.6157 22.7659C20.6676 22.7963 20.7097 22.8388 20.7387 22.889Z" fill="#60DEFC"/>
<path d="M30.7088 5.87204V16.9422C30.7088 17.0627 30.6443 17.1735 30.5406 17.2337L20.9531 22.7692C20.9008 22.7991 20.8427 22.8143 20.7846 22.8143C20.7264 22.8143 20.6683 22.7991 20.616 22.7692L11.0289 17.2341C10.9248 17.1739 10.8604 17.0627 10.8604 16.9422V5.87204C10.8604 5.8118 10.8764 5.75407 10.9054 5.70352C10.9345 5.65297 10.9762 5.6104 11.0285 5.58047L20.616 0.0449316C20.7205 -0.0153027 20.8486 -0.0153027 20.9531 0.0449316L30.5406 5.5804C30.5924 5.61071 30.6346 5.65329 30.6637 5.70344C30.6928 5.75407 30.7088 5.81172 30.7088 5.87204Z" fill="#08B2A5"/>
<path d="M30.7084 5.87206V16.9422C30.7084 17.0627 30.6439 17.1735 30.5403 17.2338L20.9527 22.7692C20.9004 22.7992 20.8423 22.8143 20.7842 22.8143V-0.00012207C20.8423 -0.00012207 20.9004 0.0150342 20.9527 0.044956L30.5403 5.58042C30.6439 5.64073 30.7084 5.75151 30.7084 5.87206Z" fill="#47DDD9"/>
<path d="M30.6635 5.70344L20.9529 11.3097C20.8485 11.3699 20.7203 11.3699 20.6159 11.3097L10.9053 5.70344C10.9343 5.6529 10.9761 5.61032 11.0283 5.5804L20.6159 0.0449316C20.7203 -0.0153027 20.8485 -0.0153027 20.9529 0.0449316L30.5405 5.5804C30.5924 5.61079 30.6345 5.65337 30.6635 5.70344Z" fill="#CCFEFB"/>
<path d="M28.8956 16.5411C28.5621 16.5411 28.292 16.2708 28.292 15.9375V15.8922C28.292 15.5587 28.5622 15.2886 28.8956 15.2886C29.2289 15.2886 29.4992 15.5588 29.4992 15.8922V15.9375C29.4992 16.2709 29.229 16.5411 28.8956 16.5411Z" fill="#CCFEFB"/>
<path d="M28.8956 14.7886C28.5621 14.7886 28.292 14.5184 28.292 14.185V14.1396C28.292 13.8062 28.5622 13.536 28.8956 13.536C29.2289 13.536 29.4992 13.8062 29.4992 14.1396V14.185C29.4992 14.5184 29.229 14.7886 28.8956 14.7886Z" fill="#CCFEFB"/>
<path d="M28.8956 13.0359C28.5621 13.0359 28.292 12.7657 28.292 12.4324V12.387C28.292 12.0536 28.5622 11.7834 28.8956 11.7834C29.2289 11.7834 29.4992 12.0537 29.4992 12.387V12.4324C29.4992 12.7657 29.229 13.0359 28.8956 13.0359Z" fill="#CCFEFB"/>
</svg>
