<svg width="41" height="40" viewBox="0 0 41 40" fill="none" xmlns="http://www.w3.org/2000/svg">
<path fill-rule="evenodd" clip-rule="evenodd" d="M19.9573 9.81254C19.6994 9.81254 19.4883 9.60094 19.4883 9.34232V0.470944C19.4883 0.212328 19.6994 0.000732422 19.9573 0.000732422C20.2154 0.000732422 20.4265 0.212328 20.4265 0.470944V9.34232C20.4265 9.60094 20.2231 9.81254 19.9573 9.81254Z" fill="#544F57"/>
<path fill-rule="evenodd" clip-rule="evenodd" d="M39.568 35.5956C39.4897 35.5956 39.4038 35.5721 39.3255 35.5251L31.7254 30.9719C31.5065 30.8387 31.4284 30.5487 31.5612 30.3292C31.6941 30.1098 31.9835 30.0315 32.2024 30.1647L39.8104 34.7179C40.0293 34.851 40.1075 35.141 39.9746 35.3605C39.8808 35.5172 39.7243 35.5956 39.568 35.5956Z" fill="#544F57"/>
<path fill-rule="evenodd" clip-rule="evenodd" d="M0.472466 35.2821C0.308264 35.2821 0.151913 35.196 0.0658412 35.047C-0.0670529 34.8198 0.0110766 34.5377 0.237892 34.4044L7.84583 29.9844C8.07255 29.8512 8.35404 29.9295 8.48703 30.1568C8.61992 30.3841 8.54179 30.6662 8.31497 30.7995L0.707039 35.2195C0.636667 35.2665 0.550688 35.2821 0.472466 35.2821Z" fill="#544F57"/>
<path fill-rule="evenodd" clip-rule="evenodd" d="M17.6358 22.0459C17.5576 22.0459 17.4795 22.0303 17.4091 21.991L10.1764 18.0413C10.0237 17.9568 8.98831 17.0305 8.36724 16.3655C8.21513 16.4024 8.11087 16.4075 8.08473 16.3643C8.06201 16.3255 8.10025 16.2528 8.18013 16.1583C7.98703 15.9353 7.87205 15.7659 7.90363 15.7085C7.93928 15.6438 8.15658 15.7282 8.45442 15.8849C9.00234 15.3923 9.97111 14.7083 10.1216 14.6167L19.7235 8.95062C19.872 8.86444 20.0518 8.86444 20.2004 8.95062L29.9117 14.6323C30.1384 14.7655 32.0893 16.1369 31.9642 16.3642C32.0894 16.5915 30.0837 17.916 29.857 18.0336L22.5149 21.9989C22.4445 22.0381 22.3663 22.0616 22.2959 22.0616C22.1846 22.0616 20.9651 22.4609 20.1637 22.6672C20.4417 22.8788 20.6182 23.0461 20.5835 23.1091C20.5515 23.1734 20.0773 23.006 19.5179 22.7862C19.4912 22.7839 19.4738 22.7777 19.4681 22.7667C18.6735 22.453 17.7307 22.0459 17.6358 22.0459Z" fill="#F4D34E"/>
<path fill-rule="evenodd" clip-rule="evenodd" d="M22.1859 36.2226C22.0139 36.2226 19.7082 36.5794 19.6222 36.4149C19.5049 36.1798 20.2897 22.6892 20.5164 22.5716L20.7208 22.9809C21.9936 22.0282 31.7225 16.364 31.9637 16.364C32.2217 16.364 32.4211 18.7544 32.4211 19.013V30.5723C32.4211 30.7447 32.3273 30.9014 32.1787 30.9876L26.3378 34.1772C26.3299 34.1772 26.3299 34.185 26.3222 34.185L22.3892 36.1756C22.3344 36.1991 22.2563 36.2226 22.1859 36.2226Z" fill="#F87F02"/>
<path fill-rule="evenodd" clip-rule="evenodd" d="M19.7936 36.8809C19.7211 36.8809 19.6652 36.6921 19.6223 36.4148C18.7166 36.2699 17.5853 36.0423 17.4868 36.0423C17.4164 36.0423 17.3382 36.0266 17.2678 35.9874L13.6398 34.0752C13.632 34.0752 13.632 34.0673 13.6242 34.0673L7.84594 30.7993C7.69734 30.7132 7.60352 30.5564 7.60352 30.3918V19.0129C7.60352 18.7543 7.82627 16.364 8.0843 16.364C8.30714 16.364 18.0784 20.8735 20.5165 22.5715C20.5929 22.1152 19.8575 22.8528 19.9577 22.8528C20.2157 22.8528 20.4267 25.2432 20.4267 25.5018V34.232C20.4267 34.3924 20.2852 35.3733 20.1145 36.0949C20.5204 36.2744 20.8008 36.4289 20.7605 36.5021C20.7363 36.5554 20.4301 36.5319 20.0137 36.4738C19.9389 36.7184 19.8628 36.8809 19.7936 36.8809Z" fill="#FFA001"/>
<path fill-rule="evenodd" clip-rule="evenodd" d="M17.0877 4.029C16.9704 4.029 16.8609 3.98984 16.7671 3.90358C16.5794 3.72336 16.5638 3.4255 16.7436 3.23741L19.621 0.14966C19.7149 0.0477494 19.8478 -0.0070466 19.9807 0.000728322C20.1136 0.000728322 20.2387 0.0633924 20.3247 0.17317L22.8659 3.22168C23.0301 3.41763 23.0067 3.7154 22.8034 3.88784C22.6079 4.05242 22.3108 4.0289 22.1387 3.82518L19.9415 1.18422L17.4317 3.88793C17.3378 3.98198 17.2128 4.029 17.0877 4.029Z" fill="#544F57"/>
<path fill-rule="evenodd" clip-rule="evenodd" d="M35.6582 36.2226C35.4315 36.2226 35.236 36.058 35.1969 35.8229C35.1579 35.5643 35.3298 35.3292 35.5879 35.2821L38.9736 34.7414L37.9414 31.1913C37.8711 30.9405 38.0118 30.6819 38.262 30.6114C38.5122 30.5409 38.7702 30.6819 38.8406 30.9327L40.0213 34.9921C40.0604 35.1253 40.0369 35.2586 39.9665 35.3762C39.8962 35.4937 39.7789 35.5643 39.646 35.5878L35.7364 36.2147C35.7051 36.2226 35.6817 36.2226 35.6582 36.2226Z" fill="#544F57"/>
<path fill-rule="evenodd" clip-rule="evenodd" d="M4.38188 35.9091C4.35842 35.9091 4.33497 35.9091 4.30366 35.9012L0.39413 35.2743C0.261236 35.2508 0.143949 35.1724 0.0735768 35.0627C0.00320473 34.953 -0.0202523 34.812 0.0188122 34.6787L1.19953 30.6192C1.2699 30.3685 1.53578 30.2274 1.77811 30.2979C2.02829 30.3685 2.16903 30.6349 2.09866 30.8778L1.06654 34.4279L4.4601 34.9765C4.71813 35.0157 4.89018 35.2587 4.85102 35.5173C4.81196 35.7445 4.6087 35.9091 4.38188 35.9091Z" fill="#544F57"/>
<path fill-rule="evenodd" clip-rule="evenodd" d="M19.7928 40C18.0726 40 16.6809 38.5972 16.6809 36.8809C16.6809 35.1568 18.0805 33.7619 19.7928 33.7619C21.513 33.7619 22.9047 35.1647 22.9047 36.8809C22.9047 38.5971 21.5129 40 19.7928 40ZM19.9569 25.972C18.2368 25.972 16.8451 24.5693 16.8451 22.853C16.8451 21.1288 18.2447 19.734 19.9569 19.734C21.6772 19.734 23.0689 21.1367 23.0689 22.853C23.0689 24.5693 21.6771 25.972 19.9569 25.972ZM31.9592 19.4832C30.239 19.4832 28.8473 18.0804 28.8473 16.3642C28.8473 14.64 30.2469 13.2451 31.9592 13.2451C32.7881 13.2451 33.57 13.5664 34.1642 14.162C34.7507 14.7498 35.0791 15.5335 35.0791 16.372C35.079 18.0804 33.6794 19.4832 31.9592 19.4832ZM8.07975 19.4832C6.35951 19.4832 4.96777 18.0804 4.96777 16.3642C4.96777 14.64 6.36737 13.2451 8.07975 13.2451C8.9086 13.2451 9.69046 13.5664 10.2847 14.162C10.8712 14.7498 11.1996 15.5335 11.1996 16.372C11.1918 18.0804 9.79213 19.4832 8.07975 19.4832Z" fill="#DFDCE0"/>
</svg>
