<svg id="Layer_1" enable-background="new 0 0 512 512" height="512" viewBox="0 0 512 512" width="512" xmlns="http://www.w3.org/2000/svg"><path d="m130 326.01c-32.579 0-59.531 24.475-63.482 56h-18.518c-17.645 0-32-14.355-32-32v-13h23c4.418 0 8-3.582 8-8s-3.582-8-8-8h-23v-14h33c4.418 0 8-3.582 8-8s-3.582-8-8-8h-33v-197c0-11.028 8.972-20 20-20h67c4.418 0 8-3.582 8-8s-3.582-8-8-8h-67c-19.851 0-36 16.149-36 36v256c0 26.467 21.533 48 48 48h18.518c3.951 31.525 30.903 56 63.482 56 35.29 0 64-28.71 64-64s-28.71-64-64-64zm0 112c-26.467 0-48-21.533-48-48s21.533-48 48-48 48 21.533 48 48-21.533 48-48 48z"/><path d="m130 374.01c-8.822 0-16 7.178-16 16s7.178 16 16 16 16-7.178 16-16-7.178-16-16-16z"/><path d="m372 374.01c-8.822 0-16 7.178-16 16s7.178 16 16 16 16-7.178 16-16-7.178-16-16-16z"/><path d="m334 307.01h16c4.418 0 8-3.582 8-8s-3.582-8-8-8h-16c-4.418 0-8 3.582-8 8s3.582 8 8 8z"/><path d="m102 233.01c0 17.645 14.355 32 32 32h86c17.645 0 32-14.355 32-32v-46c0-17.645-14.355-32-32-32h-86c-17.645 0-32 14.355-32 32zm16-46c0-8.822 7.178-16 16-16h86c8.822 0 16 7.178 16 16v46c0 8.822-7.178 16-16 16h-86c-8.822 0-16-7.178-16-16z"/><path d="m505.599 245.809-56.105-74.799h6.506c19.851 0 36-16.149 36-36v-41c0-19.851-16.149-36-36-36h-280c-4.418 0-8 3.582-8 8s3.582 8 8 8h280c11.028 0 20 8.972 20 20v41c0 11.028-8.972 20-20 20-212.942 0-89.587 0-130 0-17.645 0-32 14.355-32 32v46c0 17.645 14.355 32 32 32h170v33h-26c-13.233 0-24 10.766-24 24s10.767 24 24 24h26v4c0 17.645-14.355 32-32 32h-28.518c-3.951-31.525-30.903-56-63.482-56s-59.531 24.475-63.482 56h-86.518c-4.418 0-8 3.582-8 8s3.582 8 8 8h86.518c3.951 31.525 30.903 56 63.482 56s59.531-24.475 63.482-56h28.518c26.468 0 48-21.533 48-48v-85c0-6.878-2.273-13.698-6.401-19.201zm-133.599 192.201c-26.468 0-48-21.533-48-48s21.532-48 48-48 48 21.533 48 48-21.532 48-48 48zm-62-205v-46c0-8.822 7.178-16 16-16h103.493l58.506 78h-161.999c-8.822 0-16-7.178-16-16zm160 97c-4.411 0-8-3.589-8-8s3.589-8 8-8h26v16z"/><path d="m134.61 69.07c2.52 6.041 10.622 6.564 14.04 1.38 2.455-3.641 1.452-8.68-2.21-11.09-6.432-4.337-14.891 2.372-11.83 9.71z"/></svg>