<svg width="18" height="16" viewBox="0 0 18 16" fill="none" xmlns="http://www.w3.org/2000/svg">
<path d="M2.99902 0C3.39486 0.0208333 3.64486 0.229167 3.74902 0.625L3.78027 1H16.9365C17.2699 1.02083 17.5303 1.15625 17.7178 1.40625C17.9053 1.65625 17.9678 1.94792 17.9053 2.28125L16.2178 8.28125C16.0511 8.73958 15.7282 8.97917 15.249 9H5.34277L5.62402 10.5H15.249C15.7074 10.5417 15.9574 10.7917 15.999 11.25C15.9574 11.7083 15.7074 11.9583 15.249 12H4.96777C4.59277 11.9792 4.35319 11.7812 4.24902 11.4062L2.37402 1.5H0.749023C0.29069 1.45833 0.0406901 1.20833 -0.000976562 0.75C0.0406901 0.291667 0.29069 0.0416667 0.749023 0H2.99902ZM14.874 7.5L16.2803 2.5H4.09277L5.06152 7.5H14.874ZM3.99902 14.5C4.01986 14.0833 4.16569 13.7292 4.43652 13.4375C4.72819 13.1667 5.08236 13.0208 5.49902 13C5.91569 13.0208 6.26986 13.1667 6.56152 13.4375C6.83236 13.7292 6.97819 14.0833 6.99902 14.5C6.97819 14.9167 6.83236 15.2708 6.56152 15.5625C6.26986 15.8333 5.91569 15.9792 5.49902 16C5.08236 15.9792 4.72819 15.8333 4.43652 15.5625C4.16569 15.2708 4.01986 14.9167 3.99902 14.5ZM15.999 14.5C15.9782 14.9167 15.8324 15.2708 15.5615 15.5625C15.2699 15.8333 14.9157 15.9792 14.499 16C14.0824 15.9792 13.7282 15.8333 13.4365 15.5625C13.1657 15.2708 13.0199 14.9167 12.999 14.5C13.0199 14.0833 13.1657 13.7292 13.4365 13.4375C13.7282 13.1667 14.0824 13.0208 14.499 13C14.9157 13.0208 15.2699 13.1667 15.5615 13.4375C15.8324 13.7292 15.9782 14.0833 15.999 14.5Z" fill="white"/>
</svg>
