<svg width="23" height="22" viewBox="0 0 23 22" fill="none" xmlns="http://www.w3.org/2000/svg">
<path d="M22.5263 9.1126L22.0093 10.3915C21.846 10.8269 21.846 11.2895 22.0093 11.7249L22.5263 13.0038C22.8257 13.7657 22.5808 14.6365 21.9005 15.1263L20.7576 15.9155C20.3766 16.1876 20.1317 16.5957 20.0229 17.0311L19.778 18.3917C19.6147 19.208 18.9344 19.8067 18.1181 19.8339L16.7303 19.8883C16.2677 19.9155 15.8323 20.106 15.5058 20.4325L14.5534 21.4394C13.9819 22.038 13.084 22.1741 12.3765 21.7659L11.1792 21.0584C10.771 20.8135 10.3084 20.7591 9.84581 20.8679L8.48524 21.1945C7.69611 21.3849 6.85256 21.004 6.4716 20.2693L5.84573 19.0176C5.62804 18.6094 5.27429 18.2828 4.83891 18.1468L3.53276 17.7114C2.74363 17.4393 2.25383 16.6774 2.33546 15.861L2.47152 14.4732C2.52594 14.0107 2.38988 13.5481 2.09056 13.1943L1.21979 12.1059C0.702777 11.4528 0.702777 10.5548 1.21979 9.90173L2.09056 8.81327C2.38988 8.45953 2.52594 7.99693 2.47152 7.53434L2.33546 6.14656C2.25383 5.33021 2.74363 4.56829 3.53276 4.29618L4.83891 3.8608C5.27429 3.72474 5.62804 3.3982 5.84573 2.99003L6.4716 1.73831C6.85256 1.0036 7.6689 0.62264 8.48524 0.81312L9.84581 1.13966C10.2812 1.2485 10.771 1.19408 11.1792 0.949177L12.3765 0.24168C13.084 -0.166491 13.9819 -0.0576454 14.5534 0.568217L15.5058 1.57504C15.8323 1.90158 16.2677 2.11927 16.7303 2.11927L18.1181 2.17369C18.9344 2.2009 19.6419 2.79955 19.778 3.61589L20.0229 4.97647C20.1045 5.43906 20.3766 5.84723 20.7576 6.09213L21.9005 6.88126C22.5808 7.47992 22.8529 8.35068 22.5263 9.1126Z" fill="#3F66EF"/>
<path d="M10.0096 15.2354C9.62866 15.2354 9.2477 15.0721 8.97558 14.7728L5.57416 10.8816C5.08435 10.3101 5.13877 9.46657 5.683 8.94956C6.25444 8.45975 7.098 8.51417 7.61501 9.0584L10.1729 11.97L16.1322 7.18082C16.7036 6.71822 17.5744 6.79986 18.037 7.39851C18.4996 7.99716 18.4179 8.84071 17.8193 9.30331L10.8532 14.9361C10.6083 15.1265 10.3089 15.2354 10.0096 15.2354Z" fill="white"/>
</svg>
