<svg width="20" height="20" viewBox="0 0 20 20" fill="none" xmlns="http://www.w3.org/2000/svg">
<g clip-path="url(#clip0_235_1708)">
<path d="M18.752 14.443C20.6847 11.7314 20.3893 8.01637 17.7495 5.59641C16.5434 4.49074 15.0057 3.80242 13.3448 3.6102C13.3344 3.59727 13.3236 3.58479 13.3122 3.57277C11.8673 2.0718 9.79133 1.21094 7.61672 1.21094C3.47848 1.21094 0 4.29426 0 8.24219C0 9.62637 0.429961 10.9533 1.24672 12.0993L0.105742 15.6815C0.0706615 15.7916 0.0689221 15.9096 0.100743 16.0207C0.132563 16.1318 0.196522 16.231 0.284576 16.3058C0.37263 16.3807 0.480845 16.4278 0.595611 16.4413C0.710377 16.4548 0.826568 16.434 0.92957 16.3816L4.39937 14.6173C5.11195 14.9241 5.86758 15.1255 6.65008 15.2171C8.15953 16.8044 10.2467 17.6172 12.382 17.6172C13.492 17.6172 14.598 17.391 15.5992 16.961L19.0692 18.7254C19.1514 18.7673 19.2424 18.7891 19.3346 18.7891C19.73 18.7891 20.0135 18.4037 19.893 18.0253L18.752 14.443ZM4.63586 13.4383C4.5549 13.3999 4.46621 13.3805 4.37659 13.3817C4.28697 13.3829 4.19883 13.4047 4.11895 13.4453L1.64758 14.702L2.45461 12.1681C2.48356 12.0773 2.48989 11.9807 2.47305 11.8869C2.45622 11.793 2.41673 11.7047 2.35801 11.6295C1.58199 10.6362 1.1718 9.46488 1.1718 8.24219C1.1718 5.01133 4.06297 2.38281 7.61672 2.38281C9.04781 2.38281 10.4255 2.81637 11.543 3.59711C7.77945 3.97555 4.76531 6.91516 4.76531 10.5859C4.76531 11.7277 5.05797 12.8268 5.60973 13.8116C5.276 13.7123 4.95042 13.5876 4.63586 13.4383ZM15.8798 15.789C15.7999 15.7484 15.7118 15.7267 15.6222 15.7254C15.5325 15.7242 15.4438 15.7436 15.3629 15.7821C14.4494 16.216 13.4187 16.4453 12.382 16.4453C8.82828 16.4453 5.93711 13.8168 5.93711 10.5859C5.93711 7.35508 8.82828 4.72656 12.382 4.72656C15.9358 4.72656 18.827 7.35508 18.827 10.5859C18.827 11.8086 18.4168 12.9799 17.6407 13.9732C17.582 14.0484 17.5425 14.1367 17.5257 14.2306C17.5089 14.3244 17.5152 14.421 17.5441 14.5118L18.3511 17.0457L15.8798 15.789Z" fill="#3F66EF"/>
<path d="M10 11.1719C10.3236 11.1719 10.5859 10.9095 10.5859 10.5859C10.5859 10.2623 10.3236 10 10 10C9.6764 10 9.41406 10.2623 9.41406 10.5859C9.41406 10.9095 9.6764 11.1719 10 11.1719Z" fill="#3F66EF"/>
<path d="M12.3438 11.1719C12.6674 11.1719 12.9297 10.9095 12.9297 10.5859C12.9297 10.2623 12.6674 10 12.3438 10C12.0201 10 11.7578 10.2623 11.7578 10.5859C11.7578 10.9095 12.0201 11.1719 12.3438 11.1719Z" fill="#3F66EF"/>
<path d="M14.6875 11.1719C15.0111 11.1719 15.2734 10.9095 15.2734 10.5859C15.2734 10.2623 15.0111 10 14.6875 10C14.3639 10 14.1016 10.2623 14.1016 10.5859C14.1016 10.9095 14.3639 11.1719 14.6875 11.1719Z" fill="#3F66EF"/>
</g>
<defs>
<clipPath id="clip0_235_1708">
<rect width="20" height="20" fill="white"/>
</clipPath>
</defs>
</svg>
