<svg width="46" height="33" viewBox="0 0 46 33" fill="none" xmlns="http://www.w3.org/2000/svg">
<g clip-path="url(#clip0_22_92)">
<path d="M6.16092 1.49723e-06H39.3298C40.1393 -0.000551599 40.941 0.152141 41.689 0.449353C42.437 0.746565 43.1168 1.18247 43.6894 1.73215C44.262 2.28184 44.7162 2.93454 45.0261 3.65295C45.336 4.37135 45.4956 5.14139 45.4956 5.91904V21.6386C45.4956 22.4162 45.336 23.1863 45.0261 23.9047C44.7162 24.6231 44.262 25.2758 43.6894 25.8255C43.1168 26.3752 42.437 26.8111 41.689 27.1083C40.941 27.4055 40.1393 27.5582 39.3298 27.5576V32.2263L33.3437 27.5576H6.17407C5.36479 27.5582 4.56333 27.4055 3.81554 27.1082C3.06774 26.8109 2.38829 26.375 1.81604 25.8252C1.24378 25.2755 0.78996 24.6227 0.480526 23.9044C0.171092 23.186 0.0121207 22.416 0.0126969 21.6386V5.91904C0.0115335 4.35106 0.658504 2.84678 1.81139 1.73687C2.96429 0.626956 4.52875 0.0022331 6.16092 1.49723e-06Z" fill="#3F66EF"/>
<path d="M6.57776 7.41357L38.3268 7.41357C38.7407 7.41357 39.0762 7.09126 39.0762 6.69368V6.51266C39.0762 6.11508 38.7407 5.79278 38.3268 5.79278L6.57776 5.79278C6.1639 5.79278 5.8284 6.11508 5.8284 6.51266V6.69368C5.8284 7.09126 6.1639 7.41357 6.57776 7.41357Z" fill="white"/>
<path d="M30.5703 13.6104L38.3268 13.6104C38.7407 13.6104 39.0762 13.288 39.0762 12.8905V12.7094C39.0762 12.3119 38.7407 11.9896 38.3268 11.9896L30.5703 11.9896C30.1565 11.9896 29.821 12.3119 29.821 12.7094V12.8905C29.821 13.288 30.1565 13.6104 30.5703 13.6104Z" fill="white"/>
<path d="M24.9041 19.1885H38.3268C38.7406 19.1885 39.0761 18.8662 39.0761 18.4686V18.2876C39.0761 17.89 38.7406 17.5677 38.3268 17.5677H24.9041C24.4902 17.5677 24.1547 17.89 24.1547 18.2876V18.4686C24.1547 18.8662 24.4902 19.1885 24.9041 19.1885Z" fill="white"/>
<path d="M6.57824 19.1885L20.9694 19.1885C21.3832 19.1885 21.7188 18.8662 21.7188 18.4686V18.2876C21.7188 17.89 21.3832 17.5677 20.9694 17.5677H6.57824C6.16438 17.5677 5.82888 17.89 5.82888 18.2876V18.4686C5.82888 18.8662 6.16438 19.1885 6.57824 19.1885Z" fill="white"/>
<path d="M6.57818 13.6104L26.3288 13.6104C26.7426 13.6104 27.0781 13.288 27.0781 12.8905V12.7094C27.0781 12.3119 26.7426 11.9896 26.3288 11.9896L6.57818 11.9896C6.16432 11.9896 5.82883 12.3119 5.82883 12.7094V12.8905C5.82883 13.288 6.16432 13.6104 6.57818 13.6104Z" fill="white"/>
</g>
<defs>
<clipPath id="clip0_22_92">
<rect width="45.496" height="32.2263" fill="white"/>
</clipPath>
</defs>
</svg>
