<svg width="60" height="60" viewBox="0 0 60 60" fill="none" xmlns="http://www.w3.org/2000/svg">
<path d="M25.0262 4.11382C26.13 -1.37127 33.87 -1.37127 34.9738 4.11382C35.7303 7.87333 40.1402 9.49871 43.1062 7.11122C47.4334 3.62789 53.3625 8.66596 50.7264 13.5863C48.9196 16.9587 51.266 21.0743 55.0536 21.176C60.5795 21.3243 61.9235 29.0431 56.7809 31.0963C53.2562 32.5036 52.4413 37.1837 55.2781 39.727C59.4171 43.4376 55.5471 50.2253 50.3044 48.4508C46.7109 47.2345 43.1159 50.2893 43.6748 54.0841C44.4901 59.6207 37.217 62.3014 34.3271 57.5294C32.3465 54.2586 27.6535 54.2586 25.6729 57.5294C22.783 62.3014 15.5099 59.6207 16.3252 54.0841C16.8841 50.2893 13.2891 47.2345 9.69564 48.4508C4.45286 50.2253 0.582906 43.4376 4.72187 39.727C7.55874 37.1837 6.74383 32.5036 3.21907 31.0963C-1.92352 29.0431 -0.579497 21.3243 4.94644 21.176C8.73395 21.0743 11.0804 16.9587 9.27359 13.5863C6.63747 8.66596 12.5666 3.62789 16.8939 7.11122C19.8598 9.49871 24.2697 7.87333 25.0262 4.11382Z" fill="#3F66EF"/>
<path d="M36.5544 26.7376L33.364 20.8233H36.1857L42.8042 26.7376H36.5544ZM23.7483 20.8233H20.9271L14.3149 26.7376H20.5636L23.7483 20.8233ZM35.1735 26.7376L31.9831 20.8233H25.1292L21.9439 26.7376H35.1735ZM21.8108 27.9622L28.5139 45L35.2952 27.9622H21.8108ZM14 27.9622L26.57 43.3593L20.5088 27.9622H14ZM36.6029 27.9622L30.548 43.1628L43.106 27.9616L36.6029 27.9622ZM16.0101 17.9315H17.0749V19.0081C17.0749 19.1706 17.1387 19.3264 17.2524 19.4413C17.366 19.5561 17.5201 19.6207 17.6808 19.6207C17.8414 19.6207 17.9955 19.5561 18.1092 19.4413C18.2228 19.3264 18.2866 19.1706 18.2866 19.0081V17.9315H19.3502C19.5076 17.9266 19.6569 17.8599 19.7666 17.7456C19.8762 17.6313 19.9375 17.4784 19.9375 17.3192C19.9375 17.16 19.8762 17.007 19.7666 16.8927C19.6569 16.7784 19.5076 16.7118 19.3502 16.7069H18.2866V15.6314C18.2891 15.5494 18.2753 15.4677 18.246 15.3913C18.2166 15.3148 18.1724 15.245 18.116 15.1861C18.0595 15.1272 17.9919 15.0804 17.9172 15.0484C17.8425 15.0165 17.7622 15 17.681 15C17.5999 15 17.5196 15.0165 17.4449 15.0484C17.3702 15.0804 17.3026 15.1272 17.2461 15.1861C17.1896 15.245 17.1454 15.3148 17.1161 15.3913C17.0868 15.4677 17.073 15.5494 17.0755 15.6314V16.7075H16.0107C15.8533 16.7123 15.704 16.779 15.5944 16.8933C15.4848 17.0076 15.4235 17.1605 15.4235 17.3197C15.4235 17.479 15.4848 17.6319 15.5944 17.7462C15.704 17.8605 15.8533 17.9271 16.0107 17.932L16.0101 17.9315ZM45.4128 34.0169H44.3485V32.9408C44.3437 32.7817 44.2778 32.6307 44.1648 32.5199C44.0517 32.4091 43.9005 32.3471 43.743 32.3471C43.5855 32.3471 43.4343 32.4091 43.3212 32.5199C43.2082 32.6307 43.1423 32.7817 43.1374 32.9408V34.0169H42.0726C41.9916 34.0144 41.9108 34.0284 41.8352 34.058C41.7595 34.0876 41.6905 34.1323 41.6323 34.1894C41.574 34.2465 41.5277 34.3149 41.4961 34.3904C41.4645 34.466 41.4482 34.5472 41.4482 34.6292C41.4482 34.7112 41.4645 34.7924 41.4961 34.868C41.5277 34.9435 41.574 35.0118 41.6323 35.0689C41.6905 35.1261 41.7595 35.1708 41.8352 35.2004C41.9108 35.23 41.9916 35.244 42.0726 35.2415H43.1374V36.3175C43.1349 36.3995 43.1488 36.4812 43.1781 36.5577C43.2074 36.6342 43.2516 36.7039 43.3081 36.7628C43.3645 36.8217 43.4321 36.8685 43.5069 36.9005C43.5816 36.9325 43.6619 36.9489 43.743 36.9489C43.8241 36.9489 43.9044 36.9325 43.9791 36.9005C44.0538 36.8685 44.1214 36.8217 44.1779 36.7628C44.2344 36.7039 44.2786 36.6342 44.3079 36.5577C44.3372 36.4812 44.351 36.3995 44.3485 36.3175V35.2415H45.4128C45.5701 35.2366 45.7195 35.1699 45.8291 35.0556C45.9387 34.9414 46 34.7884 46 34.6292C46 34.47 45.9387 34.317 45.8291 34.2027C45.7195 34.0884 45.5701 34.0218 45.4128 34.0169Z" fill="white"/>
</svg>
