<svg width="36" height="40" viewBox="0 0 36 40" fill="none" xmlns="http://www.w3.org/2000/svg">
<path d="M16.4456 11.6375L0.948066 10.4159L9.75315 23.249L16.4456 11.6375ZM17.0629 0L2.14542 8.62706L17.0629 9.80296V0ZM24.5547 24.0682L18 12.6958L11.4453 24.0682H24.5547ZM26.2469 23.249L35.0519 10.4159L19.5544 11.6375L26.2469 23.249ZM18.9371 0V9.80296L33.8546 8.62706L18.9371 0ZM11.3072 25.9456L18 40L24.6928 25.9456H11.3072ZM27.5245 24.7015L36 29.6032V12.3487L27.5245 24.7015ZM20.1454 39.8561L35.0629 31.229L26.5873 26.3274L20.1454 39.8561ZM0.937146 31.229L15.8546 39.8561L9.41266 26.3274L0.937146 31.229ZM0 12.3487V29.6032L8.47551 24.7015L0 12.3487Z" fill="url(#paint0_linear_311_357)"/>
<defs>
<linearGradient id="paint0_linear_311_357" x1="-8.24621e-06" y1="20" x2="36" y2="20" gradientUnits="userSpaceOnUse">
<stop stop-color="#00FFFF"/>
<stop offset="1" stop-color="#0071BC"/>
</linearGradient>
</defs>
</svg>
