<svg width="32" height="32" viewBox="0 0 32 32" fill="none" xmlns="http://www.w3.org/2000/svg">
<mask id="path-1-inside-1_32_91" fill="white">
<path d="M25 21C24.9983 22.5908 24.3657 24.116 23.2408 25.2408C22.116 26.3657 20.5908 26.9983 19 27H17V29C17 29.2652 16.8946 29.5196 16.7071 29.7071C16.5196 29.8946 16.2652 30 16 30C15.7348 30 15.4804 29.8946 15.2929 29.7071C15.1054 29.5196 15 29.2652 15 29V27H13C11.4092 26.9983 9.88405 26.3657 8.75919 25.2408C7.63433 24.116 7.00165 22.5908 7 21C7 20.7348 7.10536 20.4804 7.29289 20.2929C7.48043 20.1054 7.73478 20 8 20C8.26522 20 8.51957 20.1054 8.70711 20.2929C8.89464 20.4804 9 20.7348 9 21C9 22.0609 9.42143 23.0783 10.1716 23.8284C10.9217 24.5786 11.9391 25 13 25H19C20.0609 25 21.0783 24.5786 21.8284 23.8284C22.5786 23.0783 23 22.0609 23 21C23 19.9391 22.5786 18.9217 21.8284 18.1716C21.0783 17.4214 20.0609 17 19 17H14C12.4087 17 10.8826 16.3679 9.75736 15.2426C8.63214 14.1174 8 12.5913 8 11C8 9.4087 8.63214 7.88258 9.75736 6.75736C10.8826 5.63214 12.4087 5 14 5H15V3C15 2.73478 15.1054 2.48043 15.2929 2.29289C15.4804 2.10536 15.7348 2 16 2C16.2652 2 16.5196 2.10536 16.7071 2.29289C16.8946 2.48043 17 2.73478 17 3V5H18C19.5908 5.00165 21.116 5.63433 22.2408 6.75919C23.3657 7.88405 23.9983 9.40921 24 11C24 11.2652 23.8946 11.5196 23.7071 11.7071C23.5196 11.8946 23.2652 12 23 12C22.7348 12 22.4804 11.8946 22.2929 11.7071C22.1054 11.5196 22 11.2652 22 11C22 9.93913 21.5786 8.92172 20.8284 8.17157C20.0783 7.42143 19.0609 7 18 7H14C12.9391 7 11.9217 7.42143 11.1716 8.17157C10.4214 8.92172 10 9.93913 10 11C10 12.0609 10.4214 13.0783 11.1716 13.8284C11.9217 14.5786 12.9391 15 14 15H19C20.5908 15.0017 22.116 15.6343 23.2408 16.7592C24.3657 17.884 24.9983 19.4092 25 21Z"/>
</mask>
<path d="M25 21C24.9983 22.5908 24.3657 24.116 23.2408 25.2408C22.116 26.3657 20.5908 26.9983 19 27H17V29C17 29.2652 16.8946 29.5196 16.7071 29.7071C16.5196 29.8946 16.2652 30 16 30C15.7348 30 15.4804 29.8946 15.2929 29.7071C15.1054 29.5196 15 29.2652 15 29V27H13C11.4092 26.9983 9.88405 26.3657 8.75919 25.2408C7.63433 24.116 7.00165 22.5908 7 21C7 20.7348 7.10536 20.4804 7.29289 20.2929C7.48043 20.1054 7.73478 20 8 20C8.26522 20 8.51957 20.1054 8.70711 20.2929C8.89464 20.4804 9 20.7348 9 21C9 22.0609 9.42143 23.0783 10.1716 23.8284C10.9217 24.5786 11.9391 25 13 25H19C20.0609 25 21.0783 24.5786 21.8284 23.8284C22.5786 23.0783 23 22.0609 23 21C23 19.9391 22.5786 18.9217 21.8284 18.1716C21.0783 17.4214 20.0609 17 19 17H14C12.4087 17 10.8826 16.3679 9.75736 15.2426C8.63214 14.1174 8 12.5913 8 11C8 9.4087 8.63214 7.88258 9.75736 6.75736C10.8826 5.63214 12.4087 5 14 5H15V3C15 2.73478 15.1054 2.48043 15.2929 2.29289C15.4804 2.10536 15.7348 2 16 2C16.2652 2 16.5196 2.10536 16.7071 2.29289C16.8946 2.48043 17 2.73478 17 3V5H18C19.5908 5.00165 21.116 5.63433 22.2408 6.75919C23.3657 7.88405 23.9983 9.40921 24 11C24 11.2652 23.8946 11.5196 23.7071 11.7071C23.5196 11.8946 23.2652 12 23 12C22.7348 12 22.4804 11.8946 22.2929 11.7071C22.1054 11.5196 22 11.2652 22 11C22 9.93913 21.5786 8.92172 20.8284 8.17157C20.0783 7.42143 19.0609 7 18 7H14C12.9391 7 11.9217 7.42143 11.1716 8.17157C10.4214 8.92172 10 9.93913 10 11C10 12.0609 10.4214 13.0783 11.1716 13.8284C11.9217 14.5786 12.9391 15 14 15H19C20.5908 15.0017 22.116 15.6343 23.2408 16.7592C24.3657 17.884 24.9983 19.4092 25 21Z" fill="white"/>
<path d="M25 21L27 21.0021L27 20.9979L25 21ZM19 27V29L19.0021 29L19 27ZM17 27V25H15V27H17ZM15 27H17V25H15V27ZM13 27L12.9979 29H13V27ZM7 21H5L5 21.0021L7 21ZM9 21H7H9ZM14 17V19V17ZM8 11H10H8ZM14 5V3V5ZM15 5V7H17V5H15ZM16 2V0V2ZM17 5H15V7H17V5ZM18 5L18.0021 3H18V5ZM24 11H26L26 10.9979L24 11ZM18 7V5V7ZM14 7V5V7ZM10 11H8H10ZM14 15V17V15ZM19 15L19.0021 13H19V15ZM23 20.9979C22.9989 22.059 22.5769 23.0763 21.8266 23.8266L24.655 26.655C26.1545 25.1556 26.9978 23.1226 27 21.0021L23 20.9979ZM21.8266 23.8266C21.0763 24.5769 20.059 24.9989 18.9979 25L19.0021 29C21.1226 28.9978 23.1556 28.1545 24.655 26.655L21.8266 23.8266ZM19 25H17V29H19V25ZM15 27V29H19V27H15ZM15 29C15 28.7348 15.1054 28.4804 15.2929 28.2929L18.1213 31.1213C18.6839 30.5587 19 29.7956 19 29H15ZM15.2929 28.2929C15.4804 28.1054 15.7348 28 16 28V32C16.7956 32 17.5587 31.6839 18.1213 31.1213L15.2929 28.2929ZM16 28C16.2652 28 16.5196 28.1054 16.7071 28.2929L13.8787 31.1213C14.4413 31.6839 15.2044 32 16 32V28ZM16.7071 28.2929C16.8946 28.4804 17 28.7348 17 29H13C13 29.7956 13.3161 30.5587 13.8787 31.1213L16.7071 28.2929ZM17 29V27H13V29H17ZM15 25H13V29H15V25ZM13.0021 25C11.941 24.9989 10.9237 24.5769 10.1734 23.8266L7.34497 26.655C8.8444 28.1545 10.8774 28.9978 12.9979 29L13.0021 25ZM10.1734 23.8266C9.4231 23.0763 9.0011 22.059 9 20.9979L5 21.0021C5.00221 23.1226 5.84555 25.1556 7.34497 26.655L10.1734 23.8266ZM9 21C9 21.2652 8.89464 21.5196 8.70711 21.7071L5.87868 18.8787C5.31607 19.4413 5 20.2044 5 21H9ZM8.70711 21.7071C8.51957 21.8946 8.26521 22 8 22V18C7.20435 18 6.44129 18.3161 5.87868 18.8787L8.70711 21.7071ZM8 22C7.73479 22 7.48043 21.8946 7.29289 21.7071L10.1213 18.8787C9.55871 18.3161 8.79565 18 8 18V22ZM7.29289 21.7071C7.10536 21.5196 7 21.2652 7 21H11C11 20.2044 10.6839 19.4413 10.1213 18.8787L7.29289 21.7071ZM7 21C7 22.5913 7.63214 24.1174 8.75736 25.2426L11.5858 22.4142C11.2107 22.0391 11 21.5304 11 21H7ZM8.75736 25.2426C9.88258 26.3679 11.4087 27 13 27V23C12.4696 23 11.9609 22.7893 11.5858 22.4142L8.75736 25.2426ZM13 27H19V23H13V27ZM19 27C20.5913 27 22.1174 26.3679 23.2426 25.2426L20.4142 22.4142C20.0391 22.7893 19.5304 23 19 23V27ZM23.2426 25.2426C24.3679 24.1174 25 22.5913 25 21H21C21 21.5304 20.7893 22.0391 20.4142 22.4142L23.2426 25.2426ZM25 21C25 19.4087 24.3679 17.8826 23.2426 16.7574L20.4142 19.5858C20.7893 19.9609 21 20.4696 21 21H25ZM23.2426 16.7574C22.1174 15.6321 20.5913 15 19 15V19C19.5304 19 20.0391 19.2107 20.4142 19.5858L23.2426 16.7574ZM19 15H14V19H19V15ZM14 15C12.9391 15 11.9217 14.5786 11.1716 13.8284L8.34315 16.6569C9.84344 18.1571 11.8783 19 14 19V15ZM11.1716 13.8284C10.4214 13.0783 10 12.0609 10 11H6C6 13.1217 6.84286 15.1566 8.34315 16.6569L11.1716 13.8284ZM10 11C10 9.93913 10.4214 8.92172 11.1716 8.17157L8.34315 5.34315C6.84286 6.84344 6 8.87827 6 11H10ZM11.1716 8.17157C11.9217 7.42143 12.9391 7 14 7V3C11.8783 3 9.84344 3.84286 8.34315 5.34315L11.1716 8.17157ZM14 7H15V3H14V7ZM17 5V3H13V5H17ZM17 3C17 3.26522 16.8946 3.51957 16.7071 3.70711L13.8787 0.87868C13.3161 1.44129 13 2.20435 13 3H17ZM16.7071 3.70711C16.5196 3.89464 16.2652 4 16 4V0C15.2044 0 14.4413 0.316071 13.8787 0.87868L16.7071 3.70711ZM16 4C15.7348 4 15.4804 3.89464 15.2929 3.70711L18.1213 0.87868C17.5587 0.316069 16.7956 0 16 0V4ZM15.2929 3.70711C15.1054 3.51957 15 3.26521 15 3H19C19 2.20435 18.6839 1.44129 18.1213 0.87868L15.2929 3.70711ZM15 3V5H19V3H15ZM17 7H18V3H17V7ZM17.9979 7C19.059 7.0011 20.0763 7.4231 20.8266 8.1734L23.655 5.34497C22.1556 3.84555 20.1226 3.00221 18.0021 3L17.9979 7ZM20.8266 8.1734C21.5769 8.9237 21.9989 9.941 22 11.0021L26 10.9979C25.9978 8.87742 25.1545 6.8444 23.655 5.34497L20.8266 8.1734ZM22 11C22 10.7348 22.1054 10.4804 22.2929 10.2929L25.1213 13.1213C25.6839 12.5587 26 11.7956 26 11H22ZM22.2929 10.2929C22.4804 10.1054 22.7348 10 23 10V14C23.7956 14 24.5587 13.6839 25.1213 13.1213L22.2929 10.2929ZM23 10C23.2652 10 23.5196 10.1054 23.7071 10.2929L20.8787 13.1213C21.4413 13.6839 22.2044 14 23 14V10ZM23.7071 10.2929C23.8946 10.4804 24 10.7348 24 11H20C20 11.7956 20.3161 12.5587 20.8787 13.1213L23.7071 10.2929ZM24 11C24 9.4087 23.3679 7.88258 22.2426 6.75736L19.4142 9.58579C19.7893 9.96086 20 10.4696 20 11H24ZM22.2426 6.75736C21.1174 5.63214 19.5913 5 18 5V9C18.5304 9 19.0391 9.21071 19.4142 9.58579L22.2426 6.75736ZM18 5H14V9H18V5ZM14 5C12.4087 5 10.8826 5.63214 9.75736 6.75736L12.5858 9.58579C12.9609 9.21071 13.4696 9 14 9V5ZM9.75736 6.75736C8.63214 7.88258 8 9.4087 8 11H12C12 10.4696 12.2107 9.96086 12.5858 9.58579L9.75736 6.75736ZM8 11C8 12.5913 8.63214 14.1174 9.75736 15.2426L12.5858 12.4142C12.2107 12.0391 12 11.5304 12 11H8ZM9.75736 15.2426C10.8826 16.3679 12.4087 17 14 17V13C13.4696 13 12.9609 12.7893 12.5858 12.4142L9.75736 15.2426ZM14 17H19V13H14V17ZM18.9979 17C20.059 17.0011 21.0763 17.4231 21.8266 18.1734L24.655 15.345C23.1556 13.8455 21.1226 13.0022 19.0021 13L18.9979 17ZM21.8266 18.1734C22.5769 18.9237 22.9989 19.941 23 21.0021L27 20.9979C26.9978 18.8774 26.1545 16.8444 24.655 15.345L21.8266 18.1734Z" fill="white" mask="url(#path-1-inside-1_32_91)"/>
</svg>
