<svg width="26" height="27" viewBox="0 0 26 27" fill="none" xmlns="http://www.w3.org/2000/svg">
<path d="M25.1875 10C25.6953 10.0339 25.9661 10.3047 26 10.8125V23.8633C25.9661 24.5404 25.7292 25.099 25.2891 25.5391C24.8151 25.9792 24.2396 26.2161 23.5625 26.25H2.4375C1.76042 26.2161 1.1849 25.9792 0.710938 25.5391C0.270833 25.0651 0.0338542 24.4896 0 23.8125V10.8125C0.0338542 10.3047 0.304688 10.0339 0.8125 10C1.32031 10.0339 1.59115 10.3047 1.625 10.8125V23.8125C1.65885 24.3203 1.92969 24.5911 2.4375 24.625H23.5625C24.0703 24.5911 24.3411 24.3203 24.375 23.8125V10.8125C24.4089 10.3047 24.6797 10.0339 25.1875 10ZM3.30078 14.2656C3.26693 14.2318 3.25 14.181 3.25 14.1133C3.25 14.0794 3.25 14.0625 3.25 14.0625V2.6875C3.28385 2.01042 3.52083 1.4349 3.96094 0.960938C4.4349 0.520833 5.01042 0.283854 5.6875 0.25H20.3125C20.9896 0.283854 21.5651 0.520833 22.0391 0.960938C22.4792 1.4349 22.7161 2.01042 22.75 2.6875V14.0625C22.75 14.0964 22.75 14.0964 22.75 14.0625C22.75 14.1302 22.7331 14.181 22.6992 14.2148C22.6992 14.2826 22.6823 14.3333 22.6484 14.3672C22.6146 14.401 22.5977 14.4518 22.5977 14.5195C22.5638 14.5534 22.513 14.5872 22.4453 14.6211C22.4453 14.6211 22.4453 14.638 22.4453 14.6719L15.6914 19.6484C14.8789 20.224 13.9818 20.5117 13 20.5117C12.0182 20.5117 11.1211 20.2409 10.3086 19.6992L3.60547 14.7227C3.57161 14.7227 3.55469 14.7057 3.55469 14.6719C3.48698 14.638 3.4362 14.6042 3.40234 14.5703C3.40234 14.5703 3.40234 14.5534 3.40234 14.5195C3.40234 14.4857 3.38542 14.4518 3.35156 14.418C3.31771 14.3841 3.30078 14.3333 3.30078 14.2656ZM4.875 2.6875V13.6562L11.2734 18.3789C11.8151 18.7513 12.3906 18.9375 13 18.9375C13.6094 18.9375 14.1849 18.7513 14.7266 18.3789L21.125 13.6562V2.6875C21.0911 2.17969 20.8203 1.90885 20.3125 1.875H5.6875C5.17969 1.90885 4.90885 2.17969 4.875 2.6875ZM17.875 12.3867C17.8411 12.9284 17.5703 13.1823 17.0625 13.1484H8.9375C8.42969 13.1146 8.15885 12.8607 8.125 12.3867C8.15885 11.8789 8.42969 11.6081 8.9375 11.5742H17.0625C17.5703 11.6081 17.8411 11.8789 17.875 12.3867ZM8.9375 8.32422C8.42969 8.29036 8.15885 8.03646 8.125 7.5625C8.15885 7.08854 8.42969 6.83464 8.9375 6.80078H17.0625C17.5703 6.83464 17.8411 7.08854 17.875 7.5625C17.8411 8.03646 17.5703 8.29036 17.0625 8.32422H8.9375Z" fill="#3F66EF"/>
</svg>
