<svg width="40" height="40" viewBox="0 0 40 40" fill="none" xmlns="http://www.w3.org/2000/svg">
<path d="M22.5 21.875H25V35H22.5V21.875Z" fill="#3F66EF"/>
<path d="M16.25 26.875H18.75V35H16.25V26.875Z" fill="#3F66EF"/>
<path d="M10 29.375H12.5V35H10V29.375Z" fill="#3F66EF"/>
<path d="M35 12.5H37.5V35H35V12.5Z" fill="#3F66EF"/>
<path d="M28.75 17.5H31.25V35H28.75V17.5Z" fill="#3F66EF"/>
<path d="M3.75 32.5H6.25V35H3.75V32.5Z" fill="#3F66EF"/>
<path d="M36.875 3.75H33.125C32.9593 3.75 32.8003 3.81585 32.6831 3.93306C32.5659 4.05027 32.5 4.20924 32.5 4.375C32.5 4.54076 32.5659 4.69973 32.6831 4.81694C32.8003 4.93415 32.9593 5 33.125 5H35.3661L26.6161 13.75H23.7188C23.6038 12.6044 23.1747 11.5128 22.4787 10.5957C21.7827 9.67855 20.8469 8.97148 19.7745 8.55248C18.7021 8.13349 17.5348 8.01886 16.4014 8.22123C15.268 8.4236 14.2125 8.93512 13.3514 9.69934C12.4903 10.4636 11.857 11.4508 11.5214 12.5521C11.1858 13.6535 11.1609 14.8261 11.4496 15.9407C11.7382 17.0553 12.3291 18.0685 13.157 18.8685C13.985 19.6685 15.0178 20.2243 16.1417 20.4745L14.1162 22.5H9.37502C9.29294 22.5 9.21167 22.5162 9.13583 22.5476C9.06 22.579 8.9911 22.625 8.93306 22.683L2.68306 28.933C2.56585 29.0503 2.5 29.2092 2.5 29.375C2.5 29.5408 2.56585 29.6997 2.68306 29.817C2.80028 29.9342 2.95925 30 3.12502 30C3.29078 30 3.44976 29.9342 3.56697 29.817L9.63392 23.75H14.375C14.4571 23.75 14.5384 23.7338 14.6142 23.7024C14.69 23.671 14.7589 23.625 14.817 23.567L17.7656 20.6183C19.2672 20.5526 20.6949 19.9488 21.788 18.9173C22.881 17.8857 23.5664 16.4952 23.7188 15H26.875C26.9571 15 27.0384 14.9838 27.1142 14.9524C27.19 14.921 27.2589 14.875 27.317 14.817L36.25 5.88391V8.125C36.25 8.29076 36.3159 8.44973 36.4331 8.56694C36.5503 8.68415 36.7093 8.75 36.875 8.75C37.0408 8.75 37.1998 8.68415 37.317 8.56694C37.4342 8.44973 37.5 8.29076 37.5 8.125V4.375C37.5 4.20924 37.4342 4.05027 37.317 3.93306C37.1998 3.81585 37.0408 3.75 36.875 3.75ZM17.5 13.75C17.9422 13.7502 18.3701 13.9066 18.7081 14.1917C19.0461 14.4768 19.2725 14.8721 19.3473 15.3079C19.422 15.7437 19.3404 16.1919 19.1167 16.5734C18.8931 16.9548 18.5418 17.2449 18.125 17.3925V18.125C18.125 18.2908 18.0592 18.4497 17.942 18.5669C17.8247 18.6842 17.6658 18.75 17.5 18.75C17.3343 18.75 17.1753 18.6842 17.0581 18.5669C16.9409 18.4497 16.875 18.2908 16.875 18.125V17.5H16.25C16.0843 17.5 15.9253 17.4342 15.8081 17.3169C15.6909 17.1997 15.625 17.0408 15.625 16.875C15.625 16.7092 15.6909 16.5503 15.8081 16.4331C15.9253 16.3158 16.0843 16.25 16.25 16.25H17.5C17.6658 16.25 17.8247 16.1842 17.942 16.0669C18.0592 15.9497 18.125 15.7908 18.125 15.625C18.125 15.4592 18.0592 15.3003 17.942 15.1831C17.8247 15.0658 17.6658 15 17.5 15C17.0578 14.9998 16.63 14.8434 16.292 14.5583C15.9539 14.2732 15.7276 13.8779 15.6528 13.4421C15.578 13.0063 15.6596 12.5581 15.8833 12.1766C16.1069 11.7952 16.4582 11.5051 16.875 11.3575V10.625C16.875 10.4592 16.9409 10.3003 17.0581 10.1831C17.1753 10.0658 17.3343 10 17.5 10C17.6658 10 17.8247 10.0658 17.942 10.1831C18.0592 10.3003 18.125 10.4592 18.125 10.625V11.25H18.75C18.9158 11.25 19.0748 11.3158 19.192 11.4331C19.3092 11.5503 19.375 11.7092 19.375 11.875C19.375 12.0408 19.3092 12.1997 19.192 12.3169C19.0748 12.4342 18.9158 12.5 18.75 12.5H17.5C17.3343 12.5 17.1753 12.5658 17.0581 12.6831C16.9409 12.8003 16.875 12.9592 16.875 13.125C16.875 13.2908 16.9409 13.4497 17.0581 13.5669C17.1753 13.6842 17.3343 13.75 17.5 13.75Z" fill="#3F66EF"/>
</svg>
