<svg width="26" height="27" viewBox="0 0 26 27" fill="none" xmlns="http://www.w3.org/2000/svg">
<path d="M9.69922 11.625L9.75 18.125C9.75 18.5651 9.59766 18.9375 9.29297 19.2422C8.98828 19.5469 8.59896 19.7161 8.125 19.75H6.5C5.58594 19.7161 4.82422 19.3945 4.21484 18.7852C3.60547 18.1758 3.28385 17.4141 3.25 16.5L3.19922 13.1992C3.23307 12.2852 3.55469 11.5404 4.16406 10.9648C4.77344 10.3555 5.53516 10.0339 6.44922 10H8.07422C8.54818 10 8.9375 10.1523 9.24219 10.457C9.54688 10.7617 9.69922 11.151 9.69922 11.625ZM8.07422 18.125V11.625H6.44922C6.00911 11.625 5.61979 11.7773 5.28125 12.082C4.97656 12.3867 4.82422 12.776 4.82422 13.25V16.5C4.82422 16.9401 4.97656 17.3125 5.28125 17.6172C5.61979 17.9219 6.00911 18.0911 6.44922 18.125H8.07422ZM19.4492 19.75V19.8008H17.875C17.401 19.7669 17.0117 19.5977 16.707 19.293C16.4023 18.9883 16.25 18.6159 16.25 18.1758V11.6758C16.25 11.2018 16.4023 10.8125 16.707 10.5078C17.0117 10.2031 17.401 10.0508 17.875 10.0508H19.4492C20.3633 10.0508 21.125 10.3555 21.7344 10.9648C22.3438 11.5742 22.6654 12.3359 22.6992 13.25V16.5C22.6654 17.4141 22.3438 18.1758 21.7344 18.7852C21.125 19.3945 20.3633 19.7161 19.4492 19.75ZM17.8242 11.625L17.7734 18.125H19.3984C19.8724 18.0911 20.2617 17.9219 20.5664 17.6172C20.8711 17.3125 21.0234 16.9401 21.0234 16.5V13.25C21.0234 12.776 20.8711 12.3867 20.5664 12.082C20.2617 11.7773 19.8724 11.625 19.3984 11.625H17.8242ZM14.2188 0.300781C16.487 0.53776 18.5013 1.28255 20.2617 2.53516C22.0221 3.78776 23.4102 5.37891 24.4258 7.30859C25.4076 9.20443 25.8984 11.3034 25.8984 13.6055V22.2383C25.8646 23.3555 25.4753 24.3034 24.7305 25.082C23.9518 25.8268 22.987 26.2161 21.8359 26.25H12.1367C11.3919 26.2161 10.7826 25.9284 10.3086 25.3867C9.83464 24.8112 9.66536 24.1172 9.80078 23.3047C9.9362 22.7292 10.224 22.2721 10.6641 21.9336C11.138 21.5612 11.6797 21.375 12.2891 21.375L15.1836 21.3242C16.2669 21.3581 17.0794 21.8151 17.6211 22.6953C17.9258 23.4062 17.9596 24.0326 17.7227 24.5742H21.9375C22.6146 24.5742 23.1901 24.3372 23.6641 23.8633C24.1042 23.4232 24.3411 22.8477 24.375 22.1367V13.5547C24.3073 10.5078 23.3255 7.90104 21.4297 5.73438C19.5339 3.53385 17.0794 2.26432 14.0664 1.92578C11.7643 1.75651 9.68229 2.16276 7.82031 3.14453C5.99219 4.1263 4.51953 5.51432 3.40234 7.30859C2.31901 9.06901 1.72656 11.0495 1.625 13.25V14.0625C1.59115 14.5703 1.32031 14.8411 0.8125 14.875C0.304688 14.8411 0.0338542 14.5703 0 14.0625V13.25C0.101562 10.7448 0.778646 8.47656 2.03125 6.44531C3.31771 4.38021 5.01042 2.78906 7.10938 1.67188C9.24219 0.554688 11.612 0.0976562 14.2188 0.300781ZM15.3867 24.625C15.8945 24.5911 16.1654 24.3203 16.1992 23.8125C16.1654 23.3047 15.8945 23.0339 15.3867 23H12.1367C11.6289 23.0339 11.3581 23.3047 11.3242 23.8125C11.3581 24.3203 11.6289 24.5911 12.1367 24.625H15.3867Z" fill="#3F66EF"/>
</svg>
