<svg width="40" height="39" viewBox="0 0 40 39" fill="none" xmlns="http://www.w3.org/2000/svg">
<g clip-path="url(#clip0_22_87)">
<path d="M19.0086 8.17428e-07C21.5049 -0.000726596 23.9768 0.484036 26.2834 1.42662C28.5899 2.3692 30.6858 3.75114 32.4514 5.49353C34.2171 7.23592 35.6178 9.30464 36.5738 11.5816C37.5297 13.8585 38.0222 16.2991 38.0229 18.7639C38.0304 22.2343 37.0593 25.6382 35.2184 28.5945L39.4476 38.5081L27.4501 35.5894C24.8358 36.8722 21.956 37.5395 19.0367 37.5389C16.5376 37.5425 14.0623 37.0596 11.7525 36.1176C9.44265 35.1756 7.34359 33.7932 5.57543 32.0493C3.80727 30.3055 2.40472 28.2344 1.44802 25.9548C0.491323 23.6751 -0.000739297 21.2316 8.33702e-07 18.7639C0.00148813 13.7869 2.00484 9.01425 5.56949 5.49549C9.13414 1.97673 13.9682 6.0076e-07 19.0086 8.17428e-07Z" fill="#3F66EF"/>
<path d="M22.4592 15.203V25.3049H26.0377C26.847 25.3049 27.6231 24.9875 28.1953 24.4225C28.7675 23.8574 29.089 23.0911 29.089 22.2921V18.2103C29.089 17.4107 28.7677 16.6438 28.1956 16.0779C27.6236 15.512 26.8475 15.1934 26.0377 15.1919L22.4592 15.203Z" fill="white"/>
<path d="M9.50147 25.083C10.7298 26.4565 21.1063 25.3045 21.1063 25.3045V15.2026C20.087 14.6225 19.3068 13.707 18.902 12.6162C18.4028 10.9547 17.6512 8.81688 16.35 9.15472C15.0487 9.49256 14.5607 12.9706 16.1705 15.2026C16.1705 15.2026 11.1225 13.8457 9.72583 15.33C8.32921 16.8143 8.35164 23.7981 9.50147 25.083Z" fill="white"/>
</g>
<defs>
<clipPath id="clip0_22_87">
<rect width="39.4363" height="38.5192" fill="white"/>
</clipPath>
</defs>
</svg>
