<svg width="30" height="27" viewBox="0 0 30 27" fill="none" xmlns="http://www.w3.org/2000/svg">
<path d="M13.4062 5.9375C13.474 5.19271 13.8802 4.78646 14.625 4.71875C15.3698 4.78646 15.776 5.19271 15.8438 5.9375C15.776 6.68229 15.3698 7.08854 14.625 7.15625C13.8802 7.08854 13.474 6.68229 13.4062 5.9375ZM13.8633 16.043C13.2878 15.3659 12.5938 14.4349 11.7812 13.25C10.9349 12.099 10.1901 10.8971 9.54688 9.64453C8.90365 8.39193 8.5651 7.29167 8.53125 6.34375C8.5651 4.61719 9.15755 3.17839 10.3086 2.02734C11.4596 0.876302 12.8984 0.283854 14.625 0.25C16.3516 0.283854 17.7904 0.876302 18.9414 2.02734C20.0924 3.17839 20.6849 4.61719 20.7188 6.34375C20.6849 7.29167 20.3464 8.39193 19.7031 9.64453C19.0599 10.8971 18.3151 12.099 17.4688 13.25C16.6562 14.4349 15.9622 15.3659 15.3867 16.043C15.1836 16.3138 14.9297 16.4492 14.625 16.4492C14.3203 16.4492 14.0664 16.3138 13.8633 16.043ZM18.6367 8.07031C18.9414 7.29167 19.0938 6.71615 19.0938 6.34375C19.0599 5.09115 18.6198 4.04167 17.7734 3.19531C16.9271 2.34896 15.8776 1.90885 14.625 1.875C13.3724 1.90885 12.3229 2.34896 11.4766 3.19531C10.6302 4.04167 10.1901 5.09115 10.1562 6.34375C10.1562 6.71615 10.3086 7.29167 10.6133 8.07031C10.9518 8.91667 11.4089 9.77995 11.9844 10.6602C12.8984 12.1159 13.7786 13.3685 14.625 14.418C15.4714 13.3685 16.3516 12.1159 17.2656 10.6602C17.8411 9.77995 18.2982 8.91667 18.6367 8.07031ZM20.6172 11.5742C20.5833 11.5742 20.5326 11.5911 20.4648 11.625C20.9049 10.8802 21.2773 10.1523 21.582 9.44141L27.5742 7.05469C28.0143 6.88542 28.3867 6.91927 28.6914 7.15625C29.0299 7.39323 29.2161 7.73177 29.25 8.17188V21.9336C29.2161 22.4414 28.9622 22.8138 28.4883 23.0508L20.6172 26.1992C20.4479 26.2669 20.2786 26.2669 20.1094 26.1992L8.98828 23.0508L1.67578 25.9961C1.26953 26.1315 0.897135 26.0807 0.558594 25.8438C0.220052 25.6068 0.0338542 25.2682 0 24.8281V11.0664C0.0338542 10.5586 0.28776 10.1862 0.761719 9.94922L7.00781 7.46094C7.14323 8.0026 7.3125 8.52734 7.51562 9.03516L1.625 11.3711V24.2188L8.125 21.6289V15.6367C8.15885 15.1628 8.42969 14.8919 8.9375 14.8242C9.44531 14.8919 9.71615 15.1628 9.75 15.6367V21.5781L19.5 24.3711V15.6367C19.5339 15.1628 19.8047 14.8919 20.3125 14.8242C20.8203 14.8919 21.0911 15.1628 21.125 15.6367V24.2188L27.625 21.6289V8.78125L20.6172 11.5742Z" fill="#3F66EF"/>
</svg>
