<svg width="34" height="34" viewBox="0 0 34 34" fill="none" xmlns="http://www.w3.org/2000/svg">
<path d="M29.0209 4.97914C25.8099 1.76827 21.5408 0 17 0C12.4591 0 8.19002 1.76827 4.97914 4.97914C1.76833 8.18995 0 12.4591 0 17C0 21.5409 1.76833 25.8099 4.97914 29.0208C8.19002 32.2317 12.4591 34 17 34C21.5408 34 25.8099 32.2317 29.0209 29.0208C32.2317 25.8099 34 21.5409 34 17C34 12.4591 32.2317 8.18995 29.0209 4.97914ZM26.0334 17.8626L13.2302 25.2542C13.0762 25.3432 12.9042 25.3877 12.7322 25.3877C12.5602 25.3877 12.3882 25.3432 12.2342 25.2542C11.926 25.0763 11.7361 24.7475 11.7361 24.3916V9.60819C11.7361 9.25232 11.926 8.92347 12.2342 8.74557C12.5423 8.5676 12.9221 8.5676 13.2302 8.74557L26.0334 16.1374C26.3416 16.3154 26.5315 16.6441 26.5315 17C26.5315 17.3559 26.3416 17.6847 26.0334 17.8626Z" fill="white"/>
</svg>
