<svg width="48" height="35" viewBox="0 0 48 35" fill="none" xmlns="http://www.w3.org/2000/svg">
<g clip-path="url(#clip0_126_55)">
<path d="M19.4812 -0.296875H1.40625C0.629531 -0.296875 0 0.332656 0 1.10938V19.1844C0 19.9612 0.629531 20.5906 1.40625 20.5906H9.03731V32.7408C9.03731 33.5173 9.66684 34.1471 10.4436 34.1471H14.9627C15.2578 34.1471 15.5454 34.0542 15.7848 33.8816C16.0242 33.709 16.2031 33.4655 16.2964 33.1855L20.8151 19.629C20.863 19.4859 20.8876 19.3357 20.8876 19.1845V1.10938C20.8876 0.332656 20.258 -0.296875 19.4812 -0.296875ZM46.5937 -0.296875H28.5187C27.7419 -0.296875 27.1125 0.332656 27.1125 1.10938V19.1844C27.1125 19.9612 27.7419 20.5906 28.5187 20.5906H36.1502V32.7408C36.1502 33.5173 36.7796 34.1471 37.5564 34.1471H42.075C42.3701 34.147 42.6578 34.0541 42.8972 33.8816C43.1366 33.709 43.3157 33.4655 43.4091 33.1855L47.9278 19.629C47.9753 19.4859 47.9999 19.3357 47.9999 19.1845V1.10938C47.9999 0.332656 47.3704 -0.296875 46.5937 -0.296875H46.5937Z" fill="#007CFB"/>
</g>
<defs>
<clipPath id="clip0_126_55">
<rect width="48" height="34.4" fill="white" transform="translate(0 -0.296875)"/>
</clipPath>
</defs>
</svg>
