<svg width="25" height="18" viewBox="0 0 25 18" fill="none" xmlns="http://www.w3.org/2000/svg">
<path opacity="0.936" fill-rule="evenodd" clip-rule="evenodd" d="M23.2981 17.9964C19.8748 18.006 16.4515 17.9964 13.0283 17.9678C12.8756 17.9142 12.7876 17.8092 12.7642 17.6527C12.7251 15.5523 12.7251 13.452 12.7642 11.3516C13.2058 6.73455 15.5043 3.32624 19.6597 1.12671C20.8649 0.540478 22.1364 0.16814 23.4742 0.00969696C23.6961 -0.0288544 23.8624 0.0475616 23.973 0.238827C24.3056 1.02171 24.6381 1.80453 24.9707 2.58741C25.0098 2.75926 25.0098 2.93111 24.9707 3.10295C24.3218 3.51064 23.686 3.94025 23.0634 4.39181C21.6732 5.66389 20.8125 7.22008 20.4813 9.06034C21.3813 9.05077 22.2812 9.06034 23.1808 9.08898C23.3611 9.13131 23.4883 9.23631 23.5622 9.40404C23.6013 12.1536 23.6013 14.9032 23.5622 17.6527C23.515 17.8043 23.427 17.9189 23.2981 17.9964ZM22.5352 17.0226C19.601 17.0226 16.6668 17.0226 13.7325 17.0226C13.7227 15.3613 13.7325 13.7001 13.7619 12.039C13.9009 8.09101 15.6126 4.98818 18.8968 2.73062C20.2186 1.86823 21.6564 1.32405 23.2101 1.09807C23.4275 1.60828 23.6525 2.11426 23.885 2.61605C21.1107 4.24024 19.6142 6.6366 19.3956 9.80501C19.4917 9.93734 19.6188 10.0233 19.7771 10.0628C20.6962 10.0914 21.6156 10.101 22.5352 10.0914C22.5352 12.4018 22.5352 14.7122 22.5352 17.0226Z" fill="#3F66EF"/>
<path opacity="0.944" fill-rule="evenodd" clip-rule="evenodd" d="M10.5048 17.9964C7.08149 18.006 3.65817 17.9964 0.234971 17.9678C0.166486 17.9009 0.0980597 17.8341 0.0295744 17.7673C-0.00956821 15.476 -0.00956821 13.1847 0.0295744 10.8934C0.550694 6.71256 2.6536 3.55245 6.33819 1.41312C7.7833 0.618208 9.3287 0.159948 10.9743 0.0383377C11.0583 0.0649738 11.1267 0.112747 11.1797 0.181543C11.5122 0.964424 11.8448 1.74725 12.1773 2.53013C12.3167 2.79202 12.2874 3.03066 12.0893 3.24616C9.67412 4.48845 8.207 6.42649 7.68794 9.06034C8.60753 9.05077 9.52694 9.06034 10.4461 9.08898C10.5893 9.13332 10.6969 9.21924 10.7689 9.34675C10.808 12.1345 10.808 14.9222 10.7689 17.71C10.7087 17.8353 10.6207 17.9308 10.5048 17.9964ZM9.80059 17.0226C6.86635 17.0226 3.93211 17.0226 0.997872 17.0226C0.988072 15.094 0.997872 13.1655 1.02722 11.2371C1.55362 6.81114 3.87167 3.65109 7.98136 1.75681C8.78047 1.40934 9.60206 1.18977 10.4461 1.09806C10.6613 1.59453 10.8765 2.09094 11.0917 2.58741C8.46023 4.19539 6.95402 6.51533 6.57292 9.54724C6.57956 9.82077 6.71653 9.99261 6.98372 10.0628C7.9225 10.0914 8.86145 10.101 9.80059 10.0914C9.80059 12.4018 9.80059 14.7122 9.80059 17.0226Z" fill="#3F66EF"/>
</svg>
