<svg width="80" height="80" viewBox="0 0 80 80" fill="none" xmlns="http://www.w3.org/2000/svg">
<circle cx="40" cy="40" r="40" fill="#3F66EF"/>
<path d="M50.5 27.5C46.2812 27.5 43 30.8594 43 35C43 39.2188 46.2812 42.5 50.5 42.5C52.375 42.5 54.0938 41.7969 55.5 40.625V42.5C55.5 46.6406 52.0625 50 48 50H46.75C46.0469 50 45.5 50.625 45.5 51.25C45.5 51.9531 46.0469 52.5 46.75 52.5H48C53.4688 52.5 58 48.0469 58 42.5V35C58 30.8594 54.6406 27.5 50.5 27.5ZM50.5 40C47.6875 40 45.5 37.8125 45.5 35C45.5 32.2656 47.6875 30 50.5 30C53.2344 30 55.5 32.2656 55.5 35C55.5 37.8125 53.2344 40 50.5 40ZM30.5 27.5C26.2812 27.5 23 30.8594 23 35C23 39.2188 26.2812 42.5 30.5 42.5C32.375 42.5 34.0938 41.7969 35.5 40.625V42.5C35.5 46.6406 32.0625 50 28 50H26.75C26.0469 50 25.5 50.625 25.5 51.25C25.5 51.9531 26.0469 52.5 26.75 52.5H28C33.4688 52.5 38 48.0469 38 42.5V35C38 30.8594 34.6406 27.5 30.5 27.5ZM30.5 40C27.6875 40 25.5 37.8125 25.5 35C25.5 32.2656 27.6875 30 30.5 30C33.2344 30 35.5 32.2656 35.5 35C35.5 37.8125 33.2344 40 30.5 40Z" fill="white"/>
</svg>
