<svg width="24" height="24" viewBox="0 0 24 24" fill="none" xmlns="http://www.w3.org/2000/svg">
<path opacity="0.898" fill-rule="evenodd" clip-rule="evenodd" d="M11.6018 0.492079C12.3792 0.381635 13.0667 0.576946 13.6643 1.07802C13.9072 1.31308 14.1416 1.55527 14.3675 1.80458C14.938 1.61714 15.4302 1.74214 15.844 2.17958C16.1694 2.70146 16.185 3.23271 15.8909 3.77333C15.7893 3.87489 15.6878 3.97645 15.5862 4.07802C15.7342 4.42043 15.8592 4.772 15.9612 5.1327C15.9925 5.14831 16.0237 5.16397 16.055 5.17958C17.4511 4.82028 18.8573 4.76558 20.2737 5.01552C21.7274 5.3592 22.4071 6.27327 22.3128 7.7577C22.1078 8.80817 21.6859 9.76128 21.0471 10.6171C20.6873 11.0782 20.3202 11.5313 19.9456 11.9765C20.4811 12.5825 20.9733 13.2231 21.4221 13.8983C21.9465 14.698 22.2512 15.573 22.3362 16.5233C22.311 17.5872 21.811 18.3294 20.8362 18.7499C20.4857 18.885 20.1263 18.9866 19.7581 19.0546C19.3908 20.0862 18.7033 20.3753 17.6956 19.9218C17.3753 19.6873 17.1878 19.3749 17.1331 18.9843C16.7424 18.9108 16.3518 18.8405 15.9612 18.7733C15.6193 20.0352 15.0646 21.1915 14.2971 22.2421C13.8363 22.8286 13.2503 23.227 12.5393 23.4374C12.0203 23.5116 11.5203 23.4491 11.0393 23.2499C10.28 22.8171 9.69407 22.2155 9.28153 21.4452C8.79974 20.6013 8.43253 19.7106 8.17996 18.7733C7.03823 19.0391 5.88196 19.1406 4.71121 19.078C2.24969 18.8094 1.37469 17.4969 2.08621 15.1405C1.43363 14.3897 1.46488 13.671 2.17996 12.9843C2.57633 12.7579 2.99039 12.7188 3.42215 12.8671C3.68761 12.5781 3.94542 12.2812 4.19559 11.9765C3.39455 11.1204 2.73049 10.1673 2.2034 9.11708C1.89114 8.44648 1.76614 7.74336 1.8284 7.0077C2.0102 6.10672 2.53363 5.48952 3.39871 5.15614C4.28423 4.87344 5.19046 4.77969 6.11746 4.87489C6.8107 4.94098 7.49821 5.04252 8.17996 5.17958C8.52431 3.80341 9.14146 2.56903 10.0315 1.47645C10.4799 1.01856 11.0034 0.690435 11.6018 0.492079ZM11.6956 1.0077C12.2909 0.932788 12.8222 1.08122 13.2893 1.45302C13.4847 1.64833 13.6799 1.84364 13.8753 2.03895C13.7324 2.24721 13.623 2.48159 13.5472 2.74208C13.5137 3.82577 14.0371 4.35702 15.1175 4.33583C15.2764 4.6629 15.3702 4.99883 15.3987 5.34364C14.2597 5.66328 13.1504 6.06172 12.0706 6.53895C10.9597 6.0462 9.81904 5.63216 8.64871 5.29677C9.01457 3.97882 9.63177 2.79913 10.5003 1.7577C10.6313 1.67365 10.7485 1.57209 10.8518 1.45302C11.1167 1.26598 11.3979 1.11755 11.6956 1.0077ZM14.6487 2.22645C15.3446 2.22687 15.6493 2.57062 15.5628 3.2577C15.2897 3.78465 14.8913 3.91747 14.3675 3.65614C13.8647 3.06011 13.9585 2.58355 14.6487 2.22645ZM4.75809 5.36708C5.81882 5.3263 6.86568 5.42783 7.89871 5.67177C7.94221 5.68995 7.97348 5.72122 7.99246 5.76552C7.69813 6.91423 7.4872 8.07833 7.35965 9.2577C6.36899 9.95098 5.4471 10.7323 4.59402 11.6015C3.66754 10.6707 2.96441 9.59258 2.48465 8.36708C2.11581 7.43192 2.2955 6.62722 3.02371 5.95302C3.56373 5.62981 4.14185 5.43448 4.75809 5.36708ZM18.0237 5.36708C18.942 5.28852 19.8326 5.4057 20.6956 5.71864C21.6194 6.18359 21.971 6.92581 21.7503 7.9452C21.5253 8.80123 21.1503 9.5825 20.6253 10.289C20.3004 10.7467 19.9333 11.1686 19.5237 11.5546C18.6439 10.7449 17.7299 9.97925 16.7815 9.2577C16.6464 8.08789 16.4355 6.93162 16.1487 5.78895C16.2061 5.67987 16.2999 5.62517 16.43 5.62489C16.9655 5.52284 17.4967 5.43692 18.0237 5.36708ZM8.50809 5.83583C9.50052 6.10156 10.4693 6.43747 11.4143 6.84364C10.2276 7.4367 9.08699 8.10078 7.99246 8.83583C8.06235 7.823 8.2342 6.82297 8.50809 5.83583ZM15.4925 5.83583C15.5393 5.83583 15.5862 5.83583 15.6331 5.83583C15.8911 6.82798 16.063 7.82797 16.1487 8.83583C15.0542 8.10078 13.9136 7.4367 12.7268 6.84364C13.6334 6.45223 14.5553 6.11628 15.4925 5.83583ZM11.9768 7.14833C13.5101 7.78583 14.9398 8.59836 16.2659 9.58583C16.4212 11.1796 16.4212 12.7734 16.2659 14.3671C14.9574 15.3217 13.559 16.1342 12.0706 16.8046C10.5977 16.1388 9.20704 15.3419 7.89871 14.414C7.71121 12.7889 7.71121 11.164 7.89871 9.53895C9.19171 8.63445 10.5511 7.83758 11.9768 7.14833ZM11.7425 8.92958C12.4474 8.91823 13.1349 9.01981 13.805 9.23427C14.3122 9.44938 14.2966 9.63688 13.7581 9.79677C12.7392 10.0828 11.708 10.1297 10.6643 9.93739C10.3199 9.88222 10.023 9.74159 9.77371 9.51552C9.78585 9.45641 9.81712 9.40953 9.86746 9.37489C10.4666 9.09223 11.0916 8.94378 11.7425 8.92958ZM16.805 9.96083C17.6417 10.5628 18.423 11.2347 19.1487 11.9765C18.425 12.7082 17.6515 13.3801 16.8284 13.9921C16.9299 12.6488 16.9221 11.305 16.805 9.96083ZM7.28934 10.0077C7.22685 11.3202 7.22685 12.6327 7.28934 13.9452C6.46823 13.3588 5.70262 12.7026 4.99246 11.9765C5.70262 11.2503 6.46823 10.5941 7.28934 10.0077ZM9.77371 10.1952C10.9355 10.5898 12.1229 10.6757 13.3362 10.453C13.6125 10.4 13.8782 10.314 14.1331 10.1952C14.1877 10.5379 14.1955 10.8816 14.1565 11.2265C13.7178 11.4867 13.2412 11.6352 12.7268 11.6718C11.814 11.7718 10.9234 11.678 10.055 11.3905C9.96904 11.3358 9.88307 11.2812 9.79715 11.2265C9.77371 10.883 9.76593 10.5393 9.77371 10.1952ZM9.77371 11.8358C10.4787 12.1174 11.2131 12.2424 11.9768 12.2108C12.7332 12.2443 13.4598 12.1193 14.1565 11.8358C14.1878 12.1796 14.1878 12.5233 14.1565 12.8671C13.7183 13.1272 13.2417 13.2756 12.7268 13.3124C11.8134 13.4124 10.9228 13.3187 10.055 13.0311C9.96904 12.9764 9.88307 12.9218 9.79715 12.8671C9.77371 12.5237 9.76593 12.1799 9.77371 11.8358ZM4.57059 12.3515C5.43759 13.211 6.36731 13.9922 7.35965 14.6952C7.4872 15.8746 7.69813 17.0387 7.99246 18.1874C7.97685 18.2108 7.9612 18.2343 7.94559 18.2577C6.89938 18.5258 5.83687 18.6274 4.75809 18.5624C3.91178 18.5307 3.20084 18.2105 2.62527 17.6015C2.31802 17.0725 2.2399 16.51 2.3909 15.914C2.44613 15.7086 2.50864 15.5055 2.5784 15.3046C3.54453 15.4483 4.09922 15.0343 4.24246 14.0624C4.20694 13.737 4.09757 13.4401 3.91434 13.1718C4.12464 12.8912 4.34339 12.6178 4.57059 12.3515ZM19.4768 12.3983C20.3242 13.1613 20.9883 14.0675 21.469 15.1171C21.819 15.8312 21.8815 16.5656 21.6565 17.3202C21.2213 18.0576 20.5729 18.4404 19.7112 18.4686C19.2771 17.5669 18.6052 17.3325 17.6956 17.7655C17.4527 17.9372 17.2964 18.1637 17.2268 18.4452C16.894 18.421 16.5659 18.3663 16.2425 18.2811C16.1948 18.2568 16.1636 18.2177 16.1487 18.164C16.4355 17.0213 16.6464 15.865 16.7815 14.6952C17.7303 13.9887 18.6287 13.223 19.4768 12.3983ZM2.74246 13.289C3.29645 13.2568 3.62457 13.5146 3.72684 14.0624C3.58665 14.7183 3.19602 14.9527 2.55496 14.7655C2.01533 14.3314 1.9997 13.8783 2.50809 13.4061C2.59315 13.3707 2.67127 13.3316 2.74246 13.289ZM9.77371 13.4765C10.4788 13.758 11.2132 13.883 11.9768 13.8515C12.7331 13.8852 13.4597 13.7602 14.1565 13.4765C14.1878 13.8202 14.1878 14.164 14.1565 14.5077C13.7511 14.7675 13.3058 14.9159 12.8206 14.953C11.913 15.0659 11.0224 14.9878 10.1487 14.7186C10.0199 14.666 9.90267 14.5957 9.79715 14.5077C9.77371 14.1643 9.76593 13.8206 9.77371 13.4765ZM7.94559 15.1171C9.06103 15.8393 10.2173 16.5034 11.4143 17.1093C10.4893 17.501 9.54398 17.8369 8.5784 18.1171C8.5341 18.0981 8.50284 18.0668 8.48465 18.0233C8.23921 17.0664 8.05954 16.0977 7.94559 15.1171ZM16.1018 15.1171C16.1486 15.1157 16.1798 15.1391 16.1956 15.1874C16.0531 16.173 15.8656 17.1496 15.6331 18.1171C14.6336 17.8699 13.6649 17.5339 12.7268 17.1093C13.9089 16.5267 15.0339 15.8626 16.1018 15.1171ZM11.9768 17.414C12.5736 17.6261 13.1673 17.8527 13.7581 18.0936C14.2992 18.2844 14.8461 18.4563 15.3987 18.6093C15.1417 19.819 14.6339 20.9205 13.8753 21.914C12.6395 23.3016 11.4208 23.286 10.219 21.8671C9.52828 20.8839 9.00482 19.8136 8.64871 18.6561C9.79978 18.3378 10.9091 17.9237 11.9768 17.414ZM18.2581 18.0702C18.813 18.0391 19.1411 18.2969 19.2425 18.8436C19.0877 19.5304 18.6814 19.7491 18.0237 19.4999C17.5245 19.065 17.5245 18.6275 18.0237 18.1874C18.1088 18.1519 18.1869 18.1129 18.2581 18.0702Z" fill="white"/>
</svg>
