<svg version="1.2" xmlns="http://www.w3.org/2000/svg" viewBox="0 0 18 17" width="18" height="17">
	<title>search</title>
	<style>
		.s0 { fill: #ffffff } 
	</style>
	<g>
		<path class="s0" d="m16.7 14.7q0.5 0.6 0.1 1.1-0.2 0.2-0.6 0.2-0.2 0-0.5-0.2l-4.2-4.2q-1.7 1.4-4 1.4-2.8-0.1-4.6-1.9-1.8-1.9-1.9-4.6 0.1-2.7 1.9-4.6 1.8-1.8 4.6-1.9 2.7 0.1 4.6 1.9 1.8 1.9 1.9 4.6-0.1 2.3-1.4 4zm-14.3-8.2q0.1 2.1 1.5 3.5 1.4 1.4 3.5 1.5 2.1-0.1 3.5-1.5 1.4-1.4 1.5-3.5-0.1-2.1-1.5-3.5-1.4-1.4-3.5-1.5-2.1 0.1-3.5 1.5-1.4 1.4-1.5 3.5z"/>
	</g>
</svg>