<svg width="15" height="16" viewBox="0 0 15 16" fill="none" xmlns="http://www.w3.org/2000/svg">
<g clip-path="url(#clip0_82_119)">
<path fill-rule="evenodd" clip-rule="evenodd" d="M6.89212 0.161897C6.72685 0.339739 6.62446 0.551376 6.59613 0.773668C6.44122 1.72644 6.04979 5.55452 6.04979 6.12777V6.74974L5.26694 6.81771C3.82019 6.931 2.66943 7.14739 1.68465 7.45894C0.497926 7.83733 0 8.14887 0 8.52726C0 9.17868 0.604426 9.3203 3.71231 9.37241L6.19226 9.42113L6.12033 9.68396C5.75183 11.1129 5.50229 12.5607 5.37344 14.0173C5.29046 15.4459 5.43707 15.8549 6.00277 15.9682C6.74965 16.1234 7.02213 15.7733 8.67082 12.4562C9.14523 11.4943 9.5491 10.6968 9.56155 10.6775C9.60858 10.6197 11.4357 11.8727 12.3956 12.6216C13.3555 13.3704 13.6777 13.5052 13.9737 13.2628C14.1992 13.0781 14.1521 12.7858 13.7483 11.8535C13.2614 10.7206 12.5505 9.60918 11.9502 9.05519L11.4633 8.6077L11.7483 8.44343C12.2351 8.17153 13.7884 7.01484 14.3223 6.53902C14.9281 5.99409 15.0941 5.69387 14.9391 5.36306C14.7137 4.86798 14.0733 4.93596 11.343 5.72219C10.4412 5.97483 9.66943 6.18895 9.62241 6.18895C9.57538 6.18895 9.44398 5.7811 9.33748 5.28262C8.83956 2.98056 8.15214 0.483647 7.95436 0.259332C7.68741 -0.0420201 7.20055 -0.0907402 6.89212 0.161897ZM8.07884 5.23391C8.57676 6.84717 8.81328 7.23575 9.26418 7.18704C10.2019 7.10887 10.5214 7.04089 11.5187 6.73387C11.886 6.60907 12.2619 6.50202 12.6445 6.41326C12.6694 6.42346 12.3126 6.77353 11.8741 7.19044C10.9488 8.06504 10.4039 8.82295 10.5214 9.07559C10.6845 9.34113 10.8752 9.5947 11.0913 9.8335C11.3679 10.1541 11.6362 10.4849 11.6846 10.5529C11.8506 10.7863 11.1508 10.3263 10.4979 9.79498C9.80636 9.22173 9.40664 9.15376 8.96819 9.54235C8.81328 9.6783 8.30429 10.5234 7.84094 11.4173C6.87967 13.2537 6.72614 13.5064 6.80913 12.9909C6.84509 12.8062 6.94744 12.165 7.05809 11.5827C7.15781 10.9779 7.29632 10.3777 7.47303 9.78478C7.69848 9.07559 7.69848 9.04613 7.48548 8.81388C7.20885 8.50234 6.72614 8.44456 4.4426 8.43437C3.35131 8.4253 2.72337 8.38565 2.78285 8.33694C2.84232 8.28822 3.36238 8.17833 3.91563 8.08996C5.02213 7.9053 5.63624 7.73083 5.94467 7.49745C6.09388 7.39872 6.27519 7.33806 6.46611 7.32299C6.62389 7.30857 6.77468 7.26181 6.90456 7.18704C7.02351 7.08961 7.45782 4.62214 7.47441 3.97072C7.47441 3.78606 7.51037 3.65917 7.54634 3.68863C7.5823 3.71808 7.81743 4.41256 8.07884 5.23391Z" fill="#EA7010"/>
</g>
<defs>
<clipPath id="clip0_82_119">
<rect width="15" height="16" fill="white"/>
</clipPath>
</defs>
</svg>
