<svg width="24" height="24" viewBox="0 0 24 24" fill="none" xmlns="http://www.w3.org/2000/svg">
<g clip-path="url(#clip0_161_1762)">
<path opacity="0.936" fill-rule="evenodd" clip-rule="evenodd" d="M10.8984 -0.0234375C11.2266 -0.0234375 11.5547 -0.0234375 11.8828 -0.0234375C12.139 0.100483 12.3031 0.303608 12.375 0.585938C12.4063 1.78906 12.4063 2.99219 12.375 4.19531C12.2734 4.48438 12.0781 4.67969 11.7891 4.78125C9.21989 4.93608 7.24331 6.08452 5.85938 8.22656C4.45312 10.7265 4.45312 13.2266 5.85938 15.7266C7.24336 17.8686 9.21994 19.017 11.7891 19.1719C12.0781 19.2735 12.2734 19.4687 12.375 19.7578C12.4063 20.961 12.4063 22.164 12.375 23.3672C12.2992 23.6692 12.1195 23.8723 11.8359 23.9766C11.5234 23.9766 11.211 23.9766 10.8984 23.9766C10.4208 23.8981 10.0849 23.6325 9.89062 23.1797C9.80691 22.7007 9.72098 22.2241 9.63281 21.75C8.61286 21.4883 7.65192 21.0899 6.75 20.5547C6.30947 20.8493 5.86416 21.1384 5.41406 21.4219C5.03358 21.5393 4.67419 21.4924 4.33594 21.2812C3.73438 20.7735 3.17969 20.2187 2.67188 19.6172C2.44173 19.2411 2.41049 18.8505 2.57812 18.4453C2.86239 18.0443 3.13583 17.6381 3.39844 17.2266C2.89256 16.3423 2.50975 15.4048 2.25 14.4141C2.22656 14.3594 2.1875 14.3203 2.13281 14.2969C1.75788 14.2344 1.38288 14.1719 1.00781 14.1094C0.387942 13.9665 0.0441923 13.5836 -0.0234375 12.9609C-0.0234375 12.3047 -0.0234375 11.6484 -0.0234375 10.9922C0.0148994 10.4452 0.296149 10.0781 0.820312 9.89062C1.27254 9.80742 1.72566 9.72933 2.17969 9.65625C2.47679 8.63259 2.88303 7.65605 3.39844 6.72656C3.10183 6.29653 2.81277 5.85905 2.53125 5.41406C2.42031 5.03438 2.46718 4.67502 2.67188 4.33594C2.92187 4.05469 3.17188 3.77344 3.42188 3.49219C3.72656 3.21875 4.03125 2.94531 4.33594 2.67188C4.67419 2.46068 5.03358 2.41381 5.41406 2.53125C5.86416 2.81476 6.30947 3.10383 6.75 3.39844C7.66458 2.86437 8.63334 2.45812 9.65625 2.17969C9.72422 1.70924 9.80236 1.24049 9.89062 0.773438C10.0849 0.320667 10.4208 0.055042 10.8984 -0.0234375ZM10.9922 0.820312C11.1797 0.820312 11.3672 0.820312 11.5547 0.820312C11.5547 1.86719 11.5547 2.91406 11.5547 3.96094C8.19966 4.26274 5.84808 5.95027 4.5 9.02344C3.34576 12.441 4.04107 15.4175 6.58594 17.9531C8.00475 19.1947 9.66098 19.8744 11.5547 19.9922C11.5547 21.039 11.5547 22.086 11.5547 23.1328C11.3665 23.1406 11.179 23.1328 10.9922 23.1094C10.9021 23.0925 10.824 23.0534 10.7578 22.9922C10.6256 22.4024 10.5084 21.8086 10.4062 21.2109C10.3672 21.1094 10.2969 21.039 10.1953 21C9.6195 20.8717 9.057 20.6998 8.50781 20.4844C7.89427 20.1978 7.29267 19.8931 6.70312 19.5703C6.20245 19.8517 5.72592 20.1721 5.27344 20.5312C5.19028 20.5767 5.10436 20.6158 5.01562 20.6484C4.34531 20.1891 3.775 19.6266 3.30469 18.9609C3.59612 18.4739 3.91643 18.0052 4.26562 17.5547C4.39819 17.3765 4.41382 17.189 4.3125 16.9922C3.64991 15.9897 3.19678 14.8959 2.95312 13.7109C2.89622 13.6383 2.82591 13.5837 2.74219 13.5469C2.1611 13.446 1.58297 13.3367 1.00781 13.2188C0.895969 13.1303 0.84128 13.0131 0.84375 12.8672C0.801047 12.1931 0.81667 11.5212 0.890625 10.8516C0.929686 10.8125 0.968752 10.7734 1.00781 10.7344C1.53502 10.6205 2.06627 10.5267 2.60156 10.4531C2.74443 10.4247 2.86162 10.3544 2.95312 10.2422C3.19637 9.05878 3.6495 7.96505 4.3125 6.96094C4.41382 6.76416 4.39819 6.57666 4.26562 6.39844C3.95312 5.96095 3.64063 5.52342 3.32812 5.08594C3.29687 5.03906 3.29687 4.99219 3.32812 4.94531C3.7234 4.45614 4.15309 3.99521 4.61719 3.5625C4.73784 3.45738 4.87069 3.37144 5.01562 3.30469C5.52736 3.61138 6.01955 3.94732 6.49219 4.3125C6.56892 4.34068 6.64702 4.36412 6.72656 4.38281C7.28147 4.0819 7.84397 3.79284 8.41406 3.51562C9.02958 3.28361 9.65461 3.08048 10.2891 2.90625C10.3877 2.81051 10.4424 2.69333 10.4531 2.55469C10.5318 2.03582 10.6255 1.52019 10.7344 1.00781C10.8026 0.915689 10.8886 0.853186 10.9922 0.820312Z" fill="white"/>
<path opacity="0.944" fill-rule="evenodd" clip-rule="evenodd" d="M23.9762 11.6484C23.9762 11.8672 23.9762 12.0859 23.9762 12.3047C23.6742 13.0494 23.1273 13.3229 22.3355 13.125C22.0062 12.9832 21.7718 12.7488 21.6324 12.4219C18.5543 12.3984 15.4762 12.3906 12.398 12.3984C12.398 12.789 12.398 13.1797 12.398 13.5703C14.6821 13.5475 16.9633 13.571 19.2418 13.6406C19.6373 13.8017 19.8795 14.0908 19.9683 14.5078C19.9918 15.2889 19.9996 16.0702 19.9918 16.8516C20.5074 17.0405 20.773 17.4155 20.7887 17.9766C20.6939 18.8762 20.1939 19.2747 19.2887 19.1719C18.7026 18.9937 18.3902 18.5952 18.3512 17.9766C18.367 17.4446 18.617 17.0696 19.1012 16.8516C19.1558 16.1177 19.1636 15.3833 19.1246 14.6484C19.1028 14.5814 19.0637 14.5267 19.0074 14.4844C16.8083 14.4145 14.6051 14.3911 12.398 14.4141C12.398 14.7891 12.398 15.1641 12.398 15.5391C13.8825 15.5312 15.3669 15.5391 16.8512 15.5625C17.161 15.666 17.2625 15.8769 17.1558 16.1953C17.1011 16.25 17.0465 16.3047 16.9918 16.3594C15.4606 16.3828 13.9293 16.3906 12.398 16.3828C12.398 16.6328 12.398 16.8828 12.398 17.1328C13.306 17.1137 14.2122 17.1371 15.1168 17.2031C15.5263 17.3158 15.7998 17.5736 15.9371 17.9766C15.9974 18.9273 16.0286 19.8804 16.0308 20.8359C16.6104 21.1042 16.8604 21.5573 16.7808 22.1953C16.6357 22.8272 16.2373 23.171 15.5855 23.2266C14.5482 23.0276 14.181 22.4182 14.484 21.3984C14.6437 21.1527 14.8547 20.9652 15.1168 20.8359C15.1714 19.9926 15.1793 19.1489 15.1402 18.3047C15.0827 18.1076 14.9499 18.0061 14.7418 18C13.9293 17.9687 13.1168 17.9687 12.3043 18C12.1359 18.2601 11.8937 18.393 11.5777 18.3984C8.61367 18.0735 6.67619 16.4955 5.76522 13.6641C5.14296 10.7326 6.02575 8.38106 8.41366 6.60937C9.37825 5.99615 10.4329 5.64459 11.5777 5.55469C11.8937 5.56017 12.1359 5.69301 12.3043 5.95312C13.1324 5.98439 13.9605 5.98439 14.7887 5.95312C14.9774 5.93311 15.0946 5.83153 15.1402 5.64844C15.1793 4.80426 15.1714 3.9605 15.1168 3.11719C14.3449 2.66827 14.1652 2.04327 14.5777 1.24219C14.9756 0.777425 15.4678 0.644609 16.0543 0.843748C16.6206 1.1089 16.8627 1.55421 16.7808 2.17969C16.7034 2.63198 16.4534 2.94448 16.0308 3.11719C16.0152 4.00781 15.9996 4.89844 15.984 5.78906C15.8925 6.28683 15.6034 6.60712 15.1168 6.75C14.2124 6.81665 13.3062 6.84009 12.398 6.82031C12.398 7.0703 12.398 7.32033 12.398 7.57031C13.9137 7.56248 15.4293 7.57031 16.9449 7.59375C17.1201 7.65933 17.1982 7.78434 17.1793 7.96875C17.1801 8.1713 17.0863 8.31192 16.898 8.39062C15.3981 8.41406 13.8981 8.42189 12.398 8.41406C12.398 8.78906 12.398 9.16406 12.398 9.53906C14.6051 9.56203 16.8083 9.53859 19.0074 9.46875C19.0637 9.42642 19.1028 9.37176 19.1246 9.30469C19.1636 8.56983 19.1558 7.83544 19.1012 7.10156C18.4655 6.76767 18.239 6.25204 18.4215 5.55469C18.6903 4.92408 19.1668 4.66624 19.8512 4.78125C20.6508 5.06006 20.9399 5.61478 20.7183 6.44531C20.5849 6.78994 20.3427 7.0087 19.9918 7.10156C19.9996 7.88297 19.9918 8.66423 19.9683 9.44531C19.8795 9.86231 19.6373 10.1514 19.2418 10.3125C16.9633 10.3822 14.6821 10.4056 12.398 10.3828C12.398 10.7734 12.398 11.1641 12.398 11.5547C15.4763 11.5703 18.5545 11.5547 21.6324 11.5078C21.9795 10.8579 22.5108 10.6313 23.2262 10.8281C23.6015 10.9923 23.8515 11.2657 23.9762 11.6484ZM15.4449 1.61719C15.7433 1.57086 15.9151 1.69586 15.9605 1.99219C15.786 2.40736 15.5439 2.45423 15.234 2.13281C15.1766 1.90434 15.2469 1.73247 15.4449 1.61719ZM19.4762 5.60156C19.8347 5.59284 19.9831 5.76473 19.9215 6.11719C19.7768 6.36337 19.5815 6.41025 19.3355 6.25781C19.1298 5.98701 19.1766 5.76825 19.4762 5.60156ZM11.5074 6.39844C11.5621 10.1093 11.5698 13.8281 11.5308 17.5547C8.88967 17.1636 7.21778 15.6792 6.51522 13.1016C6.12944 10.4752 7.05911 8.4674 9.30428 7.07812C10.0051 6.72197 10.7395 6.49542 11.5074 6.39844ZM22.6637 11.6016C23.0222 11.5928 23.1706 11.7647 23.109 12.1172C22.984 12.3485 22.8044 12.4032 22.5699 12.2812C22.3252 12.0215 22.3565 11.7949 22.6637 11.6016ZM19.4762 17.6016C19.8347 17.5928 19.9831 17.7647 19.9215 18.1172C19.7768 18.3634 19.5815 18.4102 19.3355 18.2578C19.1298 17.987 19.1766 17.7682 19.4762 17.6016ZM15.4918 21.5859C15.9149 21.6455 16.0321 21.8642 15.8433 22.2422C15.4137 22.4259 15.2106 22.2853 15.234 21.8203C15.3151 21.7312 15.401 21.653 15.4918 21.5859Z" fill="white"/>
</g>
<defs>
<clipPath id="clip0_161_1762">
<rect width="24" height="24" fill="white"/>
</clipPath>
</defs>
</svg>
