<svg width="19" height="19" viewBox="0 0 19 19" fill="none" xmlns="http://www.w3.org/2000/svg">
<g clip-path="url(#clip0_2_353)">
<path d="M6.65 9.97498C2.945 9.97498 0 12.92 0 16.625V17.575H13.3V16.625C13.3 12.92 10.355 9.97498 6.65 9.97498ZM1.995 15.675C2.47 13.49 4.37 11.875 6.65 11.875C8.93 11.875 10.83 13.49 11.305 15.675H1.995Z" fill="#3F66EF"/>
<path d="M6.64961 9.02499C8.73961 9.02499 10.4496 7.31499 10.4496 5.22499C10.4496 3.13499 8.73961 1.42499 6.64961 1.42499C4.55961 1.42499 2.84961 3.13499 2.84961 5.22499C2.84961 7.31499 4.55961 9.02499 6.64961 9.02499ZM6.64961 3.32499C7.69461 3.32499 8.54961 4.17999 8.54961 5.22499C8.54961 6.26999 7.69461 7.12499 6.64961 7.12499C5.60461 7.12499 4.74961 6.26999 4.74961 5.22499C4.74961 4.17999 5.60461 3.32499 6.64961 3.32499Z" fill="#3F66EF"/>
<path d="M17.6705 5.69998L14.5355 8.83498L13.0155 7.40998L11.6855 8.73998L14.5355 11.59L19.0005 7.02998L17.6705 5.69998Z" fill="#3F66EF"/>
</g>
<defs>
<clipPath id="clip0_2_353">
<rect width="19" height="19" fill="white"/>
</clipPath>
</defs>
</svg>
