<svg width="26" height="40" viewBox="0 0 26 40" fill="none" xmlns="http://www.w3.org/2000/svg">
<path d="M25.5329 20.9329L24.503 20.353L24.5028 20.3533C24.2613 20.2076 23.9425 20.216 23.5927 20.4136L15.001 25.2689L16.0421 25.8561L25.5329 20.9329Z" fill="url(#paint0_linear_311_334)"/>
<path d="M24.6348 21.001L16.043 25.8563V33.2028L24.6348 28.3475C25.3887 27.9215 25.9999 26.7785 25.9999 25.7946V22.011C25.9999 21.0272 25.3887 20.575 24.6348 21.001Z" fill="url(#paint1_linear_311_334)"/>
<path d="M25.5329 13.1577L24.503 12.5777L24.5028 12.578C24.2613 12.4323 23.9425 12.4407 23.5927 12.6384L15.001 17.4935L16.0421 18.0808L25.5329 13.1577Z" fill="url(#paint2_linear_311_334)"/>
<path d="M24.6348 13.2258L16.043 18.0811V25.4277L24.6348 20.5724C25.3887 20.1464 25.9999 19.0034 25.9999 18.0195V14.2359C25.9999 13.252 25.3887 12.7997 24.6348 13.2258Z" fill="url(#paint3_linear_311_334)"/>
<path d="M25.5329 5.38196L24.503 4.80204L24.5028 4.80235C24.2613 4.65665 23.9425 4.66501 23.5927 4.86266L15.001 9.71789L16.0421 10.3052L25.5329 5.38196Z" fill="url(#paint4_linear_311_334)"/>
<path d="M24.6348 5.45007L16.043 10.3054V17.6519L24.6348 12.7966C25.3887 12.3706 25.9999 11.2276 25.9999 10.2437V6.46014C25.9999 5.47624 25.3887 5.02405 24.6348 5.45007Z" fill="url(#paint5_linear_311_334)"/>
<path d="M17.3502 1.11948L15.6535 0.164089L15.6533 0.164557C15.2554 -0.0754426 14.7302 -0.0616925 14.154 0.263854L0 8.26244L2.63663 15.1036L17.3502 1.11948Z" fill="url(#paint6_linear_311_334)"/>
<path d="M15.8719 1.23174L1.71777 9.23026V36.938L15.8718 28.9395C17.1138 28.2376 18.1206 26.3547 18.1206 24.7339V2.89573C18.1206 1.27487 17.1139 0.52987 15.8719 1.23174Z" fill="url(#paint7_linear_311_334)"/>
<path d="M20.0248 3.70104L17.0842 2.0451L17.0839 2.04557C16.686 1.80549 16.1608 1.81932 15.5847 2.14487L1.43066 10.1435V35.547L3.14851 36.5148L20.0248 3.70104Z" fill="url(#paint8_linear_311_334)"/>
<path d="M7.61615 12.6265L5.78193 11.0566L0 8.26245V35.9702L7.02565 40L7.61615 12.6265Z" fill="url(#paint9_linear_311_334)"/>
<path d="M7.02302 12.292L8.74086 11.3242L1.71529 7.29315L0 8.26245L7.02302 12.292Z" fill="url(#paint10_linear_311_334)"/>
<path d="M4.65802 16.4966C4.65802 17.4679 4.05468 17.9143 3.31046 17.4937C2.56623 17.0732 1.96289 15.9448 1.96289 14.9736C1.96289 14.0023 2.56623 13.5559 3.31046 13.9764C4.05468 14.3971 4.65802 15.5254 4.65802 16.4966Z" fill="url(#paint11_linear_311_334)"/>
<path d="M4.65802 25.041C4.65802 26.0123 4.05468 26.4587 3.31046 26.0381C2.56623 25.6176 1.96289 24.4893 1.96289 23.518C1.96289 22.5467 2.56623 22.1002 3.31046 22.5209C4.05468 22.9414 4.65802 24.0697 4.65802 25.041Z" fill="url(#paint12_linear_311_334)"/>
<path d="M4.65802 33.5854C4.65802 34.5566 4.05468 35.0031 3.31046 34.5825C2.56623 34.1619 1.96289 33.0337 1.96289 32.0623C1.96289 31.0911 2.56623 30.6446 3.31046 31.0652C4.05468 31.4858 4.65802 32.6141 4.65802 33.5854Z" fill="url(#paint13_linear_311_334)"/>
<path d="M22.6577 4.18158L20.961 3.22619L20.9609 3.22666C20.563 2.98658 20.0378 3.00041 19.4617 3.32596L5.30762 11.3245L7.02282 12.292L22.6577 4.18158Z" fill="url(#paint14_linear_311_334)"/>
<path d="M21.1804 4.29376L7.02637 12.2923V40L21.1804 32.0015C22.4224 31.2997 23.4292 29.4167 23.4292 27.7959V5.95774C23.4292 4.33688 22.4224 3.59188 21.1804 4.29376Z" fill="url(#paint15_linear_311_334)"/>
<path d="M11.9097 28.4788L18.5441 24.7296C19.0114 24.4656 19.3344 23.6735 19.1702 23.1951C18.7562 21.9884 17.892 21.3236 16.8009 21.3657C17.4245 20.3586 17.8039 19.1096 17.7314 18.0048C17.6302 16.464 16.6332 15.7442 15.4075 16.325C13.9378 17.0214 12.7135 19.2296 12.7135 21.1191C12.7135 22.1528 13.0803 22.867 13.6528 23.1446C12.5617 24.3357 11.6975 25.9773 11.2835 27.6519C11.1194 28.3157 11.4423 28.7428 11.9097 28.4788Z" fill="url(#paint16_linear_311_334)"/>
<defs>
<linearGradient id="paint0_linear_311_334" x1="20.8817" y1="22.7535" x2="33.3831" y2="15.3794" gradientUnits="userSpaceOnUse">
<stop stop-color="#2F878A"/>
<stop offset="1" stop-color="#9BF0DF"/>
</linearGradient>
<linearGradient id="paint1_linear_311_334" x1="15.5998" y1="35.1881" x2="23.9978" y2="20.7258" gradientUnits="userSpaceOnUse">
<stop stop-color="#2F878A"/>
<stop offset="1" stop-color="#9BF0DF"/>
</linearGradient>
<linearGradient id="paint2_linear_311_334" x1="20.5156" y1="15.1851" x2="33.017" y2="7.811" gradientUnits="userSpaceOnUse">
<stop stop-color="#802129"/>
<stop offset="1" stop-color="#FF4757"/>
</linearGradient>
<linearGradient id="paint3_linear_311_334" x1="15.5998" y1="27.4127" x2="23.9978" y2="12.9506" gradientUnits="userSpaceOnUse">
<stop stop-color="#802129"/>
<stop offset="1" stop-color="#FF4757"/>
</linearGradient>
<linearGradient id="paint4_linear_311_334" x1="13.8285" y1="11.1883" x2="26.3299" y2="3.81421" gradientUnits="userSpaceOnUse">
<stop stop-color="#FFA538"/>
<stop offset="0.3535" stop-color="#FCF3B3"/>
<stop offset="1" stop-color="#F7E041"/>
</linearGradient>
<linearGradient id="paint5_linear_311_334" x1="15.5998" y1="19.637" x2="23.9978" y2="5.17485" gradientUnits="userSpaceOnUse">
<stop stop-color="#E37A34"/>
<stop offset="1" stop-color="#FFC538"/>
</linearGradient>
<linearGradient id="paint6_linear_311_334" x1="2.02881" y1="11.2815" x2="22.2708" y2="-0.658482" gradientUnits="userSpaceOnUse">
<stop stop-color="#59ACF9"/>
<stop offset="1" stop-color="#A3E7FE"/>
</linearGradient>
<linearGradient id="paint7_linear_311_334" x1="9.91926" y1="34.8262" x2="-1.15256" y2="15.2343" gradientUnits="userSpaceOnUse">
<stop stop-color="#59ACF9"/>
<stop offset="0.0363" stop-color="#2F97F7"/>
<stop offset="1" stop-color="#A3E7FE"/>
</linearGradient>
<linearGradient id="paint8_linear_311_334" x1="12.3897" y1="17.6215" x2="30.8255" y2="6.74692" gradientUnits="userSpaceOnUse">
<stop stop-color="#DFDAEF"/>
<stop offset="1" stop-color="white"/>
</linearGradient>
<linearGradient id="paint9_linear_311_334" x1="3.80811" y1="29.4613" x2="3.80811" y2="-0.139262" gradientUnits="userSpaceOnUse">
<stop stop-color="#59ACF9"/>
<stop offset="1" stop-color="#A3E7FE"/>
</linearGradient>
<linearGradient id="paint10_linear_311_334" x1="1.67282" y1="11.3178" x2="23.3156" y2="-1.44855" gradientUnits="userSpaceOnUse">
<stop stop-color="#59ACF9"/>
<stop offset="1" stop-color="#A3E7FE"/>
</linearGradient>
<linearGradient id="paint11_linear_311_334" x1="3.31046" y1="17.4952" x2="3.31046" y2="13.785" gradientUnits="userSpaceOnUse">
<stop stop-color="#DFDAEF"/>
<stop offset="1" stop-color="white"/>
</linearGradient>
<linearGradient id="paint12_linear_311_334" x1="3.31046" y1="26.0396" x2="3.31046" y2="22.3293" gradientUnits="userSpaceOnUse">
<stop stop-color="#DFDAEF"/>
<stop offset="1" stop-color="white"/>
</linearGradient>
<linearGradient id="paint13_linear_311_334" x1="3.31046" y1="34.584" x2="3.31046" y2="30.8737" gradientUnits="userSpaceOnUse">
<stop stop-color="#DFDAEF"/>
<stop offset="1" stop-color="white"/>
</linearGradient>
<linearGradient id="paint14_linear_311_334" x1="3.37618" y1="13.7468" x2="23.9707" y2="1.59879" gradientUnits="userSpaceOnUse">
<stop stop-color="#59ACF9"/>
<stop offset="1" stop-color="#A3E7FE"/>
</linearGradient>
<linearGradient id="paint15_linear_311_334" x1="15.2278" y1="37.8899" x2="4.15593" y2="18.2978" gradientUnits="userSpaceOnUse">
<stop stop-color="#59ACF9"/>
<stop offset="0.0363" stop-color="#2F97F7"/>
<stop offset="1" stop-color="#A3E7FE"/>
</linearGradient>
<linearGradient id="paint16_linear_311_334" x1="15.2269" y1="26.0369" x2="11.8739" y2="20.1037" gradientUnits="userSpaceOnUse">
<stop stop-color="#DFDAEF"/>
<stop offset="1" stop-color="white"/>
</linearGradient>
</defs>
</svg>
